<svg fill="none" height="65" viewBox="0 0 60 65" width="60" xmlns="http://www.w3.org/2000/svg"><g fill="#adccea"><path d="m30.8824 64.251c-7.909 0-14.0855-14.0855-14.0855-32.1632.0753-18.0023 6.2518-32.0878 14.0855-32.0878 7.909 0 14.0855 14.0855 14.0855 32.1632 0 18.0023-6.1765 32.0878-14.0855 32.0878zm0-61.91597c-6.4025 0-11.7505 13.63357-11.7505 29.82817 0 16.1945 5.348 29.8281 11.7505 29.8281s11.7505-13.6336 11.7505-29.8281c0-16.1946-5.348-29.82817-11.7505-29.82817z"/><path d="m48.8098 52.0486c-6.9297 0-15.9686-2.787-24.7814-7.683-7.3064-4.0675-13.5582-9.1142-17.62572-14.1609-4.21812-5.3479-5.49862-10.244-3.61553-13.7089 1.58179-2.8623 5.122-4.3687 10.16865-4.3687 6.9298 0 15.9686 2.7869 24.7815 7.683 7.3817 4.0674 13.6335 9.1141 17.6257 14.2361 4.2181 5.348 5.4986 10.244 3.6155 13.6336-1.5818 2.8623-5.122 4.3688-10.1687 4.3688zm-35.854-37.5865c-4.14277 0-7.00506 1.1299-8.13492 3.1636-1.43114 2.561-.15064 6.5531 3.38956 11.0726 3.84146 4.896 9.86736 9.7167 16.94776 13.6335 8.2856 4.5948 17.1738 7.3817 23.6516 7.3817 4.1428 0 7.0051-1.1298 8.135-3.1636 1.4311-2.561.1506-6.6284-3.3896-11.0725-3.8415-4.8207-9.8674-9.7168-16.9478-13.6336-8.2856-4.5947-17.1737-7.3817-23.6516-7.3817z"/><path d="m13.0312 52.0485c-5.12205 0-8.66226-1.5064-10.24405-4.3687-1.883091-3.4649-.60259-8.2856 3.61553-13.6336 4.06752-5.0467 10.31932-10.0933 17.70102-14.1608 8.7375-4.8207 17.7011-7.6077 24.7061-7.6077 5.1221 0 8.6623 1.5065 10.2441 4.3688 1.883 3.4649.6025 8.2856-3.6156 13.6335-4.0675 5.0467-10.3946 10.0934-17.7763 14.1609-8.7376 4.8207-17.7011 7.6076-24.6308 7.6076zm35.7786-37.5111c-6.4778 0-15.2906 2.7117-23.5762 7.3064-7.1558 3.9168-13.1817 8.7375-17.02315 13.5582-3.61554 4.5195-4.82071 8.5869-3.46489 11.0726 1.20518 2.1091 4.06747 3.2389 8.28564 3.2389 6.4778 0 15.2906-2.7116 23.5762-7.3064 7.1558-3.9168 13.1817-8.7375 17.0232-13.5582 3.5402-4.5194 4.8207-8.5116 3.3895-11.0726-1.1298-2.109-4.0675-3.2389-8.2103-3.2389z"/><path d="m34.724 32.0878c0 2.1091-1.7324 3.8415-3.8415 3.8415-2.109 0-3.8415-1.7324-3.8415-3.8415 0-2.109 1.7325-3.8415 3.8415-3.8415 2.1091 0 3.8415 1.7325 3.8415 3.8415z"/><path d="m42.4074 57.3965c0 2.1091-1.6572 3.7662-3.7662 3.7662-2.1091 0-3.7662-1.7324-3.7662-3.7662 0-2.109 1.7324-3.7661 3.7662-3.7661 2.109 0 3.7662 1.7324 3.7662 3.7661z"/><path d="m7.53236 26.6645c0 2.1091-1.73245 3.7662-3.76618 3.7662-2.10906 0-3.76618-1.7324-3.76618-3.7662 0-2.109 1.73244-3.7661 3.76618-3.7661 2.03373-.0754 3.76618 1.6571 3.76618 3.7661z"/><path d="m53.9318 13.3323c0 2.1091-1.7325 3.7662-3.7662 3.7662s-3.7662-1.7324-3.7662-3.7662c0-2.109 1.6571-3.76614 3.7662-3.76614 2.109 0 3.7662 1.65714 3.7662 3.76614z"/></g></svg>