<svg fill="none" height="50" viewBox="0 0 74 50" width="74" xmlns="http://www.w3.org/2000/svg" xmlns:xlink="http://www.w3.org/1999/xlink"><clipPath id="a"><path d="m0 0h73.1v50h-73.1z"/></clipPath><g clip-path="url(#a)" fill="#adccea"><path d="m6.70039 39.6c-1 0-1.8-.8-1.8-1.8v-36c0-1 .8-1.8 1.8-1.8s1.8.8 1.8 1.8v36.1c0 .9-.8 1.7-1.8 1.7z"/><path d="m66.3996 39.6c-1 0-1.8-.8-1.8-1.8v-21.1c0-1 .8-1.8 1.8-1.8s1.8.8 1.8 1.8v21.1c0 1-.8 1.8-1.8 1.8z"/><path d="m66.3996 30.6h-58.49999c-1 0-1.8-.8-1.8-1.8s.8-1.8 1.8-1.8h58.49999c1 0 1.8.8 1.8 1.8s-.8 1.8-1.8 1.8z"/><path d="m6.7 50c-3.7 0-6.7-3-6.7-6.7s3-6.7 6.7-6.7 6.7 3 6.7 6.7-3 6.7-6.7 6.7zm0-9.8c-1.7 0-3.1 1.4-3.1 3.1s1.4 3.1 3.1 3.1 3.1-1.4 3.1-3.1-1.4-3.1-3.1-3.1z"/><path d="m66.4002 50c-3.7 0-6.7-3-6.7-6.7s3-6.7 6.7-6.7 6.7 3 6.7 6.7-3 6.7-6.7 6.7zm0-9.8c-1.7 0-3.1 1.4-3.1 3.1s1.4 3.1 3.1 3.1 3.1-1.4 3.1-3.1-1.4-3.1-3.1-3.1z"/><path d="m66.3996 36.4001h-58.49999c-.7 0-1.3-.6001-1.3-1.3001s.6-1.3 1.3-1.3h58.49999c.7 0 1.3.6 1.3 1.3s-.6 1.3001-1.3 1.3001z"/><path d="m25.1004 24h-11.4c-1 0-1.8-.8-1.8-1.8s.8-1.8 1.8-1.8h11.5c1 0 1.8.8 1.8 1.8-.1 1-.9 1.8-1.9 1.8z"/></g></svg>