<svg fill="none" height="52" viewBox="0 0 59 52" width="59" xmlns="http://www.w3.org/2000/svg"><g fill="#adccea"><path d="m57.4625 52h-55.92504c-.76873 0-1.53746-.7675-1.53746-1.5351v-37.9926c0-.7675.76873-1.535 1.53746-1.535h11.14654c.7688 0 1.5375.7675 1.5375 1.535 0 .9594-.7687 1.7269-1.5375 1.7269h-9.60908v34.9226h52.85018v-34.9226h-9.8013c-.7688 0-1.5375-.7675-1.5375-1.535s.7687-1.5351 1.5375-1.5351h11.3387c.7688 0 1.5375.7676 1.5375 1.5351v37.9926c0 .7675-.5765 1.3432-1.5375 1.3432z"/><path d="m40.5509 18.4206h-21.7166c-.7687 0-1.5374-.7675-1.5374-1.535v-8.63472c0-.76753.7687-1.53506 1.5374-1.53506h21.7166c.7688 0 1.5375.76753 1.5375 1.53506v8.63472c0 .7675-.7687 1.535-1.5375 1.535zm-20.1791-3.0701h18.6417v-5.56457h-18.6417z"/><path d="m29.5961 9.21033c-.7688 0-1.5375-.76753-1.5375-1.53505v-6.14022c0-.767532.7687-1.53506 1.5375-1.53506.7687 0 1.5374.767528 1.5374 1.53506v6.14022c0 .76752-.5765 1.53505-1.5374 1.53505z"/><path d="m17.6812 37.8007c-4.4202 0-7.87944-3.4538-7.87944-7.8671s3.45924-7.8672 7.87944-7.8672 7.8795 3.4539 7.8795 7.8672-3.4593 7.8671-7.8795 7.8671zm0-13.4317c-3.0749 0-5.5733 2.4945-5.5733 5.5646s2.4984 5.5645 5.5733 5.5645c3.075 0 5.5733-2.4944 5.5733-5.5645s-2.4983-5.5646-5.5733-5.5646z"/><path d="m25.5609 42.7897c-.3844 0-.7688-.1919-.9609-.5757-1.7297-2.8782-4.2281-4.4132-6.7264-4.4132-2.4984 0-4.9968 1.535-6.7264 4.4132-.3844.5757-1.15311.7676-1.53748.3838-.57654-.3838-.76872-1.1513-.38436-1.5351 2.11404-3.4538 5.38114-5.5645 8.84034-5.5645 3.4593 0 6.5342 1.9188 8.8404 5.5645.3844.5757.1922 1.3432-.3843 1.5351-.5766 0-.7688.1919-.9609.1919z"/><path d="m48.8143 34.347h-12.6841c-.9609 0-1.5374-.7676-1.5374-1.5351 0-.9594.7687-1.535 1.5374-1.535h12.6841c.9609 0 1.5374.7675 1.5374 1.535s-.5765 1.5351-1.5374 1.5351z"/><path d="m42.472 40.679c-.9609 0-1.5374-.7675-1.5374-1.535v-12.6642c0-.9595.7687-1.5351 1.5374-1.5351.9609 0 1.5375.7675 1.5375 1.5351v12.6642c0 .7675-.7687 1.535-1.5375 1.535z"/></g></svg>