<svg fill="none" height="54" viewBox="0 0 54 54" width="54" xmlns="http://www.w3.org/2000/svg"><g fill="#adccea"><path d="m26.9468 54c-7.1321 0-13.8113-2.717-18.90567-7.6981-5.09433-5.0944-7.924523-11.8868-8.03773014-19.0189-.11320786-7.2453 2.60377014-14.0377 7.69811014-19.13206 5.09439-5.20754 11.77359-8.037732 19.01889-8.15094h.3396c12.7925 0 23.8868 9.16981 26.3774 21.8491.1132.566-.2265 1.132-.7925 1.2452s-1.1321-.2264-1.2453-.7924c-2.2641-11.7736-12.4528-20.26416-24.4528-20.26416-.1132 0-.2264 0-.2264 0-6.6793.1132-12.9057 2.71698-17.54719 7.47169-4.64151 4.75467-7.24528 11.09437-7.13207 17.77357.1132 6.6793 2.71698 12.9057 7.47169 17.5472 4.75467 4.6415 10.98117 7.1321 17.66037 7.1321 11.5472-.1132 21.7359-8.3774 24.1132-19.6982.1132-.566.6793-.9056 1.2453-.7924s.9057.6792.7925 1.2453c-2.6038 12.4528-13.3585 21.1698-26.151 21.283 0 0-.1132 0-.2264 0z"/><path d="m49.1356 41.434c-.1132 0-.3396 0-.4529-.1132-.4528-.2264-.6792-.9057-.3396-1.3585 2.0378-3.7359 2.717-6.2264 2.9434-7.2453l-5.0943-5.6604c-.4529-.566-1.1321-.9056-1.9246-.9056-.7924-.1132-1.4716.2264-1.9245.6792l-3.7358 3.5094c-.4529.3397-1.0189.3397-1.4717 0-.3396-.4528-.3396-1.0188 0-1.4717l3.7358-3.5094c.9057-.9057 2.151-1.3585 3.3962-1.2453 1.2453 0 2.4906.5661 3.2831 1.5849l5.4339 6.1132c.2264.2265.3397.5661.2264.7925 0 .1132-.4528 3.1698-3.283 8.3774 0 .2264-.4528.4528-.7924.4528z"/><path d="m26.494 36.5661c-.4528 0-.9056 0-1.3584-.1132-.4529-.1132-.7925-.4529-.7925-1.0189 0-.4528.566-.7925 1.0189-.7925 5.8868.7925 7.3585-4.0754 7.4717-4.3018.7924-1.4717.566-2.0378.4528-2.151-.2264-.3396-.7925-.3396-1.1321-.4528-.2264.2264-.566.7924-.9056 1.2453-.6793 1.0188-1.4717 2.2641-2.3774 2.7169-1.6981 1.0189-4.8679-1.132-6.2264-2.0377-.3396-.2264-.4528-.7924-.2264-1.2453.3396-.3396.7924-.4528 1.2453-.2264 1.9245 1.3585 3.849 2.151 4.1886 2.0377.5661-.3396 1.2453-1.4716 1.8114-2.2641.9056-1.2453 1.4717-2.0377 2.2641-2.0377.566 0 2.0377.1132 2.717 1.2452.566.9057.3396 2.151-.4528 3.6227.1132.2264-1.5849 5.7736-7.6982 5.7736z"/><path d="m29.6641 47.2076c-2.4906 0-5.2075-1.0189-8.0377-3.0566-8.4906-5.8868-8.0378-13.6981-7.8114-15.6227-1.3584-1.4717-6.11316-7.0188-4.41505-12.9056.90565-2.8302 3.05665-4.9812 6.11325-6.11324 3.3962-1.24529 7.4717-.90566 10.1886.90564 5.3208 3.5095 3.7359 9.283 2.717 11.2076.1132.6792.9057 1.2452 1.4717 1.4717.3396.1132.4528.4528.4528.7924 0 .1132 0 2.717-1.9245 4.5283-1.2453 1.1321-3.0566 1.6981-5.2075 1.4717-.4529 0-.7925-.4528-.7925-.9056 0-.4529.4528-.7925.9057-.7925 1.6981.1132 3.0566-.2264 3.849-1.0189.9057-.9056 1.2453-2.0377 1.3585-2.7169-.566-.3397-1.5849-1.0189-1.8113-2.0378-.2264-.566-.1132-1.1321.1132-1.5849 0 0 2.9434-5.5472-2.1509-8.9434-2.2642-1.4717-5.6604-1.8113-8.6038-.7924-2.4906.9056-4.3019 2.7169-4.9811 4.9811-1.69815 5.5472 4.1886 11.3207 4.3019 11.434.2264.2264.3396.566.2264.7924-.1132.3396-1.6981 8.2642 7.0188 14.3774 3.3963 2.3773 6.4529 3.1698 8.9434 2.4905 2.6038-.7924 4.0755-3.0566 4.5283-4.4151 1.3585-3.5094 2.9434-3.849 5.3208-3.3962 1.3585.3396 2.3773-.1132 2.717-1.0189.2264-.566.1132-1.2452-.2265-1.4717-1.2452-.7924-3.849-1.132-7.0188-.9056-.7925 0-2.4906 1.8113-3.7359 3.5094-.1132.2264-.3396.3396-.566.3396s-.4528 0-.6792-.1132l-2.8302-2.0377c-.3397-.2264-.4529-.7925-.2265-1.2453.3397-.3396.7925-.4528 1.2453-.2264l2.151 1.5849c1.0188-1.2453 2.9434-3.3962 4.5283-3.5094 2.6038-.2264 6-.2264 8.0377 1.132 1.0189.6793 1.3585 2.2642.7925 3.6227-.3397 1.4717-1.8114 2.6038-4.4151 2.1509-1.4717-.3396-2.2642-.4528-3.3963 2.2642-.1132.4528-1.6981 4.1887-5.6603 5.4339-.7925.2265-1.5849.3397-2.4906.3397z"/><path d="m22.5319 21.5094c0 .566-.4529 1.0189-1.0189 1.0189s-1.0189-.4529-1.0189-1.0189.4529-1.0189 1.0189-1.0189 1.0189.4529 1.0189 1.0189z"/></g></svg>