<svg fill="none" height="66" viewBox="0 0 45 66" width="45" xmlns="http://www.w3.org/2000/svg"><g fill="#adccea"><path d="m16.3111 17.4888c-4.8058 0-8.73786-3.935-8.73786-8.74441 0-4.80941 3.93206-8.74439 8.73786-8.74439s8.7379 3.93498 8.7379 8.74439-3.9321 8.74441-8.7379 8.74441zm0-15.3027c-3.6408 0-6.55339 2.9148-6.55339 6.55829 0 3.64351 2.91259 6.70401 6.55339 6.70401s6.5534-2.9148 6.5534-6.70401c0-3.64349-2.9126-6.55829-6.5534-6.55829z"/><path d="m22.7184 65h-2.0388c-.8738 0-1.7476-.2915-2.3301-1.0202-.5825-.583-1.0194-1.4574-.8738-2.3318l.1457-14.2826h-2.4758l-.2912 13.8453c0 1.0202-.4369 2.0404-1.1651 2.7691-.7281.7287-1.7476 1.1659-2.767 1.1659h-2.0388c-.87379 0-1.74758-.2915-2.3301-1.0202-.58253-.5829-1.01942-1.4574-.87379-2.3318l.14563-15.1569c-.43689.2914-.87378.5829-1.60194.4372h-1.16505c-.87378 0-1.74757-.4373-2.330095-1.3117-.436893-.7287-.728155-1.6031-.728155-2.6233l.145631-17.1973c0-1.7489.582524-3.4978 1.456309-4.8094 1.01942-1.3117 2.3301-2.0404 3.78641-2.1861l14.27185.1457c.5825 0 1.0194.4372 1.0194 1.0202 0 .5829-.5825 1.0202-1.0194 1.0202l-14.27185-.1458c-.72816 0-1.45631.4372-2.03884 1.3117-.72815.8744-1.01941 2.1861-1.01941 3.4977l-.14563 17.3431c0 .583.14563 1.0202.43689 1.4574.14563.2915.43689.4372.58252.4372h1.16505c.29126 0 .4369-.1457.72816-.4372.29126-.4372.43689-1.0202.43689-1.6031l.14563-14.7198c0-.2915.14563-.5829.43689-.8744l.4369-.2915c.29126-.2915.72815-.2915 1.16505-.1457.43689.1457.58252.5829.58252 1.0201l-.43689 33.666c0 .2914.14563.5829.29126.8744.29126.1457.58252.2915.87379.2915h2.03887c.4369 0 .8737-.1458 1.165-.4372.2913-.2915.4369-.7287.4369-1.166l.1456-14.8654c0-.583.4369-1.0202 1.0195-1.0202h4.6601c.2913 0 .5826.1457.7282.2915.1456.1457.2913.4372.2913.7287l-.1457 15.4484c0 .2915.1457.583.2913.8744.2913.2915.4369.2915.8738.2915h2.0388c.4369 0 .8738-.1457 1.1651-.4372.2912-.2915.4369-.7287.4369-1.1659v-7.1413c0-.5829.5825-1.0202 1.0194-1.0202.5825 0 1.0194.4373 1.0194 1.0202v7.1413c0 1.0202-.4369 2.0403-1.1651 2.769-.4368.583-1.3106.8745-2.3301.8745z"/><path d="m33.3491 50.1345h-9.4661c-.5825 0-1.0194-.4372-1.0194-1.0202v-9.6188h-9.7573c-.5825 0-1.0194-.4372-1.0194-1.0202v-9.4731c0-.5829.4369-1.0202 1.0194-1.0202h9.6117v-9.6188c0-.583.4369-1.0202 1.0194-1.0202h9.466c.5825 0 1.0194.4372 1.0194 1.0202v9.6188h9.6117c.5825 0 1.0194.4373 1.0194 1.0202v9.4731c0 .583-.4369 1.0202-1.0194 1.0202h-9.6117v9.6188c.1457.4372-.2912 1.0202-.8737 1.0202zm-8.4467-2.1861h7.4272v-9.6188c0-.583.4369-1.0202 1.0195-1.0202h9.6116v-7.4328h-9.6116c-.5826 0-1.0195-.4372-1.0195-1.0201v-9.6189h-7.4272v9.6189c0 .5829-.4368 1.0201-1.0194 1.0201h-9.7573v7.4328h9.6117c.5825 0 1.0194.4372 1.0194 1.0202v9.6188z"/></g></svg>