<svg fill="none" height="47" viewBox="0 0 56 47" width="56" xmlns="http://www.w3.org/2000/svg" xmlns:xlink="http://www.w3.org/1999/xlink"><clipPath id="a"><path d="m0 0h55.1v46.9h-55.1z"/></clipPath><g clip-path="url(#a)" fill="#adccea"><path d="m24.8998 36.1c-.4 0-.8-.2-1-.4l-7.4-7.3c-.6-.6-.6-1.5 0-2.1l23.7-24.5c2.3-2.399996 6.4-2.399996 8.8-.1l.6.6c1.2 1.2 1.9 2.7 1.9 4.4s-.6 3.2-1.8 4.4l-23.7 24.5c-.3.3-.7.5-1.1.5zm-5.3-8.8 5.3 5.2 22.8-23.4c.6-.6.9-1.4.9-2.3s-.4-1.7-1-2.3l-.6-.7c-1.2-1.2-3.4-1.2-4.6.1z"/><path d="m1.5 46.9001c-.6 0-1.1-.4001-1.4-.9001-.2-.5-.1-1.2.3-1.5999l13.6-13.9001c.6-.6 1.5-.6 2.1 0s.6 1.5 0 2.1l-11 11.3001 7-.1001 7.6-7.8c.6-.6 1.5-.6 2.1 0s.6 1.5 0 2.1l-8 8.2c-.3.3-.7.4001-1 .4001z"/><path d="m35.4998 17.5c-.3 0-.6-.1-.9-.4l-2.8-2.8c-.5-.5-.5-1.3 0-1.8s1.3-.5 1.8 0l2.8 2.8c.5.5.5 1.3 0 1.8-.2.3-.5.4-.9.4z"/><path d="m31.4002 21.8c-.3 0-.7-.1-.9-.4l-2.8-2.8c-.5-.5-.5-1.3 0-1.8s1.3-.5 1.8 0l2.8 2.8c.5.5.5 1.3 0 1.8-.2.2-.6.4-.9.4z"/><path d="m40.2 12.7c-.3 0-.6-.1-.9-.4l-2.8-2.80005c-.5-.5-.5-1.3 0-1.8s1.3-.5 1.8 0l2.8 2.80005c.5.5.5 1.3 0 1.8-.2.3-.6.4-.9.4z"/><path d="m25.5996 46.6h-4.9c-.6 0-1.1-.5-1.1-1.1s.5-1.1 1.1-1.1h4.9c.6 0 1.1.5 1.1 1.1.1.6-.4 1.1-1.1 1.1z"/><path d="m35.2002 46.6h-4.9c-.6 0-1.1-.5-1.1-1.1s.5-1.1 1.1-1.1h4.9c.6 0 1.1.5 1.1 1.1s-.5 1.1-1.1 1.1z"/><path d="m44.5 46.6h-4.9c-.6 0-1.1-.5-1.1-1.1s.5-1.1 1.1-1.1h4.9c.6 0 1.1.5 1.1 1.1s-.5 1.1-1.1 1.1z"/><path d="m54 46.6h-4.9c-.6 0-1.1-.5-1.1-1.1s.5-1.1 1.1-1.1h4.9c.6 0 1.1.5 1.1 1.1s-.5 1.1-1.1 1.1z"/></g></svg>