<svg width="1440" height="500" viewBox="0 0 1440 500" fill="none" xmlns="http://www.w3.org/2000/svg">
<g clip-path="url(#clip0)">
<path d="M0 5C0 2.23857 2.23858 0 5 0H1435C1437.76 0 1440 2.23858 1440 5V495C1440 497.761 1437.76 500 1435 500H4.99998C2.23856 500 0 497.761 0 495V5Z" fill="#6DA8DB"/>
<g clip-path="url(#clip1)">
<path d="M1450.29 577.64C1482.19 573.907 1507.56 548.709 1519.13 520.711C1536.1 479.461 1532.37 432.424 1530.51 389.12C1527.34 318.565 1509.24 262.009 1469.51 204.333C1431.82 149.831 1393.58 110.82 1329.6 78.3423C1197.71 12.0803 935.609 35.7853 899.046 200.04C888.226 248.944 912.477 305.5 896.434 353.843C884.495 389.68 863.042 421.785 852.969 458.182C842.522 495.513 841.962 544.603 880.391 568.494C920.312 593.319 974.784 571.854 1021.79 581H1426.6L1450.29 577.64Z" fill="#EEF3FB"/>
<path d="M1136.15 243.344C1136.15 243.344 1130.74 277.315 1125.51 283.474C1120.29 289.634 1094.92 306.806 1094.92 306.806L1100.33 312.592C1105.37 313.152 1141.74 303.259 1148.27 285.714C1156.48 263.129 1154.61 248.943 1154.61 248.943L1136.15 243.344Z" fill="#F29495"/>
<path d="M1406.45 341.523C1406.45 341.523 1435.55 331.071 1439.84 332.937C1442.27 334.057 1458.87 367.095 1454.58 369.708C1450.29 372.321 1434.25 348.616 1425.11 349.736C1415.97 351.043 1408.32 354.962 1408.32 354.962L1406.45 341.523Z" fill="#F29595"/>
<path d="M1427.72 334.804C1443.2 348.99 1442.46 356.083 1440.22 359.069C1446.37 365.042 1452.16 371.201 1454.39 369.708C1458.69 367.095 1442.08 334.057 1439.66 332.937C1438.17 332.378 1433.32 333.311 1427.72 334.804Z" fill="#1E1B32"/>
<path d="M1275.31 472.367C1275.31 472.367 1278.85 503.912 1276.06 507.832C1274.38 510.071 1237.07 519.031 1235.39 514.178C1233.71 509.325 1261.69 498.686 1262.62 489.166C1263.56 479.647 1261.32 471.061 1261.32 471.061L1275.31 472.367Z" fill="#F29595"/>
<path d="M1276.99 495.326C1258.89 507.645 1251.99 505.032 1249.38 502.232C1241.92 507.085 1234.27 511.378 1235.2 513.991C1236.88 518.844 1274.19 509.885 1275.87 507.645C1276.99 506.338 1277.18 501.112 1276.99 495.326Z" fill="#1E1B32"/>
<path d="M1228.49 126.125C1226.62 132.285 1232.22 139.751 1228.3 144.791C1227.37 145.911 1226.25 146.657 1225.5 147.964C1223.82 150.577 1224.94 154.31 1227.37 156.363C1229.79 158.23 1233.15 158.79 1236.14 158.603C1239.31 158.417 1242.29 157.483 1245.28 157.11C1252.18 156.363 1259.08 158.23 1265.98 158.976C1273.07 159.91 1280.35 159.723 1286.88 162.523C1294.34 165.696 1300.12 172.042 1306.28 177.082C1312.81 182.308 1320.08 186.415 1327.92 189.214C1332.02 190.708 1336.31 191.827 1340.6 191.081C1349.18 189.774 1355.15 181.188 1354.59 172.789C1354.41 167.936 1352.17 163.456 1349 159.91C1346.2 156.737 1341.91 154.683 1340.23 150.39C1337.99 144.604 1342.65 138.258 1343.03 132.098C1343.4 126.872 1340.6 121.459 1336.68 118.099C1333.14 114.926 1327.92 112.873 1326.05 108.207C1324 102.98 1326.98 97.7541 1327.92 92.7145C1329.41 85.435 1326.8 77.7822 1322.13 72.1826C1320.64 70.5027 1319.15 69.0095 1317.28 67.5163C1305.53 58.1836 1287.25 55.9438 1277.55 69.5695C1274.56 73.6759 1272.89 78.9021 1268.97 82.2619C1264.68 85.8083 1258.34 86.7416 1254.98 91.2213C1250.87 97.0075 1254.04 105.594 1250.13 111.38C1247.52 115.113 1242.85 116.606 1238.37 118.099C1234.46 119.406 1229.79 121.646 1228.49 126.125Z" fill="#251E53"/>
<path d="M1351.79 149.084C1351.79 149.084 1400.67 128.925 1406.27 80.5821L1396.94 80.3954C1396.94 80.3954 1382.2 119.406 1339.48 131.165L1351.79 149.084Z" fill="#F29595"/>
<path d="M1243.41 130.605C1241.55 130.045 1209.83 113.62 1205.36 46.9844L1194.91 48.6643C1194.91 48.6643 1192.86 137.885 1225.88 151.884L1243.41 130.605Z" fill="#F29595"/>
<path d="M1293.97 130.418C1293.97 130.418 1314.11 132.098 1323.44 130.418C1332.77 128.739 1342.84 124.445 1342.84 124.445L1355.15 157.67C1355.15 157.67 1323.63 167.002 1324.56 172.415C1325.68 177.828 1326.8 222.625 1315.42 226.358H1265.61C1265.61 226.358 1248.82 222.999 1248.82 201.907C1248.82 180.815 1245.84 172.415 1240.8 168.682C1235.76 164.949 1214.31 150.95 1214.31 150.95L1234.08 120.152C1234.08 120.152 1255.91 129.485 1264.49 129.858C1272.89 130.418 1293.97 130.418 1293.97 130.418Z" fill="#FCFDFE"/>
<path d="M1315.42 226.545C1315.42 226.545 1327.17 250.25 1331.09 264.436C1335.01 278.435 1338.92 339.284 1343.4 344.883C1347.88 350.483 1411.3 338.724 1411.3 338.724L1416.34 353.843C1416.34 353.843 1350.68 391.547 1329.78 384.827C1309.08 378.108 1284.64 299.34 1284.64 299.34C1284.64 299.34 1273.63 375.868 1275.87 392.666C1278.11 409.465 1280.35 480.954 1280.35 480.954H1257.96C1257.96 480.954 1246.77 424.771 1240.05 348.803C1233.34 272.835 1265.8 226.732 1265.8 226.732H1315.42V226.545Z" fill="#1E1B32"/>
<path d="M1273.45 91.5945C1273.45 91.5945 1272.14 88.4214 1270.46 89.3547C1266.17 91.5945 1269.53 96.0742 1271.95 97.3808L1273.45 91.5945Z" fill="#E76264"/>
<path d="M1302.55 61.9167C1313.74 64.5299 1321.39 75.5424 1320.08 86.9283C1319.71 90.6614 1318.4 94.2078 1316.35 97.0076C1311.87 104.474 1308.14 110.26 1304.23 114.366C1300.12 118.473 1297.7 123.886 1297.51 129.672L1297.32 135.458C1282.96 139.751 1278.3 132.285 1278.3 132.285L1280.53 119.033C1266.54 114.926 1272.89 88.7948 1274.19 80.9554C1274.19 80.5821 1274.19 80.3954 1274.38 80.0221C1276.8 67.3297 1289.49 58.7436 1302.55 61.9167Z" fill="#F29595"/>
<path d="M1300.31 85.2485C1302.55 88.6082 1304.41 92.1546 1306.28 95.7011C1308.33 99.4341 1310.38 103.54 1310.19 107.647C1314.3 105.407 1317.47 101.674 1320.08 97.9409C1321.39 96.0744 1322.51 94.3945 1323.25 92.1546C1324.19 89.1682 1324 85.9951 1323.81 83.0086C1323.44 79.0889 1323.25 74.9825 1321.01 71.4361C1319.71 69.1963 1317.66 67.5164 1315.42 66.0231C1310.38 62.4767 1304.41 60.2369 1298.26 60.0502C1292.1 59.8636 1285.76 61.9168 1281.47 66.2098C1275.87 71.8094 1273.82 80.0222 1272.14 87.675C1273.44 84.5018 1276.06 82.262 1278.67 80.0222C1280.35 78.5289 1282.03 77.0357 1284.08 76.2891C1287.62 74.7959 1288.37 75.3558 1294.52 72.7427C1294.9 77.5957 1297.32 81.1421 1300.31 85.2485Z" fill="#251E53"/>
<path d="M1308.33 102.234C1308.89 101.487 1309.64 101.114 1310.38 100.927C1312.06 100.554 1314.86 100.367 1316.54 102.607C1318.78 105.967 1312.06 112.313 1307.02 107.647C1307.02 107.647 1305.72 105.78 1308.33 102.234Z" fill="#F29595"/>
<path d="M1277.18 92.5279C1277.18 91.408 1278.3 90.6614 1279.41 90.6614C1280.53 90.6614 1281.28 91.7813 1281.28 92.9012C1281.28 94.0211 1280.16 94.7678 1279.04 94.7678C1277.92 94.5811 1276.99 93.6478 1277.18 92.5279Z" fill="#1E1B32"/>
<path d="M1295.46 97.754C1295.46 96.6341 1296.58 95.8875 1297.7 95.8875C1298.81 95.8875 1299.56 97.0074 1299.56 98.1274C1299.56 99.2473 1298.44 99.9939 1297.32 99.9939C1296.2 99.8072 1295.46 98.874 1295.46 97.754Z" fill="#1E1B32"/>
<path d="M1302.55 96.0743L1303.29 95.8876C1303.66 95.5143 1303.66 94.9544 1303.29 94.7677C1303.11 94.581 1300.87 92.3412 1297.14 91.9679C1296.76 91.9679 1296.2 92.3412 1296.2 92.7145C1296.2 93.0878 1296.58 93.6478 1296.95 93.6478C1300.12 93.8344 1301.99 95.8876 1301.99 95.8876L1302.55 96.0743Z" fill="#1E1B32"/>
<path d="M1282.96 89.1681L1283.52 88.7948C1283.71 88.4215 1283.71 87.8615 1283.33 87.6749C1283.15 87.6749 1280.53 85.6217 1276.8 86.1817C1276.43 86.1817 1276.06 86.555 1276.06 87.1149C1276.06 87.4882 1276.62 87.8615 1276.99 87.8615C1280.16 87.4882 1282.4 89.1681 1282.4 89.1681H1282.96Z" fill="#1E1B32"/>
<path d="M1285.2 103.914C1282.96 103.167 1282.4 101.3 1282.59 100.18L1282.77 99.6205C1285.38 97.3807 1285.76 93.6476 1285.76 93.6476C1285.76 93.2743 1286.13 92.901 1286.5 93.0877C1286.88 93.0877 1287.25 93.461 1287.06 93.8343C1287.06 94.0209 1286.69 97.9407 1283.89 100.554C1283.89 101.114 1284.27 102.42 1286.5 102.794C1286.88 102.794 1287.25 103.167 1287.06 103.54C1287.06 103.914 1286.69 104.287 1286.32 104.1C1286.13 104.1 1285.57 103.914 1285.2 103.914Z" fill="#E76264"/>
<path d="M1396.94 80.3954C1396.94 80.3954 1391.9 71.6227 1390.6 68.0763C1389.48 64.5298 1385.75 61.9167 1387.43 60.6101C1389.1 59.3036 1393.95 64.7165 1393.95 64.7165C1393.95 64.7165 1395.26 57.2504 1395.26 54.8239C1395.26 52.3974 1396.38 48.1043 1398.25 48.1043C1399.92 47.9177 1398.99 59.4902 1398.99 59.4902C1398.99 59.4902 1400.67 49.9709 1402.35 49.4109C1404.03 49.0376 1403.47 61.3567 1403.47 61.3567C1403.47 61.3567 1404.77 51.0908 1405.71 50.3442C1406.45 49.5976 1407.39 50.7175 1407.95 54.4506C1408.32 58.1836 1407.76 62.1034 1407.76 62.1034C1407.76 62.1034 1409.25 55.0105 1409.81 54.0773C1410.37 53.3306 1411.49 52.584 1411.49 58.1836C1411.49 63.7832 1409.44 75.9157 1406.08 81.702L1396.94 80.3954Z" fill="#F29595"/>
<path d="M1204.42 48.4775C1204.42 48.4775 1209.46 39.7048 1210.77 36.1584C1211.89 32.612 1215.62 29.9989 1213.94 28.6923C1212.26 27.3857 1207.41 32.7987 1207.41 32.7987C1207.41 32.7987 1206.1 25.3325 1206.1 22.906C1206.1 20.4795 1204.98 16.1865 1203.12 16.1865C1201.44 15.9998 1202.37 27.5724 1202.37 27.5724C1202.37 27.5724 1200.69 18.053 1199.01 17.4931C1197.33 17.1198 1197.89 29.4389 1197.89 29.4389C1197.89 29.4389 1196.59 19.173 1195.66 18.4263C1194.91 17.6797 1193.98 18.7996 1193.42 22.5327C1193.04 26.2658 1193.6 30.1855 1193.6 30.1855C1193.6 30.1855 1192.11 23.0927 1191.55 22.1594C1190.99 21.4128 1189.87 20.6662 1189.87 26.2658C1189.87 31.8654 1191.93 43.9979 1195.28 49.7841L1204.42 48.4775Z" fill="#F29595"/>
<path d="M1298.44 182.868C1305.72 182.868 1310.2 179.508 1310.2 179.322V178.948H1309.82C1309.64 178.948 1300.12 186.601 1285.38 178.948L1285.01 179.135L1285.2 179.508C1290.42 182.121 1294.71 182.868 1298.44 182.868Z" fill="#8C9CCF"/>
<path d="M1277.74 106.9C1277.74 106.9 1280.72 105.967 1281.65 106.34C1282.59 106.9 1282.77 108.207 1282.77 108.207C1282.77 108.207 1283.71 107.087 1284.83 107.46C1286.13 107.833 1289.49 111.006 1289.49 111.006C1289.49 111.006 1284.45 115.299 1280.91 113.62C1277.55 112.126 1277.74 106.9 1277.74 106.9Z" fill="#E76264"/>
<path d="M1289.68 111.007C1289.68 111.007 1282.21 108.767 1277.74 106.9C1277.74 106.9 1279.04 111.193 1281.84 111.94C1284.64 112.686 1289.68 111.007 1289.68 111.007Z" fill="white"/>
<path d="M1155.17 171.296L1214.87 227.105C1214.87 227.105 1214.31 250.81 1168.98 216.839C1162.45 211.986 1136.15 189.961 1136.15 189.961L1155.17 171.296Z" fill="#EF8083"/>
<path d="M1132.23 513.618L1128.12 488.98L1115.07 488.046L1117.68 514.925C1117.68 514.925 1128.87 516.978 1132.23 513.618Z" fill="white"/>
<path d="M1046.04 513.618L1052.76 489.726L1036.34 486.926L1031.31 514.924C1031.49 514.924 1042.69 516.978 1046.04 513.618Z" fill="white"/>
<path d="M1044.55 284.781L1030.38 502.605H1052.57L1090.82 338.724L1112.64 502.605H1134.09C1134.09 502.605 1132.42 315.765 1134.09 284.781C1135.59 253.796 1044.55 284.781 1044.55 284.781Z" fill="#2C286F"/>
<path d="M1073.84 131.912C1073.84 131.912 1032.8 144.231 1026.46 155.243C1020.12 166.443 1018.62 196.12 1018.62 196.12L1041.75 199.854L1041.2 297.473C1041.2 297.473 1077.01 310.166 1135.59 297.473V198.734L1142.49 203.027L1163.01 173.909C1163.01 173.909 1134.1 141.058 1120.1 137.138C1095.85 130.045 1073.84 131.912 1073.84 131.912Z" fill="#5456A2"/>
<path d="M1080.93 36.9051C1080.93 36.9051 1081.86 34.6652 1082.98 35.2252C1085.97 36.7184 1083.91 39.8915 1082.24 40.8248L1080.93 36.9051Z" fill="#E76264"/>
<path d="M1081.3 38.3982C1079.62 27.0123 1069.74 18.7996 1059.29 20.2928C1048.66 21.786 1041.38 32.2386 1043.06 43.6245C1044.74 55.0104 1054.63 63.2231 1065.07 61.7299C1075.52 60.2367 1082.79 49.7841 1081.3 38.3982Z" fill="#F29595"/>
<path d="M1104.25 51.6508L1096.6 50.7175C1090.07 67.8896 1074.21 68.2629 1069.18 68.0763L1068.99 67.703C1069.36 65.2765 1070.85 63.0366 1073.09 61.9167C1074.96 60.9834 1076.82 59.6769 1078.69 58.1836C1089.32 49.4109 1080.18 34.1053 1080.18 34.1053C1080.18 34.1053 1039.7 41.9448 1046.79 53.704C1048.84 56.8771 1050.89 59.3036 1053.32 61.1701C1055.56 62.85 1056.68 65.6498 1056.3 68.4496C1056.12 69.7562 1055.18 70.8761 1053.88 71.2494C1030.75 77.2223 1021.42 66.0231 1021.42 66.0231L1016.01 68.8229C1021.05 85.2484 1039.89 91.0347 1039.89 91.0347C1037.84 101.487 1039.33 114.926 1039.33 114.926L1088.76 109.887L1084.29 85.435C1104.99 76.289 1104.25 51.6508 1104.25 51.6508Z" fill="#F29595"/>
<path d="M1059.85 46.2378C1059.66 45.1179 1058.54 44.3713 1057.42 44.5579C1056.31 44.7446 1055.56 45.8645 1055.75 46.9844C1055.93 48.1044 1057.05 48.851 1058.17 48.6643C1059.48 48.4777 1060.22 47.3577 1059.85 46.2378Z" fill="#1E1B32"/>
<path d="M1078.13 40.0782C1077.94 38.9583 1076.82 38.2117 1075.71 38.3983C1074.59 38.585 1073.84 39.7049 1074.03 40.8248C1074.21 41.9448 1075.33 42.6914 1076.45 42.5047C1077.57 42.1314 1078.32 41.1981 1078.13 40.0782Z" fill="#1E1B32"/>
<path d="M1069.92 48.8509L1069.36 48.4776L1069.74 47.9177C1070.3 47.9177 1070.67 47.5444 1070.67 47.1711V46.6111C1070.48 46.4244 1069.36 45.8645 1068.24 45.6778L1067.87 45.1179L1068.43 44.7446C1069.18 44.9312 1070.86 45.4912 1071.23 46.2378C1071.42 46.6111 1071.42 47.1711 1071.23 47.731C1071.23 48.291 1070.67 48.6643 1069.92 48.8509Z" fill="#E76264"/>
<path d="M1096.41 51.2774C1096.41 51.2774 1094.73 48.291 1097.53 44.5579C1098.65 43.0647 1097.72 39.5183 1099.02 39.1449C1100.14 38.9583 1100.89 43.2513 1100.89 43.2513C1100.89 43.2513 1102.75 40.6382 1103.31 39.5183C1104.06 38.3983 1105.37 36.1585 1106.3 36.3451C1107.23 36.7185 1104.62 41.7581 1104.62 41.7581C1104.62 41.7581 1108.35 36.7185 1109.1 37.0918C1110.4 37.6517 1107.42 42.878 1107.42 42.878C1107.42 42.878 1110.96 38.3983 1111.52 38.2117C1112.08 38.025 1112.27 39.3316 1111.52 41.1981C1110.78 43.0647 1109.28 44.5579 1109.28 44.5579C1109.28 44.5579 1111.71 42.6914 1112.08 42.3181C1112.45 42.1314 1113.95 41.3848 1112.27 43.8113C1110.78 46.4244 1106.11 50.7175 1102.94 52.584L1096.41 51.2774Z" fill="#F29595"/>
<path d="M1022.91 67.8896C1022.91 67.8896 1023.66 64.5298 1020.11 61.73C1018.62 60.6101 1018.44 56.877 1017.32 56.877C1016.01 56.877 1016.76 61.3567 1016.76 61.3567C1016.76 61.3567 1014.33 59.3035 1013.4 58.3702C1012.47 57.437 1010.41 55.5704 1009.67 56.1304C1008.92 56.6904 1012.65 60.9834 1012.65 60.9834C1012.65 60.9834 1007.8 57.0637 1007.06 57.6236C1005.94 58.5569 1010.23 62.8499 1010.23 62.8499C1010.23 62.8499 1005.56 59.4902 1005 59.4902C1004.44 59.4902 1004.63 60.7967 1005.94 62.29C1007.24 63.7832 1008.92 64.9031 1008.92 64.9031C1008.92 64.9031 1006.12 63.7832 1005.56 63.5965C1005 63.4099 1003.51 63.0366 1005.75 65.0898C1007.99 67.143 1013.59 70.1294 1017.13 71.0627L1022.91 67.8896Z" fill="#F29595"/>
<path d="M1053.69 44.3712L1053.13 44.1845C1052.95 43.9979 1052.76 43.4379 1053.13 43.2513C1054.81 41.3847 1057.61 40.8248 1057.8 40.8248C1058.17 40.8248 1058.54 41.0114 1058.54 41.3847C1058.54 41.758 1058.36 42.1313 1057.98 42.1313C1057.98 42.1313 1055.56 42.6913 1054.07 44.1845L1053.69 44.3712Z" fill="#1E1B32"/>
<path d="M1077.76 36.905H1077.38C1075.33 36.1584 1073.09 36.905 1073.09 36.905C1072.72 37.0917 1072.35 36.905 1072.16 36.5317C1071.97 36.1584 1072.16 35.7851 1072.53 35.5984C1072.72 35.5984 1075.33 34.6652 1077.76 35.5984C1078.13 35.7851 1078.32 36.1584 1078.13 36.5317L1077.76 36.905Z" fill="#1E1B32"/>
<path d="M1052.39 18.9864C1053.51 17.4931 1055 16.3732 1056.68 15.9999C1057.05 16.5599 1056.86 17.4931 1056.49 18.0531C1056.12 18.6131 1055.56 19.173 1055.18 19.733C1060.03 17.1198 1065.44 15.8133 1070.85 15.9999C1071.6 15.9999 1072.53 15.9999 1073.28 16.3732C1074.03 16.7465 1074.77 17.3065 1074.77 18.2397C1074.96 19.5463 1073.84 20.6662 1072.53 21.4129C1070.29 22.7194 1067.68 23.466 1064.89 23.6527C1066.19 23.8393 1067.68 24.3993 1068.06 25.5192C1068.24 26.6392 1067.12 27.7591 1066.19 28.1324C1063.21 29.439 1059.66 28.879 1056.49 28.1324C1053.32 27.3858 1049.22 27.9457 1046.6 27.7591C1046.79 26.2658 1048.84 24.2127 1049.4 23.2794C1050.33 21.9728 1051.27 20.4796 1052.39 18.9864Z" fill="#1E1A35"/>
<path d="M1076.08 48.8509C1076.08 48.8509 1069.18 53.1439 1063.02 53.7039C1063.02 53.7039 1066.75 57.0636 1071.41 55.1971C1076.26 53.5172 1076.08 48.8509 1076.08 48.8509Z" fill="white"/>
<path d="M1071.6 166.256C1071.6 166.256 1078.32 178.575 1076.64 179.508C1074.96 180.442 1058.36 175.029 1058.36 175.029L1060.22 167.003L1071.6 166.256Z" fill="white"/>
<path d="M1115.07 161.216C1115.07 161.216 1121.78 173.535 1120.1 174.469C1118.42 175.402 1101.82 169.989 1101.82 169.989L1103.69 161.963L1115.07 161.216Z" fill="white"/>
<path d="M1039.33 113.806C1039.33 113.806 1039.7 129.112 1045.11 137.138C1050.52 145.164 1059.29 153.937 1057.98 169.242L1074.21 168.496C1074.21 168.496 1076.64 147.777 1071.97 139.005C1067.12 130.232 1070.67 128.365 1070.67 128.365C1070.67 128.365 1092.87 129.299 1096.78 135.645C1100.7 141.991 1102.19 163.643 1102.19 163.643L1117.49 161.59C1117.49 161.59 1118.05 129.112 1112.64 122.766C1107.23 116.419 1085.41 107.273 1085.41 107.273L1039.33 113.806Z" fill="#1E1B32"/>
<path d="M1054.81 70.8761C1054.81 70.8761 1066.01 73.116 1071.42 68.0763C1071.42 68.0763 1082.23 66.9564 1083.35 65.4632L1089.32 83.7552L1085.59 85.8084L1090.44 107.834C1090.44 107.834 1087.27 111.38 1080 112.5C1072.72 113.806 1037.84 113.433 1037.84 113.433L1038.77 90.1015L1031.49 87.4883C1031.49 87.4883 1037.46 78.1556 1038.77 71.4361C1038.58 71.8094 1052.01 71.6228 1054.81 70.8761Z" fill="white"/>
<path d="M1048.84 50.5307C1048.47 49.9708 1047.72 49.5975 1046.98 49.4108C1045.49 49.0375 1042.69 48.8508 1041.38 51.0907C1039.33 54.0771 1045.67 60.0501 1050.15 55.5704C1050.15 55.3837 1051.46 53.7038 1048.84 50.5307Z" fill="#F29595"/>
<path d="M1021.05 196.121C1021.05 196.121 1021.42 239.611 1034.11 241.291C1046.79 242.784 1066.19 210.306 1076.08 181.002L1064.51 178.762L1046.6 199.667V193.321C1046.6 193.321 1027.02 192.574 1021.05 196.121Z" fill="#F29595"/>
<path d="M1101.45 94.021C1101.45 94.021 1103.13 91.2212 1104.62 92.1545C1108.54 94.5809 1105.18 98.5007 1102.76 99.6206L1101.45 94.021Z" fill="#E76264"/>
<path d="M1101.45 84.1284C1101.45 83.9418 1101.45 83.5685 1101.45 83.1952C1100.33 70.5027 1088.2 61.3567 1075.15 63.4099C1064.14 65.0898 1055.93 74.4225 1055.93 85.0617C1055.93 88.9814 1057.05 92.7145 1058.92 95.8876C1061.53 100.927 1063.77 105.034 1066.01 108.58C1069.74 114.366 1071.42 121.086 1071.04 127.992L1070.67 133.405C1085.22 139.378 1091 132.098 1091 132.098L1090.26 122.392C1090.26 121.086 1091.19 119.966 1092.49 119.779C1109.47 117.166 1102.2 91.5946 1101.45 84.1284Z" fill="#F29595"/>
<path d="M1079.06 97.5675C1078.88 96.4476 1077.94 95.701 1076.82 95.701C1075.71 95.8876 1074.77 96.8209 1074.96 97.9408C1075.15 99.0608 1076.08 99.8074 1077.2 99.8074C1078.32 99.8074 1079.25 98.6874 1079.06 97.5675Z" fill="#1E1B32"/>
<path d="M1097.53 92.3412C1097.35 91.2213 1096.41 90.4747 1095.29 90.4747C1094.17 90.6613 1093.24 91.5946 1093.43 92.7145C1093.61 93.8344 1094.55 94.581 1095.67 94.581C1096.79 94.3944 1097.72 93.4611 1097.53 92.3412Z" fill="#1E1B32"/>
<path d="M1071.23 95.141L1070.48 94.9543C1069.92 94.581 1069.55 94.021 1069.92 93.2744C1070.85 91.4079 1073.84 88.6081 1078.69 90.4746C1079.25 90.6613 1079.62 91.4079 1079.44 91.9678C1079.25 92.5278 1078.5 92.9011 1077.76 92.7145C1073.65 91.2212 1072.16 94.2077 1071.97 94.3943C1071.97 94.7676 1071.6 95.141 1071.23 95.141Z" fill="#1E1B32"/>
<path d="M1090.82 90.1013L1090.07 89.9147C1089.51 89.5414 1089.14 88.9814 1089.51 88.2348C1090.44 86.3683 1093.43 83.5685 1098.28 85.435C1098.84 85.6217 1099.21 86.3683 1099.02 86.9282C1098.84 87.4882 1098.09 87.8615 1097.34 87.6749C1093.24 86.1816 1091.75 89.1681 1091.56 89.3547C1091.56 89.9147 1091.19 90.1013 1090.82 90.1013Z" fill="#1E1B32"/>
<path d="M1054.07 88.7948L1061.53 103.167L1065.63 102.047L1066.19 82.6353L1054.07 88.7948Z" fill="#251E53"/>
<path d="M1066.19 101.487C1065.82 100.741 1065.07 100.367 1064.33 100.181C1062.65 99.6207 1059.85 99.2474 1058.17 101.301C1055.56 104.287 1061.9 110.82 1067.12 106.9C1067.12 106.714 1068.43 105.034 1066.19 101.487Z" fill="#F29595"/>
<path d="M1090.63 104.1C1088.76 105.22 1086.71 104.287 1086.71 104.287L1086.53 103.727L1087.09 103.54C1087.09 103.54 1089.32 104.474 1091.19 102.607C1091.56 102.234 1091.56 102.047 1091.56 101.861C1091.56 101.674 1091.19 101.301 1090.82 100.927C1089.7 99.9941 1088.02 98.5008 1087.09 94.7678L1087.27 94.3945L1087.64 94.5811C1088.39 98.1275 1090.07 99.4341 1091.19 100.367C1091.75 100.927 1092.12 101.301 1092.31 101.861C1092.31 102.234 1092.12 102.607 1091.75 103.167C1091.38 103.54 1091 103.914 1090.63 104.1Z" fill="#E76264"/>
<path d="M1096.97 75.9157C1096.97 75.9157 1100.52 77.7823 1102.57 91.0347C1102.57 91.0347 1102.2 76.1024 1100.33 74.6092C1098.47 73.1159 1096.97 75.9157 1096.97 75.9157Z" fill="#1E1B32"/>
<path d="M1084.1 109.7L1096.78 106.527C1096.78 106.527 1099.21 111.753 1092.68 113.433C1086.15 115.3 1084.1 109.7 1084.1 109.7Z" fill="white"/>
<path d="M1051.45 82.2619C1051.27 79.4621 1051.83 76.6623 1052.76 74.0492C1053.51 71.436 1055.18 68.8229 1057.61 67.5163C1058.73 66.9563 1060.03 66.3964 1060.78 65.4631C1061.34 64.7165 1061.53 63.9699 1061.9 63.2233C1063.58 60.0502 1067.68 59.6769 1071.23 60.2368C1074.59 60.9834 1078.13 62.4767 1081.49 61.73C1085.41 60.9834 1088.95 57.8103 1092.68 59.3036C1093.99 59.8635 1094.92 60.7968 1096.04 61.3567C1098.28 62.6633 1101.08 62.4767 1103.5 62.6633C1106.11 62.85 1108.91 63.4099 1110.4 65.4631C1112.08 67.8896 1110.96 71.8093 1108.16 72.9293C1107.6 73.1159 1107.04 73.3026 1106.67 73.6759C1104.62 74.9824 1105.93 78.7155 1104.06 80.3954C1103.13 81.3287 1101.63 81.3287 1100.52 81.142C1099.21 80.9554 1098.09 80.3954 1096.78 80.582C1093.99 80.7687 1091.93 83.1952 1089.14 83.9418C1085.22 84.8751 1081.49 81.5153 1077.57 81.702C1071.6 81.8886 1068.24 88.7948 1062.46 90.4747C1055.37 92.3412 1051.83 88.4215 1051.45 82.2619Z" fill="#251E53"/>
<path d="M1064.7 181.002C1064.7 181.002 1062.46 170.362 1062.65 166.629C1062.83 162.896 1060.04 159.163 1062.09 158.416C1064.14 157.67 1066.75 164.576 1066.75 164.576C1066.75 164.576 1070.48 157.857 1071.23 155.617C1071.97 153.377 1074.59 149.83 1076.27 150.204C1077.94 150.764 1073.28 161.216 1073.28 161.216C1073.28 161.216 1078.13 152.817 1079.81 152.817C1081.49 153.004 1076.82 164.576 1076.82 164.576C1076.82 164.576 1081.49 155.43 1082.61 154.87C1083.54 154.497 1084.1 155.803 1083.35 159.35C1082.42 163.083 1080.56 166.629 1080.56 166.629C1080.56 166.629 1084.29 160.47 1085.03 159.723C1085.78 159.163 1087.08 158.79 1085.22 164.203C1083.35 169.429 1077.38 180.255 1072.35 184.548L1064.7 181.002Z" fill="#F29595"/>
<path d="M1261.69 315.392C1261.69 315.392 1241.73 331.444 1215.99 337.044L1216.55 346.377C1216.55 346.377 1255.91 341.524 1274 329.391C1274.19 329.391 1264.12 321.178 1261.69 315.392Z" fill="#F29595"/>
<path d="M1316.35 416.372C1316.35 416.372 1318.59 490.473 1312.06 518.658C1312.06 518.658 1294.34 525.191 1291.91 523.137C1289.49 521.271 1297.14 517.351 1298.07 511.378C1299 505.405 1293.41 425.518 1293.41 425.518L1316.35 416.372Z" fill="#F29595"/>
<path d="M1279.04 416.372C1279.04 416.372 1281.28 490.473 1274.75 518.658C1274.75 518.658 1257.03 525.191 1254.6 523.137C1252.18 521.271 1259.83 517.351 1260.76 511.378C1261.69 505.405 1256.1 425.518 1256.1 425.518L1279.04 416.372Z" fill="#F29595"/>
<path d="M1320.46 393.6L1253.86 392.853C1253.86 392.853 1252.18 428.317 1253.3 460.795C1253.86 477.594 1256.28 491.033 1257.78 503.912C1257.78 503.912 1275.12 504.659 1280.91 501.112C1280.91 501.112 1281.28 469.008 1282.21 458.369C1282.77 451.089 1286.13 429.064 1286.13 429.064L1296.02 500.552C1296.02 500.552 1313.37 500.179 1319.15 497.006L1319.71 450.342L1320.46 393.6Z" fill="#ED6D64"/>
<path d="M1310.57 236.438C1310.57 236.438 1316.72 242.97 1333.7 243.717C1350.67 244.464 1343.96 264.436 1346.01 268.169C1348.06 271.902 1355.53 276.568 1352.91 283.848C1350.3 290.94 1343.77 292.994 1344.89 300.086C1345.82 306.993 1343.59 322.858 1330.53 321.738C1317.47 320.618 1311.5 341.71 1282.96 328.644C1254.42 315.579 1263 298.407 1254.23 291.314C1244.9 283.661 1253.48 265.369 1267.85 259.396C1282.03 253.61 1279.23 225.612 1310.57 236.438Z" fill="#ED6D64"/>
<path d="M1320.64 398.639C1320.64 398.639 1288.93 407.225 1252.74 395.28L1256.1 358.696C1256.1 358.696 1253.67 322.485 1260.39 318.938C1267.1 315.392 1279.23 306.806 1297.88 314.459C1319.52 323.418 1320.64 398.639 1320.64 398.639Z" fill="#4A8DCB"/>
<path d="M1274.19 274.888C1274.94 270.782 1275.87 266.675 1277.92 263.129C1285.94 249.503 1310.38 251.183 1319.52 262.569C1323.44 267.422 1326.05 274.142 1326.61 280.301C1327.17 287.767 1323.25 295.607 1316.35 298.593C1311.31 300.646 1305.72 300.086 1300.49 298.407C1295.46 296.727 1290.79 293.927 1285.94 291.687C1283.7 290.567 1281.28 289.634 1279.23 288.141C1277.74 287.021 1274.75 285.341 1274 283.661C1272.51 281.234 1273.63 277.315 1274.19 274.888Z" fill="#ED6D64"/>
<path d="M1274.57 275.262C1274.57 275.262 1273.45 272.648 1271.95 273.395C1268.41 275.262 1271.02 278.808 1272.89 279.928L1274.57 275.262Z" fill="#E76264"/>
<path d="M1274.38 276.942C1276.24 263.689 1288.18 254.17 1300.87 255.85C1313.55 257.53 1322.51 269.662 1320.64 283.101C1318.78 296.353 1306.84 305.873 1294.15 304.193C1281.28 302.326 1272.51 290.194 1274.38 276.942Z" fill="#F29595"/>
<path d="M1300.5 306.059C1297.7 307.926 1297.51 316.512 1297.51 316.512C1296.76 320.618 1281.47 317.632 1282.21 313.899C1283.71 310.912 1286.13 305.313 1283.52 304.006C1281.28 302.886 1279.6 301.766 1277.55 300.087C1264.68 289.821 1275.5 272.088 1275.5 272.088C1275.5 272.088 1324.19 281.048 1315.79 294.674C1313.37 298.407 1303.48 304.006 1300.5 306.059Z" fill="#F29595"/>
<path d="M1299.93 286.087C1300.12 284.781 1301.43 284.034 1302.73 284.221C1304.04 284.407 1304.97 285.714 1304.6 287.021C1304.41 288.327 1303.11 289.074 1301.8 288.887C1300.68 288.514 1299.75 287.207 1299.93 286.087Z" fill="#1E1B32"/>
<path d="M1278.11 278.808C1278.29 277.501 1279.6 276.755 1280.91 276.941C1282.21 277.128 1283.15 278.435 1282.77 279.741C1282.59 281.048 1281.28 281.794 1279.97 281.608C1278.67 281.421 1277.74 280.115 1278.11 278.808Z" fill="#1E1B32"/>
<path d="M1288 289.074C1288.37 289.074 1288.56 288.887 1288.56 288.701C1288.56 288.327 1288.37 288.141 1288 288.141C1287.44 288.141 1286.88 287.581 1286.88 287.394C1286.69 287.207 1286.69 286.834 1286.88 286.647C1287.06 286.461 1288.37 285.901 1289.68 285.527C1290.05 285.527 1290.05 285.154 1290.05 284.781C1290.05 284.407 1289.68 284.407 1289.3 284.407C1288.37 284.594 1286.32 285.341 1285.76 286.087C1285.39 286.647 1285.39 287.207 1285.76 287.767C1286.32 288.327 1287.06 288.887 1288 289.074Z" fill="#E76264"/>
<path d="M1307.4 283.848L1308.14 283.661C1308.52 283.288 1308.52 282.914 1308.14 282.541C1306.09 280.301 1302.73 279.741 1302.55 279.741C1302.17 279.741 1301.61 279.928 1301.61 280.301C1301.61 280.674 1301.8 281.234 1302.17 281.234C1302.17 281.234 1305.16 281.794 1306.84 283.661L1307.4 283.848Z" fill="#241E50"/>
<path d="M1278.48 275.262H1278.85C1281.28 274.515 1284.08 275.262 1284.08 275.262C1284.45 275.448 1285.01 275.075 1285.2 274.702C1285.38 274.328 1285.01 273.768 1284.64 273.768C1284.45 273.768 1281.28 272.835 1278.29 273.768C1277.92 273.955 1277.55 274.328 1277.74 274.702C1277.92 274.888 1278.11 275.075 1278.48 275.262Z" fill="#241E50"/>
<path d="M1315.05 292.62C1314.3 292.62 1311.13 284.407 1309.45 276.008C1307.77 267.609 1299.93 262.382 1299.93 262.382C1299.93 262.382 1282.77 262.756 1279.97 265.555C1277.18 268.355 1274.19 274.515 1274.19 274.515C1274.19 274.515 1276.43 264.249 1283.33 259.396C1290.05 254.543 1299.93 251.556 1313.37 259.769C1326.8 267.982 1323.44 291.5 1315.05 292.62Z" fill="#ED6D64"/>
<path d="M1313.18 290.94C1313.74 290.194 1314.49 289.82 1315.42 289.634C1317.28 289.261 1320.45 289.074 1322.13 291.5C1324.75 295.047 1316.91 301.953 1311.5 296.913C1311.69 296.727 1310.38 294.673 1313.18 290.94Z" fill="#F29595"/>
<path d="M1283.52 311.286C1283.15 311.286 1276.8 311.286 1267.29 311.846C1258.71 312.406 1239.68 327.898 1239.68 327.898L1245.09 343.203L1260.01 338.91L1283.52 311.286Z" fill="#4A8DCB"/>
<path d="M1279.97 290.194L1293.97 294.114C1293.97 294.114 1288.37 298.593 1284.08 297.287C1279.6 295.793 1279.97 290.194 1279.97 290.194Z" fill="white"/>
<path d="M1318.78 351.23C1318.78 351.23 1333.33 368.215 1338.18 389.867L1346.57 389.307C1346.57 389.307 1342.28 356.083 1331.27 340.777C1331.46 340.777 1323.81 349.176 1318.78 351.23Z" fill="#F29595"/>
<path d="M1338.92 387.813C1338.92 387.813 1335.94 394.533 1335.38 397.333C1334.82 399.946 1332.21 402.186 1333.7 403.119C1335.19 403.866 1338.18 399.573 1338.18 399.573C1338.18 399.573 1339.86 404.986 1340.04 406.665C1340.23 408.345 1341.54 411.332 1342.84 411.332C1344.15 411.332 1342.47 403.119 1342.47 403.119C1342.47 403.119 1344.71 409.839 1345.83 410.025C1347.13 410.212 1345.64 401.253 1345.64 401.253C1345.64 401.253 1347.69 408.532 1348.25 408.905C1349 409.279 1349.56 408.532 1349.56 405.732C1349.56 402.932 1348.81 400.133 1348.81 400.133C1348.81 400.133 1350.68 405.172 1351.05 405.732C1351.42 406.292 1352.54 406.665 1351.98 402.559C1351.42 398.453 1348.81 389.867 1345.83 386.134L1338.92 387.813Z" fill="#F29595"/>
<path d="M1297.7 314.272C1297.7 314.272 1312.25 316.139 1319.52 322.111C1329.22 329.764 1341.35 352.536 1341.35 352.536L1323.63 363.175L1311.13 349.923L1297.7 314.272Z" fill="#4A8DCB"/>
<path d="M1136.89 484.127C1136.89 484.127 1132.79 507.832 1132.6 508.205C1132.42 508.578 1134.09 511.005 1134.09 511.005L1140.44 512.125L1146.22 509.512C1146.22 509.512 1149.58 490.286 1150.14 487.3C1151.07 484.313 1136.89 484.127 1136.89 484.127Z" fill="#F29495"/>
<path d="M1209.83 484.127C1209.83 484.127 1216.17 507.832 1215.99 508.205C1215.8 508.578 1217.48 511.005 1217.48 511.005L1223.82 512.125L1229.61 509.512C1229.61 509.512 1226.43 489.913 1226.99 486.926C1227.55 483.94 1209.83 484.127 1209.83 484.127Z" fill="#F29495"/>
<path d="M1143.42 335.737L1130.55 498.312H1152.56C1152.56 498.312 1175.88 369.895 1179.24 369.335C1182.6 368.775 1206.29 498.312 1206.29 498.312H1231.66L1218.79 331.444L1143.42 335.737Z" fill="#2A2668"/>
<path d="M1169.91 213.293C1160.4 215.346 1143.79 223.745 1137.64 234.758C1131.48 245.584 1129.62 257.156 1129.62 257.156C1129.62 257.156 1142.49 262.756 1147.15 262.382C1147.15 262.382 1147.53 326.405 1141.18 342.27C1141.18 342.27 1145.66 351.043 1164.69 350.296C1183.9 349.55 1202 345.63 1210.77 346.563C1214.5 347.123 1221.03 349.363 1221.03 349.363C1221.03 349.363 1221.77 300.46 1220.84 275.262C1220.09 250.063 1209.83 251.93 1209.83 251.93L1228.67 252.863C1228.67 252.863 1230.54 229.345 1215.43 221.319C1202.37 214.413 1185.77 212.173 1185.77 212.173C1185.77 212.173 1173.83 212.359 1169.91 213.293Z" fill="#FCFDFE"/>
<path d="M1164.87 178.575C1164.87 178.575 1163.38 175.589 1161.7 176.709C1157.79 179.135 1161.14 183.241 1163.38 184.361L1164.87 178.575Z" fill="#EC6266"/>
<path d="M1165.06 168.496C1165.06 168.122 1165.06 167.936 1165.06 167.562C1166.37 154.87 1177.75 145.724 1190.43 147.404C1202.19 148.897 1210.77 159.536 1209.83 171.296C1209.65 174.842 1208.53 178.015 1207.04 180.815C1201.07 192.201 1197.52 200.227 1190.99 203.4C1189.87 203.96 1188.94 205.266 1188.94 206.573L1188.38 212.173C1188.19 214.599 1189.13 217.026 1190.99 218.705C1178.31 222.252 1173.46 217.026 1173.46 217.026C1175.51 215.719 1176.81 213.479 1177 211.053L1177.37 207.88C1177.56 206.013 1176.25 204.147 1174.39 203.773C1153.31 198.36 1164.32 176.149 1165.06 168.496Z" fill="#F29495"/>
<path d="M1186.7 181.562C1186.89 180.442 1187.82 179.695 1188.94 179.695C1190.06 179.882 1190.81 180.815 1190.81 181.935C1190.62 183.055 1189.69 183.801 1188.57 183.801C1187.45 183.615 1186.52 182.682 1186.7 181.562Z" fill="#1E1A2F"/>
<path d="M1167.49 176.335C1167.67 175.215 1168.61 174.469 1169.72 174.469C1170.84 174.655 1171.59 175.589 1171.59 176.709C1171.4 177.828 1170.47 178.575 1169.35 178.575C1168.23 178.388 1167.49 177.455 1167.49 176.335Z" fill="#1E1A2F"/>
<path d="M1200.13 187.908C1200.13 187.908 1194.72 172.789 1196.22 164.949L1210.58 165.136C1210.58 165.136 1212.82 177.455 1204.24 186.788L1200.13 187.908Z" fill="#1E1A35"/>
<path d="M1176.25 189.401C1177 189.401 1177.56 189.214 1177.56 189.214L1177.93 188.654L1177.37 188.281C1177.37 188.281 1176.44 188.654 1175.69 188.094C1175.13 187.721 1174.76 187.161 1174.58 186.228C1174.58 186.041 1174.58 186.041 1175.13 185.668C1176.25 185.108 1178.31 184.175 1179.43 179.508L1179.05 178.948L1178.49 179.322C1177.56 183.615 1175.88 184.361 1174.76 184.921C1174.2 185.295 1173.46 185.481 1173.64 186.414C1173.83 187.534 1174.39 188.468 1175.32 188.841C1175.51 189.214 1175.88 189.214 1176.25 189.401Z" fill="#EC6266"/>
<path d="M1174.76 173.349L1175.32 172.976C1175.51 172.602 1175.51 172.229 1175.13 172.042C1174.95 172.042 1172.34 170.176 1168.42 170.922C1168.05 170.922 1167.86 171.296 1167.86 171.669C1167.86 172.042 1168.23 172.229 1168.61 172.229C1171.96 171.669 1174.39 173.162 1174.39 173.162L1174.76 173.349Z" fill="#1E1A2F"/>
<path d="M1193.42 180.068L1193.98 179.882C1194.16 179.695 1194.35 179.135 1193.98 178.948C1191.18 176.149 1188.01 175.962 1187.82 175.962C1187.45 175.962 1187.07 176.149 1187.07 176.522C1187.07 176.895 1187.45 177.269 1187.63 177.269C1187.63 177.269 1190.43 177.455 1192.86 179.882L1193.42 180.068Z" fill="#1E1A2F"/>
<path d="M1176.63 195.374C1178.31 195.561 1180.36 195.374 1182.78 194.814L1183.16 194.254L1182.6 193.881C1171.96 196.307 1169.35 189.961 1169.35 189.774L1168.79 189.588L1168.61 190.148C1168.42 190.148 1170.29 194.814 1176.63 195.374Z" fill="#1E1A2F"/>
<path d="M1199.57 186.601C1199.95 185.855 1200.69 185.481 1201.44 185.108C1203.12 184.548 1205.92 184.175 1207.59 186.228C1210.02 189.214 1203.86 195.934 1198.64 191.828C1198.64 191.828 1197.33 190.148 1199.57 186.601Z" fill="#F29495"/>
<path d="M1211.88 162.523C1213.56 160.656 1214.5 158.23 1214.68 155.617C1213.56 155.057 1212.07 155.43 1211.14 156.55C1210.21 157.483 1209.83 158.79 1209.46 160.096C1209.83 156.737 1207.22 154.123 1204.98 152.257C1202.18 149.83 1199.2 147.404 1195.65 146.284C1190.8 144.791 1185.39 144.977 1180.17 144.791C1176.44 144.417 1172.52 144.604 1168.79 144.231C1168.05 144.231 1167.3 144.231 1166.55 144.231C1165.43 144.231 1163.38 143.484 1163.2 145.164C1163.01 147.031 1163.94 148.711 1165.25 150.017C1166.55 151.137 1168.05 152.07 1169.72 152.817C1168.79 152.63 1167.86 152.63 1166.93 152.817C1165.81 153.004 1164.5 153.19 1163.38 153.564C1162.82 153.75 1162.08 154.123 1161.7 154.683C1161.52 155.057 1161.52 155.43 1161.52 155.617C1161.33 158.976 1164.87 161.59 1167.49 162.896C1175.88 166.816 1185.77 165.509 1195.1 166.816C1199.2 167.376 1204.05 169.056 1208.34 168.309C1209.83 168.122 1213.19 166.256 1214.5 164.576C1214.87 164.016 1214.5 163.269 1213.94 163.083C1213.19 162.896 1212.44 162.71 1211.88 162.523Z" fill="#1E1A35"/>
<path d="M1168.61 163.269C1168.61 163.269 1165.99 166.816 1164.5 171.296C1164.5 171.296 1164.31 163.269 1166.18 160.843C1168.05 158.603 1168.61 163.269 1168.61 163.269Z" fill="#1E1A2F"/>
<path d="M1228.86 253.05C1228.86 253.05 1224.57 282.168 1201.62 283.474C1178.49 284.594 1157.41 253.423 1157.41 253.423L1163.38 248.01C1163.38 248.01 1193.98 266.489 1201.62 263.316C1209.27 260.143 1210.02 252.303 1210.02 252.303L1228.86 253.05Z" fill="#F29495"/>
<path d="M1163.94 248.384C1163.94 248.384 1160.4 241.477 1158.53 239.238C1156.67 236.998 1155.17 233.265 1153.68 233.825C1152.19 234.385 1154.99 239.984 1154.99 239.984C1154.99 239.984 1149.58 237.744 1147.9 236.811C1146.41 235.878 1144.36 234.944 1143.61 236.064C1142.86 237.184 1149.39 241.104 1149.39 241.104C1149.39 241.104 1142.49 238.304 1141.56 239.238C1140.62 240.171 1149.02 244.837 1149.02 244.837C1149.02 244.837 1141.74 241.477 1141 241.851C1140.25 242.037 1140.44 243.157 1142.68 244.837C1144.91 246.704 1147.71 247.824 1147.71 247.824C1147.71 247.824 1142.49 245.957 1141.74 245.957C1141 245.957 1140.06 246.517 1143.8 248.757C1147.53 250.997 1153.31 250.997 1158.53 254.916L1163.94 248.384Z" fill="#F29495"/>
</g>
<path d="M689.204 344.614C685.116 344.614 685.487 335.886 685.487 335.886C685.487 335.886 685.487 327.157 689.576 327.157C692.549 327.157 693.293 331.8 698.124 333.286C702.956 334.771 716.523 334.4 719.31 333.471C722.098 332.543 722.098 329.757 723.213 329.757C724.328 329.757 723.956 335.329 723.956 336.629C723.956 337.929 724.142 343.5 723.027 343.314C721.726 343.314 721.912 340.529 719.124 339.414C716.337 338.3 702.77 337.371 697.939 338.671C693.107 340.157 692.178 344.614 689.204 344.614Z" fill="#3F71B7"/>
<path d="M891.027 315.271C872.443 269.029 821.151 246.929 776.177 266.057C731.39 285.186 710.018 338.3 728.602 384.543C747.186 430.786 798.478 452.886 843.452 433.757C888.239 414.628 909.611 361.514 891.027 315.271Z" fill="#3F71B7"/>
<path d="M770.601 222.414C768.557 217.4 758.707 221.857 758.707 221.857C758.707 221.857 748.672 225.943 750.716 230.771C752.203 234.3 757.778 233.186 761.681 238.386C765.583 243.586 771.344 260.3 771.53 264.2C771.716 268.1 768.557 269.214 769.114 270.7C769.672 272.186 775.805 269.028 777.291 268.471C778.778 267.914 785.097 265.5 784.539 264.2C783.982 262.714 780.822 264.2 778.406 261.228C775.99 258.257 768.557 242.286 767.813 235.786C767.256 229.286 771.902 225.943 770.601 222.414Z" fill="#3F71B7"/>
<path d="M869.283 469.228C871.327 474.243 861.292 478.143 861.292 478.143C861.292 478.143 851.442 482.6 849.398 477.586C847.911 474.057 852.743 470.714 852 464.214C851.256 457.714 843.823 441.557 841.407 438.771C838.991 435.8 835.832 437.286 835.274 435.8C834.717 434.314 841.221 432.086 842.522 431.528C844.009 430.971 850.141 427.814 850.699 429.3C851.256 430.786 848.097 431.9 848.283 435.8C848.469 439.7 854.23 456.414 858.132 461.614C862.221 466.628 867.982 465.514 869.283 469.228Z" fill="#3F71B7"/>
<path d="M816.504 229.471C816.504 225.2 807.956 225.571 807.956 225.571C807.956 225.571 799.407 225.571 799.593 229.843C799.593 232.814 804.053 233.743 805.54 238.757C807.026 243.771 806.469 257.7 805.54 260.671C804.611 263.643 802.009 263.457 802.009 264.757C802.009 266.057 807.398 265.5 808.513 265.5C809.814 265.5 815.018 265.686 815.018 264.571C815.018 263.271 812.23 263.457 811.301 260.671C810.372 257.886 809.442 243.957 810.743 238.943C812.044 233.557 816.504 232.629 816.504 229.471Z" fill="#3F71B7"/>
<path d="M820.406 470.157C820.406 474.428 812.043 474.428 812.043 474.428C812.043 474.428 803.494 474.8 803.494 470.528C803.494 467.557 807.954 466.443 809.255 461.428C810.556 456.414 809.627 442.486 808.698 439.514C807.768 436.728 804.981 436.728 804.981 435.614C804.981 434.314 810.37 434.686 811.485 434.686C812.6 434.686 817.99 434.128 817.99 435.428C817.99 436.728 815.388 436.543 814.459 439.514C813.53 442.486 813.158 456.414 814.459 461.428C815.945 466.257 820.406 467.186 820.406 470.157Z" fill="#3F71B7"/>
<path d="M723.025 269.4C720.238 266.429 726.37 260.486 726.37 260.486C726.37 260.486 732.317 254.357 735.291 257.329C737.335 259.557 734.733 263.457 737.149 267.914C739.565 272.557 749.415 282.029 752.017 283.514C754.618 284.814 756.477 282.957 757.406 283.7L753.317 289.086L747.928 293.171C746.999 292.243 749.043 290.386 747.742 287.6C746.441 284.814 737.707 274.228 733.247 271.628C728.786 269.214 725.07 271.629 723.025 269.4Z" fill="#3F71B7"/>
<path d="M884.707 442.671C887.494 445.643 893.627 439.514 893.627 439.514C893.627 439.514 899.945 433.571 896.972 430.6C894.928 428.371 891.025 430.971 886.751 428.371C882.476 425.771 873.556 415.186 872.255 412.4C870.954 409.614 872.999 407.757 872.255 406.828L866.866 410.914L862.777 416.3C863.521 417.228 865.379 415.186 868.167 416.671C870.768 418.157 880.618 427.628 883.034 432.271C885.264 436.728 882.662 440.443 884.707 442.671Z" fill="#3F71B7"/>
<path d="M897.16 269.586C899.947 266.614 893.814 260.671 893.814 260.671C893.814 260.671 887.867 254.357 885.08 257.514C883.036 259.743 885.637 263.643 883.221 268.1C880.806 272.743 870.956 282.214 868.354 283.514C865.752 284.814 863.894 282.957 862.965 283.886L867.053 289.271L872.443 293.357C873.372 292.428 871.328 290.571 872.629 287.786C873.929 285 882.85 274.414 887.124 271.814C891.398 269.4 895.115 271.814 897.16 269.586Z" fill="#3F71B7"/>
<path d="M734.92 442.486C732.132 445.457 725.999 439.329 725.999 439.329C725.999 439.329 719.867 433.386 722.654 430.414C724.699 428.186 728.601 430.786 732.876 428.186C737.336 425.586 746.07 415 747.371 412.214C748.672 409.429 746.628 407.571 747.557 406.643L752.946 410.729L757.035 416.114C756.106 417.043 754.247 415 751.645 416.3C749.044 417.6 739.194 427.257 736.778 431.714C734.362 436.543 736.964 440.257 734.92 442.486Z" fill="#3F71B7"/>
<path d="M926.336 360.957C930.425 360.957 930.425 352.229 930.425 352.229C930.425 352.229 930.797 343.5 926.708 343.5C923.735 343.5 922.806 347.957 917.974 349.257C913.142 350.557 899.575 349.629 896.788 348.514C894 347.4 894.186 344.8 892.885 344.614C891.77 344.614 891.956 350.186 891.956 351.3C891.956 352.6 891.584 357.986 892.699 358.171C893.814 358.171 893.814 355.386 896.602 354.457C899.39 353.529 912.956 352.971 917.788 354.457C922.62 356.129 923.549 360.771 926.336 360.957Z" fill="#3F71B7"/>
<path d="M694.592 411.286C689.761 413.329 685.858 402.929 685.858 402.929C685.858 402.929 681.584 392.714 686.415 390.671C689.946 389.186 693.106 394.2 699.424 393.457C705.743 392.714 721.354 385.1 724.141 382.5C726.929 379.9 725.442 376.743 726.929 376.186C728.415 375.629 730.46 382.314 731.203 383.8C731.761 385.286 734.734 391.6 733.433 392.157C731.946 392.714 730.831 389.557 727.115 389.743C723.398 389.929 707.23 395.871 702.212 399.957C696.823 404.043 697.938 409.8 694.592 411.286Z" fill="#3F71B7"/>
<path d="M933.583 309.328C938.415 307.286 934.141 297.071 934.141 297.071C934.141 297.071 930.238 286.671 925.406 288.714C921.875 290.2 922.99 295.957 917.973 300.043C912.955 304.128 896.787 310.071 893.07 310.257C889.353 310.443 888.238 307.286 886.751 307.843C885.265 308.4 888.424 314.714 888.982 316.2C889.539 317.686 891.769 324.371 893.256 323.814C894.743 323.257 893.256 319.914 896.044 317.5C898.831 314.9 914.442 307.286 920.76 306.543C927.079 305.8 930.238 310.814 933.583 309.328Z" fill="#3F71B7"/>
<path d="M869.468 230.957C871.513 225.943 861.477 221.857 861.477 221.857C861.477 221.857 851.628 217.4 849.583 222.414C848.097 225.943 852.929 229.286 852.185 235.786C851.442 242.286 844.008 258.257 841.592 261.228C839.176 264.2 836.017 262.714 835.46 264.2C834.902 265.686 841.406 267.914 842.707 268.471C844.194 269.028 850.327 272.186 850.884 270.7C851.442 269.214 848.283 268.1 848.468 264.2C848.654 260.3 854.415 243.586 858.504 238.386C862.406 233.371 868.168 234.486 869.468 230.957Z" fill="#3F71B7"/>
<path d="M770.23 477.586C768.186 482.6 758.336 478.143 758.336 478.143C758.336 478.143 748.301 474.057 750.345 469.043C751.832 465.514 757.407 466.629 761.495 461.429C765.398 456.229 771.159 439.514 771.531 435.614C771.717 431.714 768.557 430.6 769.115 429.114C769.672 427.629 775.805 430.786 777.292 431.343C778.779 431.9 785.097 434.314 784.54 435.614C783.982 437.1 780.823 435.614 778.407 438.586C775.991 441.557 768.557 457.529 767.814 464.029C767.071 470.714 771.717 474.057 770.23 477.586Z" fill="#3F71B7"/>
<path d="M686.415 309.143C681.584 307.1 685.858 296.886 685.858 296.886C685.858 296.886 689.761 286.486 694.592 288.529C698.123 290.014 697.008 295.771 702.026 299.857C707.044 303.943 723.212 309.886 726.929 310.071C730.646 310.257 731.761 307.1 733.247 307.657C734.734 308.214 731.575 314.529 731.017 316.014C730.46 317.5 728.23 324.186 726.743 323.629C725.256 323.071 726.743 319.729 723.955 317.314C721.168 314.714 705.743 307.1 699.424 306.357C693.106 305.614 689.761 310.629 686.415 309.143Z" fill="#3F71B7"/>
<path d="M925.407 411.471C930.239 413.514 934.142 403.114 934.142 403.114C934.142 403.114 938.416 392.9 933.584 390.857C930.053 389.371 926.894 394.386 920.575 393.457C914.257 392.714 898.646 385.1 895.858 382.5C893.071 379.9 894.558 376.743 893.071 376.186C891.584 375.629 889.354 382.314 888.796 383.614C888.239 385.1 885.265 391.414 886.566 391.971C888.053 392.529 889.168 389.186 892.885 389.557C896.602 389.743 912.77 395.686 917.788 399.771C922.991 404.229 921.876 409.986 925.407 411.471Z" fill="#3F71B7"/>
<path d="M765.584 310.071C763.54 305.057 757.964 302.643 752.947 304.686C748.115 306.728 745.699 312.671 747.743 317.686C749.787 322.7 755.363 325.114 760.38 323.071C765.212 320.843 767.628 315.086 765.584 310.071Z" fill="#1F589B"/>
<path d="M874.486 313.6C872.442 308.586 866.867 306.171 861.849 308.214C857.017 310.257 854.601 316.2 856.646 321.214C858.69 326.229 864.265 328.643 869.283 326.6C874.3 324.557 876.53 318.8 874.486 313.6Z" fill="#1F589B"/>
<path d="M834.531 284.071C832.487 279.057 826.912 276.643 821.894 278.686C816.876 280.728 814.646 286.671 816.691 291.686C818.735 296.7 824.31 299.114 829.328 297.071C834.345 295.028 836.575 289.271 834.531 284.071Z" fill="#1F589B"/>
<path d="M752.947 365.414C750.903 360.4 745.328 357.986 740.31 360.028C735.478 362.071 733.062 368.014 735.106 373.028C737.151 378.043 742.726 380.457 747.744 378.414C752.761 376.371 754.991 370.614 752.947 365.414Z" fill="#1F589B"/>
<path d="M796.062 406.829C794.018 401.814 788.443 399.4 783.425 401.443C778.593 403.486 776.177 409.428 778.222 414.443C780.266 419.457 785.841 421.871 790.859 419.828C795.691 417.6 798.107 411.843 796.062 406.829Z" fill="#1F589B"/>
<path d="M872.814 357.8C870.77 352.786 865.195 350.371 860.177 352.414C855.345 354.457 852.929 360.4 854.974 365.414C857.018 370.428 862.593 372.843 867.611 370.8C872.443 368.757 874.859 363 872.814 357.8Z" fill="#1F589B"/>
<path d="M847.539 401.257C845.495 396.243 839.919 393.828 834.902 395.871C830.07 397.914 827.654 403.857 829.698 408.871C831.742 413.886 837.318 416.3 842.335 414.257C847.167 412.028 849.583 406.271 847.539 401.257Z" fill="#1F589B"/>
<path d="M833.973 327.714C831.928 322.7 826.353 320.286 821.335 322.328C816.504 324.371 814.088 330.314 816.132 335.328C818.176 340.343 823.751 342.757 828.769 340.714C833.601 338.671 836.017 332.914 833.973 327.714Z" fill="#1F589B"/>
<path d="M823.195 370.243C821.151 365.229 815.576 362.814 810.558 364.857C805.726 366.9 803.31 372.843 805.354 377.857C807.399 382.871 812.974 385.286 817.992 383.243C822.823 381.014 825.239 375.257 823.195 370.243Z" fill="#1F589B"/>
<path d="M790.115 349.628C788.071 344.614 782.496 342.2 777.478 344.243C772.646 346.286 770.23 352.228 772.274 357.243C774.319 362.257 779.894 364.671 784.912 362.628C789.743 360.586 792.159 354.828 790.115 349.628Z" fill="#1F589B"/>
<path d="M801.08 297.628C799.036 292.614 793.46 290.2 788.443 292.243C783.611 294.286 781.195 300.228 783.239 305.243C785.283 310.257 790.859 312.671 795.876 310.628C800.708 308.586 803.124 302.643 801.08 297.628Z" fill="#1F589B"/>
</g>
<path d="M5 1H1435V-1H5V1ZM1439 5V495H1441V5H1439ZM1435 499H4.99998V501H1435V499ZM1 495V5H-1V495H1ZM4.99998 499C2.79085 499 1 497.209 1 495H-1C-1 498.314 1.68627 501 4.99998 501V499ZM1439 495C1439 497.209 1437.21 499 1435 499V501C1438.31 501 1441 498.314 1441 495H1439ZM1435 1C1437.21 1 1439 2.79086 1439 5H1441C1441 1.6863 1438.31 -1 1435 -1V1ZM5 -1C1.68629 -1 -1 1.68629 -1 5H1C1 2.79086 2.79086 1 5 1V-1Z" fill="#D1D1D1"/>
<defs>
<clipPath id="clip0">
<path d="M0 5C0 2.23857 2.23858 0 5 0H1435C1437.76 0 1440 2.23858 1440 5V495C1440 497.761 1437.76 500 1435 500H4.99998C2.23856 500 0 497.761 0 495V5Z" fill="white"/>
</clipPath>
<clipPath id="clip1">
<rect width="685" height="565" fill="white" transform="translate(847 16)"/>
</clipPath>
</defs>
</svg>
