<svg width="1440" height="500" viewBox="0 0 1440 500" fill="none" xmlns="http://www.w3.org/2000/svg">
<g clip-path="url(#clip0)">
<rect width="1440" height="500" fill="#8DBEC7"/>
<g clip-path="url(#clip1)">
<path d="M2014.02 489.615C2002.89 539.174 1993.13 594.223 2004.26 641.952C2004.57 643.02 2004.72 644.24 2005.02 645.307C2001.98 645.307 1998.77 645.307 1995.57 645.307C1992.68 645.307 1989.63 645.307 1986.43 645.307C1971.33 645.459 1954.87 645.46 1937.33 645.612C1925.9 645.612 1914.01 645.764 1901.51 645.764C1769.02 646.374 1581.04 646.832 1372.48 646.832C1108.27 646.832 876.996 646.222 749.999 645.155C750.152 643.935 750.152 642.867 750.304 641.647C751.981 605.355 725.301 567.995 700.146 538.412C669.044 501.967 636.266 452.56 658.068 409.863C682.003 362.896 750.609 364.726 791.925 332.245C850.926 286.041 838.729 184.94 896.663 137.211C933.1 107.17 986.155 108.543 1032.35 118.454C1078.54 128.366 1124.59 145.445 1171.7 141.633C1237.1 136.143 1291.53 91.9212 1346.41 56.0861C1401.3 20.251 1470.97 -9.33206 1530.88 17.2012C1594.76 45.4118 1619.61 124.402 1675.41 166.336C1722.37 201.714 1784.72 206.441 1842.96 213.761C1901.2 221.233 1964.47 235.719 2000.15 282.381C2043.9 339.26 2029.72 419.774 2014.02 489.615Z" fill="#E8FAFF"/>
<path d="M1520.11 6.85483H1277.09V565.425H1520.11V6.85483Z" fill="#F4DCE9"/>
<path d="M1503.49 23.6287H1293.71V149.128H1503.49V23.6287Z" fill="#FCF0F6"/>
<path d="M1503.49 177.491H1293.71V302.99H1503.49V177.491Z" fill="#FCF0F6"/>
<path d="M1503.49 324.034H1292.34V391.739H1503.49V324.034Z" fill="#F7E8F1"/>
<path d="M1503.49 402.261H1292.34V469.967H1503.49V402.261Z" fill="#F7E8F1"/>
<path d="M1503.49 480.641H1292.34V548.346H1503.49V480.641Z" fill="#F7E8F1"/>
<path d="M1430.92 352.702H1364.91V366.273H1430.92V352.702Z" fill="#F4DCE9"/>
<path d="M1430.92 429.404H1364.91V442.976H1430.92V429.404Z" fill="#F4DCE9"/>
<path d="M1312.46 68.3083H1293.71V148.975H1312.46V68.3083Z" fill="#EFD0E3"/>
<path d="M1331.21 68.3083H1312.46V148.975H1331.21V68.3083Z" fill="#EAC3DD"/>
<path d="M1384.98 130.186V148.942H1465.63V130.186H1384.98Z" fill="#E5B5D8"/>
<path d="M1385 98.2969V117.053H1465.65V98.2969H1385Z" fill="#EFD0E3"/>
<path d="M1390.02 116.606V130.178H1460.61V116.606H1390.02Z" fill="#EAC3DD"/>
<path d="M1349.12 66.4753L1331.31 72.3329L1356.49 148.967L1374.31 143.109L1349.12 66.4753Z" fill="#E5B5D8"/>
<path d="M1396.31 234.827H1306.82V302.99H1396.31V234.827Z" fill="#EAC3DD"/>
<path d="M1401.95 229.49H1301.33V246.569H1401.95V229.49Z" fill="#EFD0E3"/>
<path d="M1491.14 243.977H1413.69V302.99H1491.14V243.977Z" fill="#EAC3DD"/>
<path d="M1496.02 239.402H1408.97V254.193H1496.02V239.402Z" fill="#EFD0E3"/>
<path d="M1168.08 53.8217H1069.9V180.083H1168.08V53.8217Z" fill="#F4DCE9"/>
<path d="M1160.77 62.0561H1077.37V172.001H1160.77V62.0561Z" fill="#FCF0F6"/>
<path d="M1144.3 72.1205H1093.69V83.7098H1144.3V72.1205Z" fill="#F4DCE9"/>
<path d="M1152.23 97.1288H1085.91V104.143H1152.23V97.1288Z" fill="#F4DCE9"/>
<path d="M1152.23 108.718H1085.91V115.733H1152.23V108.718Z" fill="#F4DCE9"/>
<path d="M1152.23 120.307H1085.91V127.322H1152.23V120.307Z" fill="#F4DCE9"/>
<path d="M1152.23 131.897H1085.91V138.911H1152.23V131.897Z" fill="#F4DCE9"/>
<path d="M1152.23 147.45H1116.25V158.582H1152.23V147.45Z" fill="#F4DCE9"/>
<path d="M1035.3 53.8217H937.113V180.083H1035.3V53.8217Z" fill="#F4DCE9"/>
<path d="M1027.98 62.0561H944.584V172.001H1027.98V62.0561Z" fill="#FCF0F6"/>
<path d="M1017.15 72.1205H955.408V83.7098H1017.15V72.1205Z" fill="#F4DCE9"/>
<path d="M1017.15 106.431H955.408V113.598H1017.15V106.431Z" fill="#F4DCE9"/>
<path d="M1017.15 119.697H955.408V126.864H1017.15V119.697Z" fill="#F4DCE9"/>
<path d="M1017.15 133.116H955.408V140.283H1017.15V133.116Z" fill="#F4DCE9"/>
<path d="M1013.19 156.6C1013.19 161.327 1009.22 165.292 1004.5 165.292C999.772 165.292 995.809 161.327 995.809 156.6C995.809 151.873 999.772 147.908 1004.5 147.908C1009.38 147.908 1013.19 151.873 1013.19 156.6Z" fill="#F4DCE9"/>
<path d="M1169.31 355.294C1169.15 354.989 1169.15 354.532 1169.61 353.922C1169.76 353.617 1169.92 353.312 1170.22 352.854C1170.53 352.549 1170.83 352.092 1171.14 351.634C1171.44 351.177 1171.9 350.719 1172.2 350.262C1172.66 349.805 1173.12 349.195 1173.57 348.585C1174.03 347.975 1174.49 347.365 1175.1 346.602C1175.56 345.992 1176.17 345.23 1176.62 344.467C1176.78 344.315 1176.93 344.01 1177.08 343.857C1177.23 343.705 1177.39 343.4 1177.54 343.247C1177.84 342.79 1178 342.485 1178.3 342.028C1178.61 341.57 1178.76 341.113 1179.06 340.655C1179.37 340.198 1179.67 339.74 1179.83 339.283C1180.28 338.368 1180.89 337.3 1181.35 336.385C1181.66 335.928 1181.81 335.318 1182.11 334.861C1182.42 334.403 1182.57 333.793 1182.87 333.183C1183.79 331.048 1184.86 328.761 1185.77 326.321C1186.69 323.881 1187.45 321.441 1188.21 318.697C1188.97 316.104 1189.74 313.512 1190.35 310.92C1191.11 308.48 1191.72 305.887 1192.33 303.6C1192.94 301.313 1193.7 299.025 1194.46 296.891C1195.22 294.756 1195.99 292.773 1196.75 290.943C1197.51 289.114 1198.43 287.436 1199.19 286.064C1200.1 284.691 1201.02 283.471 1201.93 282.557C1203.76 280.727 1205.74 279.812 1207.57 280.117C1209.4 280.422 1210.93 281.947 1211.99 284.386C1213.06 286.826 1213.67 290.181 1213.82 294.298C1213.82 296.433 1213.67 298.568 1213.37 301.008C1213.06 303.448 1212.6 306.04 1211.99 308.632C1211.38 311.377 1210.47 314.122 1209.4 317.019C1208.33 319.917 1206.96 322.814 1205.44 325.711C1203.91 328.608 1202.08 331.506 1200.25 333.946C1198.43 336.538 1196.44 338.825 1194.46 340.96C1194 341.418 1193.39 342.028 1192.94 342.485C1192.48 342.943 1191.87 343.4 1191.41 343.857C1190.5 344.772 1189.43 345.687 1188.36 346.45C1187.91 346.907 1187.3 347.212 1186.84 347.67C1186.38 347.975 1185.92 348.432 1185.31 348.737C1184.86 349.042 1184.4 349.347 1183.94 349.652C1183.64 349.805 1183.48 349.957 1183.18 350.11C1182.87 350.262 1182.72 350.414 1182.42 350.567C1181.5 351.177 1180.59 351.634 1179.67 352.092C1178.76 352.549 1178 353.007 1177.23 353.312C1176.47 353.617 1175.71 353.922 1174.95 354.227C1174.18 354.532 1173.57 354.684 1172.97 354.837C1172.66 354.989 1172.36 354.989 1172.2 354.989C1171.9 354.989 1171.75 355.142 1171.44 355.142C1170.98 355.142 1170.53 355.294 1170.22 355.294C1169.92 355.752 1169.46 355.599 1169.31 355.294Z" fill="#F17785"/>
<path d="M1277.09 565.425C1275.72 565.578 1274.5 564.663 1274.2 563.443L1243.71 431.082L1240.2 415.68C1238.98 410.496 1242.18 405.311 1247.36 404.091C1252.55 402.871 1257.73 406.073 1258.95 411.258C1258.95 411.563 1259.1 411.868 1259.1 412.173L1261.39 428.947L1279.38 562.528C1279.53 563.9 1278.47 565.273 1277.09 565.425Z" fill="url(#paint0_linear)"/>
<path d="M1158.63 415.68L1157.87 418.883L1155.58 428.794L1124.48 563.443C1124.18 564.663 1122.96 565.578 1121.59 565.425C1120.21 565.273 1119.15 563.9 1119.3 562.528L1137.75 425.592L1139.27 414.155L1139.42 412.63C1141.1 411.106 1147.35 409.581 1157.11 408.208C1158.79 410.343 1159.24 412.935 1158.63 415.68Z" fill="url(#paint1_linear)"/>
<path d="M1157.41 408.361C1158.79 410.496 1159.24 413.088 1158.63 415.68L1157.87 418.882L1155.58 428.794C1149.64 427.879 1143.69 426.812 1137.9 425.592L1139.42 414.155L1139.58 412.63C1141.4 411.105 1147.66 409.581 1157.41 408.361Z" fill="#210F33"/>
<path d="M1261.39 428.947C1255.6 429.862 1249.8 430.472 1243.71 431.082L1240.2 415.68C1238.98 410.496 1242.18 405.311 1247.36 404.091C1252.55 402.871 1257.73 406.073 1258.95 411.258C1258.95 411.563 1259.1 411.868 1259.1 412.173L1261.39 428.947Z" fill="#210F33"/>
<path d="M1290.81 252.059C1292.03 253.431 1292.49 255.413 1292.03 257.243C1288.83 269.29 1285.33 283.014 1281.82 297.806C1277.25 317.019 1272.82 338.063 1268.86 360.326C1265.51 379.235 1262.91 397.534 1260.78 414.613L1260.17 420.255L1259.56 424.677L1249.96 424.372C1247.21 424.372 1244.62 424.22 1242.03 424.22C1205.74 423.152 1175.86 421.322 1157.87 418.882C1147.35 417.51 1140.8 415.833 1139.42 414.308C1139.27 414.155 1139.12 413.85 1139.12 413.698C1139.12 413.393 1139.27 413.088 1139.58 412.783C1141.25 411.258 1147.5 409.733 1157.26 408.361C1174.95 405.921 1204.22 404.091 1239.89 403.024C1241.27 388.08 1243.25 372.373 1246.14 356.362C1250.26 333.336 1255.6 311.682 1261.39 292.316C1265.96 276.762 1270.99 262.733 1275.72 250.686C1276.18 249.466 1277.25 248.551 1278.62 248.246C1283.04 247.179 1287.92 248.704 1290.81 252.059Z" fill="url(#paint2_linear)"/>
<path d="M1237 175.051C1242.33 175.661 1248.43 177.643 1250.11 182.066C1251.79 186.793 1247.82 191.673 1247.52 196.552C1247.21 200.822 1249.65 204.787 1252.55 207.989C1255.44 211.344 1258.95 214.241 1261.54 217.748C1267.03 225.373 1267.64 235.437 1263.68 243.824C1259.71 252.211 1251.63 258.768 1242.03 262.275C1232.42 265.783 1221.75 266.24 1211.54 264.105C1204.37 262.733 1196.9 259.531 1193.85 253.736C1191.41 248.856 1192.48 243.367 1194.46 238.334C1196.44 233.302 1199.34 228.728 1200.56 223.543C1201.78 218.206 1201.17 212.564 1200.56 207.074C1199.95 201.584 1199.49 195.942 1201.02 190.605C1205.29 177.338 1222.97 173.526 1237 175.051Z" fill="url(#paint3_linear)"/>
<path d="M1104.36 374.203C1095.82 374.813 1089.42 382.437 1090.33 390.977C1095.52 436.571 1110 492.23 1132.56 528.98C1136.22 534.927 1143.54 537.367 1150.1 534.927C1151.32 534.47 1152.38 534.012 1153.6 533.555C1153.6 533.555 1153.6 533.555 1153.76 533.555C1158.18 531.573 1160.62 526.998 1160.16 522.271C1155.43 483.233 1123.72 408.361 1123.11 407.141C1142.93 412.02 1163.36 414.155 1183.79 413.545C1193.24 413.24 1203 412.325 1211.84 408.971C1220.68 405.463 1228.76 399.211 1232.73 390.519C1237.15 380.76 1235.62 369.323 1231.36 359.564C1230.29 357.277 1229.22 354.989 1227.85 352.854L1232.42 353.312L1230.9 333.336H1213.21C1173.88 364.749 1128.29 372.373 1104.82 374.05C1104.66 374.05 1104.51 374.203 1104.36 374.203Z" fill="#4625AC"/>
<path d="M1122.04 374.203C1113.51 374.813 1107.1 382.437 1108.02 390.977C1113.2 436.571 1127.69 492.23 1150.25 528.98C1153.91 534.927 1161.23 537.367 1167.78 534.927C1169 534.47 1170.07 534.012 1171.29 533.555C1171.29 533.555 1171.29 533.555 1171.44 533.555C1175.86 531.573 1178.3 526.998 1177.84 522.271C1173.12 483.233 1141.41 408.361 1140.8 407.141C1160.62 412.02 1181.05 414.155 1201.47 413.545C1210.93 413.24 1220.68 412.325 1229.53 408.971C1238.37 405.463 1246.45 399.211 1250.41 390.519C1254.83 380.76 1253.31 369.323 1249.04 359.564C1244.77 349.805 1237.76 341.57 1230.9 333.336C1191.57 364.749 1145.98 372.373 1122.5 374.05C1122.35 374.05 1122.2 374.203 1122.04 374.203Z" fill="url(#paint4_linear)"/>
<path d="M1237.91 255.413C1234.71 258.921 1230.9 261.513 1226.02 262.275C1221.29 263.038 1216.26 262.275 1211.99 259.836C1213.67 255.566 1215.04 251.144 1216.11 246.721C1216.42 245.196 1216.72 243.672 1217.03 242.147C1217.33 240.164 1217.64 238.029 1217.94 236.047C1218.09 234.827 1218.24 233.455 1218.24 232.235C1218.24 231.777 1218.24 231.472 1218.4 231.015C1218.55 228.728 1218.7 226.288 1218.55 223.848C1223.12 218.663 1229.37 215.156 1235.63 211.954C1235.02 215.766 1234.56 219.731 1234.25 223.695C1234.1 225.83 1234.1 227.965 1234.1 229.948C1234.1 232.54 1234.25 235.132 1234.41 237.572C1234.56 239.249 1234.71 241.079 1235.02 242.757C1235.93 247.331 1236.84 251.449 1237.91 255.413Z" fill="#F68895"/>
<path d="M1252.39 287.589C1252.24 287.894 1251.94 288.351 1251.78 288.656C1250.11 291.858 1248.13 295.061 1246.45 298.263C1246.3 298.568 1246.14 298.873 1245.99 299.178C1239.74 311.377 1236.23 324.796 1235.47 338.063C1235.47 338.368 1235.47 338.52 1235.47 338.825C1229.07 341.418 1221.9 343.248 1214.13 344.01C1208.49 344.62 1203.15 344.772 1197.97 344.315C1196.44 338.978 1195.07 333.946 1194.16 329.218C1180.59 265.935 1211.69 250.381 1211.69 250.381C1213.37 249.924 1214.89 249.466 1216.72 249.161C1222.82 248.246 1227.85 245.959 1234.1 245.654C1235.93 245.502 1237.76 245.502 1239.59 245.807C1240.5 246.264 1274.04 255.718 1252.39 287.589Z" fill="#2795F8"/>
<path d="M1239.44 246.111C1236.69 253.431 1231.66 259.836 1225.11 264.105C1223.12 265.478 1220.84 266.545 1218.4 266.85C1215.96 267.155 1213.37 266.85 1211.54 265.173C1208.94 263.038 1208.33 259.073 1209.25 255.718C1209.71 253.888 1210.62 252.211 1211.69 250.534C1213.37 250.076 1214.89 249.619 1216.72 249.314C1222.82 248.399 1227.85 246.111 1234.1 245.806C1235.78 245.959 1237.76 245.959 1239.44 246.111Z" fill="#F68895"/>
<path d="M1234.4 230.253C1234.4 232.845 1234.56 235.437 1234.71 237.877C1229.07 238.335 1223.43 237.725 1217.94 236.2C1218.09 234.98 1218.24 233.607 1218.24 232.387C1218.24 231.93 1218.24 231.625 1218.4 231.167C1218.55 228.88 1218.7 226.44 1218.55 224C1223.12 218.816 1229.37 215.309 1235.62 212.106C1235.01 215.918 1234.56 219.883 1234.25 223.848C1234.4 225.983 1234.4 228.118 1234.4 230.253Z" fill="#F17785"/>
<path d="M1236.08 217.748C1235.62 219.273 1235.17 220.798 1234.86 222.323C1234.71 222.933 1234.71 223.543 1234.56 224C1234.41 224.305 1234.25 224.458 1234.1 224.763C1232.12 227.508 1229.68 229.948 1226.93 231.625C1225.56 232.387 1224.19 233.15 1222.67 233.455C1217.94 234.827 1212.3 233.455 1209.4 229.49C1206.81 225.83 1207.12 220.646 1208.64 216.376C1209.25 214.851 1209.86 213.174 1210.62 211.649C1211.84 209.056 1213.21 206.617 1214.28 204.024C1215.04 201.889 1215.65 199.602 1215.81 197.315C1215.96 195.485 1215.65 193.655 1214.89 191.825C1216.42 193.35 1218.24 194.722 1220.23 195.79C1223.58 197.62 1227.09 198.992 1230.29 200.974C1233.49 203.109 1236.23 206.159 1236.84 209.819C1237.45 212.716 1236.69 215.309 1236.08 217.748Z" fill="#F68895"/>
<path d="M1236.54 213.021C1236.69 211.801 1238.06 210.886 1239.28 211.039C1240.5 211.039 1241.57 211.954 1242.18 213.174C1242.64 214.394 1242.64 215.613 1242.18 216.833C1241.72 218.358 1240.5 219.731 1239.13 220.493C1237.76 221.256 1236.08 221.561 1234.4 221.256C1235.17 218.511 1236.08 215.766 1236.54 213.021Z" fill="#F68895"/>
<path d="M1246.6 298.263C1246.45 298.568 1246.3 298.873 1246.14 299.178C1239.89 311.377 1236.39 324.796 1235.62 338.063C1235.62 338.368 1235.62 338.52 1235.62 338.825C1229.22 341.418 1222.06 343.248 1214.28 344.01C1208.64 344.62 1203.3 344.772 1198.12 344.315C1196.6 338.978 1195.22 333.946 1194.31 329.218C1198.42 331.353 1203.3 332.268 1207.88 331.658C1215.8 330.591 1222.97 325.711 1228.15 319.459C1233.19 313.207 1236.39 305.583 1238.67 297.806C1241.11 298.111 1243.86 298.111 1246.6 298.263Z" fill="#2B7EF7"/>
<path d="M1167.63 356.362C1167.48 355.447 1169.46 354.227 1173.12 353.007C1176.62 351.634 1181.96 350.262 1188.21 348.28C1191.26 347.365 1194.61 346.297 1198.12 344.925C1201.63 343.705 1205.13 342.18 1208.79 340.35C1210.62 339.435 1212.3 338.52 1214.13 337.453C1215.04 336.843 1215.81 336.385 1216.72 335.775C1217.18 335.471 1217.64 335.166 1217.94 334.861C1218.4 334.556 1218.7 334.251 1219.16 333.946C1220.84 332.726 1222.51 331.506 1224.04 330.133L1224.65 329.676L1225.26 329.066C1225.56 328.761 1226.02 328.303 1226.33 327.999C1226.63 327.694 1227.09 327.236 1227.39 326.931L1227.7 326.626L1228 326.321L1228.46 325.711C1228.76 325.406 1229.07 324.949 1229.37 324.491C1229.68 324.034 1229.98 323.729 1230.29 323.271C1230.9 322.509 1231.51 321.746 1231.97 320.831C1233.03 319.307 1233.95 317.629 1234.71 315.952C1236.39 312.597 1237.61 308.937 1238.52 305.43C1238.98 303.6 1239.44 301.77 1239.74 300.093C1240.05 298.263 1240.35 296.586 1240.66 294.908C1241.27 291.401 1241.57 288.046 1242.03 284.996C1242.49 281.947 1242.79 278.897 1243.25 276.304C1243.71 273.712 1244.16 271.425 1244.77 269.442C1245.99 265.63 1247.52 263.343 1249.35 263.19C1251.18 263.038 1253.16 264.868 1255.14 268.375C1256.05 270.205 1256.97 272.34 1257.88 275.085C1258.65 277.677 1259.41 280.879 1260.02 284.386C1260.63 287.894 1260.93 291.858 1260.93 296.128C1260.93 298.263 1260.78 300.55 1260.63 302.99C1260.32 305.278 1260.02 307.717 1259.41 310.31C1258.34 315.342 1256.66 320.526 1253.92 325.559C1252.55 328.151 1251.02 330.743 1249.19 333.031C1248.28 334.251 1247.36 335.471 1246.3 336.538C1245.84 337.148 1245.23 337.605 1244.77 338.215C1244.32 338.825 1243.71 339.283 1243.1 339.893L1242.33 340.655L1241.88 341.113L1241.27 341.723C1240.66 342.18 1240.2 342.638 1239.59 343.247C1238.98 343.705 1238.37 344.162 1237.91 344.62L1237 345.23L1236.08 345.84C1233.8 347.517 1231.36 348.89 1228.92 350.262C1228.31 350.567 1227.7 350.872 1227.09 351.177C1226.48 351.482 1225.87 351.787 1225.26 352.092C1224.04 352.702 1222.82 353.159 1221.6 353.617C1219.16 354.532 1216.87 355.294 1214.43 356.057C1209.71 357.429 1205.29 358.192 1201.17 358.801C1197.05 359.259 1193.24 359.564 1189.74 359.564C1186.23 359.716 1183.18 359.564 1180.44 359.411C1177.69 359.259 1175.4 359.106 1173.42 358.801C1169.92 358.039 1167.78 357.277 1167.63 356.362Z" fill="#F68895"/>
<path d="M1253.61 254.346C1258.34 259.835 1261.24 266.698 1262.91 273.712C1264.59 280.727 1265.2 288.046 1265.81 295.213C1256.51 298.873 1246.6 300.55 1236.69 299.33C1238.37 288.199 1240.5 277.067 1242.18 265.935C1242.64 263.038 1243.09 259.988 1244.92 257.701C1246.91 255.261 1250.56 253.888 1253.61 254.346Z" fill="#2795F8"/>
<path d="M1180.89 352.549C1176.01 348.127 1168.09 348.28 1162.29 351.482C1156.5 354.684 1152.54 360.326 1149.64 366.426C1158.02 367.951 1166.87 366.731 1174.64 363.224C1176.62 362.309 1178.61 361.241 1180.13 359.716C1181.65 358.039 1181.5 354.684 1180.89 352.549Z" fill="#F68895"/>
<path d="M1233.19 219.426C1233.34 219.121 1233.64 218.968 1233.8 218.663C1234.25 218.206 1234.56 217.748 1234.86 217.291C1235.47 216.376 1236.08 215.461 1236.39 214.546C1237.15 212.869 1237.15 211.801 1237 211.801C1236.84 211.801 1236.54 212.716 1235.62 214.241C1235.17 215.004 1234.71 215.766 1233.95 216.681C1233.64 217.138 1233.19 217.596 1232.88 218.053C1232.73 218.206 1232.42 218.511 1232.27 218.663C1232.12 218.816 1231.81 219.121 1231.66 219.273C1230.14 220.798 1228.31 221.713 1226.93 222.476C1226.78 222.018 1226.78 221.561 1226.63 221.103C1225.41 217.291 1222.21 214.546 1218.85 212.411C1216.87 211.191 1215.81 210.886 1213.37 211.191C1212.45 211.344 1211.54 211.496 1210.62 211.649C1209.86 213.174 1209.1 214.699 1208.64 216.376C1207.12 220.646 1206.81 225.678 1209.4 229.49C1212.15 233.455 1217.94 234.827 1222.67 233.455C1222.82 233.455 1223.12 233.302 1223.28 233.302C1223.73 233.302 1224.34 233.15 1225.11 232.997C1226.02 232.692 1226.93 232.387 1228 231.777C1229.07 231.167 1229.98 230.405 1230.9 229.49C1232.73 227.66 1234.1 225.525 1234.71 224C1235.47 222.476 1235.62 221.408 1235.47 221.408C1235.32 221.408 1234.86 222.323 1233.95 223.695C1233.03 225.068 1231.81 227.05 1229.98 228.88C1229.07 229.795 1228.15 230.558 1227.24 231.167C1227.09 231.32 1226.93 231.32 1226.78 231.472C1227.09 228.88 1227.39 226.135 1227.09 223.695C1228.61 223.086 1230.59 222.018 1232.42 220.493C1232.73 219.883 1232.88 219.731 1233.19 219.426Z" fill="#FBD9E5"/>
<path d="M735.566 565.425C736.938 565.578 738.157 564.663 738.462 563.443L769.411 429.404L773.07 413.85C774.29 408.666 770.936 403.329 765.752 402.109C760.569 400.889 755.233 404.244 754.013 409.428C754.013 409.733 753.86 410.038 753.86 410.343L751.574 427.269L733.431 562.528C733.126 563.9 734.194 565.273 735.566 565.425Z" fill="url(#paint5_linear)"/>
<path d="M855.397 413.85L856.159 417.205L858.446 427.269L889.852 563.595C890.157 564.968 891.376 565.73 892.748 565.578C894.121 565.425 895.188 564.053 895.035 562.68L876.436 424.22L874.911 412.63L874.759 411.106C873.082 409.581 866.678 408.056 856.769 406.683C855.397 408.513 854.787 411.258 855.397 413.85Z" fill="url(#paint6_linear)"/>
<path d="M856.616 406.378C855.243 408.513 854.786 411.105 855.396 413.698L856.158 417.053L858.445 427.117C864.543 426.202 870.489 425.135 876.283 423.915L874.758 412.325L874.606 410.8C872.929 409.276 866.678 407.751 856.616 406.378Z" fill="#210F33"/>
<path d="M751.572 427.269C757.366 428.184 763.311 428.794 769.41 429.404L773.069 413.85C774.288 408.666 770.934 403.329 765.751 402.109C760.567 400.889 755.231 404.244 754.012 409.428C754.012 409.733 753.859 410.038 753.859 410.343L751.572 427.269Z" fill="#210F33"/>
<path d="M721.691 248.399C720.472 249.771 719.862 251.754 720.472 253.583C723.673 265.783 727.18 279.659 730.839 294.603C735.412 313.969 739.986 335.318 743.95 357.887C747.304 377.1 750.048 395.552 752.183 412.783L752.945 418.425L753.555 422.847L763.16 422.542C765.904 422.542 768.496 422.39 771.24 422.39C807.982 421.322 838.168 419.34 856.463 417.053C867.135 415.68 873.691 414.003 875.063 412.325C875.215 412.173 875.368 411.868 875.368 411.715C875.368 411.41 875.216 411.106 874.911 410.801C873.234 409.276 866.83 407.751 856.921 406.378C839.083 403.938 809.507 402.109 773.374 401.041C772.002 385.945 769.868 370.086 767.124 353.769C763.007 330.438 757.671 308.632 751.725 288.961C746.999 273.255 741.968 259.073 737.242 246.721C736.785 245.502 735.717 244.434 734.345 244.282C729.467 243.367 724.588 245.044 721.691 248.399Z" fill="url(#paint7_linear)"/>
<path d="M793.348 414.613C793.348 414.613 845.793 422.847 887.718 414.613L878.571 542.247C878.571 542.247 903.574 550.939 922.631 542.247L931.779 398.144C931.779 380.302 917.295 365.968 899.458 366.121L862.106 366.426C862.106 366.578 820.79 363.529 793.348 414.613Z" fill="url(#paint8_linear)"/>
<path d="M954.493 398.144L945.346 542.247C934.826 547.126 922.477 546.516 913.635 545.144C916.684 544.534 919.885 543.619 922.782 542.247L931.93 398.144C931.93 381.522 919.276 367.951 903.268 366.273L922.325 366.121C939.857 365.968 954.493 380.455 954.493 398.144Z" fill="#311649"/>
<path d="M862.105 366.578C834.968 374.355 810.27 391.892 793.499 414.613C791.06 413.24 788.773 411.868 786.334 410.496C776.272 404.701 766.514 398.449 758.587 390.062C751.574 382.742 746.238 373.288 744.561 363.376C744.408 362.614 744.408 362.004 744.256 361.241C743.798 357.886 743.798 354.532 744.408 351.177C782.065 350.262 820.027 350.872 857.684 349.957C857.684 350.567 857.684 351.177 857.684 351.634C857.836 356.972 859.208 362.156 862.105 366.578Z" fill="#CBCACC"/>
<path d="M856.922 349.957C820.637 355.599 784.2 354.684 748.067 348.737C746.39 348.432 744.866 347.975 743.341 347.06C740.749 345.687 738.615 343.4 737.243 340.808C736.023 338.368 735.413 335.47 735.718 332.421C736.938 322.661 738.005 312.749 739.225 302.99C740.597 291.401 742.122 279.354 748.22 269.442C755.69 257.243 768.801 250.229 782.065 244.434C784.809 243.214 787.554 242.147 790.298 241.079C797.159 238.334 803.104 242.452 810.422 243.367C811.794 243.062 813.014 242.757 814.386 242.452C816.673 243.214 818.96 243.977 821.094 244.891C829.784 248.246 838.474 252.821 842.743 260.75C845.945 266.698 846.25 273.56 846.707 280.269C848.384 303.753 851.738 326.931 856.922 349.957Z" fill="#DDDDDD"/>
<path d="M821.398 298.72C820.179 307.107 818.502 315.494 816.062 323.729L815.91 324.186C815.757 324.034 815.757 323.881 815.605 323.881C813.166 320.221 810.726 316.409 808.44 312.597C802.189 302.838 796.395 292.773 791.669 282.252C786.486 270.357 782.827 257.701 782.064 244.892C784.809 243.672 787.553 242.604 790.297 241.537C797.158 238.792 803.104 242.909 810.421 243.824C811.794 243.519 813.013 243.214 814.385 242.909C816.672 243.672 818.959 244.434 821.093 245.349C823.685 262.733 823.838 280.879 821.398 298.72Z" fill="#2795F8"/>
<path d="M814.995 238.03L809.354 243.214L788.62 234.675C788.467 231.015 788.315 227.355 788.162 224C788.01 220.341 787.858 216.986 787.705 214.089C795.175 220.951 805.238 227.203 814.995 229.948C814.842 231.777 814.995 234.522 814.995 237.42C814.995 237.572 814.995 237.877 814.995 238.03Z" fill="#F68895"/>
<path d="M777.949 187.555C779.169 194.875 780.236 202.042 781.456 209.361C781.913 212.259 782.523 215.461 784.2 217.901C785.877 220.341 789.231 222.018 791.975 220.798C791.518 213.479 790.298 206.464 789.841 199.145C789.688 197.162 789.536 195.18 788.621 193.502C786.944 189.843 781.913 188.165 777.949 187.555Z" fill="url(#paint9_linear)"/>
<path d="M1149.79 345.992H623.662V361.394H1149.79V345.992Z" fill="#58317A"/>
<path d="M814.995 237.42C809.811 237.572 804.628 236.505 800.054 234.217C795.328 231.93 791.212 228.27 788.162 224.001C788.01 220.341 787.858 216.986 787.705 214.089C795.175 220.951 805.238 227.203 814.995 229.948C814.842 231.93 814.842 234.522 814.995 237.42Z" fill="#F17785"/>
<path d="M820.18 179.168C822.772 185.268 823.229 192.283 821.4 198.687C820.18 194.57 818.351 190.3 817.131 186.03C816.674 184.658 816.369 183.286 816.674 181.913C816.826 180.541 818.655 179.016 820.18 179.168Z" fill="url(#paint10_linear)"/>
<path d="M826.125 217.443C824.753 223.085 820.789 227.813 815.605 230.252C810.422 232.692 804.171 232.54 798.988 229.795C797.768 229.185 796.701 228.423 795.634 227.66C789.84 222.933 786.791 215.003 786.334 207.226C785.724 198.23 788.011 189.385 789.383 180.388C798.225 178.101 808.592 173.984 817.74 174.594C816.215 184.963 822.618 194.875 825.363 204.787C826.582 209.209 827.04 213.326 826.125 217.443Z" fill="#F68895"/>
<path d="M785.42 204.634C790.756 199.907 793.347 192.435 791.975 185.573C798.683 187.86 806.459 187.403 813.167 184.963C819.875 182.523 825.668 177.796 829.327 171.696C822.009 166.359 812.709 162.547 803.562 163.157C799.751 163.462 795.787 164.224 792.585 166.207C789.231 168.189 786.639 171.391 785.877 175.204C783.133 174.441 779.931 176.119 778.407 178.558C776.882 180.846 776.577 183.896 777.187 186.64C777.644 189.385 778.864 191.978 780.084 194.57C781.608 197.62 784.048 201.432 785.42 204.634Z" fill="url(#paint11_linear)"/>
<path d="M821.4 298.72C820.18 307.107 818.503 315.494 816.064 323.729H815.759C813.319 320.069 810.88 316.257 808.593 312.445L806.764 255.871L801.275 247.789L809.356 243.367L814.996 244.129L812.1 255.261L821.4 298.72Z" fill="#311649"/>
<path d="M788.011 234.065L809.355 243.367L803.104 254.041L783.895 243.214L788.011 234.065Z" fill="#52B5FF"/>
<path d="M814.996 238.03L809.355 243.367L815.606 253.736L820.332 243.824L814.996 238.03Z" fill="#52B5FF"/>
<path d="M901.439 254.041L884.364 338.673H820.332V345.992H882.839H887.261H998.707L1017.15 254.041H901.439Z" fill="#311649"/>
<path d="M773.681 284.844C773.681 284.844 772.004 312.14 777.492 323.881C777.492 323.881 814.997 325.406 844.421 331.963L766.82 333.641C766.668 333.641 768.802 298.873 773.681 284.844Z" fill="#B6B6B7"/>
<path d="M841.981 336.08C847.469 333.336 854.025 333.031 859.818 335.013C865.611 336.995 870.49 341.265 873.234 346.755C862.867 348.89 852.348 349.5 841.828 347.975C842.285 344.315 841.828 339.74 841.981 336.08Z" fill="#F68895"/>
<path d="M844.724 349.347C812.556 351.482 779.32 350.719 747.152 347.517C743.035 347.06 739.224 344.62 737.395 340.96C737.395 340.96 737.395 340.96 737.395 340.808C750.658 317.172 764.532 293.383 777.643 269.747C771.392 288.961 769.41 309.547 772.155 329.523C796.09 330.438 820.331 331.201 844.419 332.116C846.096 337.453 846.096 343.857 844.724 349.347Z" fill="#DDDDDD"/>
<path d="M659.337 361.241H641.957V566.645H659.337V361.241Z" fill="#58317A"/>
<path d="M709.191 361.241H691.811V566.645H709.191V361.241Z" fill="#58317A"/>
<path d="M709.191 361.241H691.811V371.001H709.191V361.241Z" fill="#241038"/>
<path d="M1127.99 361.241H1110.61V566.645H1127.99V361.241Z" fill="#58317A"/>
<path d="M1078.29 361.241H1060.91V566.645H1078.29V361.241Z" fill="#58317A"/>
<path d="M1078.29 361.241H1060.91V371.001H1078.29V361.241Z" fill="#241038"/>
<path d="M825.515 204.939L825.362 204.787C823.228 202.957 820.484 201.889 817.739 201.279C814.538 200.517 813.013 200.669 810.117 202.042C806.153 203.872 802.341 206.312 799.597 209.819C799.597 209.819 799.597 209.819 799.597 209.666C798.53 208.141 796.7 206.312 794.261 204.787C793.956 204.634 793.651 204.329 793.346 204.177C793.041 204.024 792.736 203.872 792.432 203.719C791.822 203.414 791.212 203.109 790.755 202.804C789.687 202.347 788.62 201.889 787.705 201.737C785.876 201.279 784.656 201.279 784.656 201.432C784.656 201.584 785.723 201.889 787.4 202.499C788.315 202.804 789.23 203.262 790.297 203.719C790.755 204.024 791.364 204.329 791.974 204.634C792.279 204.787 792.584 204.939 792.889 205.092C793.194 205.244 793.499 205.397 793.804 205.702C796.091 207.227 797.92 208.904 799.14 210.276L799.292 210.429C798.835 211.039 798.377 211.801 798.072 212.564C796.091 216.681 795.938 221.561 795.938 226.135C795.938 226.44 795.938 226.745 795.938 226.898L795.786 226.745C794.566 225.678 793.346 224.305 792.279 222.78C790.145 219.731 788.773 216.528 788.01 214.089C787.096 211.801 786.791 210.276 786.638 210.276C786.486 210.276 786.638 211.954 787.248 214.394C787.858 216.833 789.23 220.188 791.364 223.39C792.432 225.068 793.804 226.44 795.023 227.508C796.395 228.575 797.615 229.338 798.835 229.947C799.292 230.1 799.75 230.252 800.054 230.405C804.933 232.54 810.726 232.54 815.605 230.405C820.789 227.965 824.752 223.085 826.125 217.596C827.039 213.326 826.582 209.209 825.515 204.939Z" fill="#FBD5E2"/>
<path d="M787.401 203.414C787.249 201.127 785.419 199.145 783.132 198.84C780.845 198.535 778.559 200.06 777.796 202.194C776.881 204.939 778.559 207.989 780.998 209.666C783.132 211.191 786.029 211.801 788.621 211.496C788.316 208.751 787.553 206.159 787.401 203.414Z" fill="#F68895"/>
</g>
</g>
<defs>
<linearGradient id="paint0_linear" x1="1250.83" y1="411.154" x2="1271.97" y2="596.878" gradientUnits="userSpaceOnUse">
<stop stop-color="#371A4F"/>
<stop offset="0.151" stop-color="#3D1D57"/>
<stop offset="0.4544" stop-color="#44215F"/>
<stop offset="1" stop-color="#462261"/>
</linearGradient>
<linearGradient id="paint1_linear" x1="1131.98" y1="424.684" x2="1153.12" y2="610.407" gradientUnits="userSpaceOnUse">
<stop stop-color="#371A4F"/>
<stop offset="0.151" stop-color="#3D1D57"/>
<stop offset="0.4544" stop-color="#44215F"/>
<stop offset="1" stop-color="#462261"/>
</linearGradient>
<linearGradient id="paint2_linear" x1="1178.89" y1="456.631" x2="1301.08" y2="232.256" gradientUnits="userSpaceOnUse">
<stop stop-color="#371A4F"/>
<stop offset="0.151" stop-color="#3D1D57"/>
<stop offset="0.4544" stop-color="#44215F"/>
<stop offset="1" stop-color="#462261"/>
</linearGradient>
<linearGradient id="paint3_linear" x1="1205.13" y1="188.565" x2="1259.47" y2="282.914" gradientUnits="userSpaceOnUse">
<stop stop-color="#371A4F"/>
<stop offset="0.151" stop-color="#3D1D57"/>
<stop offset="0.4544" stop-color="#44215F"/>
<stop offset="1" stop-color="#462261"/>
</linearGradient>
<linearGradient id="paint4_linear" x1="1202.1" y1="328.906" x2="1113.21" y2="559.65" gradientUnits="userSpaceOnUse">
<stop stop-color="#4625AC"/>
<stop offset="0.3533" stop-color="#5C31C2"/>
<stop offset="0.7076" stop-color="#6B39D0"/>
<stop offset="1" stop-color="#703CD5"/>
</linearGradient>
<linearGradient id="paint5_linear" x1="762.156" y1="409.325" x2="740.764" y2="597.25" gradientUnits="userSpaceOnUse">
<stop stop-color="#371A4F"/>
<stop offset="0.151" stop-color="#3D1D57"/>
<stop offset="0.4544" stop-color="#44215F"/>
<stop offset="1" stop-color="#462261"/>
</linearGradient>
<linearGradient id="paint6_linear" x1="882.419" y1="423.015" x2="861.027" y2="610.939" gradientUnits="userSpaceOnUse">
<stop stop-color="#371A4F"/>
<stop offset="0.151" stop-color="#3D1D57"/>
<stop offset="0.4544" stop-color="#44215F"/>
<stop offset="1" stop-color="#462261"/>
</linearGradient>
<linearGradient id="paint7_linear" x1="834.944" y1="455.341" x2="711.31" y2="228.307" gradientUnits="userSpaceOnUse">
<stop stop-color="#371A4F"/>
<stop offset="0.151" stop-color="#3D1D57"/>
<stop offset="0.4544" stop-color="#44215F"/>
<stop offset="1" stop-color="#462261"/>
</linearGradient>
<linearGradient id="paint8_linear" x1="846.963" y1="368.33" x2="925.772" y2="542.799" gradientUnits="userSpaceOnUse">
<stop stop-color="#371A4F"/>
<stop offset="0.151" stop-color="#3D1D57"/>
<stop offset="0.4544" stop-color="#44215F"/>
<stop offset="1" stop-color="#462261"/>
</linearGradient>
<linearGradient id="paint9_linear" x1="778.01" y1="204.307" x2="792.08" y2="204.307" gradientUnits="userSpaceOnUse">
<stop stop-color="#371A4F"/>
<stop offset="0.151" stop-color="#3D1D57"/>
<stop offset="0.4544" stop-color="#44215F"/>
<stop offset="1" stop-color="#462261"/>
</linearGradient>
<linearGradient id="paint10_linear" x1="816.396" y1="188.899" x2="822.398" y2="188.899" gradientUnits="userSpaceOnUse">
<stop stop-color="#371A4F"/>
<stop offset="0.151" stop-color="#3D1D57"/>
<stop offset="0.4544" stop-color="#44215F"/>
<stop offset="1" stop-color="#462261"/>
</linearGradient>
<linearGradient id="paint11_linear" x1="776.98" y1="183.778" x2="829.484" y2="183.778" gradientUnits="userSpaceOnUse">
<stop stop-color="#371A4F"/>
<stop offset="0.151" stop-color="#3D1D57"/>
<stop offset="0.4544" stop-color="#44215F"/>
<stop offset="1" stop-color="#462261"/>
</linearGradient>
<clipPath id="clip0">
<rect width="1440" height="500" fill="white"/>
</clipPath>
<clipPath id="clip1">
<rect width="1452" height="640" fill="white" transform="translate(232 -70)"/>
</clipPath>
</defs>
</svg>
