<svg width="1440" height="500" viewBox="0 0 1440 500" fill="none" xmlns="http://www.w3.org/2000/svg">
<rect width="1440" height="500" fill="#6868AD"/>
<g clip-path="url(#clip0)">
<g clip-path="url(#clip1)">
<path opacity="0.5" d="M1667.1 498.704C1661.16 534.695 1655.22 570.578 1649.28 606.569C1649.17 607.433 1648.95 608.406 1648.85 609.271C1646.58 609.271 1644.31 609.379 1641.93 609.379C1640.75 609.379 1639.67 609.379 1638.48 609.379C1634.7 609.379 1630.7 609.487 1626.6 609.487C1617.53 609.595 1607.59 609.703 1596.9 609.811C1587.08 609.919 1576.71 610.027 1565.69 610.027C1479.84 610.676 1358.03 611 1222.94 611C1057.5 611 912.039 610.46 828.24 609.595C825 609.595 821.977 609.487 818.953 609.487C817.333 609.487 815.821 609.487 814.201 609.379C811.502 609.379 808.802 609.271 806.21 609.271C805.454 609.271 804.698 609.271 804.051 609.271C802.647 609.271 801.351 609.271 800.055 609.163C796.491 609.163 793.036 609.055 789.796 609.055C789.04 608.298 788.284 607.433 787.636 606.569C761.611 577.171 747.141 537.397 749.192 497.947C751.676 448.662 779.969 401.43 822.085 375.815C862.58 351.281 912.579 346.633 953.399 322.639C992.167 299.942 1019.27 261.681 1041.41 222.556C1063.55 183.431 1082.01 141.927 1109.33 106.261C1136.76 70.5938 1175.21 40.5472 1219.91 35.6835C1267.86 30.4956 1314.94 55.4624 1349.29 89.3999C1383.63 123.337 1408.03 165.813 1434.81 205.912C1461.59 246.118 1492.37 285.567 1534.59 308.913C1576.6 332.15 1630.6 340.473 1657.16 380.571C1679.41 414.4 1673.68 458.714 1667.1 498.704Z" fill="#FFF5FB"/>
<path d="M1242.85 103.975C1249.48 63.1245 1221.75 24.6341 1180.92 18.0044C1140.09 11.3746 1101.62 39.116 1095 79.9665C1088.37 120.817 1116.1 159.307 1156.93 165.937C1197.76 172.567 1236.23 144.826 1242.85 103.975Z" fill="#F7DAE8"/>
<path d="M1168.93 154.904C1203.64 154.904 1231.78 126.75 1231.78 92.0207C1231.78 57.2912 1203.64 29.1373 1168.93 29.1373C1134.22 29.1373 1106.08 57.2912 1106.08 92.0207C1106.08 126.75 1134.22 154.904 1168.93 154.904Z" fill="white"/>
<path d="M1168.93 46.2074C1167.3 46.2074 1165.92 42.944 1165.92 38.9275C1165.92 34.911 1167.3 31.6476 1168.93 31.6476C1170.56 31.6476 1171.94 34.911 1171.94 38.9275C1171.94 42.944 1170.56 46.2074 1168.93 46.2074Z" fill="#F7DAE8"/>
<path d="M1168.93 150.637C1167.3 150.637 1165.92 147.373 1165.92 143.357C1165.92 139.34 1167.3 136.077 1168.93 136.077C1170.56 136.077 1171.94 139.34 1171.94 143.357C1171.94 147.499 1170.56 150.637 1168.93 150.637Z" fill="#F7DAE8"/>
<path d="M1116.62 94.1545C1120.64 94.1545 1123.89 92.8058 1123.89 91.1421C1123.89 89.4784 1120.64 88.1297 1116.62 88.1297C1112.6 88.1297 1109.34 89.4784 1109.34 91.1421C1109.34 92.8058 1112.6 94.1545 1116.62 94.1545Z" fill="#F7DAE8"/>
<path d="M1228.39 91.1421C1228.39 92.7738 1225.13 94.1545 1221.12 94.1545C1217.1 94.1545 1213.84 92.7738 1213.84 91.1421C1213.84 89.5104 1217.1 88.1297 1221.12 88.1297C1225.13 88.1297 1228.39 89.5104 1228.39 91.1421Z" fill="#F7DAE8"/>
<path d="M1137.07 59.3866C1135.94 60.5162 1132.68 59.261 1129.79 56.3742C1126.91 53.4873 1125.65 50.3494 1126.78 49.0942C1127.91 47.9646 1131.17 49.2198 1134.06 52.1066C1136.94 54.9935 1138.32 58.2569 1137.07 59.3866Z" fill="#F7DAE8"/>
<path d="M1210.96 133.315C1209.83 134.445 1206.57 133.19 1203.68 130.303C1200.79 127.416 1199.54 124.278 1200.67 123.023C1201.8 121.893 1205.06 123.149 1207.95 126.035C1210.83 128.797 1212.09 132.06 1210.96 133.315Z" fill="#F7DAE8"/>
<path d="M1137.07 123.023C1138.2 124.153 1136.94 127.416 1134.06 130.303C1131.17 133.19 1128.04 134.445 1126.78 133.315C1125.65 132.186 1126.91 128.922 1129.79 126.036C1132.68 123.149 1135.94 121.768 1137.07 123.023Z" fill="#F7DAE8"/>
<path d="M1210.96 49.0942C1212.09 50.2239 1210.83 53.4873 1207.95 56.3742C1205.06 59.261 1201.92 60.5162 1200.67 59.3866C1199.54 58.2569 1200.79 54.9935 1203.68 52.1066C1206.57 49.2198 1209.83 47.9646 1210.96 49.0942Z" fill="#F7DAE8"/>
<path d="M1171.82 92.0208V90.7656L1170.94 89.887C1157.26 76.8333 1146.1 67.6707 1145.1 68.8003C1144.09 69.8044 1153.12 80.3478 1165.92 93.2759C1165.92 95.0331 1165.92 96.9159 1165.92 98.7986C1165.92 120.889 1167.3 138.838 1168.93 138.838C1170.56 138.838 1171.94 120.889 1171.94 98.7986C1171.94 96.4138 1171.94 94.1545 1171.82 92.0208Z" fill="#F9D7EF"/>
<path d="M1398.38 382.73H1387.59V528.078H1398.38V382.73Z" fill="#CE91B5"/>
<path d="M709.041 382.73H698.252V528.078H709.041V382.73Z" fill="#CE91B5"/>
<path d="M1393.87 293.739H1381.07V361.895H1393.87V293.739Z" fill="#E0A9C8"/>
<path d="M715.563 293.739H702.768V361.895H715.563V293.739Z" fill="#E0A9C8"/>
<path d="M702.768 293.739H715.563V311.061C711.298 310.935 707.033 310.809 702.768 310.809V293.739Z" fill="#CE91B5"/>
<path d="M1393.87 293.739V323.361C1389.6 322.231 1385.34 321.227 1381.07 320.223V293.739H1393.87Z" fill="#CE91B5"/>
<path d="M1407.29 382.73H1396.5V528.078H1407.29V382.73Z" fill="#E0A9C8"/>
<path d="M700.009 382.73H689.221V528.078H700.009V382.73Z" fill="#E0A9C8"/>
<path d="M1411.81 388.378H684.829C679.811 388.378 675.797 384.362 675.797 379.341V376.956C675.797 371.936 679.811 367.919 684.829 367.919H1411.81C1416.82 367.919 1420.84 371.936 1420.84 376.956V379.341C1420.84 384.236 1416.82 388.378 1411.81 388.378Z" fill="#EABBD4"/>
<path d="M1382.2 307.797H714.436C701.514 307.797 690.977 297.254 690.977 284.326V271.146C690.977 258.218 701.514 247.675 714.436 247.675H1382.07C1395 247.675 1405.53 258.218 1405.53 271.146V284.326C1405.53 297.254 1395.12 307.797 1382.2 307.797Z" fill="#F7DAE8"/>
<path d="M1412.43 380.345H684.327C678.557 380.345 674.542 375.199 676.424 370.304L680.438 360.514C681.693 357.501 684.829 355.619 688.342 355.619H1408.79C1412.43 355.619 1415.57 357.627 1416.7 360.765L1420.46 370.555C1422.09 375.325 1418.08 380.345 1412.43 380.345Z" fill="#F7DAE8"/>
<path d="M795.351 485.779C797.358 498.456 796.48 511.635 792.717 523.81C809.778 527.952 827.592 528.956 845.029 527.074C847.287 524.438 846.409 520.045 844.402 517.283C842.395 514.522 839.133 513.016 835.871 511.886C832.61 510.756 829.222 510.129 826.212 508.497C819.312 504.857 815.172 496.573 816.301 488.791C810.28 485.779 802.125 484.9 795.351 485.779Z" fill="#311649"/>
<path d="M839.509 485.779C841.517 498.456 840.638 511.635 836.875 523.81C853.936 527.952 871.75 528.956 889.187 527.074C891.445 524.438 890.567 520.045 888.56 517.283C886.553 514.522 883.291 513.016 880.029 511.886C876.768 510.756 873.381 510.129 870.37 508.497C863.47 504.857 859.33 496.573 860.459 488.791C854.438 485.779 846.284 484.9 839.509 485.779Z" fill="#311649"/>
<path d="M840.386 306.417C836.623 310.308 830.476 311.814 825.333 310.056C820.189 308.425 816.175 303.53 815.422 298.258C814.419 290.978 815.046 283.824 815.924 276.544C816.426 272.778 816.928 268.887 817.429 264.996C818.684 253.825 819.813 242.654 818.558 231.483C817.178 220.313 811.784 209.142 803.881 201.36C813.164 205 822.824 208.765 829.222 216.547C833.738 222.07 836.121 228.848 838.128 235.626C842.394 250.311 844.903 265.498 845.781 280.686C845.906 282.317 845.906 283.949 846.032 285.581C845.906 292.986 845.53 301.145 840.386 306.417Z" fill="#0386E9"/>
<path d="M840.387 306.416C836.623 310.307 830.476 311.814 825.333 310.056C820.189 308.425 816.175 303.53 815.422 298.258C814.419 290.978 815.046 283.824 815.924 276.544C818.559 276.167 821.319 276.293 823.828 276.92C829.347 278.175 834.616 280.686 840.261 281.188C842.018 281.313 843.899 281.188 845.53 280.811C845.656 282.443 845.656 284.075 845.781 285.706C845.907 292.986 845.53 301.145 840.387 306.416Z" fill="#0577E8"/>
<path d="M785.441 307.421C777.412 315.328 773.398 326.75 774.777 337.67C776.157 348.59 782.932 358.757 792.717 364.656C807.645 373.693 826.839 372.312 844.402 370.555C840.262 412.98 834.993 455.78 830.853 498.079C842.771 500.715 856.319 501.092 868.237 498.079C874.384 458.542 879.653 418.502 885.8 378.965C887.305 369.425 888.685 359.886 887.305 350.347C885.925 340.808 881.284 331.394 872.879 325.997C857.448 316.207 833.864 322.483 820.943 309.805C809.401 309.052 796.982 308.425 785.441 307.421Z" fill="#311649"/>
<path d="M742.287 307.421C734.132 315.328 730.118 326.75 731.498 337.67C732.878 348.59 739.778 358.757 749.688 364.656C764.867 373.693 784.186 372.312 802.126 370.555C797.986 412.98 792.592 455.78 788.326 498.079C800.495 500.715 814.169 501.092 826.212 498.079C832.359 458.542 837.753 418.502 844.026 378.965C845.531 369.425 847.036 359.886 845.656 350.347C844.276 340.808 839.635 331.394 831.104 325.997C815.549 316.207 791.462 322.483 778.416 309.805C766.624 309.052 754.079 308.425 742.287 307.421Z" fill="#462261"/>
<path d="M828.092 240.144C827.841 248.805 826.085 257.214 824.83 265.749C822.949 278.929 822.321 292.359 823.2 305.663C823.325 308.55 823.576 311.437 823.952 314.324C797.984 318.968 770.636 317.838 745.045 311.186C745.547 307.546 746.049 303.781 746.425 300.141C748.307 282.443 748.934 264.369 747.679 246.671C747.178 239.768 746.425 232.864 746.927 225.835C747.428 218.932 749.185 211.903 753.199 206.255C756.21 201.987 760.977 198.849 766.371 196.841C766.622 196.716 766.748 196.716 766.998 196.59C773.898 194.205 781.676 193.829 788.074 195.837C792.339 197.092 796.604 198.473 800.87 200.105C801.622 200.356 802.375 200.732 803.128 200.983C804.382 201.485 805.637 202.113 806.891 202.74C812.913 205.753 818.433 209.895 822.196 215.417C826.838 222.572 828.343 231.484 828.092 240.144Z" fill="#0386E9"/>
<path d="M798.488 208.765C789.33 212.405 778.792 211.401 770.262 206.506C772.143 197.845 773.147 188.934 773.272 180.022C773.398 176.005 773.272 171.989 773.022 168.098C778.918 175.378 787.699 180.022 796.731 182.532C796.481 187.553 796.606 192.448 796.982 197.469C797.484 201.109 797.86 204.874 798.488 208.765Z" fill="#F68895"/>
<path d="M797.108 197.218C791.462 197.092 785.817 195.084 781.427 191.444C777.663 188.432 774.903 184.289 773.272 179.771C773.398 175.754 773.272 171.738 773.021 167.847C778.918 175.127 787.699 179.771 796.731 182.281C796.606 187.427 796.731 192.323 797.108 197.218Z" fill="#F17785"/>
<path d="M800.369 142.618C802.125 145.756 803.003 149.396 802.627 153.036C802.251 156.551 800.745 160.065 798.362 162.701C797.358 158.433 796.229 153.789 795.226 149.522C794.975 148.392 794.724 147.262 795.1 146.133C795.351 144.626 798.738 142.493 800.369 142.618Z" fill="#311649"/>
<path d="M803.379 181.026C802.124 186.549 796.353 190.314 790.708 190.189C788.074 190.189 785.565 189.31 783.307 188.055C780.672 186.549 778.414 184.415 776.783 181.779C773.773 177.01 772.644 171.236 772.769 165.588C772.895 159.939 774.149 154.417 775.404 148.894C781.927 145.38 791.21 144.501 798.737 145.128C798.486 152.91 799.49 160.692 801.622 168.098C801.622 168.223 801.748 168.474 801.748 168.6C802.877 172.616 804.382 176.884 803.379 181.026Z" fill="#F68895"/>
<path d="M772.77 165.588C777.036 162.073 779.168 156.174 778.039 150.777C783.935 153.287 791.086 153.287 796.731 150.149C802.251 147.011 805.889 140.233 804.509 134.083C803.756 130.694 801.624 127.556 798.362 126.427C795.1 125.297 790.96 126.803 789.831 130.067C789.204 131.824 789.455 133.707 788.702 135.338C787.824 137.095 785.817 138.225 783.935 138.476C781.928 138.853 779.921 138.602 777.914 138.476C775.907 138.351 773.774 138.476 772.018 139.355C769.132 140.861 767.752 144.25 767.627 147.513C767.627 150.777 768.756 153.789 769.885 156.802C771.14 159.939 772.645 162.324 772.77 165.588Z" fill="#462261"/>
<path d="M823.952 314.324C797.984 318.968 770.636 317.838 745.045 311.186C745.547 307.546 746.049 303.781 746.425 300.141C750.188 297.003 755.081 295.748 759.848 294.744C774.149 291.731 789.203 291.606 803.755 292.108C801.246 294.493 798.737 297.128 797.608 300.517C796.479 303.781 796.855 307.923 799.615 310.182C801.999 312.065 805.26 312.19 808.271 311.688C813.665 310.935 818.809 308.801 823.2 305.663C823.45 308.676 823.701 311.437 823.952 314.324Z" fill="#0577E8"/>
<path d="M765.745 197.092C755.458 201.611 744.293 206.38 737.393 215.292C731.873 222.321 729.49 231.232 727.483 240.018C724.723 252.068 722.716 264.243 721.21 276.418C720.332 283.698 719.83 291.354 721.838 298.383C723.97 305.412 729.239 312.065 736.515 313.571C742.035 314.7 747.68 312.943 752.949 310.935C765.87 306.04 791.462 299.639 803.505 292.986C803.881 287.966 802.627 282.694 800.494 278.301C790.333 277.799 766.246 279.179 756.336 281.564C755.332 253.198 758.97 224.705 765.745 197.092Z" fill="#0386E9"/>
<path d="M798.487 278.175C797.86 278.05 796.856 278.05 795.602 277.924C794.347 277.924 792.842 277.799 791.085 277.799C789.329 277.799 787.322 277.799 785.064 277.924C782.806 278.05 780.422 278.175 777.788 278.301C775.153 278.552 772.394 278.803 769.508 279.054C766.623 279.431 763.487 279.807 760.35 280.309C757.967 280.686 755.583 281.062 753.074 281.564C754.329 275.665 755.458 270.142 756.462 264.871C756.963 261.984 757.465 259.222 757.716 256.587C758.092 253.951 758.218 251.44 758.343 249.307C758.845 240.27 758.092 234.747 757.214 234.747C756.712 234.747 756.211 236.128 755.834 238.512C755.583 239.767 755.458 241.274 755.207 243.031C754.956 244.788 754.831 246.796 754.58 248.93C754.078 253.323 753.451 258.469 752.573 264.243C751.695 270.017 750.565 276.418 749.562 283.07V283.322L749.186 285.832L751.569 285.204C754.831 284.451 757.967 283.698 761.103 283.07C764.239 282.443 767.25 281.941 770.136 281.439C773.021 280.937 775.781 280.686 778.29 280.309C780.924 280.058 783.308 279.807 785.44 279.556C789.831 279.18 793.344 278.928 795.853 278.803C797.107 278.677 797.985 278.677 798.738 278.552C799.365 278.426 799.741 278.301 799.741 278.301C799.365 278.301 799.114 278.175 798.487 278.175Z" fill="#0577E8"/>
<path d="M798.737 218.053C795.977 220.689 791.838 221.568 787.949 221.317C781.174 220.815 774.651 217.049 770.762 211.401C767.877 207.133 766.497 201.862 766.873 196.716C773.773 194.331 781.551 193.954 787.949 195.962C792.214 197.218 796.479 198.598 800.744 200.23C801.497 202.489 802.124 204.749 802.375 207.133C802.626 211.024 801.623 215.292 798.737 218.053Z" fill="#F68895"/>
<path d="M819.562 231.107C819.939 230.981 820.817 233.241 821.82 237.006C822.824 240.772 823.828 246.043 824.329 251.943C824.831 257.842 824.957 263.239 824.706 267.13C824.455 271.021 823.953 273.406 823.577 273.406C822.698 273.406 822.448 263.867 821.319 252.319C820.19 240.646 818.684 231.358 819.562 231.107Z" fill="#0577E8"/>
<path d="M824.705 286.083L836.748 260.603L854.311 263.616L834.239 290.978L824.705 286.083Z" fill="#462261"/>
<path d="M797.232 281.564C803.254 274.033 813.29 270.017 822.824 271.146C824.706 271.397 826.964 272.025 827.466 273.908C827.842 275.163 827.215 276.418 826.713 277.548C825.458 280.184 824.204 282.819 823.075 285.455C822.322 287.087 821.57 288.719 820.315 289.974C817.806 292.359 814.043 292.735 810.53 292.484C807.017 292.359 803.505 291.731 800.243 292.986C800.494 288.844 798.863 285.33 797.232 281.564Z" fill="#F68895"/>
<path d="M836.748 272.025C839.132 272.151 841.515 271.9 843.899 272.276C846.282 272.653 848.666 273.782 849.795 275.916C850.673 277.673 850.548 279.933 849.67 281.815C848.791 283.698 847.411 285.079 845.781 286.46C842.644 289.221 838.505 291.731 834.365 290.978C830.099 290.351 826.838 286.46 826.085 282.192C825.583 278.929 826.336 274.41 828.469 271.9C830.727 269.264 833.863 271.774 836.748 272.025Z" fill="#F68895"/>
<path d="M801.623 168.6C800.87 168.098 800.118 167.596 799.24 167.219C797.609 166.466 795.852 166.09 794.096 166.215C792.34 166.341 790.709 167.219 789.204 168.223C787.071 169.73 785.189 171.738 783.935 173.997C782.806 173.119 781.426 171.989 780.046 170.734C776.282 167.219 773.899 163.705 773.523 163.956C773.397 164.081 773.773 165.086 774.777 166.592C775.655 168.098 777.286 169.981 779.168 171.863C780.673 173.244 782.179 174.374 783.433 175.127C782.931 176.131 782.555 177.135 782.304 178.265C781.677 181.152 781.802 184.164 782.68 186.925C782.429 186.8 782.053 186.674 781.802 186.423C780.673 185.67 779.544 184.666 778.415 183.411C776.408 180.901 775.153 178.139 774.401 176.131C773.523 174.123 773.021 172.868 772.895 172.868C772.77 172.868 772.895 174.248 773.523 176.382C774.15 178.516 775.153 181.528 777.411 184.164C778.54 185.545 779.795 186.549 781.175 187.302C782.178 187.929 783.182 188.18 784.186 188.432C786.193 189.436 788.325 189.938 790.584 190.063C796.229 190.189 801.999 186.423 803.254 180.901C804.383 176.884 802.878 172.617 801.623 168.6Z" fill="#FBD5E2"/>
<path d="M773.648 165.713C774.025 164.834 773.774 163.705 773.021 162.952C772.269 162.324 771.14 162.073 770.261 162.575C769.007 163.203 768.505 164.709 768.38 166.09C768.129 167.47 768.129 168.977 768.631 170.357C769.132 171.738 770.01 172.993 771.39 173.495C772.645 174.123 774.401 173.872 775.405 172.868C774.903 170.232 774.15 168.474 773.648 165.713Z" fill="#F68895"/>
<path d="M1062.55 303.028L1053.15 305.287L1050.64 305.914C1050.64 308.676 1050.76 311.312 1051.01 314.073C1051.01 314.449 1051.14 314.701 1051.14 315.077C1050.76 315.203 1050.51 315.203 1050.14 315.328C1042.86 317.211 1035.08 318.215 1027.55 318.34C1019.65 318.215 1011.5 317.085 1003.97 315.077C1004.35 312.065 1004.47 309.178 1004.47 306.165L1001.21 305.412L991.3 303.028C983.02 301.019 977.501 293.112 978.379 284.702L982.017 251.943C982.895 243.156 984.651 234.496 987.16 226.212C988.415 222.195 989.92 218.053 993.182 215.292C996.443 212.531 1000.71 211.652 1004.97 211.15C1005.22 211.15 1005.48 211.024 1005.6 211.024L1009.99 209.895L1024.67 206.255L1027.43 205.627C1033.33 207.133 1039.1 208.514 1044.99 210.02C1046 210.271 1046.87 210.522 1047.88 210.773C1052.39 211.275 1057.04 212.028 1060.42 214.915C1063.56 217.677 1065.19 221.819 1066.44 225.835C1069.08 234.245 1070.83 242.905 1071.59 251.566L1075.23 284.828C1076.35 293.112 1070.83 301.019 1062.55 303.028Z" fill="#703CD5"/>
<path d="M1050.64 305.914C1050.64 308.676 1050.76 311.312 1051.01 314.073C1050.76 314.45 1050.39 314.952 1050.14 315.328C1042.86 317.211 1035.08 318.215 1027.56 318.341C1019.65 318.215 1011.5 317.085 1003.97 315.077C1004.35 312.065 1004.47 309.178 1004.47 306.165L1001.21 305.412C1007.61 304.032 1014.13 302.777 1020.66 302.4C1031.57 301.772 1042.36 303.404 1053.15 305.287L1050.64 305.914Z" fill="#522AB5"/>
<path d="M1059.8 376.58C1048.88 374.321 1037.84 373.819 1026.93 374.948H1026.8C1015.76 373.944 1004.72 374.446 993.935 376.58C987.161 366.664 984.276 353.234 986.283 340.808C988.29 328.382 999.329 316.207 1004.35 304.785C1012.25 311.186 1017.14 316.207 1027.56 316.207C1037.47 316.207 1042.99 311.437 1050.64 305.538C1055.66 316.583 1065.44 328.633 1067.45 340.808C1069.46 353.234 1066.57 366.664 1059.8 376.58Z" fill="#311649"/>
<path d="M1066.57 347.586C1066.44 358.38 1060.8 454.4 1053.9 514.145C1048 516.028 1041.98 517.283 1035.71 517.785C1030.57 458.165 1028.18 357.753 1028.31 346.582C1028.56 330.641 1037.34 317.964 1047.88 318.215C1058.54 318.592 1066.82 331.645 1066.57 347.586Z" fill="#462261"/>
<path d="M1019.4 517.785C1013.13 517.158 1007.11 516.028 1001.21 514.145C994.311 454.4 988.666 358.38 988.541 347.586C988.29 331.645 996.569 318.592 1007.23 318.341C1017.77 318.089 1026.55 330.767 1026.8 346.707C1027.05 357.753 1024.54 458.165 1019.4 517.785Z" fill="#462261"/>
<path d="M1025.17 137.472C1030.06 136.719 1035.21 135.966 1040.1 137.096C1044.99 138.225 1049.63 141.614 1050.76 146.509C1051.51 149.773 1050.51 153.162 1051.14 156.425C1052.77 165.211 1064.44 169.479 1065.69 178.265C1066.19 182.156 1064.44 186.047 1061.93 188.934C1059.42 191.82 1056.03 193.954 1052.77 196.088C1043.49 201.987 1034.08 208.012 1024.79 213.911C1021.03 210.397 1015.64 207.384 1010.99 205.251C1006.23 203.117 1001.46 200.983 997.948 197.218C994.435 193.452 992.303 187.929 994.059 183.034C995.565 179.018 999.328 176.005 1000.08 171.738C1000.71 168.098 998.575 164.458 998.073 160.818C997.07 154.291 1001.08 147.89 1006.35 143.999C1011.25 140.233 1018.65 138.476 1025.17 137.472Z" fill="#462261"/>
<path d="M1060.3 278.176C1059.67 275.791 1059.04 273.28 1058.41 270.77C1055.78 260.352 1053.02 250.939 1051.01 244.161C1049.01 237.383 1047.63 233.241 1047.25 233.241C1046.87 233.366 1047.38 237.634 1048.5 244.663C1049.63 251.692 1051.26 261.231 1053.4 271.9C1053.77 273.657 1054.15 275.414 1054.4 277.046C1053.02 277.548 1051.64 278.176 1050.39 278.678C1048.38 279.556 1046.62 280.56 1044.87 281.564C1043.24 282.569 1041.6 283.573 1040.22 284.702C1038.84 285.707 1037.59 286.711 1036.59 287.715C1036.08 288.217 1035.58 288.719 1035.08 289.095C1034.58 289.598 1034.2 289.974 1033.83 290.476C1033.07 291.355 1032.45 292.108 1031.94 292.735C1031.44 293.363 1031.19 293.991 1031.07 294.367C1030.94 294.744 1030.94 295.12 1031.07 295.246C1031.19 295.371 1031.44 295.371 1031.94 295.246C1032.32 295.12 1032.95 294.744 1033.58 294.367C1034.2 293.991 1035.08 293.489 1035.96 292.861C1036.46 292.61 1036.96 292.233 1037.46 291.857C1037.97 291.48 1038.47 291.104 1039.1 290.853C1040.22 290.1 1041.48 289.346 1042.86 288.468C1044.24 287.715 1045.74 286.836 1047.38 285.958C1049.01 285.079 1050.76 284.326 1052.52 283.573C1054.4 282.82 1056.28 282.067 1058.29 281.313L1060.67 280.435L1060.3 278.176Z" fill="#522AB5"/>
<path d="M994.812 278.176C995.439 275.791 996.066 273.28 996.694 270.77C999.328 260.352 1002.09 250.939 1004.1 244.161C1006.1 237.383 1007.48 233.241 1007.86 233.241C1008.23 233.366 1007.73 237.634 1006.6 244.663C1005.48 251.692 1003.84 261.231 1001.71 271.9C1001.34 273.657 1000.96 275.414 1000.71 277.046C1002.09 277.548 1003.47 278.176 1004.72 278.678C1006.73 279.556 1008.49 280.56 1010.24 281.564C1011.87 282.569 1013.5 283.573 1014.88 284.702C1016.26 285.707 1017.52 286.711 1018.52 287.715C1019.02 288.217 1019.53 288.719 1020.03 289.095C1020.53 289.598 1020.91 289.974 1021.28 290.476C1022.03 291.355 1022.66 292.108 1023.16 292.735C1023.67 293.363 1023.92 293.991 1024.04 294.367C1024.17 294.744 1024.17 295.12 1024.04 295.246C1023.92 295.371 1023.67 295.371 1023.16 295.246C1022.79 295.12 1022.16 294.744 1021.53 294.367C1020.91 293.991 1020.03 293.489 1019.15 292.861C1018.65 292.61 1018.15 292.233 1017.64 291.857C1017.14 291.48 1016.64 291.104 1016.01 290.853C1014.88 290.1 1013.63 289.346 1012.25 288.468C1010.87 287.715 1009.36 286.836 1007.73 285.958C1006.1 285.079 1004.35 284.326 1002.59 283.573C1000.71 282.82 998.826 282.067 996.819 281.313L994.436 280.435L994.812 278.176Z" fill="#522AB5"/>
<path d="M1047 267.005C1046.87 267.005 1046.75 267.13 1046.62 267.13C1038.47 269.138 1029.44 268.134 1021.91 264.118C1026.18 251.441 1028.18 238.01 1027.81 224.706C1027.81 223.701 1027.68 222.697 1027.68 221.819C1033.58 221.191 1039.47 218.179 1043.49 213.911C1048.88 230.856 1050.26 249.558 1047 267.005Z" fill="#E5295B"/>
<path d="M1036.34 297.379C1034.7 294.618 1031.69 292.861 1028.56 292.735C1025.42 292.484 1022.29 293.739 1019.78 295.748C1018.27 297.003 1016.89 298.635 1015.89 300.392C1014.88 302.149 1015.51 304.534 1017.27 305.538C1020.65 307.546 1024.67 308.425 1028.43 308.174C1031.69 308.048 1034.83 306.919 1037.59 305.161C1039.72 303.781 1039.97 300.643 1037.97 299.011C1037.21 298.509 1036.59 298.007 1036.34 297.379Z" fill="#F68895"/>
<path d="M1047 267.005C1046.87 267.005 1046.75 267.13 1046.62 267.13C1047.5 258.218 1046.87 249.056 1044.62 240.395C1043.74 237.006 1042.61 233.492 1040.48 230.73C1037.46 226.839 1032.57 224.706 1027.81 224.831C1027.81 223.827 1027.68 222.823 1027.68 221.944C1033.58 221.317 1039.47 218.304 1043.49 214.037C1048.88 230.856 1050.26 249.558 1047 267.005Z" fill="#CE2056"/>
<path d="M1041.61 218.053C1037.21 221.317 1031.69 222.572 1026.17 223.074C1022.54 223.325 1018.9 223.325 1015.39 222.446C1011.87 221.442 1008.61 219.434 1006.73 216.296C1006.1 215.166 1005.6 213.911 1005.35 212.656C1004.97 210.397 1005.35 207.886 1006.73 206.004C1008.11 204.121 1010.24 202.615 1010.37 200.23C1010.49 198.598 1009.49 197.218 1008.86 195.837C1007.86 193.201 1008.11 190.063 1009.62 187.804C1011.12 185.419 1013.76 183.913 1016.64 183.662C1018.52 185.168 1020.53 186.298 1022.66 187.176C1023.92 187.678 1025.3 188.055 1026.68 188.18C1030.44 188.683 1034.96 187.804 1037.47 184.917C1040.6 184.917 1043.49 187.427 1044.11 190.44C1044.49 192.322 1043.99 194.205 1044.24 196.088C1044.62 198.849 1046.37 201.234 1047.12 203.87C1048.76 208.891 1046 214.664 1041.61 218.053Z" fill="#FB446C"/>
<path d="M1041.6 218.053C1037.21 221.317 1031.69 222.572 1026.17 223.074C1022.54 223.325 1018.9 223.325 1015.39 222.446C1011.87 221.442 1008.61 219.434 1006.73 216.296C1006.1 215.166 1005.6 213.911 1005.35 212.656C1008.36 216.673 1012.88 219.685 1017.77 220.815C1024.79 222.446 1032.57 220.313 1037.84 215.292C1039.97 213.284 1041.73 210.02 1040.1 207.51C1039.1 205.878 1036.84 205 1036.59 202.991C1036.34 200.732 1039.35 198.724 1038.72 196.465C1038.34 195.084 1036.59 194.331 1035.08 194.582C1033.58 194.707 1032.2 195.586 1030.82 195.962C1026.17 197.343 1020.65 194.833 1018.77 190.314C1020.15 189.31 1021.53 188.18 1022.66 187.051C1023.92 187.553 1025.3 187.929 1026.68 188.055C1030.44 188.557 1034.96 187.678 1037.46 184.792C1040.6 184.792 1043.49 187.302 1044.11 190.314C1044.49 192.197 1043.99 194.08 1044.24 195.962C1044.62 198.724 1046.37 201.109 1047.12 203.744C1048.75 208.891 1046 214.664 1041.6 218.053Z" fill="#E5295B"/>
<path d="M1042.11 173.495C1041.98 178.892 1040.6 183.913 1038.34 187.678C1035.71 192.072 1031.82 194.833 1027.68 194.833C1023.42 194.833 1019.65 192.072 1017.02 187.678C1014.63 183.787 1013.25 178.641 1013.25 172.868C1013.25 172.24 1013.25 171.612 1013.25 170.985C1018.02 167.847 1021.53 162.701 1022.54 156.927C1026.93 164.458 1034.08 170.106 1042.11 173.495Z" fill="#F68895"/>
<path d="M1041.1 174.625C1041.23 173.746 1042.11 172.993 1042.98 173.244C1043.86 173.495 1044.24 174.248 1044.49 175.127C1044.99 176.884 1044.74 178.767 1043.86 180.273C1042.98 181.779 1041.35 182.909 1039.6 183.285C1040.22 180.399 1040.98 177.386 1041.1 174.625Z" fill="#F68895"/>
<path d="M1013.25 174.625C1013.13 173.746 1012.25 172.993 1011.37 173.244C1010.49 173.495 1010.12 174.248 1009.87 175.127C1009.37 176.884 1009.62 178.767 1010.49 180.273C1011.37 181.779 1013 182.909 1014.76 183.285C1014.26 180.399 1013.51 177.386 1013.25 174.625Z" fill="#F68895"/>
<path d="M1039.6 179.143C1040.73 177.763 1041.35 176.256 1041.73 175.252C1042.11 174.123 1042.11 173.495 1042.11 173.495C1041.98 173.495 1041.73 174.123 1041.35 175.127C1040.85 176.131 1040.22 177.512 1039.1 178.767C1038.09 180.022 1036.84 180.901 1035.83 181.403C1035.83 181.403 1035.83 181.403 1035.71 181.403C1033.7 178.39 1030.82 176.256 1027.55 176.256C1024.29 176.256 1021.41 178.39 1019.4 181.403C1018.4 181.026 1017.14 180.147 1016.14 178.767C1015.13 177.512 1014.38 176.131 1013.88 175.127C1013.38 174.123 1013.13 173.495 1013.13 173.495C1013 173.495 1013.13 174.248 1013.5 175.252C1013.88 176.382 1014.51 177.763 1015.64 179.143C1016.77 180.524 1018.15 181.403 1019.27 181.654C1018.27 183.285 1017.52 185.043 1017.14 186.8C1017.02 186.674 1017.02 186.549 1016.89 186.423C1015.76 184.541 1015.01 182.783 1014.88 182.783C1014.76 182.783 1015.13 184.666 1016.39 186.674C1016.77 187.302 1017.14 187.804 1017.64 188.306C1020.28 192.197 1023.79 194.582 1027.8 194.582C1031.69 194.582 1035.21 192.197 1037.84 188.432C1038.34 187.929 1038.72 187.427 1039.22 186.674C1040.48 184.666 1040.85 182.783 1040.73 182.783C1040.6 182.658 1039.85 184.415 1038.72 186.423C1038.59 186.549 1038.59 186.674 1038.47 186.8C1038.09 185.043 1037.34 183.285 1036.34 181.654C1037.09 181.403 1038.47 180.524 1039.6 179.143Z" fill="#FBD9E5"/>
<path d="M1340.17 431.054C1336.91 459.546 1330.39 487.536 1320.73 514.02C1310.69 514.898 1300.66 512.765 1291 509.25C1291.5 463.186 1286.98 419.13 1297.52 374.697C1279.33 378.212 1270.55 377.584 1252.23 375.827C1233.92 377.584 1223 377.961 1204.81 374.446C1215.48 418.879 1212.97 463.311 1213.47 509.376C1203.94 512.89 1193.78 515.024 1183.74 514.145C1168.56 472.097 1160.78 426.284 1162.29 381.098C1162.79 366.539 1164.67 350.724 1173.95 340.306C1182.36 331.018 1194.78 328.256 1206.45 326.876C1207.57 326.75 1208.7 326.624 1209.83 326.499C1223.88 324.993 1238.06 324.867 1252.11 325.997C1267.29 324.742 1282.72 325.118 1297.9 326.876C1309.69 328.256 1322.11 331.018 1330.39 340.306C1339.67 350.598 1341.55 366.413 1342.06 381.098C1342.68 397.667 1342.06 414.36 1340.17 431.054Z" fill="#462161"/>
<path d="M1340.17 431.054C1340.05 427.539 1339.92 424.025 1339.8 420.51C1339.17 407.08 1337.92 393.524 1333.53 380.847C1329.01 368.17 1320.98 356.372 1309.31 349.719C1298.9 343.695 1286.48 342.314 1274.44 342.188C1262.4 341.937 1250.35 342.816 1238.44 340.808C1227.77 339.051 1217.11 334.532 1210.08 326.499C1224.13 324.993 1238.31 324.867 1252.36 325.997C1267.54 324.742 1282.97 325.118 1298.15 326.876C1309.94 328.256 1322.36 331.018 1330.64 340.306C1339.92 350.598 1341.81 366.413 1342.31 381.098C1342.68 397.667 1342.06 414.36 1340.17 431.054Z" fill="#311649"/>
<path d="M1298.78 327.378C1286.36 335.913 1270.68 340.933 1253.62 340.933C1243.33 340.933 1233.54 339.051 1224.64 335.787C1218.74 333.528 1213.22 330.641 1208.2 327.252C1209.46 314.198 1209.46 301.019 1208.33 287.966C1207.32 276.293 1208.96 264.62 1213.47 253.825C1216.98 245.29 1222.75 236.253 1231.79 229.475C1237.56 225.208 1244.71 221.693 1253.49 219.81C1254.87 220.061 1256.12 220.438 1257.38 220.815C1263.15 222.446 1268.04 224.831 1272.31 227.592C1283.1 234.621 1289.62 244.537 1293.51 253.951C1298.02 264.745 1299.65 276.544 1298.65 288.091C1297.52 301.145 1297.52 314.324 1298.78 327.378Z" fill="#703CD5"/>
<path d="M1298.78 327.378C1286.36 335.913 1270.68 340.933 1253.62 340.933C1243.33 340.933 1233.54 339.051 1224.64 335.787C1233.42 338.172 1242.32 339.678 1251.36 338.925C1265.16 337.795 1279.21 330.265 1284.6 317.462C1289.12 306.668 1286.86 294.241 1283.47 282.945C1281.59 276.92 1279.46 270.77 1275.82 265.624C1272.18 260.478 1266.91 256.21 1260.64 254.955C1256.12 254.076 1251.48 254.829 1247.09 253.951C1242.58 253.072 1238.06 249.558 1238.44 244.914C1244.46 236.63 1250.98 228.597 1257.38 220.689C1277.58 226.463 1288.11 240.646 1293.51 253.825C1298.02 264.62 1299.66 276.418 1298.65 287.966C1297.52 301.145 1297.52 314.324 1298.78 327.378Z" fill="#522AB5"/>
<path d="M1268.04 240.897C1267.91 241.399 1267.79 241.901 1267.54 242.403C1265.91 246.922 1262.02 250.06 1257.88 251.064C1256 251.566 1253.99 251.691 1251.98 251.566C1250.73 251.691 1249.6 251.566 1248.34 251.44C1247.84 251.44 1247.34 251.315 1246.71 251.189C1246.46 251.189 1246.21 251.064 1246.09 251.064C1244.2 250.562 1242.2 249.558 1240.57 248.177C1238.94 246.922 1237.68 245.165 1236.68 243.156C1236.55 243.031 1236.55 242.78 1236.43 242.529C1236.18 241.901 1236.05 241.399 1235.8 240.772C1235.55 239.642 1235.42 238.512 1235.3 237.383C1235.17 235.5 1235.3 233.492 1235.42 231.609C1236.05 222.697 1236.68 213.66 1237.31 204.749C1237.56 204.749 1237.81 204.623 1238.06 204.623H1238.18C1238.43 204.623 1238.69 204.498 1238.81 204.498C1240.07 204.247 1241.19 203.995 1242.45 203.744C1243.7 203.493 1245.08 203.368 1246.34 203.117C1248.09 202.866 1249.85 202.74 1251.61 202.615C1256.5 202.866 1261.39 203.619 1266.03 204.749C1266.66 213.66 1267.29 222.697 1267.91 231.609C1268.54 234.747 1268.79 237.885 1268.04 240.897Z" fill="#F68895"/>
<path d="M1236.43 222.446C1233.92 218.555 1232.04 214.037 1231.66 209.142C1231.28 204.372 1232.66 199.226 1235.67 196.339C1237.56 196.841 1238.56 199.728 1239.06 201.862C1240.57 209.142 1239.69 216.296 1236.43 222.446Z" fill="#462261"/>
<path d="M1268.04 240.897C1266.66 246.169 1262.4 249.934 1257.88 251.064C1256 251.566 1253.99 251.691 1251.98 251.566C1250.73 251.691 1249.6 251.566 1248.35 251.44C1247.84 251.44 1247.34 251.315 1246.72 251.189C1246.46 251.189 1246.21 251.064 1246.09 251.064C1244.21 250.562 1242.2 249.558 1240.57 248.177C1238.94 246.922 1237.68 245.165 1236.68 243.156C1239.31 246.42 1243.33 248.679 1247.59 248.679C1252.99 248.805 1258.38 245.541 1260.64 240.646C1262.15 237.383 1262.4 233.743 1262.27 230.228C1262.02 225.333 1261.14 220.564 1259.51 216.045C1258.76 213.786 1257.63 211.526 1255.5 210.397C1254.12 209.769 1252.61 209.769 1251.11 209.769C1249.6 209.895 1248.1 210.02 1246.72 209.769C1245.21 209.518 1243.83 208.514 1243.33 207.133C1244.46 205.878 1245.46 204.497 1246.46 203.242C1248.22 202.991 1249.98 202.866 1251.73 202.74C1256.63 202.991 1261.52 203.744 1266.16 204.874C1266.79 213.786 1267.41 222.697 1268.04 231.734C1268.67 234.747 1268.79 237.885 1268.04 240.897Z" fill="#F17785"/>
<path d="M1267.29 222.446C1269.92 218.681 1271.93 214.162 1272.43 209.393C1272.93 204.623 1271.8 199.477 1268.79 196.464C1266.91 196.966 1265.78 199.728 1265.16 201.862C1263.52 209.016 1264.15 216.17 1267.29 222.446Z" fill="#462261"/>
<path d="M1236.3 189.687C1239.19 187.929 1242.82 188.431 1246.09 188.682C1249.47 189.059 1253.24 188.934 1255.5 186.423C1257.5 184.289 1257.75 180.901 1259.26 178.516C1261.14 175.629 1265.03 174.248 1268.29 175.127C1271.68 176.005 1274.31 178.767 1275.57 182.156C1276.82 185.545 1276.7 189.31 1275.44 192.699C1274.31 196.088 1272.18 198.975 1269.67 201.36C1265.28 205.627 1259.38 208.389 1253.36 209.016C1248.22 209.518 1243.08 208.263 1238.56 205.753C1235.55 203.995 1232.91 200.104 1232.79 196.464C1232.79 193.703 1234.17 191.067 1236.3 189.687Z" fill="#462261"/>
<path d="M1328.76 319.847C1328.63 321.604 1328.38 323.361 1328.13 324.993C1327.63 328.256 1326.88 331.143 1325.87 333.779C1325.37 335.034 1324.87 336.289 1324.37 337.293C1323.74 338.423 1323.24 339.302 1322.48 340.18C1319.98 343.695 1316.97 345.452 1313.83 345.326C1310.69 345.201 1307.68 343.318 1305.17 340.18C1304.55 339.427 1303.92 338.549 1303.29 337.544C1302.66 336.54 1302.04 335.536 1301.53 334.532C1300.41 332.398 1299.4 329.888 1298.4 327.252C1298.27 327.001 1298.15 326.75 1298.15 326.499C1297.77 325.369 1297.4 324.24 1297.02 323.11C1296.52 321.604 1296.02 320.098 1295.64 318.592C1294.89 315.454 1293.88 312.19 1293.13 308.676C1292.75 306.919 1292.25 305.161 1291.88 303.279C1291.62 302.4 1291.5 301.396 1291.25 300.517C1291 299.639 1290.75 298.634 1290.62 297.756C1290.37 296.752 1290.24 295.873 1289.99 294.869C1289.87 294.367 1289.74 293.865 1289.74 293.363C1289.62 292.861 1289.49 292.359 1289.37 291.857C1288.86 289.848 1288.49 287.84 1288.11 285.832C1287.61 283.824 1287.11 281.815 1286.73 279.807C1286.61 279.305 1286.48 278.803 1286.36 278.301C1286.23 277.799 1286.1 277.297 1285.98 276.795C1285.73 275.791 1285.48 274.786 1285.23 273.908C1284.98 272.904 1284.72 272.025 1284.6 271.021C1284.35 270.017 1284.1 269.138 1283.85 268.26C1283.34 266.377 1282.97 264.494 1282.47 262.737C1281.96 260.98 1281.46 259.222 1281.09 257.465C1280.71 255.708 1280.08 254.076 1279.71 252.445C1279.21 250.813 1278.83 249.181 1278.33 247.675C1277.83 246.169 1277.45 244.663 1276.95 243.282C1276.19 240.395 1275.32 237.885 1274.69 235.625C1274.31 234.496 1274.06 233.366 1273.81 232.362C1273.56 231.358 1273.31 230.354 1273.18 229.475C1272.56 225.961 1272.56 223.576 1273.81 222.572C1275.07 221.568 1277.32 222.195 1280.58 224.078C1281.34 224.58 1282.22 225.082 1283.22 225.71C1284.1 226.337 1285.1 227.09 1286.1 227.843C1288.11 229.475 1290.37 231.358 1292.63 233.617C1293.76 234.747 1294.89 236.002 1296.14 237.257C1297.4 238.512 1298.52 239.893 1299.78 241.399C1302.29 244.286 1304.67 247.549 1307.18 250.938C1308.43 252.696 1309.56 254.578 1310.82 256.461C1311.45 257.465 1312.07 258.344 1312.57 259.348C1313.08 260.352 1313.7 261.356 1314.21 262.36C1314.71 263.365 1315.33 264.369 1315.84 265.498C1316.09 266 1316.34 266.502 1316.71 267.13C1316.97 267.632 1317.22 268.26 1317.47 268.762C1318.47 270.895 1319.47 273.155 1320.48 275.414C1320.98 276.795 1321.48 278.05 1321.98 279.431C1322.36 280.435 1322.74 281.313 1322.99 282.317C1323.24 282.945 1323.36 283.447 1323.61 284.075C1323.74 284.702 1323.99 285.204 1324.12 285.832C1324.49 286.962 1324.74 288.091 1325.12 289.221C1325.37 290.35 1325.75 291.48 1326 292.61C1326.25 293.739 1326.5 294.869 1326.75 295.873C1327.25 298.132 1327.63 300.266 1327.88 302.4C1328.13 304.534 1328.38 306.668 1328.63 308.676C1328.88 310.684 1328.88 312.692 1328.88 314.575C1329.01 316.207 1329.01 317.964 1328.76 319.847Z" fill="#F68895"/>
<path d="M1328.76 319.847C1328.63 321.604 1328.38 323.361 1328.13 324.993C1327.63 328.256 1326.88 331.143 1325.87 333.779C1325.37 335.034 1324.87 336.289 1324.37 337.293C1323.74 338.423 1323.24 339.302 1322.49 340.18C1319.98 343.695 1316.97 345.452 1313.83 345.326C1310.69 345.201 1307.68 343.318 1305.17 340.18C1304.55 339.427 1303.92 338.549 1303.29 337.544C1302.66 336.54 1302.04 335.536 1301.54 334.532C1300.41 332.398 1299.4 329.888 1298.4 327.252C1298.27 327.001 1298.15 326.75 1298.15 326.499C1300.91 328.131 1304.42 328.758 1307.56 328.131C1313.7 326.876 1318.72 321.855 1321.11 315.956C1323.61 310.182 1323.87 303.655 1323.74 297.379C1323.61 291.354 1322.86 285.33 1321.86 279.43C1322.23 280.435 1322.61 281.313 1322.86 282.317C1323.11 282.945 1323.24 283.447 1323.49 284.075C1323.61 284.702 1323.87 285.204 1323.99 285.832C1324.37 286.961 1324.62 288.091 1324.99 289.221C1325.25 290.35 1325.62 291.48 1325.87 292.61C1326.12 293.739 1326.37 294.869 1326.63 295.873C1327.13 298.132 1327.5 300.266 1327.75 302.4C1328.01 304.534 1328.26 306.667 1328.51 308.676C1328.76 310.684 1328.76 312.692 1328.76 314.575C1329.01 316.207 1329.01 317.964 1328.76 319.847Z" fill="#F17785"/>
<path d="M1177.59 320.223C1177.72 321.98 1177.97 323.738 1178.22 325.369C1178.72 328.633 1179.6 331.52 1180.6 334.03C1181.1 335.285 1181.61 336.415 1182.23 337.544C1182.86 338.674 1183.49 339.553 1184.11 340.431C1186.75 343.946 1189.76 345.577 1192.9 345.452C1196.03 345.326 1198.92 343.444 1201.43 340.18C1202.05 339.427 1202.68 338.548 1203.18 337.544C1203.81 336.54 1204.31 335.536 1204.94 334.532C1206.07 332.398 1206.95 329.888 1207.95 327.252C1208.08 327.001 1208.08 326.75 1208.2 326.499C1208.58 325.369 1208.95 324.24 1209.33 323.11C1209.71 321.604 1210.21 320.098 1210.71 318.591C1211.46 315.454 1212.34 312.19 1213.09 308.676C1213.47 306.918 1213.97 305.161 1214.22 303.279C1214.47 302.4 1214.6 301.396 1214.72 300.517C1214.98 299.639 1215.1 298.634 1215.35 297.756C1215.6 296.752 1215.73 295.873 1215.98 294.869C1216.1 294.367 1216.1 293.865 1216.23 293.363C1216.36 292.861 1216.48 292.359 1216.61 291.857C1216.98 289.848 1217.48 287.84 1217.86 285.832C1218.36 283.824 1218.74 281.815 1219.24 279.807C1219.37 279.305 1219.49 278.803 1219.49 278.301C1219.62 277.799 1219.74 277.297 1219.87 276.795C1220.12 275.791 1220.37 274.786 1220.49 273.908C1220.75 272.904 1220.87 271.9 1221.12 271.021C1221.37 270.017 1221.62 269.138 1221.87 268.26C1222.38 266.377 1222.75 264.494 1223.25 262.737C1223.76 260.98 1224.13 259.222 1224.63 257.465C1225.01 255.708 1225.51 254.076 1226.01 252.445C1226.52 250.813 1226.89 249.181 1227.27 247.675C1227.77 246.169 1228.15 244.663 1228.52 243.282C1229.28 240.395 1230.03 237.885 1230.66 235.5C1230.91 234.37 1231.16 233.241 1231.41 232.236C1231.66 231.232 1231.91 230.228 1232.04 229.35C1232.66 225.835 1232.54 223.45 1231.28 222.446C1230.03 221.568 1227.77 222.07 1224.51 224.078C1223.76 224.58 1222.88 225.082 1221.87 225.71C1221 226.337 1219.99 227.09 1219.12 227.969C1217.11 229.601 1214.98 231.483 1212.72 233.868C1211.59 234.998 1210.46 236.253 1209.2 237.508C1207.95 238.763 1206.82 240.144 1205.69 241.65C1203.18 244.537 1200.92 247.8 1198.42 251.315C1197.16 253.072 1196.03 254.955 1194.9 256.838C1194.28 257.842 1193.77 258.72 1193.15 259.724C1192.65 260.729 1192.02 261.733 1191.52 262.737C1191.01 263.741 1190.39 264.745 1189.89 265.875C1189.63 266.377 1189.38 266.879 1189.13 267.506C1188.88 268.009 1188.63 268.636 1188.38 269.138C1187.38 271.272 1186.37 273.531 1185.49 275.791C1184.99 277.171 1184.49 278.426 1183.99 279.807C1183.61 280.811 1183.24 281.69 1182.99 282.694C1182.73 283.321 1182.61 283.824 1182.36 284.451C1182.23 285.079 1181.98 285.581 1181.86 286.208C1181.48 287.338 1181.23 288.468 1180.85 289.597C1180.6 290.727 1180.23 291.857 1179.97 292.986C1179.72 294.116 1179.47 295.245 1179.35 296.375C1178.97 298.634 1178.47 300.768 1178.22 302.902C1177.97 305.036 1177.72 307.17 1177.59 309.178C1177.34 311.186 1177.47 313.194 1177.47 315.077C1177.34 316.583 1177.47 318.466 1177.59 320.223Z" fill="#F68895"/>
<path d="M1177.59 320.223C1177.72 321.98 1177.97 323.738 1178.22 325.369C1178.72 328.633 1179.6 331.52 1180.6 334.03C1181.1 335.285 1181.61 336.415 1182.23 337.544C1182.86 338.674 1183.49 339.553 1184.11 340.431C1186.75 343.946 1189.76 345.577 1192.9 345.452C1196.03 345.326 1198.92 343.444 1201.43 340.18C1202.05 339.427 1202.68 338.548 1203.18 337.544C1203.81 336.54 1204.31 335.536 1204.94 334.532C1206.07 332.398 1206.95 329.888 1207.95 327.252C1208.08 327.001 1208.08 326.75 1208.2 326.499C1205.44 328.131 1201.93 328.758 1198.79 328.256C1192.65 327.127 1187.63 322.106 1185.12 316.332C1182.61 310.558 1182.11 304.032 1182.23 297.756C1182.36 291.731 1182.86 285.706 1183.99 279.682C1183.61 280.686 1183.24 281.564 1182.99 282.568C1182.73 283.196 1182.61 283.698 1182.36 284.326C1182.23 284.953 1181.98 285.455 1181.86 286.083C1181.48 287.212 1181.23 288.342 1180.85 289.472C1180.6 290.601 1180.23 291.731 1179.98 292.861C1179.72 293.99 1179.47 295.12 1179.35 296.25C1178.97 298.509 1178.47 300.643 1178.22 302.776C1177.97 304.91 1177.72 307.044 1177.59 309.052C1177.34 311.06 1177.47 313.069 1177.47 314.951C1177.34 316.583 1177.47 318.466 1177.59 320.223Z" fill="#F17785"/>
<path d="M1268.17 227.843C1268.04 226.086 1267.92 224.957 1267.79 224.957C1267.66 224.957 1267.66 226.086 1267.66 227.843C1267.66 229.601 1267.79 232.111 1267.92 234.872C1267.92 236.253 1268.04 237.508 1267.92 238.763C1267.79 239.767 1267.66 240.772 1267.41 241.525C1266.41 237.383 1264.15 233.241 1261.27 230.228C1261.27 230.228 1261.39 230.228 1261.39 230.103C1262.52 229.224 1264.15 227.843 1265.53 226.086C1266.91 224.329 1267.79 222.446 1268.42 221.066C1268.92 219.685 1269.17 218.806 1269.04 218.806C1268.79 218.681 1267.79 222.195 1265.03 225.71C1263.65 227.592 1262.14 228.973 1261.02 229.977C1258.51 227.592 1255.5 225.961 1252.23 225.961C1248.97 225.961 1245.84 227.592 1243.33 230.103C1242.2 229.099 1240.57 227.718 1239.06 225.71C1236.3 222.195 1235.3 218.681 1235.05 218.806C1234.92 218.806 1235.17 219.685 1235.67 221.066C1236.18 222.446 1237.18 224.329 1238.56 226.086C1239.94 227.843 1241.45 229.224 1242.7 230.103C1242.83 230.228 1242.95 230.228 1243.08 230.354C1240.07 233.492 1237.81 237.885 1236.93 242.152C1236.93 242.027 1236.8 242.027 1236.8 241.901C1236.43 241.023 1236.3 240.018 1236.18 238.889C1236.05 237.759 1236.18 236.378 1236.18 234.998C1236.3 232.236 1236.3 229.726 1236.43 227.969C1236.43 226.212 1236.43 225.082 1236.3 225.082C1236.18 225.082 1236.05 226.212 1235.93 227.969C1235.8 229.726 1235.67 232.236 1235.55 234.998C1235.55 236.378 1235.42 237.759 1235.55 238.889C1235.67 240.144 1235.93 241.148 1236.3 242.027C1236.55 242.529 1236.8 242.905 1237.05 243.282C1237.93 245.29 1239.31 246.922 1240.94 248.303C1242.57 249.683 1244.46 250.687 1246.46 251.189C1246.71 251.189 1246.97 251.315 1247.09 251.315C1247.59 251.44 1248.09 251.566 1248.72 251.566C1249.98 251.691 1251.11 251.691 1252.36 251.691C1254.37 251.817 1256.25 251.691 1258.26 251.189C1262.4 250.06 1266.28 247.047 1267.92 242.529C1267.92 242.403 1268.04 242.278 1268.04 242.278C1268.42 241.399 1268.67 240.395 1268.79 239.14C1268.92 237.885 1268.92 236.629 1268.79 235.249C1268.42 232.111 1268.29 229.726 1268.17 227.843Z" fill="#FBDCE7"/>
<path d="M1266.79 225.459C1265.66 222.948 1265.66 219.936 1266.16 217.175C1266.66 214.413 1267.66 211.777 1268.17 209.016C1268.67 206.255 1268.92 203.368 1267.79 200.732C1267.41 199.979 1267.04 199.226 1267.04 198.347C1267.04 197.469 1267.79 196.59 1268.67 196.841C1269.17 196.967 1269.55 197.469 1269.8 197.845C1273.69 203.995 1276.82 210.522 1279.33 217.3C1279.96 219.183 1280.59 221.191 1280.71 223.199C1280.84 225.208 1280.21 227.341 1278.83 228.848C1275.44 232.237 1268.54 229.35 1266.79 225.459Z" fill="#F68895"/>
<path d="M1237.31 225.459C1238.43 222.948 1238.43 219.936 1237.93 217.175C1237.43 214.413 1236.43 211.777 1235.93 209.016C1235.42 206.255 1235.17 203.368 1236.3 200.732C1236.68 199.979 1237.05 199.226 1237.05 198.347C1237.05 197.469 1236.3 196.59 1235.42 196.841C1234.92 196.967 1234.55 197.469 1234.3 197.845C1230.41 203.995 1227.27 210.522 1224.76 217.3C1224.13 219.183 1223.51 221.191 1223.38 223.199C1223.26 225.208 1223.88 227.341 1225.26 228.848C1228.78 232.237 1235.55 229.35 1237.31 225.459Z" fill="#F68895"/>
</g>
</g>
<defs>
<clipPath id="clip0">
<rect width="798" height="500" fill="white" transform="translate(642)"/>
</clipPath>
<clipPath id="clip1">
<rect width="1083" height="669" fill="white" transform="translate(593 -99)"/>
</clipPath>
</defs>
</svg>
