<svg width="1440" height="500" viewBox="0 0 1440 500" fill="none" xmlns="http://www.w3.org/2000/svg">
<rect width="1440" height="500" fill="#009688"/>
<g clip-path="url(#clip0)">
<g clip-path="url(#clip1)">
<path d="M1457.02 720.065C1494.4 715.693 1524.13 686.181 1537.68 653.39C1557.57 605.078 1553.2 549.989 1551.01 499.272C1547.3 416.639 1526.09 350.401 1479.54 282.852C1435.38 219.018 1390.58 173.33 1315.6 135.292C1161.07 57.6866 853.964 85.4497 811.122 277.824C798.445 335.099 826.86 401.336 808.062 457.956C794.073 499.928 768.936 537.528 757.133 580.157C744.893 623.878 744.237 681.372 789.264 709.353C836.04 738.428 899.865 713.288 954.947 724H1429.26L1457.02 720.065Z" fill="#EEF3FB" fill-opacity="0.3"/>
<path d="M746.538 276.513L735.454 301.747C734.858 303.111 733.579 304.048 732.044 304.219L704.59 307.032C701.009 307.373 699.56 311.891 702.203 314.278L722.751 332.692C723.859 333.715 724.371 335.25 724.03 336.699L718.147 363.638C717.379 367.219 721.216 369.947 724.285 368.156L748.158 354.261C749.437 353.493 751.057 353.493 752.336 354.261L776.209 368.156C779.363 369.947 783.115 367.219 782.348 363.638L776.465 336.699C776.124 335.25 776.635 333.715 777.744 332.692L798.291 314.278C801.02 311.891 799.57 307.373 795.904 307.032L768.45 304.219C766.915 304.048 765.637 303.111 765.04 301.747L753.956 276.513C752.762 273.188 747.988 273.188 746.538 276.513Z" fill="#FBB040"/>
<path d="M864.027 276.513L852.943 301.747C852.346 303.111 851.067 304.048 849.532 304.219L822.079 307.032C818.498 307.373 817.048 311.891 819.691 314.278L840.239 332.692C841.347 333.715 841.859 335.25 841.518 336.699L835.635 363.638C834.868 367.219 838.704 369.947 841.774 368.156L865.647 354.261C866.925 353.493 868.545 353.493 869.824 354.261L893.697 368.156C896.852 369.947 900.603 367.219 899.836 363.638L893.953 336.699C893.612 335.25 894.123 333.715 895.232 332.692L915.779 314.278C918.508 311.891 917.058 307.373 913.392 307.032L885.938 304.219C884.404 304.048 883.125 303.111 882.528 301.747L871.444 276.513C870.165 273.188 865.476 273.188 864.027 276.513Z" fill="#FBB040"/>
<path d="M981.517 276.513L970.433 301.747C969.836 303.111 968.557 304.048 967.023 304.219L939.569 307.032C935.988 307.373 934.538 311.891 937.182 314.278L957.729 332.692C958.838 333.715 959.349 335.25 959.008 336.699L953.125 363.638C952.358 367.219 956.195 369.947 959.264 368.156L983.137 354.261C984.416 353.493 986.036 353.493 987.315 354.261L1011.19 368.156C1014.34 369.947 1018.09 367.219 1017.33 363.638L1011.44 336.699C1011.1 335.25 1011.61 333.715 1012.72 332.692L1033.27 314.278C1036 311.891 1034.55 307.373 1030.88 307.032L1003.43 304.219C1001.89 304.048 1000.62 303.111 1000.02 301.747L988.934 276.513C987.656 273.188 982.966 273.188 981.517 276.513Z" fill="#FBB040"/>
<path d="M1098.92 276.513L1087.84 301.747C1087.24 303.111 1085.96 304.048 1084.42 304.219L1056.97 307.032C1053.39 307.373 1051.94 311.891 1054.58 314.278L1075.13 332.692C1076.24 333.715 1076.75 335.25 1076.41 336.699L1070.53 363.638C1069.76 367.219 1073.6 369.947 1076.67 368.156L1100.54 354.261C1101.82 353.493 1103.44 353.493 1104.72 354.261L1128.59 368.156C1131.74 369.947 1135.5 367.219 1134.73 363.638L1128.85 336.699C1128.5 335.25 1129.02 333.715 1130.12 332.692L1150.67 314.278C1153.4 311.891 1151.95 307.373 1148.28 307.032L1120.83 304.219C1119.3 304.048 1118.02 303.111 1117.42 301.747L1106.34 276.513C1105.14 273.188 1100.45 273.188 1098.92 276.513Z" fill="#FBB040"/>
<path opacity="0.7" d="M1216.41 276.513L1205.32 301.747C1204.73 303.111 1203.45 304.048 1201.91 304.219L1174.46 307.032C1170.88 307.373 1169.43 311.891 1172.07 314.278L1192.62 332.692C1193.73 333.715 1194.24 335.25 1193.9 336.699L1188.02 363.638C1187.25 367.219 1191.09 369.947 1194.15 368.156L1218.03 354.261C1219.31 353.493 1220.93 353.493 1222.21 354.261L1246.08 368.156C1249.23 369.947 1252.98 367.219 1252.22 363.638L1246.33 336.699C1245.99 335.25 1246.5 333.715 1247.61 332.692L1268.16 314.278C1270.89 311.891 1269.44 307.373 1265.77 307.032L1238.32 304.219C1236.78 304.048 1235.51 303.111 1234.91 301.747L1223.83 276.513C1222.63 273.188 1217.86 273.188 1216.41 276.513Z" fill="#939598"/>
<path d="M1262.02 148.467C1262.02 148.467 1200.38 184.613 1193.98 195.099C1187.59 205.585 1187.08 260.827 1183.24 270.971C1179.32 281.031 1182.81 287.936 1189.46 284.27C1196.11 280.605 1207.28 272.932 1208.14 260.741C1208.99 248.551 1210.86 217.52 1217.26 209.762C1221.1 205.073 1256.14 185.466 1265.09 177.623C1273.87 169.694 1262.02 148.467 1262.02 148.467Z" fill="#C49A6C"/>
<path d="M1293.4 106.524C1293.4 106.524 1269.78 120.931 1244.12 135.168C1216.75 150.343 1189.47 161.681 1180.34 169.012C1164.14 181.885 1166.36 199.532 1168.24 212.49C1170.11 225.448 1175.74 274.04 1178.04 279.837C1180.85 286.998 1181.79 311.209 1193.56 298.166C1202.77 287.936 1201.06 274.637 1196.71 245.226C1191 206.608 1205.49 202.771 1216.41 192.712C1224.08 185.636 1256.31 168.245 1273.96 188.364L1324.69 151.451L1293.4 106.524Z" fill="#FDD5A6"/>
<path d="M1169.26 228.517L1180.94 257.161C1181.54 258.695 1181.28 260.486 1180.26 261.85L1161.07 286.146C1158.52 289.3 1160.99 293.989 1165.08 293.733L1195.94 291.517C1197.65 291.431 1199.27 292.199 1200.21 293.563L1217.35 319.308C1219.56 322.718 1224.85 321.78 1225.79 317.859L1233.2 287.851C1233.63 286.231 1234.82 284.952 1236.44 284.441L1266.28 276.086C1270.21 274.978 1270.97 269.778 1267.48 267.647L1241.22 251.279C1239.77 250.426 1238.92 248.806 1239 247.101L1240.28 216.156C1240.45 212.064 1235.68 209.762 1232.61 212.405L1208.9 232.353C1207.63 233.461 1205.84 233.717 1204.3 233.206L1175.31 222.464C1171.39 220.93 1167.72 224.681 1169.26 228.517Z" fill="#FBB040"/>
<path d="M1324.69 151.366C1324.69 151.366 1330.57 176.855 1320.85 194.332C1307.81 217.861 1288.54 222.464 1283.17 225.107C1270.8 231.16 1263.9 236.275 1261 240.111C1256.74 245.652 1248.98 255.456 1244.2 262.617C1238.75 270.801 1231.58 268.414 1227.92 265.686C1222.38 261.594 1225.36 251.449 1229.62 242.157C1231.67 237.553 1241.39 222.208 1246.59 216.411C1272.94 187.171 1271.32 180.265 1262.36 169.78C1253.41 159.294 1324.69 151.366 1324.69 151.366Z" fill="#FDD5A6"/>
<path d="M1357.12 183.299L1293.26 95.2317L1280.21 104.69L1344.07 192.757L1357.12 183.299Z" fill="white"/>
<path d="M1604.04 27.6279L1518.01 -91.0147L1282.15 79.9779L1368.18 198.621L1604.04 27.6279Z" fill="#9DD8F7"/>
<path d="M1385.05 169.185C1385.89 163.79 1382.21 158.729 1376.81 157.882C1371.41 157.035 1366.35 160.722 1365.5 166.118C1364.66 171.513 1368.35 176.574 1373.74 177.421C1379.14 178.268 1384.2 174.581 1385.05 169.185Z" fill="white"/>
<path d="M1410.65 151.957C1412.44 146.8 1409.72 141.162 1404.56 139.366C1399.4 137.57 1393.76 140.295 1391.97 145.452C1390.17 150.61 1392.89 156.248 1398.05 158.044C1403.21 159.84 1408.85 157.115 1410.65 151.957Z" fill="white"/>
</g>
</g>
<defs>
<clipPath id="clip0">
<rect width="780" height="500" fill="white" transform="translate(660)"/>
</clipPath>
<clipPath id="clip1">
<rect width="944" height="682" fill="white" transform="translate(660 -91)"/>
</clipPath>
</defs>
</svg>
