<svg width="1440" height="500" viewBox="0 0 1440 500" fill="none" xmlns="http://www.w3.org/2000/svg">
<rect width="1440" height="500" fill="#0071BC"/>
<g clip-path="url(#clip0)">
<mask id="mask0" style="mask-type:alpha" maskUnits="userSpaceOnUse" x="771" y="95" width="599" height="273">
<rect x="771" y="95" width="599" height="273" fill="#C4C4C4"/>
</mask>
<g clip-path="url(#clip1)">
<path opacity="0.2" d="M1059.2 320.4L857.4 247.7C852.5 246 847.2 248.5 845.4 253.3L796 390.3C794.3 395.2 796.8 400.5 801.6 402.3L1003.5 475C1008.4 476.7 1013.7 474.2 1015.5 469.4L1064.9 332.4C1066.6 327.5 1064 322.2 1059.2 320.4Z" fill="#231F20"/>
<path d="M1056.7 315L854.899 242.3C849.999 240.6 844.699 243.1 842.899 247.9L793.599 385C791.899 389.9 794.399 395.2 799.199 397L1001 469.7C1005.9 471.4 1011.2 468.9 1013 464.1L1062.4 327.1C1064 322.1 1061.5 316.8 1056.7 315Z" fill="#414042"/>
<path d="M857.349 263.07L814.283 382.539L998.472 448.935L1041.54 329.466L857.349 263.07Z" fill="#E6E7E8"/>
<path opacity="0.3" d="M1056.7 315L854.9 242.3C850 240.6 844.7 243.1 842.9 247.9L794 383.7C796.2 383.1 798.4 382.6 800.6 382C859.5 367 918.9 353.9 978.4 341.1C1006.4 335.1 1034.4 329.2 1062.7 325C1063.3 320.8 1060.9 316.6 1056.7 315Z" fill="white"/>
<path d="M968.499 322.8C954.499 317.8 938.699 326.1 933.199 341.4C938.699 326.1 931.799 309.6 917.899 304.6C903.899 299.6 888.099 307.9 882.599 323.2C880.699 328.4 880.299 334.1 880.799 340L884.199 341.1L888.699 342.6C891.699 343.6 894.699 344.6 897.699 345.6L906.599 348.6L915.499 351.6L924.399 354.7L928.899 356.2L932.099 357.3L932.899 356.3L934.599 354.4L936.299 352.5C936.899 351.9 937.399 351.2 937.999 350.6L941.399 346.8L944.799 343L949.599 337.6L948.499 344.8L948.099 347.2L947.699 349.6L946.899 354.3L946.499 356.7L946.099 359.1L945.299 363.8L944.899 366.2L944.499 368.6L943.699 373.3L943.099 376.6C943.899 375.7 944.699 374.9 945.499 374L947.199 372.2L948.899 370.4L952.199 366.8L952.799 366.2L953.599 366.5L966.999 371.3L974.499 374C978.699 369.8 981.899 365.1 983.799 360C989.399 344.3 982.499 327.8 968.499 322.8Z" fill="#EF4351"/>
<path d="M953.699 368.7L951.099 371.9L949.599 373.8L947.999 375.7C946.999 377 945.899 378.3 944.899 379.5L941.799 383.3L937.799 388.2L938.599 381.9C938.799 380.3 938.999 378.7 939.199 377.2L939.899 372.5L940.599 367.8L940.899 365.4L941.199 363L941.899 358.3L942.199 355.9L942.599 353.5L942.999 351.1L940.899 353.3C940.299 353.9 939.799 354.5 939.199 355.2L937.499 357.1L935.799 359L933.999 360.8L933.099 361.8L931.899 361.4L927.499 359.8L923.099 358.1L914.299 354.8L905.499 351.4L896.699 348C893.799 346.9 890.799 345.7 887.899 344.6L883.499 342.9L880.799 341.8C884.299 371 910.299 404.8 910.299 404.8C910.299 404.8 951.799 395.4 973.099 375.2L966.299 373L953.699 368.7Z" fill="#EF4351"/>
<path opacity="0.2" d="M1137.1 82.9C1136.7 81.2 1135 80.2 1133.2 80.7L913.599 133.1C911.899 133.5 910.799 135.2 911.199 136.8L977.999 416.4C978.399 418.1 980.099 419.1 981.899 418.6L1201.5 366.2C1203.2 365.8 1204.3 364.1 1203.9 362.5L1137.1 82.9Z" fill="#231F20"/>
<path d="M1129.7 78.3C1129.3 76.6 1127.6 75.6 1125.8 76.1L906.199 128.5C904.499 128.9 903.399 130.6 903.799 132.2L970.499 411.8C970.899 413.5 972.599 414.5 974.399 414L1194 361.6C1195.7 361.2 1196.8 359.5 1196.4 357.9L1129.7 78.3Z" fill="#005B7F"/>
<path d="M1112.3 92.2889L931.471 135.455L993.422 394.971L1174.25 351.805L1112.3 92.2889Z" fill="#D1D3D4"/>
<path d="M1105.52 87.8716L924.695 131.038L986.577 390.262L1167.4 347.096L1105.52 87.8716Z" fill="#F1F2F2"/>
<path d="M1058.83 312.829L993.461 328.413L993.948 330.456L1059.31 314.872L1058.83 312.829Z" fill="#E6E7E8"/>
<path d="M1060.84 320.999L995.482 336.623L995.971 338.666L1061.33 323.042L1060.84 320.999Z" fill="#E6E7E8"/>
<path d="M1062.76 329.213L997.396 344.844L997.885 346.886L1063.24 331.255L1062.76 329.213Z" fill="#E6E7E8"/>
<path d="M1064.78 337.441L999.396 352.992L999.882 355.035L1065.26 339.485L1064.78 337.441Z" fill="#E6E7E8"/>
<path d="M1066.63 345.537L1001.26 361.127L1001.75 363.17L1067.11 347.58L1066.63 345.537Z" fill="#E6E7E8"/>
<path d="M1042.59 244.607L977.234 260.244L977.979 263.356L1043.33 247.719L1042.59 244.607Z" fill="#BCBEC0"/>
<path d="M1046.35 260.311L980.988 275.915L981.476 277.957L1046.84 262.353L1046.35 260.311Z" fill="#E6E7E8"/>
<path d="M1048.25 268.51L982.891 284.134L983.379 286.177L1048.74 270.553L1048.25 268.51Z" fill="#E6E7E8"/>
<path d="M1050.24 276.601L984.877 292.232L985.365 294.274L1050.72 278.643L1050.24 276.601Z" fill="#E6E7E8"/>
<path d="M1052.13 284.843L986.766 300.44L987.253 302.483L1052.62 286.886L1052.13 284.843Z" fill="#E6E7E8"/>
<path d="M1054.13 293.01L988.775 308.634L989.264 310.676L1054.62 295.052L1054.13 293.01Z" fill="#E6E7E8"/>
<path d="M1120.83 242.5L1055.48 258.151L1055.97 260.193L1121.32 244.542L1120.83 242.5Z" fill="#E6E7E8"/>
<path d="M1122.75 250.709L1057.39 266.333L1057.87 268.375L1123.23 252.751L1122.75 250.709Z" fill="#E6E7E8"/>
<path d="M1124.74 258.938L1059.37 274.529L1059.86 276.571L1125.23 260.981L1124.74 258.938Z" fill="#E6E7E8"/>
<path d="M1126.63 267.046L1061.26 282.643L1061.75 284.686L1127.12 269.088L1126.63 267.046Z" fill="#E6E7E8"/>
<path d="M1128.63 275.211L1063.27 290.835L1063.76 292.877L1129.12 277.253L1128.63 275.211Z" fill="#E6E7E8"/>
<path d="M1133.31 295.004L1067.96 310.642L1068.45 312.684L1133.8 297.046L1133.31 295.004Z" fill="#E6E7E8"/>
<path d="M1135.33 303.229L1069.96 318.819L1070.45 320.862L1135.81 305.272L1135.33 303.229Z" fill="#E6E7E8"/>
<path d="M1137.25 311.455L1071.88 327.032L1072.37 329.075L1137.74 313.498L1137.25 311.455Z" fill="#E6E7E8"/>
<path d="M1139.25 319.595L1073.89 335.219L1074.38 337.261L1139.74 321.637L1139.25 319.595Z" fill="#E6E7E8"/>
<path d="M1141.12 327.744L1075.75 343.334L1076.24 345.377L1141.61 329.787L1141.12 327.744Z" fill="#E6E7E8"/>
<path d="M1065.5 92.0001C1064.9 89.7001 1062.6 88.3001 1060.3 88.8001L970.399 110.3C968.099 110.9 966.699 113.2 967.199 115.5L973.199 140.7C973.799 143 976.099 144.4 978.399 143.9L1068.3 122.4C1070.6 121.8 1072 119.5 1071.5 117.2L1065.5 92.0001ZM1067.8 120L977.899 141.5C976.899 141.7 975.899 141.1 975.699 140.1L969.699 114.9C969.499 113.9 970.099 112.9 971.099 112.7L1061 91.2001C1062 91.0001 1063 91.6001 1063.2 92.6001L1069.2 117.8C1069.4 118.7 1068.7 119.7 1067.8 120Z" fill="#A7A9AC"/>
<path d="M982.2 139.1L977.6 140.2C977.3 140.3 976.9 140.1 976.9 139.7L975.5 134C975.2 132.7 973.9 131.9 972.5 132.2C971.2 132.5 970.4 133.8 970.7 135.2L972.1 140.9C972.8 143.9 975.8 145.7 978.8 145L983.4 143.9C984.7 143.6 985.5 142.3 985.2 140.9C984.8 139.6 983.5 138.8 982.2 139.1Z" fill="#58595B"/>
<path d="M1071.4 111.2C1071.1 109.9 1069.8 109.1 1068.4 109.4C1067.1 109.7 1066.3 111 1066.6 112.4L1068 118.1C1068.1 118.4 1067.9 118.8 1067.5 118.8L1062.9 119.9C1061.6 120.2 1060.8 121.5 1061.1 122.9C1061.4 124.2 1062.7 125 1064.1 124.7L1068.7 123.6C1071.7 122.9 1073.5 119.9 1072.8 116.9L1071.4 111.2Z" fill="#58595B"/>
<path d="M1060.7 88.7C1060.3 87 1058.6 86 1057 86.4L972.499 106.6C970.799 107 969.799 108.7 970.199 110.3L970.799 112.7C971.199 114.4 972.899 115.4 974.499 115L1059 94.8C1060.7 94.4 1061.7 92.7 1061.3 91.1L1060.7 88.7Z" fill="#939598"/>
<path d="M1060.6 88.4C1060.4 87.6 1058.9 87.2 1057.2 87.6L972.7 107.8C971 108.2 969.9 109.2 970.1 110L970.4 111.2C970.6 112 972.1 112.4 973.8 112L1058.3 91.8C1060 91.4 1061.1 90.4 1060.9 89.6L1060.6 88.4Z" fill="#BCBEC0"/>
<path d="M1075.8 189.5L1071.5 184.2C1071.2 183.8 1070.6 183.6 1070.1 183.8C1069.6 184 1069.3 184.5 1069.3 185L1070.1 205.6L1054.4 165.2C1054.2 164.7 1053.6 164.3 1053.1 164.4C1052.5 164.5 1052.1 165 1052.1 165.6L1050.6 195.5L1020 202.8L1015.7 197.5C1015.4 197.1 1014.8 196.9 1014.3 197.1C1013.8 197.3 1013.5 197.8 1013.5 198.3L1014.3 218.9L998.6 178.5C998.4 178 997.8 177.6 997.3 177.7C996.7 177.8 996.3 178.3 996.3 178.9L994.8 208.8L977.1 213L977.7 215.4L996.3 211C996.8 210.9 997.2 210.4 997.2 209.9L998.5 184.8L1014.8 226.7C1015 227.3 1015.6 227.6 1016.2 227.5C1016.8 227.4 1017.2 226.8 1017.1 226.3L1016.1 202L1018.6 205C1018.9 205.4 1019.4 205.5 1019.8 205.4L1052.1 197.7C1052.6 197.6 1053 197.1 1053 196.6L1054.3 171.5L1070.6 213.4C1070.8 214 1071.4 214.3 1072 214.2C1072.6 214.1 1073 213.5 1073 212.9L1072 188.6L1074.5 191.6C1074.8 192 1075.3 192.1 1075.7 192L1098.1 186.7L1097.5 184.3L1075.8 189.5Z" fill="#009DB9"/>
<path d="M975.099 243.5L959.499 178.3L958.299 178.6L973.999 244.4C974.099 244.7 974.399 244.9 974.699 244.9L1112.7 211.9L1112.4 210.7L975.099 243.5Z" fill="#D1D3D4"/>
<path opacity="0.2" d="M1108.5 392.2L1103.3 382.2L1101.2 383.2C1102 377.4 1104.6 359 1104.3 352.1C1103.9 341.1 1096.3 308.9 1096.3 308.9L1082.7 270.4C1082.7 270.4 1070.1 271.4 1072.7 291.1L1079.1 317.2C1079.1 317.2 1079.5 319 1079.1 321.6C1078.2 319.7 1077.2 317.8 1076.1 315.8C1076 315.5 1075.9 315.1 1075.7 314.8C1075.7 314.8 1075.7 314.7 1075.6 314.7L1040.1 242.3C1038.4 238.8 1034.2 237.4 1030.7 239.1C1027.3 240.8 1025.8 244.9 1027.4 248.4L1055 307C1055 307.7 1054.9 308.8 1053.8 309.2C1053.4 309.4 1052.6 309.8 1051.6 309.1L1019.2 244.3C1017.5 240.8 1013.3 239.4 1009.8 241.2C1006.4 242.9 1005 247 1006.6 250.4L1036.3 314.9C1036.3 314.9 1037.4 316.8 1036.2 317.6C1035.2 318.3 1034.5 318 1034 317.6L1003.6 257.1C1001.9 253.6 997.599 252.2 994.199 254C990.799 255.7 989.399 259.8 990.999 263.2L1020 326.3C1020.2 327 1020.4 328.8 1018.8 329.5C1017.7 330 1016.6 329.1 1016.1 328.5L990.199 275C988.599 271.8 984.699 270.4 981.499 272C978.299 273.6 976.899 277.4 978.499 280.7L1007 340.9L1006.9 341C1006.9 341 1013.9 355.5 1016.9 361.7C1027.8 384.4 1047.4 402.2 1052.5 406.6L1050.1 407.7L1054.7 418L1051.2 419.7L1199.8 676.2L1269 645.3L1111 390.9L1108.5 392.2Z" fill="#231F20"/>
<path d="M1074.5 323.9L1038 250.5C1036.2 247 1032 245.5 1028.5 247.2C1025.1 248.9 1023.7 253 1025.3 256.5L1060.7 330.5C1062.6 334.4 1067.2 336.1 1071 334.3C1074.8 332.5 1076.4 328 1074.6 324.1C1074.5 324 1074.5 323.9 1074.5 323.9Z" fill="#FED7AB"/>
<path d="M1054.2 325.4L1017.1 252.3C1015.3 248.8 1011.1 247.3 1007.6 249C1004.2 250.7 1002.8 254.8 1004.5 258.3L1039.3 332.5C1041.3 336.7 1046.2 338.6 1050.4 336.7C1054.5 334.8 1056.3 329.9 1054.3 325.7C1054.3 325.6 1054.3 325.5 1054.2 325.4Z" fill="#FED7AB"/>
<path d="M1038.8 338.1L1001.7 265C999.899 261.5 995.699 260 992.199 261.7C988.799 263.4 987.399 267.5 989.099 270.9L1023.8 345.2C1025.8 349.5 1030.8 351.4 1035 349.5C1039.2 347.6 1041 342.6 1039 338.3C1038.9 338.3 1038.9 338.1 1038.8 338.1Z" fill="#FED7AB"/>
<path d="M1024.6 356.3L988.199 282.8C986.599 279.5 982.599 278.1 979.399 279.7C976.199 281.2 974.899 285.1 976.499 288.4L1012 362.3C1013.7 365.9 1017.9 367.4 1021.4 365.8C1024.8 364.2 1026.3 360 1024.6 356.3C1024.6 356.4 1024.6 356.4 1024.6 356.3Z" fill="#FED7AB"/>
<path d="M1053.6 315.1C1053.6 315.1 1054.3 317.4 1052.6 318.1C1052 318.3 1051 319 1049.5 317.1L1035.1 323.6C1035.1 323.6 1036.2 325.5 1035 326.3C1033 327.7 1032.1 325.3 1032.1 325.3L1018.8 334.6C1018.8 334.6 1019.8 337.3 1017.7 338.1C1016 338.8 1014.6 336.6 1014.6 336.6L1005.6 349.6C1005.6 349.6 1012.8 364.3 1015.9 370.6C1028.8 397.1 1053.4 417.4 1053.4 417.4L1100.6 395.1C1100.6 395.1 1096.2 362.8 1071.4 318.8L1053.6 315.1Z" fill="#FED7AB"/>
<path d="M1095.2 318.3L1081.1 279.3C1081.1 279.3 1068.4 280.2 1071.3 300.1L1078 326.4C1078 326.4 1081.1 340.8 1062.5 344.9L1100.8 395C1100.8 395 1104.2 370.2 1103.8 361.9C1103.1 350.8 1095.2 318.3 1095.2 318.3Z" fill="#FED7AB"/>
<path d="M1053.5 417.4C1066 451 1207.3 686.7 1207.3 686.7L1274.2 655.1C1271.3 636.5 1100.7 395 1100.7 395L1053.5 417.4Z" fill="#FED7AB"/>
<path d="M1051 429.5L1202.6 688.9L1277.8 653.4L1110.9 401.2L1051 429.5Z" fill="white"/>
<path d="M1089.5 411.3C1115.8 470.5 1201 560.4 1231.1 618C1239.1 633.3 1247.1 648.7 1254.9 664.2L1277.8 653.4L1110.9 401.2L1089.5 411.3Z" fill="#F1F2F2"/>
</g>
<g clip-path="url(#clip2)">
<path opacity="0.2" d="M1385.66 331.282C1372.04 331.282 1360.9 343.442 1360.9 358.329C1360.9 372.08 1370.29 383.444 1382.36 385.149V430.379C1382.36 452.198 1366.27 469.813 1346.57 469.813H1310.37C1290.57 469.813 1274.58 452.085 1274.58 430.379V359.92C1288.09 358.557 1300.78 349.692 1311.61 334.01C1320.27 321.509 1324.6 309.122 1324.81 308.554L1323.37 307.985C1326.67 299.917 1331.41 287.53 1335.12 272.529C1341.31 247.982 1346.36 211.616 1335.22 177.069C1334.19 174.001 1332.23 171.614 1329.35 170.137C1319.76 165.477 1302.22 170.932 1295.42 173.319C1294.39 172.182 1292.74 171.841 1291.29 172.41L1284.28 175.137C1282.22 175.933 1281.08 178.546 1281.8 180.819C1282.53 183.092 1284.9 184.342 1286.96 183.547L1293.97 180.819C1295.31 180.251 1296.24 179.001 1296.55 177.637C1302.95 175.364 1319.34 170.25 1327.49 174.455C1329.45 175.478 1330.69 176.955 1331.31 178.887C1342.03 212.298 1337.18 247.755 1331.1 271.62C1327.39 286.507 1322.75 298.894 1319.45 306.735L1317.69 305.94C1317.49 306.395 1301.3 352.193 1270.77 352.193C1240.35 352.193 1223.95 306.395 1223.85 305.94L1222.09 306.735C1218.79 298.894 1214.15 286.507 1210.44 271.62C1204.46 247.528 1199.51 212.071 1210.23 178.774C1210.85 176.728 1212.19 175.364 1214.15 174.342C1222.3 170.137 1238.7 175.251 1245.09 177.524C1245.4 179.001 1246.33 180.251 1247.67 180.819L1254.68 183.547C1256.74 184.342 1259.12 183.206 1259.84 180.819C1260.56 178.546 1259.53 175.933 1257.36 175.137L1250.35 172.41C1248.91 171.841 1247.36 172.296 1246.22 173.319C1239.42 170.819 1221.89 165.477 1212.4 170.364C1209.51 171.841 1207.45 174.228 1206.52 177.296C1195.38 211.73 1200.43 248.209 1206.62 272.756C1210.44 287.643 1215.08 300.144 1218.38 308.213L1216.94 308.781C1217.14 309.349 1221.47 321.736 1230.14 334.237C1240.86 349.806 1253.65 358.67 1267.16 360.148V430.606C1267.16 456.858 1286.55 478.222 1310.37 478.222H1346.57C1370.39 478.222 1389.78 456.858 1389.78 430.606V385.149C1401.43 382.99 1410.41 371.853 1410.41 358.443C1410.41 343.442 1399.27 331.282 1385.66 331.282Z" fill="#231F20"/>
<path d="M1208.48 165.931C1205.59 167.522 1203.53 169.795 1202.6 172.977C1191.46 207.411 1196.51 243.89 1202.7 268.437C1209.41 294.916 1218.79 313.554 1218.89 313.781L1222.3 311.622C1222.19 311.394 1213.02 293.098 1206.42 267.187C1200.43 243.209 1195.59 207.752 1206.31 174.341C1206.93 172.295 1208.27 170.932 1210.23 169.909C1220.34 164.681 1243.44 174 1243.64 174.114L1244.99 170.023C1244.06 169.682 1220.23 159.908 1208.48 165.931Z" fill="#E6E7E8"/>
<path d="M1208.48 165.932C1205.59 167.523 1203.53 169.795 1202.6 172.977C1191.98 205.934 1196.1 240.709 1201.88 265.142C1200.23 254.232 1197.86 243.209 1197.96 232.185C1198.47 164 1208.68 166.613 1217.55 166.386C1226.01 166.045 1234.05 168.432 1242.2 170.477C1243.13 170.705 1243.85 171.046 1244.57 171.5L1245.09 170.136C1244.06 169.682 1220.24 159.909 1208.48 165.932Z" fill="white"/>
<path d="M1253.34 170.819L1246.33 168.091C1244.26 167.296 1241.89 168.432 1241.17 170.819C1240.45 173.091 1241.48 175.705 1243.65 176.501L1250.66 179.228C1252.72 180.024 1255.09 178.887 1255.81 176.501C1256.54 174.114 1255.4 171.614 1253.34 170.819Z" fill="#E6E7E8"/>
<path d="M1249.32 170.478L1244.99 168.773C1243.64 168.205 1242.2 169 1241.79 170.478C1241.27 171.955 1241.99 173.546 1243.34 174.001L1247.67 175.705C1249.01 176.273 1250.45 175.478 1250.86 174.001C1251.38 172.637 1250.66 171.046 1249.32 170.478Z" fill="white"/>
<path d="M1325.22 165.932C1313.57 159.909 1289.74 169.682 1288.71 170.023L1290.05 174.114C1290.26 174.001 1313.36 164.682 1323.57 169.91C1325.53 170.932 1326.77 172.41 1327.49 174.342C1338.22 207.753 1333.37 243.209 1327.28 267.074C1320.79 293.099 1311.5 311.395 1311.4 311.509L1314.8 313.668C1314.91 313.441 1324.29 294.803 1331 268.324C1337.18 243.778 1342.24 207.412 1331.1 172.864C1330.17 169.796 1328.21 167.523 1325.22 165.932Z" fill="#E6E7E8"/>
<path d="M1331.2 172.977C1330.17 169.909 1328.21 167.523 1325.32 166.045C1313.57 159.909 1289.74 169.682 1288.71 170.023L1289.64 172.864C1297.58 165.022 1312.85 165.704 1322.23 167.864C1326.05 168.773 1328.21 173.091 1328.31 177.182C1337.91 209.684 1333.16 243.891 1327.28 267.074C1323.78 281.165 1319.45 292.984 1316.15 300.826C1317.28 299.348 1318.1 297.757 1318.93 295.484C1320.37 291.28 1332.75 265.028 1335.64 227.867C1336.36 218.321 1335.53 208.889 1334.61 199.343C1334.4 196.842 1333.37 179.569 1331.2 172.977Z" fill="white"/>
<path d="M1287.37 168.091L1280.36 170.819C1278.3 171.614 1277.16 174.228 1277.88 176.501C1278.61 178.774 1280.98 180.024 1283.04 179.228L1290.05 176.501C1292.12 175.705 1293.25 173.091 1292.53 170.819C1291.81 168.432 1289.43 167.182 1287.37 168.091Z" fill="#E6E7E8"/>
<path d="M1284.69 170.137L1280.36 171.841C1279.02 172.41 1278.4 174.001 1278.81 175.364C1279.33 176.842 1280.67 177.524 1282.01 177.069L1286.34 175.364C1287.68 174.796 1288.3 173.319 1287.89 171.841C1287.47 170.364 1286.03 169.569 1284.69 170.137Z" fill="white"/>
<path d="M1266.85 347.76C1236.43 347.76 1220.13 301.962 1219.93 301.508L1217.14 302.644L1213.02 304.349C1213.22 304.917 1217.55 317.304 1226.22 329.805C1237.97 346.851 1252 355.829 1266.85 355.829C1281.7 355.829 1295.83 346.851 1307.59 329.805C1316.25 317.304 1320.58 304.917 1320.79 304.349L1313.88 301.394C1313.67 301.962 1297.38 347.76 1266.85 347.76Z" fill="#F05661"/>
<path d="M1303.56 328.328C1272 366.966 1242.82 346.397 1231.99 335.032C1229.1 331.964 1226.01 328.782 1223.22 325.373C1224.15 326.85 1225.08 328.328 1226.11 329.805C1237.87 346.851 1251.89 355.829 1266.75 355.829C1281.6 355.829 1295.72 346.851 1307.48 329.805C1316.14 317.304 1320.48 304.917 1320.68 304.349L1316.25 302.417C1313.88 312.077 1309.54 321.054 1303.56 328.328Z" fill="#CC4651"/>
<path d="M1378.44 426.06C1378.44 447.88 1362.35 465.494 1342.65 465.494H1306.45C1286.65 465.494 1270.67 447.766 1270.67 426.06V355.034H1263.24V426.06C1263.24 452.312 1282.63 473.677 1306.45 473.677H1342.65C1366.47 473.677 1385.86 452.312 1385.86 426.06V379.126H1378.44V426.06Z" fill="#F05661"/>
<path d="M1270.56 355.034H1267.67C1268.4 356.511 1268.71 412.878 1268.71 419.014C1268.71 424.924 1269.63 437.766 1272.73 439.47C1271.28 435.265 1270.56 430.72 1270.56 425.947V355.034Z" fill="#CC4651"/>
<path d="M1383.18 385.717C1381.73 408.559 1391.12 434.924 1369.05 458.789C1356.67 472.199 1316.45 468.676 1305.11 468.449C1296.14 468.222 1287.99 466.631 1279.95 463.676C1287.27 469.926 1296.45 473.677 1306.45 473.677H1342.65C1366.47 473.677 1385.86 452.312 1385.86 426.06V379.126H1381.42C1382.66 380.83 1383.38 382.99 1383.18 385.717Z" fill="#CC4651"/>
<path d="M1381.74 329.918C1369.57 329.918 1359.77 340.715 1359.77 354.011C1359.77 367.307 1369.57 378.103 1381.74 378.103C1393.91 378.103 1403.7 367.307 1403.7 354.011C1403.7 340.715 1393.91 329.918 1381.74 329.918Z" fill="#E6E7E8"/>
<path d="M1381.74 326.85C1368.12 326.85 1356.98 339.01 1356.98 353.897C1356.98 368.784 1368.02 380.944 1381.74 380.944C1395.45 380.944 1406.49 368.784 1406.49 353.897C1406.49 339.01 1395.35 326.85 1381.74 326.85ZM1381.74 375.035C1371.11 375.035 1362.45 365.602 1362.45 353.897C1362.45 342.306 1371.11 332.76 1381.74 332.76C1392.36 332.76 1401.02 342.192 1401.02 353.897C1401.02 365.602 1392.36 375.035 1381.74 375.035Z" fill="#6D6E71"/>
<path d="M1381.73 337.873C1373.17 337.873 1366.16 345.147 1366.16 354.011C1366.16 362.875 1373.17 370.148 1381.73 370.148C1390.29 370.148 1397.31 362.875 1397.31 354.011C1397.31 345.033 1390.29 337.873 1381.73 337.873ZM1381.73 366.852C1374.82 366.852 1369.15 361.057 1369.15 354.011C1369.15 346.965 1374.82 341.169 1381.73 341.169C1388.64 341.169 1394.32 346.965 1394.32 354.011C1394.32 361.057 1388.64 366.852 1381.73 366.852Z" fill="#808285"/>
<path opacity="0.1" d="M1360.8 367.193C1365.03 375.148 1372.76 380.49 1381.84 380.49C1395.25 380.49 1406.07 368.671 1406.07 354.011C1406.07 349.124 1404.84 344.692 1402.77 340.715C1386.58 369.239 1362.55 366.625 1360.8 367.193Z" fill="black"/>
</g>
</g>
<defs>
<clipPath id="clip0">
<rect width="738" height="500" fill="white" transform="translate(702)"/>
</clipPath>
<clipPath id="clip1">
<rect width="484.8" height="612.9" fill="white" transform="translate(793 76)"/>
</clipPath>
<clipPath id="clip2">
<rect width="290" height="399" fill="white" transform="translate(1196 164)"/>
</clipPath>
</defs>
</svg>
