<svg width="1440" height="500" viewBox="0 0 1440 500" fill="none" xmlns="http://www.w3.org/2000/svg">
<rect width="1440" height="500" fill="#076688"/>
<g clip-path="url(#clip0)">
<g clip-path="url(#clip1)">
<path opacity="0.2" d="M1350.71 244.363L1355.06 239.192C1357.38 236.471 1356.97 232.389 1354.25 230.076L1160.69 69.2524C1157.97 66.9393 1153.88 67.3475 1151.57 70.0687L1151.3 70.3409L950.528 311.849L945.219 318.108C942.906 320.829 943.178 324.911 945.9 327.088L960.737 339.469L1124.89 475.802L1145.72 493.082C1149.12 495.939 1154.29 495.395 1157.15 491.857L1274.62 350.626C1277.61 347.089 1277.75 342.327 1275.44 337.156L1274.89 335.387L1277.07 332.666L1279.52 329.673L1287.28 334.299C1290 336.612 1294.08 336.204 1296.4 333.483L1357.38 260.146C1359.69 257.425 1359.28 253.343 1356.56 251.03L1350.71 244.363Z" fill="#202020"/>
<path d="M1160.01 61.4968C1157.29 59.1837 1153.2 59.5919 1150.89 62.3131L949.848 304.093C947.534 306.815 947.942 310.896 950.665 313.209L1144.22 473.897C1146.94 476.21 1151.03 475.802 1153.34 473.081L1354.38 231.437C1356.7 228.716 1356.29 224.634 1353.57 222.321L1160.01 61.4968Z" fill="#D7C0A1"/>
<path d="M1339.68 224.77C1336.96 222.457 1332.88 222.865 1330.56 225.586L1264.55 304.91C1262.23 307.631 1262.64 311.713 1265.36 314.026L1286.6 326.679C1289.32 328.992 1293.4 328.584 1295.72 325.863L1356.7 252.526C1359.01 249.805 1358.6 245.723 1355.88 243.41L1339.68 224.77Z" fill="#D7C0A1"/>
<path opacity="0.1" d="M1342.95 222.457L1158.65 62.7212L1269.31 333.618L1276.39 325.047C1274.21 320.148 1276.66 316.475 1276.66 316.475L1344.17 235.382C1350.03 228.307 1342.95 222.457 1342.95 222.457Z" fill="#231F20"/>
<path d="M1159.6 61.6328C1156.88 59.4558 1152.93 59.864 1150.62 62.5852L944.54 310.488C942.226 313.209 942.498 317.291 945.22 319.468L1145.04 485.462C1148.44 488.32 1153.61 487.775 1156.47 484.238L1273.94 343.007C1276.93 339.469 1277.07 334.707 1274.76 329.537L1273.67 326.135C1271.76 320.148 1272.99 316.067 1274.48 313.618L1347.44 225.858C1349.76 223.137 1349.48 219.055 1346.76 216.878L1159.6 61.6328Z" fill="#E4D5BF"/>
<path opacity="0.08" d="M940.32 141.228L964.14 389.404L1153.89 375.253L1127.89 123.132L940.32 141.228Z" fill="#202020"/>
<path d="M1124.89 118.357L937.236 136.416L961.708 390.492L1149.36 372.433L1124.89 118.357Z" fill="#F1F2F2"/>
<path d="M1135.36 108.702L947.711 126.761L972.183 380.837L1159.84 362.778L1135.36 108.702Z" fill="white"/>
<path opacity="0.2" d="M1045.43 337.915L974.382 383.904C973.43 383.904 969.891 383.768 972.068 380.23L971.932 380.094L1047.61 325.125C1051.29 322.404 1052.1 317.234 1049.38 313.56C1046.8 309.886 1041.76 309.07 1038.08 311.519L959.954 364.583C958.457 365.127 955.871 365.807 956.551 361.862L1028.83 309.206C1032.5 306.485 1033.32 301.315 1030.6 297.641C1028.01 294.103 1022.98 293.151 1019.3 295.736L943.076 347.439C942.531 347.575 938.584 347.984 940.217 344.174L1003.51 296.416C1006.91 293.831 1007.59 288.933 1005.01 285.395C1002.42 281.994 997.658 281.314 994.255 283.763L923.067 333.969H922.931C922.931 333.969 899.247 349.208 881.552 366.352C860.454 386.761 853.104 401.455 850.517 408.531L612.996 563.64C612.996 563.64 648.794 627.317 656.689 625.82C664.175 624.459 867.26 470.03 886.996 455.063C900.199 455.2 925.245 455.199 932.867 453.567C946.887 450.437 972.613 440.641 972.613 440.641L1027.33 411.932C1027.33 411.932 1024.47 399.551 999.7 407.442C999.7 407.442 971.66 421.048 961.587 421.729C959.682 421.865 957.776 421.865 956.143 421.32C961.86 417.511 967.849 413.429 973.838 408.667L1054.69 351.521C1058.37 348.936 1059.32 343.766 1056.73 340.092C1054.15 336.418 1049.11 335.466 1045.43 337.915Z" fill="#231F20"/>
<path d="M1047.2 329.479L958.321 387.033C953.557 390.162 952.196 396.557 955.191 401.319C958.321 406.081 964.719 407.442 969.483 404.449C969.619 404.313 969.755 404.313 969.891 404.177L1056.46 343.085C1060.14 340.5 1061.09 335.33 1058.5 331.656C1055.78 327.982 1050.88 327.03 1047.2 329.479Z" fill="#FED7AB"/>
<path d="M1039.99 303.219L952.332 362.814C947.84 365.943 946.615 372.066 949.746 376.556C952.876 381.046 959.002 382.271 963.493 379.141C963.63 379.141 963.63 379.005 963.766 379.005L1049.52 316.825C1053.19 314.104 1054.01 308.934 1051.29 305.26C1048.7 301.587 1043.67 300.77 1039.99 303.219Z" fill="#FED7AB"/>
<path d="M1021.21 287.436L933.547 346.895C928.919 350.024 927.694 356.283 930.825 360.909C933.955 365.535 940.216 366.76 944.844 363.63C944.98 363.63 944.981 363.494 945.117 363.494L1030.73 301.178C1034.41 298.457 1035.22 293.287 1032.5 289.613C1029.92 285.804 1024.88 284.987 1021.21 287.436Z" fill="#FED7AB"/>
<path d="M996.161 275.463L907.141 338.051C902.786 341.18 901.697 347.167 904.827 351.521C907.958 355.875 913.947 356.963 918.303 353.834C918.439 353.834 918.439 353.698 918.575 353.698L1005.42 288.117C1008.82 285.531 1009.5 280.633 1006.91 277.096C1004.46 273.694 999.7 273.014 996.161 275.463Z" fill="#FED7AB"/>
<path d="M973.838 371.794L962.677 355.875C962.677 355.875 956.96 359.14 958.594 352.881L945.118 339.139C945.118 339.139 940.218 340.092 942.396 335.602L924.837 325.533C924.837 325.533 901.153 340.772 883.458 357.916C853.513 386.897 851.062 404.585 851.062 404.585L880.463 446.491C880.463 446.491 927.015 438.872 978.058 398.326L976.425 375.468C976.425 375.468 971.252 375.876 973.838 371.794Z" fill="#FED7AB"/>
<path d="M1001.47 398.87C1001.47 398.87 973.43 412.476 963.357 413.157C955.599 413.701 950.154 411.116 941.579 394.38L880.463 446.355C880.463 446.355 924.156 447.308 934.637 444.995C948.657 441.865 974.382 431.933 974.382 431.933L1029.1 403.224C1029.1 403.36 1026.24 390.979 1001.47 398.87Z" fill="#FED7AB"/>
<path d="M614.766 555.204C614.766 555.204 650.564 618.881 658.459 617.384C666.353 615.887 890.399 445.403 890.399 445.403L853.376 399.415L614.766 555.204Z" fill="#FED7AB"/>
<path opacity="0.1" d="M924.7 325.534C924.7 325.534 901.016 340.772 883.321 357.916C862.223 378.325 854.873 393.02 852.287 400.095L768.439 454.927C775.245 457.785 782.187 461.594 787.632 466.357C788.857 467.445 789.946 468.398 791.171 469.486C793.212 465.948 795.799 462.547 798.521 459.417C813.221 442.818 830.1 428.668 847.386 414.789C858.684 404.721 868.348 393.292 878.965 382.543C887.404 373.971 896.66 366.216 905.235 357.78C920.616 342.677 935.045 326.894 950.698 312.2C959.545 303.9 968.665 295.6 978.329 287.981L924.7 325.534Z" fill="#231F20"/>
<path opacity="0.2" d="M826.016 417.102L862.222 466.901L866.17 463.907L831.052 413.701L826.016 417.102Z" fill="#231F20"/>
<path d="M561 570.443L700.11 598.472L866.579 473.432L821.933 408.531L561 570.443Z" fill="white"/>
<path d="M691.398 574.661C682.551 580.511 673.567 585.954 664.447 591.26L700.109 598.471L866.442 473.431L854.6 456.152C841.942 464.179 699.565 569.354 691.398 574.661Z" fill="#F1F2F2"/>
<path d="M1100.94 252.662C1100.94 252.662 1109.51 261.778 1122.44 253.207L1141.36 236.335L1132.38 220.144L1100.94 252.662Z" fill="#FED7AB"/>
<path d="M1122.31 261.642C1122.31 261.642 1134.42 265.996 1142.72 253.07L1153.07 230.484L1133.06 226.947L1122.31 261.642Z" fill="#FED7AB"/>
<path d="M1133.2 215.109L1143.68 259.465L1173.76 307.359C1173.76 307.359 1192.41 220.824 1194.72 213.749L1153.75 192.659L1133.2 215.109Z" fill="#EDB989"/>
<path d="M1163.55 341.918C1163.55 341.918 1299.53 626.558 1306.88 631.592C1314.23 636.762 1381.88 588.461 1381.88 588.461L1207.38 313.209L1163.55 341.918Z" fill="#FED7AB"/>
<path d="M1195.67 199.054C1177.84 186.128 1170.49 179.87 1170.49 179.87L1161.92 199.326L1177.57 215.79L1167.91 253.751L1208.47 317.155L1208.06 228.443C1207.92 228.443 1209.28 208.987 1195.67 199.054Z" fill="#FED7AB"/>
<path d="M1162.32 256.064L1161.1 340.014L1166.41 346.817L1210.24 317.564L1169.95 246.676C1166.95 252.526 1162.32 256.064 1162.32 256.064Z" fill="#FED7AB"/>
<path opacity="0.2" d="M1203.57 425.187L1206.42 431.174L1259.37 395.254L1256.79 391.853L1203.57 425.187Z" fill="#231F20"/>
<path d="M1153.07 179.87L1115.64 219.736C1115.64 219.736 1126.53 231.709 1138.23 223.817L1165.86 200.143L1171.31 180.55C1171.31 180.414 1161.92 172.386 1153.07 179.87Z" fill="#FED7AB"/>
<path d="M1202.34 434.031L1294.63 615.945L1440 627.51L1263.87 392.261L1202.34 434.031Z" fill="white"/>
<path d="M1247.67 403.282C1247.8 403.418 1247.94 403.554 1248.08 403.826C1270.4 431.174 1393.04 608.462 1410.05 625.333L1439.86 627.646L1263.87 392.261L1247.67 403.282Z" fill="#F1F2F2"/>
<path d="M1253.79 202.728C1253.52 201.912 1252.57 201.503 1251.75 201.776L1217.45 214.429C1217.04 214.293 1216.63 214.293 1216.23 214.429L1209.01 217.559C1208.2 217.831 1207.79 218.783 1208.2 219.6C1208.47 220.416 1209.42 220.824 1210.24 220.552L1252.84 204.769C1253.66 204.497 1254.07 203.544 1253.79 202.728Z" fill="#E5BB5B"/>
<path d="M1087.73 241.913C1087.73 241.913 1075.48 245.723 1068.81 246.131C1068.81 246.131 1067.04 251.029 1059.42 256.064L1072.9 251.438C1072.9 251.438 1074.94 249.669 1075.35 250.757C1075.76 251.982 1073.03 251.846 1073.03 251.846L1059.56 256.472C1068.68 255.792 1073.03 258.513 1073.03 258.513C1078.61 254.839 1090.59 250.349 1090.59 250.349L1089.23 246.267L1087.73 241.913Z" fill="#E5BB5B"/>
<path d="M1058.06 256.744C1058.2 257.016 1058.47 257.016 1058.88 257.016L1059.69 256.744C1060.1 256.608 1060.24 256.336 1060.24 256.064L1058.06 256.744Z" fill="#E5BB5B"/>
<path d="M1059.28 255.792L1058.47 256.064C1058.06 256.2 1057.92 256.472 1057.92 256.744L1059.97 256.064C1059.97 255.656 1059.56 255.656 1059.28 255.792Z" fill="#E5BB5B"/>
<path d="M1191.59 202.456C1191.45 202.184 1191.18 202.048 1190.91 202.184L1097.8 235.383C1097.53 235.519 1097.4 235.791 1097.4 236.063C1097.4 236.063 1098.49 241.097 1099.03 242.73C1099.57 244.363 1101.75 249.125 1101.75 249.125C1101.89 249.397 1102.16 249.533 1102.43 249.397L1196.49 219.055C1196.76 218.919 1196.9 218.647 1196.9 218.375L1191.59 202.456Z" fill="#231F20"/>
<path d="M1238.82 185.176L1189.55 201.231C1187.91 201.775 1186.96 203.544 1187.51 205.041L1192.13 218.647C1192.68 220.144 1194.45 220.96 1196.08 220.416L1244.95 203.136C1257.47 198.918 1268.09 190.755 1266.45 185.72C1264.82 180.822 1251.48 180.822 1238.82 185.176Z" fill="#231F20"/>
<path d="M1109.78 234.158C1109.51 233.478 1108.83 233.205 1108.15 233.478L1083.24 241.913C1082.56 242.185 1082.15 242.866 1082.43 243.41C1082.43 243.41 1082.7 245.995 1083.38 248.036C1084.06 249.941 1085.56 252.254 1085.56 252.254C1085.83 252.934 1086.51 253.206 1087.19 252.934L1112.1 244.499C1112.78 244.226 1113.19 243.546 1112.92 243.002L1109.78 234.158Z" fill="#231F20"/>
<path d="M1242.22 184.088L1249.03 204.225L1250.8 203.544L1244.13 183.679L1242.22 184.088Z" fill="#E5BB5B"/>
<path d="M1192.54 200.279L1199.07 219.463L1203.29 217.967L1196.76 198.918L1192.54 200.279Z" fill="#E5BB5B"/>
<path d="M1104.75 232.933L1109.65 247.084L1111.42 246.403L1106.65 232.253L1104.75 232.933Z" fill="#E5BB5B"/>
<g opacity="0.2">
<path opacity="0.2" d="M1187.78 212.252C1187.51 211.708 1187.37 211.164 1187.1 210.619C1186.69 209.531 1186.42 208.442 1186.28 207.354L1098.62 237.696C1098.35 237.832 1098.08 237.968 1098.21 238.104C1098.21 238.104 1098.35 240.281 1098.62 240.961C1098.89 241.641 1100.12 243.546 1100.12 243.546C1100.12 243.682 1100.39 243.682 1100.66 243.546L1188.59 214.293C1188.32 213.749 1188.05 213.069 1187.78 212.388C1187.78 212.252 1187.78 212.252 1187.78 212.252Z" fill="white"/>
</g>
<g opacity="0.2">
<path opacity="0.2" d="M1238.41 189.258L1190.91 205.177C1189.27 205.721 1188.19 206.674 1188.46 207.354L1190.5 213.341C1190.77 214.021 1192.27 214.157 1193.9 213.613L1241.27 197.285C1253.38 193.204 1264.41 187.489 1263.73 185.312C1262.78 182.863 1250.53 185.04 1238.41 189.258Z" fill="white"/>
</g>
<g opacity="0.2">
<path opacity="0.2" d="M1096.85 239.6L1083.92 243.954C1083.24 244.226 1082.83 244.499 1082.83 244.771C1082.83 244.771 1082.42 245.723 1082.7 246.403C1082.97 246.948 1083.79 247.628 1083.79 247.628C1083.79 247.764 1084.47 247.764 1085.15 247.628L1098.08 243.274C1097.81 242.73 1097.53 242.049 1097.4 241.505C1097.13 240.689 1096.99 240.145 1096.85 239.6Z" fill="white"/>
</g>
<path opacity="0.2" d="M1067.18 248.988C1065.95 250.893 1063.64 252.934 1063.64 252.934L1082.42 246.539C1082.29 245.995 1082.29 245.451 1082.29 245.043C1076.71 246.539 1067.18 248.988 1067.18 248.988Z" fill="white"/>
<path d="M1117.95 225.178C1117.95 225.178 1129.79 250.213 1132.24 254.159C1134.83 258.105 1133.33 269.126 1134.69 280.963C1137.01 302.188 1140.68 315.25 1148.44 323.278C1153.2 328.04 1160.96 340.013 1160.96 340.013L1163.41 255.247L1120.67 188.578C1101.34 204.769 1117.95 225.178 1117.95 225.178Z" fill="#FED7AB"/>
<path d="M1019.4 174.291L1014.5 174.699L1015.18 181.774L1017.22 181.638L1016.68 176.196L1019.54 175.924L1019.4 174.291ZM1020.49 179.189C1020.63 179.597 1020.9 180.006 1021.31 180.278C1021.58 180.55 1021.99 180.822 1022.53 180.958C1023.08 181.094 1023.49 181.094 1024.17 181.094C1025.26 180.958 1026.07 180.55 1026.62 179.87C1027.16 179.189 1027.43 178.237 1027.3 177.012C1027.3 176.468 1027.16 175.924 1026.89 175.516C1026.75 175.107 1026.48 174.699 1026.07 174.427C1025.8 174.155 1025.39 173.883 1024.85 173.747C1024.44 173.611 1023.89 173.611 1023.21 173.611C1022.12 173.747 1021.31 174.155 1020.63 174.835C1020.08 175.516 1019.81 176.468 1019.95 177.693C1020.08 178.237 1020.22 178.781 1020.49 179.189ZM1022.4 175.788C1022.67 175.38 1022.94 175.244 1023.49 175.107C1024.03 175.107 1024.44 175.244 1024.71 175.652C1024.98 176.06 1025.12 176.604 1025.26 177.148C1025.39 177.965 1025.26 178.509 1024.98 178.781C1024.71 179.189 1024.44 179.325 1023.89 179.461C1023.62 179.461 1023.35 179.461 1023.21 179.325C1022.94 179.189 1022.8 179.053 1022.67 178.917C1022.53 178.781 1022.4 178.509 1022.4 178.237C1022.26 177.965 1022.26 177.693 1022.26 177.421C1021.99 176.74 1022.12 176.196 1022.4 175.788ZM1029.07 183.271L1030.97 183.135L1030.7 180.278C1030.97 180.414 1031.11 180.414 1031.38 180.414C1031.52 180.414 1031.79 180.414 1032.2 180.414C1032.74 180.414 1033.29 180.278 1033.69 180.006C1034.1 179.734 1034.37 179.461 1034.65 179.189C1034.92 178.781 1035.06 178.373 1035.19 177.829C1035.33 177.284 1035.33 176.74 1035.33 176.196C1035.19 174.971 1034.92 174.019 1034.37 173.611C1033.83 173.067 1033.15 172.931 1032.2 172.931C1031.65 172.931 1031.24 173.067 1030.97 173.339C1030.7 173.611 1030.29 173.883 1030.16 174.155L1029.88 173.339L1028.52 173.475L1029.07 183.271ZM1032.74 174.835C1033.01 175.107 1033.15 175.652 1033.15 176.196C1033.29 177.012 1033.15 177.693 1032.88 178.101C1032.61 178.509 1032.2 178.781 1031.65 178.781C1031.38 178.781 1031.11 178.781 1030.97 178.781C1030.84 178.781 1030.7 178.645 1030.43 178.645L1030.29 175.652C1030.43 175.244 1030.56 174.971 1030.7 174.835C1030.84 174.699 1031.24 174.563 1031.52 174.427C1032.06 174.427 1032.47 174.563 1032.74 174.835ZM1036.55 177.693C1036.69 178.101 1036.96 178.509 1037.37 178.781C1037.64 179.053 1038.05 179.325 1038.59 179.461C1039 179.597 1039.55 179.597 1040.23 179.597C1041.32 179.461 1042.13 179.053 1042.68 178.373C1043.22 177.693 1043.49 176.74 1043.36 175.516C1043.36 174.971 1043.22 174.427 1042.95 174.019C1042.81 173.611 1042.54 173.203 1042.13 172.931C1041.73 172.658 1041.45 172.386 1040.91 172.25C1040.5 172.114 1039.96 172.114 1039.27 172.114C1038.19 172.25 1037.37 172.658 1036.69 173.339C1036.14 174.019 1035.87 174.971 1036.01 176.196C1036.28 176.74 1036.42 177.284 1036.55 177.693ZM1038.46 174.291C1038.73 173.883 1039 173.747 1039.55 173.611C1040.09 173.611 1040.5 173.747 1040.77 174.155C1041.04 174.563 1041.18 175.107 1041.32 175.652C1041.45 176.468 1041.32 177.012 1041.04 177.284C1040.77 177.693 1040.5 177.829 1039.96 177.965C1039.68 177.965 1039.41 177.965 1039.27 177.829C1039.14 177.693 1038.87 177.557 1038.73 177.421C1038.59 177.284 1038.46 177.012 1038.46 176.74C1038.32 176.468 1038.32 176.196 1038.32 175.924C1038.19 175.244 1038.32 174.699 1038.46 174.291ZM1052.34 176.604L1051.25 176.74L1050.71 171.298L1045.54 171.842C1045.67 172.658 1045.67 173.475 1045.67 174.155C1045.67 174.835 1045.54 175.38 1045.54 175.788C1045.4 176.196 1045.4 176.604 1045.26 176.876C1045.13 177.148 1045.13 177.284 1044.99 177.421L1044.04 177.557L1044.31 180.822L1045.67 180.686L1045.81 179.053L1050.84 178.509L1051.25 180.142L1052.61 180.006L1052.34 176.604ZM1046.76 177.148C1046.9 176.876 1046.9 176.604 1047.03 176.332C1047.17 176.06 1047.17 175.652 1047.17 175.244C1047.17 174.835 1047.17 174.563 1047.31 174.155C1047.31 173.747 1047.31 173.475 1047.31 173.067L1048.94 172.931L1049.35 176.876L1046.76 177.148ZM1053.43 172.794C1053.7 172.658 1054.11 172.522 1054.52 172.386C1054.93 172.25 1055.34 172.25 1055.74 172.114C1056.29 172.114 1056.56 172.114 1056.83 172.386C1056.97 172.658 1057.11 172.931 1057.11 173.475C1056.43 173.475 1055.88 173.611 1055.34 173.747C1054.79 173.883 1054.38 174.019 1053.98 174.291C1053.57 174.563 1053.29 174.835 1053.16 175.107C1053.02 175.38 1052.89 175.788 1052.89 176.196C1052.89 176.468 1053.02 176.74 1053.16 177.012C1053.29 177.284 1053.43 177.421 1053.7 177.557C1053.98 177.693 1054.11 177.829 1054.52 177.965C1054.79 178.101 1055.06 178.101 1055.47 177.965C1056.02 177.965 1056.43 177.829 1056.83 177.557C1057.11 177.284 1057.38 177.012 1057.65 176.74H1057.79L1058.19 177.693L1059.83 177.557C1059.69 177.284 1059.56 176.876 1059.56 176.468C1059.56 176.06 1059.42 175.652 1059.42 175.244C1059.42 174.835 1059.42 174.427 1059.42 174.019C1059.42 173.611 1059.42 173.203 1059.28 172.794C1059.28 172.386 1059.15 172.114 1059.01 171.842C1058.88 171.57 1058.74 171.298 1058.47 171.162C1058.19 171.026 1057.92 170.89 1057.65 170.754C1057.24 170.617 1056.83 170.617 1056.29 170.754C1055.74 170.754 1055.06 170.89 1054.52 171.026C1053.98 171.162 1053.57 171.298 1053.16 171.57L1053.43 172.794ZM1055.06 176.332C1054.93 176.196 1054.79 176.06 1054.79 175.788C1054.79 175.652 1054.79 175.38 1054.93 175.244C1055.06 175.107 1055.2 174.971 1055.47 174.971C1055.74 174.835 1055.88 174.835 1056.15 174.835C1056.43 174.835 1056.7 174.699 1057.11 174.699L1057.24 175.652C1057.11 175.788 1056.97 176.06 1056.83 176.196C1056.56 176.332 1056.29 176.468 1055.88 176.468C1055.47 176.468 1055.34 176.468 1055.06 176.332ZM1072.9 176.332L1074.94 176.196L1073.98 166.4L1072.08 166.536L1069.9 171.298L1069.63 172.522L1069.08 171.434L1065.82 167.216L1063.91 167.352L1064.86 177.148L1066.77 177.012L1066.23 171.842L1065.68 169.937H1065.82L1066.63 171.434L1069.36 174.835H1070.04L1071.94 170.89L1072.49 169.257H1072.62V171.298L1072.9 176.332ZM1076.43 173.883C1076.57 174.291 1076.84 174.699 1077.25 174.971C1077.52 175.244 1077.93 175.516 1078.48 175.652C1078.88 175.788 1079.43 175.788 1080.11 175.788C1081.2 175.652 1082.02 175.244 1082.56 174.563C1083.1 173.883 1083.38 172.931 1083.24 171.706C1083.24 171.162 1083.1 170.617 1082.83 170.209C1082.7 169.801 1082.42 169.393 1082.02 169.121C1081.74 168.849 1081.33 168.577 1080.79 168.441C1080.38 168.304 1079.84 168.304 1079.16 168.304C1078.07 168.441 1077.25 168.849 1076.57 169.529C1076.03 170.209 1075.75 171.162 1075.89 172.386C1076.16 172.931 1076.3 173.475 1076.43 173.883ZM1078.34 170.481C1078.61 170.073 1078.88 169.937 1079.43 169.801C1079.97 169.801 1080.38 169.937 1080.65 170.345C1080.93 170.754 1081.06 171.298 1081.2 171.842C1081.33 172.658 1081.2 173.203 1080.93 173.475C1080.65 173.883 1080.38 174.019 1079.84 174.155C1079.57 174.155 1079.29 174.155 1079.16 174.019C1078.88 173.883 1078.75 173.747 1078.61 173.611C1078.48 173.475 1078.34 173.203 1078.34 172.931C1078.2 172.658 1078.2 172.386 1078.2 172.114C1078.07 171.434 1078.07 170.89 1078.34 170.481ZM1089.5 172.794C1089.37 172.931 1089.09 173.067 1088.96 173.203C1088.68 173.339 1088.41 173.339 1088.14 173.339C1087.87 173.339 1087.6 173.339 1087.32 173.203C1087.05 173.067 1086.92 172.931 1086.78 172.794C1086.64 172.658 1086.51 172.386 1086.37 172.114C1086.23 171.842 1086.23 171.57 1086.23 171.298C1086.1 170.617 1086.23 170.073 1086.51 169.665C1086.78 169.257 1087.19 169.121 1087.73 168.985C1088 168.985 1088.28 168.985 1088.55 168.985C1088.82 168.985 1088.96 169.121 1089.23 169.121L1089.5 167.624C1089.23 167.488 1088.96 167.488 1088.55 167.352C1088.14 167.352 1087.73 167.352 1087.19 167.352C1086.1 167.488 1085.28 167.896 1084.74 168.577C1084.19 169.257 1084.06 170.209 1084.19 171.434C1084.19 171.978 1084.33 172.522 1084.47 172.931C1084.6 173.339 1084.87 173.747 1085.15 174.019C1085.42 174.291 1085.83 174.563 1086.23 174.699C1086.64 174.835 1087.19 174.835 1087.73 174.835C1088.14 174.835 1088.55 174.699 1089.09 174.563C1089.5 174.427 1089.91 174.291 1090.18 174.019L1089.5 172.794ZM1095.63 174.155L1097.8 173.883L1095.49 170.754L1094.54 170.345L1095.22 169.801L1096.72 166.944L1094.67 167.08L1093.18 170.073L1092.77 170.345L1092.5 167.352L1090.59 167.488L1091.27 174.563L1093.18 174.427L1092.9 171.57H1093.45L1095.63 174.155ZM1098.62 173.747C1099.03 173.747 1099.44 173.747 1099.85 173.747C1100.25 173.747 1100.8 173.747 1101.21 173.611C1102.43 173.475 1103.39 173.203 1103.93 172.794C1104.47 172.386 1104.75 171.842 1104.61 171.162C1104.61 170.754 1104.47 170.345 1104.2 170.073C1103.93 169.801 1103.52 169.665 1102.98 169.529C1103.39 169.393 1103.66 169.121 1103.79 168.713C1103.93 168.441 1104.07 168.032 1104.07 167.76C1104.07 167.216 1103.79 166.808 1103.25 166.536C1102.7 166.264 1102.02 166.264 1100.8 166.264C1100.25 166.264 1099.71 166.4 1099.17 166.4C1098.62 166.536 1098.21 166.536 1097.94 166.672L1098.62 173.747ZM1100.25 170.617L1101.21 170.481C1101.75 170.481 1102.02 170.481 1102.3 170.617C1102.57 170.754 1102.57 170.89 1102.7 171.162C1102.7 171.434 1102.7 171.706 1102.43 171.842C1102.16 171.978 1101.89 172.114 1101.34 172.114C1101.21 172.114 1101.07 172.114 1100.94 172.114C1100.8 172.114 1100.66 172.114 1100.53 172.114L1100.25 170.617ZM1100.12 169.529L1099.98 168.032C1100.12 168.032 1100.25 168.032 1100.39 168.032C1100.53 168.032 1100.66 168.032 1100.94 168.032C1101.34 168.032 1101.75 168.032 1101.89 168.168C1102.02 168.304 1102.16 168.441 1102.16 168.713C1102.16 168.985 1102.16 169.121 1101.89 169.257C1101.75 169.393 1101.48 169.529 1101.07 169.529H1100.12ZM1107.88 169.665C1108.15 169.529 1108.42 169.529 1108.83 169.529C1109.24 169.529 1109.51 169.529 1109.78 169.665C1109.92 169.801 1110.05 170.073 1110.05 170.345C1110.05 170.617 1110.05 170.89 1109.92 171.162C1109.78 171.298 1109.51 171.434 1108.97 171.434C1108.69 171.434 1108.42 171.434 1108.15 171.434L1107.88 169.665ZM1107.47 165.855L1105.56 165.991L1106.24 173.067C1106.65 173.067 1106.92 173.067 1107.33 173.067C1107.74 173.067 1108.29 173.067 1108.83 172.931C1109.51 172.931 1109.92 172.794 1110.46 172.658C1110.87 172.522 1111.28 172.25 1111.42 172.114C1111.69 171.842 1111.82 171.57 1111.96 171.298C1112.1 171.026 1112.1 170.617 1112.1 170.209C1112.1 169.937 1111.96 169.665 1111.82 169.393C1111.69 169.121 1111.55 168.849 1111.28 168.713C1111.01 168.577 1110.74 168.441 1110.46 168.304C1110.19 168.168 1109.65 168.168 1109.24 168.304C1109.1 168.304 1108.83 168.304 1108.56 168.441C1108.29 168.441 1108.01 168.577 1107.88 168.577L1107.47 165.855ZM1113.19 172.386L1115.09 172.25L1114.41 165.175L1112.5 165.311L1113.19 172.386Z" fill="#9ABC1E"/>
<path d="M1015.18 165.447C1015.86 165.447 1016.27 165.447 1016.54 165.447C1016.82 165.583 1016.95 165.719 1016.95 165.992C1016.95 166.536 1016.54 166.808 1015.73 166.944C1015.32 166.944 1014.91 166.944 1014.64 166.944C1014.37 166.944 1013.96 166.808 1013.82 166.672L1013.55 168.169C1013.82 168.305 1014.23 168.441 1014.64 168.441C1015.05 168.577 1015.59 168.577 1016.14 168.441C1016.68 168.441 1017.09 168.305 1017.5 168.169C1017.91 168.032 1018.18 167.896 1018.45 167.624C1018.72 167.352 1018.86 167.216 1018.99 166.944C1019.13 166.672 1019.13 166.4 1019.13 166.128C1019.13 165.583 1018.99 165.311 1018.72 165.039C1018.45 164.767 1018.04 164.631 1017.5 164.495C1017.63 164.359 1017.91 164.359 1018.04 164.223C1018.18 164.087 1018.31 163.951 1018.31 163.815C1018.45 163.679 1018.45 163.542 1018.45 163.27C1018.45 163.134 1018.45 162.998 1018.45 162.726C1018.45 162.182 1018.18 161.774 1017.63 161.502C1017.23 161.229 1016.54 161.093 1015.73 161.229C1015.18 161.229 1014.64 161.366 1014.09 161.502C1013.55 161.638 1013.28 161.91 1013.01 162.046L1013.55 163.406C1013.69 163.27 1013.96 163.134 1014.23 162.998C1014.5 162.862 1014.91 162.862 1015.32 162.726C1015.73 162.726 1016 162.726 1016.27 162.862C1016.54 162.998 1016.54 163.134 1016.68 163.406C1016.68 163.679 1016.54 163.815 1016.41 163.951C1016.14 164.087 1015.86 164.223 1015.59 164.223L1014.64 164.359L1014.78 165.583L1015.18 165.447ZM1027.84 165.583L1026.75 165.719L1026.21 160.277L1021.04 160.821C1021.17 161.638 1021.17 162.454 1021.17 163.134C1021.17 163.815 1021.04 164.359 1021.04 164.767C1020.9 165.175 1020.9 165.583 1020.76 165.856C1020.63 166.128 1020.63 166.264 1020.49 166.4L1019.54 166.536L1019.81 169.801L1021.17 169.665L1021.31 168.033L1026.35 167.488L1026.75 169.121L1028.11 168.985L1027.84 165.583ZM1022.26 166.264C1022.4 165.992 1022.4 165.719 1022.53 165.447C1022.67 165.175 1022.67 164.767 1022.67 164.359C1022.67 163.951 1022.81 163.679 1022.81 163.27C1022.81 162.862 1022.81 162.59 1022.81 162.182L1024.44 162.046L1024.85 165.992L1022.26 166.264ZM1029.2 169.937L1031.11 169.801L1030.84 166.944C1031.11 167.08 1031.25 167.08 1031.52 167.08C1031.79 167.08 1031.93 167.08 1032.33 167.08C1032.88 167.08 1033.42 166.944 1033.83 166.672C1034.24 166.4 1034.51 166.128 1034.78 165.856C1035.06 165.583 1035.19 165.039 1035.33 164.495C1035.46 163.951 1035.46 163.406 1035.46 162.862C1035.33 161.638 1035.06 160.685 1034.51 160.277C1033.97 159.733 1033.29 159.597 1032.33 159.597C1031.79 159.597 1031.38 159.733 1031.11 160.005C1030.84 160.141 1030.43 160.549 1030.29 160.821L1030.02 160.005L1028.66 160.141L1029.2 169.937ZM1032.88 161.502C1033.15 161.774 1033.29 162.318 1033.29 162.862C1033.42 163.679 1033.29 164.359 1033.01 164.767C1032.74 165.175 1032.33 165.447 1031.79 165.447C1031.52 165.447 1031.25 165.447 1031.11 165.447C1030.97 165.447 1030.84 165.311 1030.56 165.311L1030.29 162.318C1030.43 161.91 1030.56 161.638 1030.7 161.502C1030.84 161.366 1031.25 161.229 1031.52 161.093C1032.33 161.093 1032.61 161.229 1032.88 161.502ZM1036.96 161.093C1037.23 160.957 1037.64 160.821 1038.05 160.685C1038.46 160.549 1038.87 160.549 1039.28 160.413C1039.82 160.413 1040.09 160.413 1040.37 160.685C1040.5 160.957 1040.64 161.229 1040.64 161.774C1039.96 161.774 1039.41 161.91 1038.87 162.046C1038.32 162.182 1037.91 162.318 1037.51 162.59C1037.1 162.862 1036.83 163.134 1036.69 163.406C1036.55 163.679 1036.42 164.087 1036.55 164.495C1036.55 164.767 1036.69 165.039 1036.83 165.311C1036.96 165.583 1037.1 165.719 1037.37 165.856C1037.64 165.992 1037.78 166.128 1038.19 166.264C1038.46 166.4 1038.73 166.4 1039.14 166.264C1039.68 166.264 1040.09 166.128 1040.5 165.856C1040.77 165.583 1041.05 165.311 1041.32 165.039H1041.45L1041.86 165.992L1043.5 165.856C1043.36 165.583 1043.22 165.175 1043.22 164.767C1043.22 164.359 1043.09 163.951 1043.09 163.542C1043.09 163.134 1043.09 162.726 1043.09 162.318C1043.09 161.91 1043.09 161.502 1042.95 161.093C1042.95 160.685 1042.82 160.413 1042.68 160.141C1042.54 159.869 1042.41 159.597 1042.13 159.461C1041.86 159.325 1041.59 159.189 1041.32 159.052C1040.91 158.916 1040.5 158.916 1039.96 159.052C1039.41 159.052 1038.73 159.189 1038.19 159.325C1037.64 159.461 1037.23 159.597 1036.83 159.869L1036.96 161.093ZM1038.73 164.631C1038.6 164.495 1038.46 164.359 1038.46 164.087C1038.46 163.951 1038.46 163.679 1038.6 163.542C1038.73 163.406 1038.87 163.27 1039.14 163.27C1039.41 163.134 1039.55 163.134 1039.82 163.134C1040.09 163.134 1040.37 162.998 1040.77 162.998L1040.91 163.951C1040.77 164.087 1040.64 164.359 1040.5 164.495C1040.23 164.631 1039.96 164.767 1039.55 164.767C1039.14 164.767 1038.87 164.767 1038.73 164.631ZM1044.58 165.583C1044.99 165.583 1045.4 165.583 1045.81 165.583C1046.22 165.583 1046.76 165.583 1047.17 165.447C1048.4 165.311 1049.35 165.039 1049.89 164.631C1050.44 164.223 1050.71 163.679 1050.57 162.998C1050.57 162.59 1050.44 162.182 1050.17 161.91C1049.89 161.638 1049.48 161.502 1048.94 161.366C1049.35 161.229 1049.62 160.957 1049.76 160.549C1049.89 160.277 1050.03 159.869 1050.03 159.597C1050.03 159.052 1049.76 158.644 1049.21 158.372C1048.67 158.1 1047.99 158.1 1046.76 158.1C1046.22 158.1 1045.67 158.236 1045.13 158.236C1044.58 158.372 1044.18 158.372 1043.9 158.508L1044.58 165.583ZM1046.22 162.454L1047.17 162.318C1047.72 162.318 1047.99 162.318 1048.26 162.454C1048.53 162.59 1048.53 162.726 1048.67 162.998C1048.67 163.27 1048.67 163.542 1048.4 163.679C1048.12 163.815 1047.85 163.951 1047.31 163.951C1047.17 163.951 1047.03 163.951 1046.9 163.951C1046.76 163.951 1046.63 163.951 1046.49 163.951L1046.22 162.454ZM1046.08 161.366L1045.95 159.869C1046.08 159.869 1046.22 159.869 1046.35 159.869C1046.49 159.869 1046.63 159.869 1046.9 159.869C1047.31 159.869 1047.72 159.869 1047.85 160.005C1047.99 160.141 1048.12 160.277 1048.12 160.549C1048.12 160.821 1048.12 160.957 1047.85 161.093C1047.72 161.229 1047.44 161.366 1047.03 161.366H1046.08ZM1051.8 162.998C1051.93 163.406 1052.21 163.815 1052.62 164.087C1052.89 164.359 1053.3 164.631 1053.84 164.767C1054.25 164.903 1054.79 164.903 1055.47 164.903C1056.56 164.767 1057.38 164.359 1057.92 163.679C1058.47 162.998 1058.74 162.046 1058.6 160.821C1058.6 160.277 1058.47 159.733 1058.2 159.325C1057.92 158.916 1057.79 158.508 1057.38 158.236C1057.11 157.964 1056.7 157.692 1056.15 157.556C1055.75 157.42 1055.2 157.42 1054.52 157.42C1053.43 157.556 1052.62 157.964 1051.93 158.644C1051.39 159.325 1051.12 160.277 1051.25 161.502C1051.53 162.046 1051.66 162.454 1051.8 162.998ZM1053.7 159.597C1053.98 159.189 1054.25 159.052 1054.79 158.916C1055.34 158.916 1055.75 159.052 1056.02 159.461C1056.29 159.869 1056.43 160.413 1056.56 160.957C1056.7 161.774 1056.56 162.318 1056.29 162.59C1056.02 162.998 1055.75 163.134 1055.2 163.27C1054.93 163.27 1054.66 163.27 1054.52 163.134C1054.25 162.998 1054.11 162.862 1053.98 162.726C1053.84 162.59 1053.7 162.318 1053.7 162.046C1053.57 161.774 1053.57 161.502 1053.57 161.229C1053.43 160.549 1053.43 159.869 1053.7 159.597ZM1059.83 162.182C1059.97 162.59 1060.24 162.998 1060.65 163.27C1060.92 163.542 1061.33 163.815 1061.87 163.951C1062.28 164.087 1062.82 164.087 1063.5 164.087C1064.59 163.951 1065.41 163.542 1065.95 162.862C1066.5 162.182 1066.77 161.229 1066.64 160.005C1066.64 159.461 1066.5 158.916 1066.23 158.508C1066.09 158.1 1065.82 157.692 1065.41 157.42C1065.14 157.148 1064.73 156.876 1064.19 156.739C1063.78 156.603 1063.23 156.603 1062.55 156.603C1061.46 156.739 1060.65 157.148 1059.97 157.828C1059.29 158.508 1059.15 159.461 1059.29 160.685C1059.56 161.229 1059.69 161.774 1059.83 162.182ZM1061.74 158.78C1062.01 158.372 1062.28 158.236 1062.82 158.1C1063.37 158.1 1063.78 158.236 1064.05 158.644C1064.32 159.052 1064.46 159.597 1064.59 160.141C1064.73 160.957 1064.59 161.502 1064.32 161.774C1064.05 162.182 1063.78 162.318 1063.23 162.454C1062.96 162.454 1062.69 162.454 1062.55 162.318C1062.28 162.182 1062.14 162.046 1062.01 161.91C1061.87 161.774 1061.74 161.502 1061.74 161.229C1061.6 160.957 1061.6 160.685 1061.6 160.413C1061.46 159.733 1061.46 159.189 1061.74 158.78ZM1067.18 163.542L1069.36 163.406L1070.31 161.638L1070.72 160.549L1071.26 161.502L1072.62 163.134L1074.94 162.862L1072.22 159.461L1074.12 155.923L1071.94 156.059L1071.13 157.692L1070.72 158.78L1070.17 157.828L1069.09 156.467L1066.77 156.739L1069.36 160.005L1067.18 163.542ZM1076.03 165.447L1077.93 165.311L1077.66 162.454C1077.93 162.59 1078.07 162.59 1078.34 162.59C1078.61 162.59 1078.75 162.59 1079.16 162.59C1079.7 162.59 1080.25 162.454 1080.66 162.182C1081.06 161.91 1081.34 161.638 1081.61 161.366C1081.88 161.093 1082.02 160.549 1082.15 160.005C1082.29 159.461 1082.29 158.916 1082.29 158.372C1082.15 157.148 1081.88 156.195 1081.34 155.787C1080.79 155.243 1080.11 155.107 1079.16 155.107C1078.61 155.107 1078.21 155.243 1077.93 155.515C1077.66 155.787 1077.25 156.059 1077.12 156.331L1076.84 155.515L1075.48 155.651L1076.03 165.447ZM1079.7 157.012C1079.97 157.284 1080.11 157.828 1080.11 158.372C1080.25 159.189 1080.11 159.869 1079.84 160.277C1079.57 160.685 1079.16 160.957 1078.61 160.957C1078.34 160.957 1078.07 160.957 1077.93 160.957C1077.8 160.957 1077.66 160.821 1077.39 160.821L1077.12 157.828C1077.25 157.42 1077.39 157.148 1077.52 157.012C1077.66 156.876 1078.07 156.739 1078.34 156.603C1079.16 156.603 1079.43 156.739 1079.7 157.012ZM1083.79 156.603C1084.06 156.467 1084.47 156.331 1084.87 156.195C1085.28 156.059 1085.69 156.059 1086.1 155.923C1086.64 155.923 1086.92 155.923 1087.19 156.195C1087.32 156.467 1087.46 156.739 1087.46 157.284C1086.78 157.284 1086.24 157.42 1085.69 157.556C1085.15 157.692 1084.74 157.828 1084.33 158.1C1083.92 158.372 1083.65 158.644 1083.51 158.916C1083.38 159.189 1083.24 159.597 1083.38 160.005C1083.38 160.277 1083.51 160.549 1083.65 160.821C1083.79 161.093 1083.92 161.229 1084.19 161.366C1084.47 161.502 1084.6 161.638 1085.01 161.774C1085.28 161.91 1085.56 161.91 1085.96 161.774C1086.51 161.774 1086.92 161.638 1087.32 161.366C1087.6 161.093 1087.87 160.821 1088.14 160.549H1088.28L1088.69 161.502L1090.32 161.366C1090.18 161.093 1090.05 160.685 1090.05 160.277C1090.05 159.869 1089.91 159.461 1089.91 159.052C1089.91 158.644 1089.91 158.236 1089.91 157.828C1089.91 157.42 1089.91 157.012 1089.77 156.603C1089.77 156.195 1089.64 155.923 1089.5 155.651C1089.37 155.379 1089.23 155.107 1088.96 154.971C1088.69 154.835 1088.41 154.699 1088.14 154.562C1087.73 154.426 1087.32 154.426 1086.78 154.562C1086.24 154.562 1085.56 154.699 1085.01 154.835C1084.47 154.971 1084.06 155.107 1083.65 155.379L1083.79 156.603ZM1085.56 160.141C1085.42 160.005 1085.28 159.869 1085.28 159.597C1085.28 159.461 1085.28 159.189 1085.42 159.052C1085.56 158.916 1085.69 158.78 1085.96 158.78C1086.24 158.644 1086.37 158.644 1086.64 158.644C1086.92 158.644 1087.19 158.508 1087.6 158.508L1087.73 159.461C1087.6 159.597 1087.46 159.869 1087.32 160.005C1087.05 160.141 1086.78 160.277 1086.37 160.277C1085.96 160.277 1085.69 160.277 1085.56 160.141ZM1095.76 160.821L1097.67 160.685L1096.99 153.61L1095.08 153.746L1095.36 156.331L1092.91 156.603L1092.63 154.018L1090.73 154.154L1091.41 161.229L1093.31 161.093L1093.04 158.372L1095.49 158.1L1095.76 160.821ZM1104.61 158.1C1104.48 158.236 1104.2 158.372 1103.93 158.508C1103.66 158.644 1103.25 158.78 1102.84 158.78C1102.16 158.78 1101.75 158.78 1101.34 158.508C1101.07 158.236 1100.8 157.828 1100.8 157.284L1105.29 156.875C1105.29 156.603 1105.29 156.331 1105.29 156.195C1105.29 155.923 1105.29 155.787 1105.29 155.515C1105.29 154.971 1105.16 154.562 1104.88 154.154C1104.75 153.746 1104.48 153.474 1104.07 153.338C1103.79 153.202 1103.39 153.066 1103.11 152.93C1102.84 152.794 1102.43 152.794 1102.03 152.93C1100.94 153.066 1099.98 153.474 1099.44 154.154C1098.89 154.835 1098.62 155.787 1098.76 157.012C1098.89 158.1 1099.3 159.052 1099.85 159.597C1100.53 160.141 1101.34 160.413 1102.57 160.277C1103.11 160.277 1103.66 160.141 1104.2 159.869C1104.75 159.733 1105.16 159.461 1105.43 159.189L1104.61 158.1ZM1103.11 154.699C1103.39 154.971 1103.52 155.379 1103.52 155.787L1100.8 156.059C1100.8 155.515 1100.94 155.243 1101.07 154.835C1101.34 154.562 1101.62 154.29 1102.16 154.29C1102.57 154.29 1102.84 154.426 1103.11 154.699ZM1111.42 159.325L1113.32 159.189L1112.64 152.113L1110.74 152.249L1111.01 154.835L1108.56 155.107L1108.29 152.522L1106.38 152.658L1107.06 159.733L1108.97 159.597L1108.69 156.875L1111.15 156.603L1111.42 159.325ZM1119.58 158.508L1121.49 158.372L1120.81 151.297L1119.58 151.433L1117.13 154.971L1116.59 156.059V155.107L1116.32 151.705L1114.41 151.841L1115.09 158.916L1116.32 158.78L1118.63 155.379L1119.18 154.29V155.243L1119.58 158.508ZM1127.21 157.828L1129.11 157.692L1128.43 150.617C1128.16 150.617 1127.75 150.617 1127.34 150.617C1126.93 150.617 1126.53 150.617 1125.98 150.617C1124.76 150.753 1123.8 151.025 1123.26 151.433C1122.71 151.841 1122.44 152.522 1122.58 153.474C1122.58 154.018 1122.85 154.426 1123.12 154.835C1123.53 155.107 1123.94 155.379 1124.35 155.379L1123.67 155.923L1122.44 158.236L1124.76 157.964L1125.98 155.379L1126.93 155.107L1127.21 157.828ZM1126.39 154.29C1125.85 154.29 1125.44 154.29 1125.16 154.154C1124.89 154.018 1124.76 153.746 1124.62 153.338C1124.62 152.93 1124.62 152.658 1124.89 152.522C1125.16 152.385 1125.44 152.249 1125.98 152.113C1126.12 152.113 1126.25 152.113 1126.39 152.113C1126.53 152.113 1126.66 152.113 1126.8 152.113L1126.93 154.018L1126.39 154.29Z" fill="#9ABC1E"/>
<path d="M1021.85 152.794L1020.49 152.93L1019.68 144.766L1013.41 145.31C1013.55 146.671 1013.55 147.759 1013.55 148.848C1013.55 149.8 1013.41 150.617 1013.41 151.297C1013.28 151.977 1013.14 152.521 1013.14 152.794C1013.01 153.202 1012.87 153.474 1012.87 153.474L1011.78 153.61L1012.05 157.148L1013.55 157.011V155.243L1020.36 154.562L1020.76 156.331L1022.26 156.195L1021.85 152.794ZM1015.05 153.474C1015.18 152.93 1015.32 152.113 1015.46 151.025C1015.59 149.936 1015.59 148.576 1015.46 146.943L1017.77 146.671L1018.31 153.066L1015.05 153.474ZM1027.98 152.113C1027.84 152.249 1027.57 152.385 1027.3 152.521C1027.03 152.658 1026.62 152.794 1026.21 152.794C1025.53 152.794 1025.12 152.794 1024.71 152.521C1024.44 152.249 1024.17 151.841 1024.03 151.297L1028.52 150.889C1028.52 150.617 1028.52 150.344 1028.52 150.208C1028.52 149.936 1028.52 149.8 1028.52 149.528C1028.52 148.984 1028.39 148.576 1028.12 148.167C1027.84 147.759 1027.71 147.487 1027.3 147.351C1027.03 147.215 1026.62 147.079 1026.35 146.943C1025.94 146.943 1025.67 146.807 1025.26 146.943C1024.17 147.079 1023.21 147.487 1022.67 148.167C1022.13 148.848 1021.85 149.8 1021.99 151.025C1022.13 152.113 1022.53 153.066 1023.08 153.61C1023.76 154.154 1024.58 154.426 1025.8 154.29C1026.35 154.29 1026.89 154.154 1027.43 153.882C1027.98 153.61 1028.39 153.474 1028.66 153.202L1027.98 152.113ZM1026.48 148.576C1026.75 148.848 1026.89 149.256 1026.89 149.664L1024.17 149.936C1024.17 149.392 1024.3 149.12 1024.44 148.712C1024.71 148.44 1024.98 148.167 1025.53 148.167C1025.94 148.304 1026.35 148.44 1026.48 148.576ZM1034.78 153.202L1036.69 153.066L1036.01 145.991L1029.75 146.535L1030.43 153.61L1032.33 153.474L1031.79 148.031L1034.1 147.759L1034.78 153.202ZM1038.32 147.623C1038.6 147.487 1039 147.351 1039.41 147.215C1039.82 147.079 1040.23 147.079 1040.64 146.943C1041.18 146.943 1041.45 146.943 1041.73 147.215C1041.86 147.487 1042 147.759 1042 148.304C1041.32 148.304 1040.77 148.44 1040.23 148.576C1039.68 148.712 1039.28 148.848 1038.87 149.12C1038.46 149.392 1038.19 149.664 1038.05 149.936C1037.92 150.208 1037.78 150.617 1037.92 151.025C1037.92 151.297 1038.05 151.569 1038.19 151.841C1038.32 152.113 1038.46 152.249 1038.73 152.385C1039 152.521 1039.14 152.657 1039.55 152.794C1039.82 152.93 1040.09 152.93 1040.5 152.794C1041.05 152.794 1041.45 152.658 1041.86 152.385C1042.13 152.113 1042.41 151.841 1042.68 151.569H1042.82L1043.22 152.521L1044.86 152.385C1044.72 152.113 1044.59 151.705 1044.59 151.297C1044.59 150.889 1044.45 150.481 1044.45 150.072C1044.45 149.664 1044.45 149.256 1044.45 148.848C1044.45 148.44 1044.45 148.031 1044.31 147.623C1044.31 147.215 1044.18 146.943 1044.04 146.671C1043.9 146.399 1043.77 146.127 1043.5 145.991C1043.22 145.854 1042.95 145.718 1042.68 145.582C1042.27 145.446 1041.86 145.446 1041.32 145.582C1040.77 145.582 1040.09 145.718 1039.55 145.854C1039 145.991 1038.6 146.127 1038.19 146.399L1038.32 147.623ZM1040.09 151.161C1039.96 151.025 1039.82 150.889 1039.82 150.617C1039.82 150.481 1039.82 150.208 1039.96 150.072C1040.09 149.936 1040.23 149.8 1040.5 149.8C1040.77 149.664 1040.91 149.664 1041.18 149.664C1041.45 149.664 1041.73 149.528 1042.14 149.528L1042.27 150.481C1042.13 150.617 1042 150.889 1041.86 151.025C1041.59 151.161 1041.32 151.297 1040.91 151.297C1040.5 151.297 1040.23 151.297 1040.09 151.161ZM1046.22 154.971L1048.12 154.834L1047.85 151.977C1048.12 152.113 1048.26 152.113 1048.53 152.113C1048.8 152.113 1048.94 152.113 1049.35 152.113C1049.89 152.113 1050.44 151.977 1050.85 151.705C1051.25 151.433 1051.53 151.161 1051.8 150.889C1052.07 150.481 1052.21 150.072 1052.34 149.528C1052.48 148.984 1052.48 148.44 1052.48 147.895C1052.34 146.671 1052.07 145.718 1051.53 145.31C1050.98 144.766 1050.3 144.63 1049.35 144.63C1048.8 144.63 1048.4 144.766 1048.12 145.038C1047.85 145.174 1047.44 145.582 1047.31 145.854L1047.04 145.038L1045.67 145.174L1046.22 154.971ZM1049.76 146.671C1050.03 146.943 1050.17 147.487 1050.17 148.031C1050.3 148.848 1050.17 149.528 1049.89 149.936C1049.62 150.344 1049.21 150.617 1048.67 150.617C1048.4 150.617 1048.12 150.617 1047.99 150.617C1047.85 150.617 1047.72 150.481 1047.44 150.481L1047.17 147.487C1047.31 147.079 1047.44 146.807 1047.58 146.671C1047.72 146.535 1048.12 146.399 1048.4 146.263C1049.21 146.127 1049.62 146.263 1049.76 146.671ZM1058.6 143.95L1052.34 144.494L1052.48 146.127L1054.66 145.991L1055.2 151.433L1057.24 151.297L1056.7 145.854L1058.88 145.718L1058.6 143.95ZM1060.1 145.582C1060.37 145.446 1060.78 145.31 1061.19 145.174C1061.6 145.038 1062.01 145.038 1062.42 144.902C1062.96 144.902 1063.23 144.902 1063.51 145.174C1063.64 145.446 1063.78 145.718 1063.78 146.263C1063.1 146.263 1062.55 146.399 1062.01 146.535C1061.46 146.671 1061.06 146.807 1060.65 147.079C1060.24 147.351 1059.97 147.623 1059.83 147.895C1059.69 148.167 1059.56 148.576 1059.56 148.984C1059.56 149.256 1059.69 149.528 1059.83 149.8C1059.97 150.072 1060.1 150.208 1060.37 150.344C1060.65 150.481 1060.78 150.617 1061.19 150.753C1061.46 150.889 1061.74 150.889 1062.14 150.753C1062.69 150.753 1063.1 150.617 1063.51 150.344C1063.78 150.072 1064.05 149.8 1064.32 149.528H1064.46L1064.87 150.481L1066.5 150.344C1066.36 150.072 1066.23 149.664 1066.23 149.256C1066.23 148.848 1066.09 148.44 1066.09 148.031C1066.09 147.623 1066.09 147.215 1066.09 146.807C1066.09 146.399 1066.09 145.991 1065.96 145.582C1065.96 145.174 1065.82 144.902 1065.68 144.63C1065.55 144.358 1065.41 144.086 1065.14 143.95C1064.87 143.814 1064.59 143.677 1064.32 143.541C1063.91 143.405 1063.51 143.405 1062.96 143.541C1062.42 143.541 1061.74 143.677 1061.19 143.814C1060.65 143.95 1060.24 144.086 1059.83 144.358L1060.1 145.582ZM1061.74 149.12C1061.6 148.984 1061.46 148.848 1061.46 148.576C1061.46 148.44 1061.46 148.167 1061.6 148.031C1061.74 147.895 1061.87 147.759 1062.14 147.759C1062.42 147.623 1062.55 147.623 1062.82 147.623C1063.1 147.623 1063.37 147.487 1063.78 147.487L1063.91 148.44C1063.78 148.576 1063.64 148.848 1063.51 148.984C1063.23 149.12 1062.96 149.256 1062.55 149.256C1062.14 149.256 1061.87 149.256 1061.74 149.12ZM1073.99 149.528L1075.89 149.392L1075.21 142.317L1073.17 142.453L1071.81 145.174L1071.4 146.127L1070.86 145.31L1068.81 142.861L1066.77 142.997L1067.45 150.072L1069.22 149.936L1068.95 146.671L1068.68 145.174H1068.81L1069.49 146.399L1071.26 148.44H1071.94L1073.17 146.127L1073.71 144.902H1073.85V146.399L1073.99 149.528ZM1082.83 146.943C1082.7 147.079 1082.43 147.215 1082.15 147.351C1081.88 147.487 1081.47 147.623 1081.06 147.623C1080.38 147.623 1079.98 147.623 1079.57 147.351C1079.29 147.079 1079.02 146.671 1079.02 146.127L1083.51 145.718C1083.51 145.446 1083.51 145.174 1083.51 145.038C1083.51 144.766 1083.51 144.63 1083.51 144.358C1083.51 143.814 1083.38 143.405 1083.11 142.997C1082.97 142.589 1082.7 142.317 1082.29 142.181C1082.02 142.045 1081.61 141.909 1081.34 141.773C1080.93 141.773 1080.66 141.637 1080.25 141.773C1079.16 141.909 1078.21 142.317 1077.66 142.997C1077.12 143.677 1076.84 144.63 1076.98 145.854C1077.12 146.943 1077.39 147.895 1078.07 148.44C1078.75 148.984 1079.57 149.256 1080.79 149.12C1081.34 149.12 1081.88 148.984 1082.43 148.712C1082.97 148.44 1083.38 148.304 1083.65 148.031L1082.83 146.943ZM1081.34 143.405C1081.61 143.677 1081.74 144.086 1081.74 144.494L1079.02 144.766C1079.02 144.222 1079.16 143.95 1079.29 143.541C1079.57 143.269 1079.84 142.997 1080.38 142.997C1080.66 143.133 1081.06 143.133 1081.34 143.405ZM1089.64 148.031L1091.54 147.895L1090.86 140.82L1088.96 140.956L1089.23 143.541L1086.78 143.814L1086.51 141.228L1084.6 141.364L1085.28 148.44L1087.19 148.304L1086.92 145.582L1089.37 145.31L1089.64 148.031ZM1098.08 140.14L1091.82 140.684L1091.95 142.317L1094.13 142.181L1094.68 147.623L1096.72 147.487L1096.17 142.045L1098.35 141.909L1098.08 140.14Z" fill="#9ABC1E"/>
<path d="M987.959 164.903C987.687 165.856 987.007 166.264 986.462 166.128C986.19 166.128 985.373 165.719 985.645 164.495C985.918 163.27 986.87 162.998 987.279 162.998C987.959 163.27 988.368 163.951 987.959 164.903ZM994.901 155.651C995.037 153.066 995.854 151.161 996.807 149.8C997.76 148.44 998.44 148.44 998.304 148.168C998.168 147.895 996.943 148.032 995.582 148.304C992.315 149.12 987.551 151.025 982.923 154.29C975.301 159.869 970.945 168.849 974.62 174.291C976.798 177.557 979.792 177.557 981.834 177.149C981.834 177.149 983.74 181.094 989.048 184.224C989.184 184.36 989.184 184.224 989.321 184.224C989.457 184.088 988.912 183.68 988.64 183.407C987.415 182.319 985.918 180.822 984.965 179.19C983.74 177.149 981.562 173.475 982.651 166.672C983.059 163.27 984.42 160.549 985.645 158.508C985.782 158.236 986.054 157.964 986.19 157.828C986.871 156.739 986.871 157.284 986.871 157.42C986.734 157.692 986.598 157.964 986.462 158.372C986.054 159.325 985.645 160.549 985.373 162.046C984.012 167.624 986.054 171.162 986.054 171.162L987.551 167.896C988.368 166.264 989.729 164.631 990.818 163.542C991.09 163.27 991.907 162.59 992.043 162.454C992.179 162.454 992.315 162.454 991.907 162.862C990.818 164.223 989.457 166.672 988.776 169.257C987.823 173.475 989.048 178.373 993.132 178.917C998.032 179.462 1001.03 176.06 1000.62 171.026C999.938 165.311 994.493 161.638 994.901 155.651Z" fill="#9ABC1E"/>
<path d="M966.182 148.984L969.449 183.271C969.721 186.265 972.715 187.489 975.574 187.217L981.971 186.673C984.693 186.401 987.007 187.489 988.505 188.306C989.866 187.217 992.044 185.72 994.63 185.448L1001.03 184.904C1003.89 184.632 1006.61 182.863 1006.34 179.87L1003.07 145.582L966.182 148.984ZM988.641 190.619L987.96 190.21C986.735 189.394 984.421 188.169 981.971 188.442L975.574 188.986C971.899 189.394 967.815 187.625 967.407 183.407L964.004 147.351L1004.43 143.542L1007.83 179.598C1008.24 183.679 1004.7 186.129 1000.89 186.537L994.494 187.081C992.044 187.353 990.002 188.986 988.913 189.938L988.641 190.619Z" fill="#9ABC1E"/>
<path d="M1003.07 166.264L1001.3 147.351L999.667 147.487C1000.08 147.759 1000.08 148.167 999.667 148.44C998.85 149.12 992.044 154.562 999.531 165.039C999.667 165.175 999.803 165.311 999.803 165.447C1001.16 164.767 1003.07 165.583 1003.07 166.264ZM992.316 148.167L968.088 150.48L969.857 169.257C971.491 169.121 971.491 169.937 971.899 170.618C971.899 170.209 972.035 169.801 972.307 169.529V169.393C971.763 161.91 981.019 151.569 992.316 148.167Z" fill="#8AB8E3"/>
<path d="M987.279 172.522C990.41 170.89 989.185 174.836 987.552 175.244C986.191 174.972 984.421 171.162 987.279 172.522Z" fill="white"/>
<path d="M987.28 172.795C989.322 171.706 988.505 174.427 987.416 174.699C986.599 174.563 985.51 171.842 987.28 172.795Z" fill="#CE1417"/>
<path d="M984.557 183.271C984.966 183.271 985.238 183.135 985.51 183.135C983.332 182.319 981.835 180.006 981.154 178.781C980.61 178.781 979.657 179.189 978.432 179.598C977.888 179.189 977.615 178.645 977.343 178.237C976.527 178.373 972.715 179.734 971.899 180.822C972.307 181.366 972.579 181.503 972.988 181.775C973.26 181.639 973.94 181.503 974.621 181.366C973.26 182.183 972.035 182.999 971.49 183.816C972.443 184.904 972.443 185.04 973.26 185.584C974.349 185.176 977.071 184.632 979.793 184.088C979.113 184.496 978.704 185.04 978.432 185.448C978.977 185.856 979.249 185.993 979.657 186.265C980.61 185.856 984.285 184.496 985.918 184.088C985.374 183.816 984.966 183.543 984.557 183.271Z" fill="#E2B900"/>
<path d="M1004.29 177.693C1002.8 177.829 991.09 181.366 989.457 182.999C990.274 183.679 990.682 183.815 991.499 184.224C992.452 183.951 994.493 183.543 996.807 183.135C996.399 183.543 995.991 183.815 995.854 184.224C996.399 184.632 996.671 184.768 997.08 185.04C998.032 184.632 1001.71 183.271 1003.34 182.863C1002.93 182.727 1002.52 182.591 1002.25 182.319C1002.8 182.183 1003.34 182.183 1003.89 182.047C1004.29 181.502 1004.43 178.917 1004.29 177.693Z" fill="#E2B900"/>
</g>
</g>
<defs>
<clipPath id="clip0">
<rect width="804" height="500" fill="white" transform="translate(636)"/>
</clipPath>
<clipPath id="clip1">
<rect width="897" height="572" fill="white" transform="translate(543 60)"/>
</clipPath>
</defs>
</svg>
