<svg width="1440" height="272" viewBox="0 0 1440 272" fill="none" xmlns="http://www.w3.org/2000/svg">
<rect width="1439" height="272" fill="#009DD0"/>
<g clip-path="url(#clip0_1024_3820)">
<mask id="mask0_1024_3820" style="mask-type:alpha" maskUnits="userSpaceOnUse" x="769" y="-67" width="599" height="273">
<rect x="769" y="-67" width="599" height="273" fill="#C4C4C4"/>
</mask>
<g mask="url(#mask0_1024_3820)">
</g>
<g clip-path="url(#clip1_1024_3820)">
<path opacity="0.2" d="M1057.2 158.4L855.4 85.7C850.5 84 845.2 86.5 843.4 91.3L794 228.3C792.3 233.2 794.8 238.5 799.6 240.3L1001.5 313C1006.4 314.7 1011.7 312.2 1013.5 307.4L1062.9 170.4C1064.6 165.5 1062 160.2 1057.2 158.4Z" fill="#231F20"/>
<path d="M1054.7 153L852.899 80.3C847.999 78.6 842.699 81.1 840.899 85.9L791.599 223C789.899 227.9 792.399 233.2 797.199 235L998.999 307.7C1003.9 309.4 1009.2 306.9 1011 302.1L1060.4 165.1C1062 160.1 1059.5 154.8 1054.7 153Z" fill="#414042"/>
<path d="M855.349 101.07L812.283 220.539L996.472 286.935L1039.54 167.466L855.349 101.07Z" fill="#E6E7E8"/>
<path opacity="0.3" d="M1054.7 153L852.9 80.3C848 78.6 842.7 81.1 840.9 85.9L792 221.7C794.2 221.1 796.4 220.6 798.6 220C857.5 205 916.9 191.9 976.4 179.1C1004.4 173.1 1032.4 167.2 1060.7 163C1061.3 158.8 1058.9 154.6 1054.7 153Z" fill="white"/>
<path d="M966.499 160.8C952.499 155.8 936.699 164.1 931.199 179.4C936.699 164.1 929.799 147.6 915.899 142.6C901.899 137.6 886.099 145.9 880.599 161.2C878.699 166.4 878.299 172.1 878.799 178L882.199 179.1L886.699 180.6C889.699 181.6 892.699 182.6 895.699 183.6L904.599 186.6L913.499 189.6L922.399 192.7L926.899 194.2L930.099 195.3L930.899 194.3L932.599 192.4L934.299 190.5C934.899 189.9 935.399 189.2 935.999 188.6L939.399 184.8L942.799 181L947.599 175.6L946.499 182.8L946.099 185.2L945.699 187.6L944.899 192.3L944.499 194.7L944.099 197.1L943.299 201.8L942.899 204.2L942.499 206.6L941.699 211.3L941.099 214.6C941.899 213.7 942.699 212.9 943.499 212L945.199 210.2L946.899 208.4L950.199 204.8L950.799 204.2L951.599 204.5L964.999 209.3L972.499 212C976.699 207.8 979.899 203.1 981.799 198C987.399 182.3 980.499 165.8 966.499 160.8Z" fill="#EF4351"/>
<path d="M951.699 206.7L949.099 209.9L947.599 211.8L945.999 213.7C944.999 215 943.899 216.3 942.899 217.5L939.799 221.3L935.799 226.2L936.599 219.9C936.799 218.3 936.999 216.7 937.199 215.2L937.899 210.5L938.599 205.8L938.899 203.4L939.199 201L939.899 196.3L940.199 193.9L940.599 191.5L940.999 189.1L938.899 191.3C938.299 191.9 937.799 192.5 937.199 193.2L935.499 195.1L933.799 197L931.999 198.8L931.099 199.8L929.899 199.4L925.499 197.8L921.099 196.1L912.299 192.8L903.499 189.4L894.699 186C891.799 184.9 888.799 183.7 885.899 182.6L881.499 180.9L878.799 179.8C882.299 209 908.299 242.8 908.299 242.8C908.299 242.8 949.799 233.4 971.099 213.2L964.299 211L951.699 206.7Z" fill="#EF4351"/>
<path opacity="0.2" d="M1135.1 -79.1C1134.7 -80.8 1133 -81.8 1131.2 -81.3L911.599 -28.9C909.899 -28.5 908.799 -26.8 909.199 -25.2L975.999 254.4C976.399 256.1 978.099 257.1 979.899 256.6L1199.5 204.2C1201.2 203.8 1202.3 202.1 1201.9 200.5L1135.1 -79.1Z" fill="#231F20"/>
<path d="M1127.7 -83.7C1127.3 -85.4 1125.6 -86.4 1123.8 -85.9L904.199 -33.5C902.499 -33.1 901.399 -31.4 901.799 -29.8L968.499 249.8C968.899 251.5 970.599 252.5 972.399 252L1192 199.6C1193.7 199.2 1194.8 197.5 1194.4 195.9L1127.7 -83.7Z" fill="#005B7F"/>
<path d="M1110.3 -69.7111L929.471 -26.5451L991.422 232.971L1172.25 189.805L1110.3 -69.7111Z" fill="#D1D3D4"/>
<path d="M1103.52 -74.1284L922.695 -30.9624L984.577 228.262L1165.4 185.096L1103.52 -74.1284Z" fill="#F1F2F2"/>
<path d="M1056.83 150.829L991.461 166.413L991.948 168.456L1057.31 152.872L1056.83 150.829Z" fill="#E6E7E8"/>
<path d="M1058.84 158.999L993.482 174.623L993.971 176.666L1059.33 161.042L1058.84 158.999Z" fill="#E6E7E8"/>
<path d="M1060.76 167.213L995.396 182.843L995.885 184.886L1061.24 169.255L1060.76 167.213Z" fill="#E6E7E8"/>
<path d="M1062.78 175.442L997.396 190.992L997.882 193.035L1063.26 177.485L1062.78 175.442Z" fill="#E6E7E8"/>
<path d="M1064.63 183.537L999.26 199.127L999.747 201.17L1065.11 185.58L1064.63 183.537Z" fill="#E6E7E8"/>
<path d="M1040.59 82.6066L975.234 98.244L975.979 101.356L1041.33 85.7186L1040.59 82.6066Z" fill="#BCBEC0"/>
<path d="M1044.35 98.3106L978.988 113.914L979.476 115.957L1044.84 100.353L1044.35 98.3106Z" fill="#E6E7E8"/>
<path d="M1046.25 106.51L980.891 122.134L981.379 124.177L1046.74 108.553L1046.25 106.51Z" fill="#E6E7E8"/>
<path d="M1048.24 114.601L982.877 130.232L983.365 132.274L1048.72 116.643L1048.24 114.601Z" fill="#E6E7E8"/>
<path d="M1050.13 122.843L984.766 138.44L985.253 140.483L1050.62 124.886L1050.13 122.843Z" fill="#E6E7E8"/>
<path d="M1052.13 131.01L986.775 146.634L987.264 148.676L1052.62 133.052L1052.13 131.01Z" fill="#E6E7E8"/>
<path d="M1118.83 80.5L1053.48 96.1508L1053.97 98.1931L1119.32 82.5422L1118.83 80.5Z" fill="#E6E7E8"/>
<path d="M1120.75 88.7087L1055.39 104.333L1055.87 106.375L1121.23 90.7511L1120.75 88.7087Z" fill="#E6E7E8"/>
<path d="M1122.74 96.9381L1057.37 112.529L1057.86 114.571L1123.23 98.9808L1122.74 96.9381Z" fill="#E6E7E8"/>
<path d="M1124.63 105.046L1059.26 120.643L1059.75 122.686L1125.12 107.088L1124.63 105.046Z" fill="#E6E7E8"/>
<path d="M1126.63 113.211L1061.27 128.835L1061.76 130.877L1127.12 115.253L1126.63 113.211Z" fill="#E6E7E8"/>
<path d="M1131.31 133.004L1065.96 148.642L1066.45 150.684L1131.8 135.046L1131.31 133.004Z" fill="#E6E7E8"/>
<path d="M1133.33 141.229L1067.96 156.82L1068.45 158.862L1133.81 143.272L1133.33 141.229Z" fill="#E6E7E8"/>
<path d="M1135.25 149.455L1069.88 165.032L1070.37 167.075L1135.74 151.498L1135.25 149.455Z" fill="#E6E7E8"/>
<path d="M1137.25 157.595L1071.89 173.219L1072.38 175.261L1137.74 159.637L1137.25 157.595Z" fill="#E6E7E8"/>
<path d="M1139.12 165.744L1073.75 181.334L1074.24 183.377L1139.61 167.787L1139.12 165.744Z" fill="#E6E7E8"/>
<path d="M1073.8 27.5L1069.5 22.2C1069.2 21.8 1068.6 21.6 1068.1 21.8C1067.6 22 1067.3 22.5 1067.3 23L1068.1 43.6L1052.4 3.2C1052.2 2.7 1051.6 2.30001 1051.1 2.40001C1050.5 2.50001 1050.1 3.00001 1050.1 3.60001L1048.6 33.5L1018 40.8L1013.7 35.5C1013.4 35.1 1012.8 34.9 1012.3 35.1C1011.8 35.3 1011.5 35.8 1011.5 36.3L1012.3 56.9L996.6 16.5C996.4 16 995.8 15.6 995.3 15.7C994.7 15.8 994.3 16.3 994.3 16.9L992.8 46.8L975.1 51L975.7 53.4L994.3 49C994.8 48.9 995.2 48.4 995.2 47.9L996.5 22.8L1012.8 64.7C1013 65.3 1013.6 65.6 1014.2 65.5C1014.8 65.4 1015.2 64.8 1015.1 64.3L1014.1 40L1016.6 43C1016.9 43.4 1017.4 43.5 1017.8 43.4L1050.1 35.7C1050.6 35.6 1051 35.1 1051 34.6L1052.3 9.50001L1068.6 51.4C1068.8 52 1069.4 52.3 1070 52.2C1070.6 52.1 1071 51.5 1071 50.9L1070 26.6L1072.5 29.6C1072.8 30 1073.3 30.1 1073.7 30L1096.1 24.7L1095.5 22.3L1073.8 27.5Z" fill="#009DB9"/>
<path d="M973.099 81.5L957.499 16.3L956.299 16.6L971.999 82.4C972.099 82.7 972.399 82.9 972.699 82.9L1110.7 49.9L1110.4 48.7L973.099 81.5Z" fill="#D1D3D4"/>
<path opacity="0.2" d="M1106.5 230.2L1101.3 220.2L1099.2 221.2C1100 215.4 1102.6 197 1102.3 190.1C1101.9 179.1 1094.3 146.9 1094.3 146.9L1080.7 108.4C1080.7 108.4 1068.1 109.4 1070.7 129.1L1077.1 155.2C1077.1 155.2 1077.5 157 1077.1 159.6C1076.2 157.7 1075.2 155.8 1074.1 153.8C1074 153.5 1073.9 153.1 1073.7 152.8C1073.7 152.8 1073.7 152.7 1073.6 152.7L1038.1 80.3C1036.4 76.8 1032.2 75.4 1028.7 77.1C1025.3 78.8 1023.8 82.9 1025.4 86.4L1053 145C1053 145.7 1052.9 146.8 1051.8 147.2C1051.4 147.4 1050.6 147.8 1049.6 147.1L1017.2 82.3C1015.5 78.8 1011.3 77.4 1007.8 79.2C1004.4 80.9 1003 85 1004.6 88.4L1034.3 152.9C1034.3 152.9 1035.4 154.8 1034.2 155.6C1033.2 156.3 1032.5 156 1032 155.6L1001.6 95.1C999.899 91.6 995.599 90.2 992.199 92C988.799 93.7 987.399 97.8 988.999 101.2L1018 164.3C1018.2 165 1018.4 166.8 1016.8 167.5C1015.7 168 1014.6 167.1 1014.1 166.5L988.199 113C986.599 109.8 982.699 108.4 979.499 110C976.299 111.6 974.899 115.4 976.499 118.7L1005 178.9L1004.9 179C1004.9 179 1011.9 193.5 1014.9 199.7C1025.8 222.4 1045.4 240.2 1050.5 244.6L1048.1 245.7L1052.7 256L1049.2 257.7L1197.8 514.2L1267 483.3L1109 228.9L1106.5 230.2Z" fill="#231F20"/>
<path d="M1072.5 161.9L1036 88.5C1034.2 85 1030 83.5 1026.5 85.2C1023.1 86.9 1021.7 91 1023.3 94.5L1058.7 168.5C1060.6 172.4 1065.2 174.1 1069 172.3C1072.8 170.5 1074.4 166 1072.6 162.1C1072.5 162 1072.5 161.9 1072.5 161.9Z" fill="#FED7AB"/>
<path d="M1052.2 163.4L1015.1 90.3C1013.3 86.8 1009.1 85.3 1005.6 87C1002.2 88.7 1000.8 92.8 1002.5 96.3L1037.3 170.5C1039.3 174.7 1044.2 176.6 1048.4 174.7C1052.5 172.8 1054.3 167.9 1052.3 163.7C1052.3 163.6 1052.3 163.5 1052.2 163.4Z" fill="#FED7AB"/>
<path d="M1036.8 176.1L999.699 103C997.899 99.5 993.699 98 990.199 99.7C986.799 101.4 985.399 105.5 987.099 108.9L1021.8 183.2C1023.8 187.5 1028.8 189.4 1033 187.5C1037.2 185.6 1039 180.6 1037 176.3C1036.9 176.3 1036.9 176.1 1036.8 176.1Z" fill="#FED7AB"/>
<path d="M1022.6 194.3L986.199 120.8C984.599 117.5 980.599 116.1 977.399 117.7C974.199 119.2 972.899 123.1 974.499 126.4L1010 200.3C1011.7 203.9 1015.9 205.4 1019.4 203.8C1022.8 202.2 1024.3 198 1022.6 194.3C1022.6 194.4 1022.6 194.4 1022.6 194.3Z" fill="#FED7AB"/>
<path d="M1051.6 153.1C1051.6 153.1 1052.3 155.4 1050.6 156.1C1050 156.3 1049 157 1047.5 155.1L1033.1 161.6C1033.1 161.6 1034.2 163.5 1033 164.3C1031 165.7 1030.1 163.3 1030.1 163.3L1016.8 172.6C1016.8 172.6 1017.8 175.3 1015.7 176.1C1014 176.8 1012.6 174.6 1012.6 174.6L1003.6 187.6C1003.6 187.6 1010.8 202.3 1013.9 208.6C1026.8 235.1 1051.4 255.4 1051.4 255.4L1098.6 233.1C1098.6 233.1 1094.2 200.8 1069.4 156.8L1051.6 153.1Z" fill="#FED7AB"/>
<path d="M1093.2 156.3L1079.1 117.3C1079.1 117.3 1066.4 118.2 1069.3 138.1L1076 164.4C1076 164.4 1079.1 178.8 1060.5 182.9L1098.8 233C1098.8 233 1102.2 208.2 1101.8 199.9C1101.1 188.8 1093.2 156.3 1093.2 156.3Z" fill="#FED7AB"/>
<path d="M1051.5 255.4C1064 289 1205.3 524.7 1205.3 524.7L1272.2 493.1C1269.3 474.5 1098.7 233 1098.7 233L1051.5 255.4Z" fill="#FED7AB"/>
<path d="M1049 267.5L1200.6 526.9L1275.8 491.4L1108.9 239.2L1049 267.5Z" fill="white"/>
<path d="M1087.5 249.3C1113.8 308.5 1199 398.4 1229.1 456C1237.1 471.3 1245.1 486.7 1252.9 502.2L1275.8 491.4L1108.9 239.2L1087.5 249.3Z" fill="#F1F2F2"/>
</g>
<g clip-path="url(#clip2_1024_3820)">
<path opacity="0.1" d="M1278.56 65.0209L1255.31 61.1642L1214.59 55.2776C1214.59 55.2776 1201.91 72.9373 1202.09 93.3373C1202.64 205.284 1268.45 220.609 1268.45 220.609L1326.63 284.854L1447.12 182.245L1319.28 52.3343L1278.56 65.0209Z" fill="url(#paint0_linear_1024_3820)"/>
<path opacity="0.1" d="M1368.45 236.645L1367.53 284.752L1362.02 305.66L1349.15 320.173L1332.33 323.624H1302.55L1271.85 312.561L1356.68 406.34L1460.45 288.203L1382.42 201.934L1368.45 236.645Z" fill="url(#paint1_linear_1024_3820)"/>
<path opacity="0.2" d="M1371.02 199.397C1358.89 199.397 1348.96 210.257 1348.96 223.552C1348.96 235.833 1357.33 245.982 1368.08 247.504V287.898C1368.08 307.385 1353.74 323.116 1336.19 323.116H1303.93C1286.28 323.116 1272.03 307.284 1272.03 287.898V224.973C1284.07 223.755 1295.38 215.839 1305.03 201.833C1312.75 190.669 1316.61 179.606 1316.79 179.099L1315.51 178.591C1318.45 171.385 1322.68 160.322 1325.98 146.925C1331.5 125.003 1336 92.5254 1326.08 61.6717C1325.16 58.9314 1323.41 56.8 1320.84 55.4806C1312.29 51.3194 1296.67 56.1911 1290.6 58.3224C1289.68 57.3075 1288.21 57.003 1286.92 57.5105L1280.67 59.9463C1278.84 60.6567 1277.82 62.9911 1278.47 65.0209C1279.11 67.0508 1281.22 68.1672 1283.06 67.4567L1289.31 65.0209C1290.51 64.5134 1291.33 63.397 1291.61 62.1791C1297.31 60.1493 1311.92 55.5821 1319.18 59.3373C1320.93 60.2508 1322.03 61.5702 1322.58 63.2955C1332.14 93.1343 1327.82 124.8 1322.4 146.113C1319.09 159.409 1314.96 170.472 1312.01 177.475L1310.45 176.764C1310.27 177.17 1295.84 218.072 1268.63 218.072C1241.52 218.072 1226.91 177.17 1226.81 176.764L1225.25 177.475C1222.31 170.472 1218.17 159.409 1214.87 146.113C1209.54 124.597 1205.12 92.9313 1214.68 63.194C1215.23 61.3672 1216.43 60.1493 1218.17 59.2358C1225.44 55.4806 1240.05 60.0478 1245.75 62.0776C1246.02 63.397 1246.85 64.5134 1248.05 65.0209L1254.3 67.4567C1256.13 68.1672 1258.25 67.1522 1258.89 65.0209C1259.53 62.9911 1258.62 60.6567 1256.68 59.9463L1250.44 57.5105C1249.15 57.003 1247.77 57.409 1246.76 58.3224C1240.69 56.0896 1225.07 51.3194 1216.61 55.6836C1214.04 57.003 1212.2 59.1343 1211.37 61.8746C1201.45 92.6269 1205.95 125.206 1211.47 147.128C1214.87 160.424 1219 171.588 1221.94 178.794L1220.66 179.301C1220.84 179.809 1224.7 190.872 1232.42 202.036C1241.98 215.94 1253.38 223.857 1265.42 225.176V288.101C1265.42 311.546 1282.7 330.627 1303.93 330.627H1336.19C1357.42 330.627 1374.7 311.546 1374.7 288.101V247.504C1385.08 245.576 1393.08 235.63 1393.08 223.654C1393.08 210.257 1383.15 199.397 1371.02 199.397Z" fill="#231F20"/>
<path d="M1213.12 51.7256C1210.55 53.1465 1208.71 55.1764 1207.88 58.0182C1197.95 88.7704 1202.46 121.35 1207.97 143.272C1213.95 166.92 1222.31 183.564 1222.4 183.767L1225.44 181.839C1225.34 181.636 1217.16 165.296 1211.28 142.155C1205.95 120.741 1201.63 89.0749 1211.19 59.2361C1211.74 57.4092 1212.94 56.1913 1214.68 55.2779C1223.69 50.6092 1244.28 58.9316 1244.46 59.0331L1245.66 55.3794C1244.83 55.0749 1223.6 46.3465 1213.12 51.7256Z" fill="#E6E7E8"/>
<path d="M1213.12 51.7257C1210.55 53.1466 1208.71 55.1764 1207.88 58.0182C1198.41 87.4511 1202.09 118.508 1207.24 140.329C1205.77 130.585 1203.65 120.741 1203.74 110.896C1204.2 50.0003 1213.3 52.3346 1221.21 52.1317C1228.74 51.8272 1235.91 53.9585 1243.17 55.7854C1244 55.9884 1244.64 56.2929 1245.29 56.6988L1245.75 55.4809C1244.83 55.0749 1223.6 46.3466 1213.12 51.7257Z" fill="white"/>
<path d="M1253.1 56.0896L1246.85 53.6537C1245.01 52.9433 1242.9 53.9582 1242.26 56.0896C1241.61 58.1194 1242.53 60.4537 1244.46 61.1642L1250.71 63.6C1252.55 64.3105 1254.66 63.2955 1255.31 61.1642C1255.95 59.0328 1254.94 56.8 1253.1 56.0896Z" fill="#E6E7E8"/>
<path d="M1249.52 55.7851L1245.66 54.2627C1244.46 53.7552 1243.17 54.4657 1242.81 55.7851C1242.35 57.1045 1242.99 58.5254 1244.19 58.9314L1248.05 60.4537C1249.24 60.9612 1250.53 60.2508 1250.9 58.9314C1251.35 57.7134 1250.71 56.2925 1249.52 55.7851Z" fill="white"/>
<path d="M1317.16 51.7256C1306.78 46.3465 1285.54 55.0749 1284.62 55.3794L1285.82 59.0331C1286 58.9316 1306.59 50.6092 1315.69 55.2779C1317.44 56.1913 1318.54 57.5107 1319.18 59.2361C1328.74 89.0749 1324.42 120.741 1319 142.054C1313.21 165.296 1304.94 181.636 1304.85 181.738L1307.88 183.666C1307.97 183.463 1316.33 166.818 1322.31 143.17C1327.82 121.248 1332.33 88.7704 1322.4 57.9167C1321.57 55.1764 1319.83 53.1465 1317.16 51.7256Z" fill="#E6E7E8"/>
<path d="M1322.49 58.0177C1321.57 55.2774 1319.83 53.146 1317.25 51.8266C1306.78 46.346 1285.54 55.0744 1284.62 55.3789L1285.45 57.9162C1292.53 50.9132 1306.13 51.5221 1314.5 53.4505C1317.9 54.2624 1319.83 58.1192 1319.92 61.7729C1328.47 90.7997 1324.24 121.349 1319 142.053C1315.87 154.639 1312.01 165.194 1309.07 172.197C1310.08 170.877 1310.82 169.456 1311.55 167.427C1312.84 163.671 1323.87 140.227 1326.44 107.039C1327.09 98.5132 1326.35 90.0893 1325.52 81.5639C1325.34 79.3311 1324.42 63.9042 1322.49 58.0177Z" fill="white"/>
<path d="M1283.43 53.6537L1277.18 56.0896C1275.34 56.8 1274.33 59.1343 1274.98 61.1642C1275.62 63.194 1277.73 64.3105 1279.57 63.6L1285.82 61.1642C1287.66 60.4537 1288.67 58.1194 1288.03 56.0896C1287.38 53.9582 1285.27 52.8418 1283.43 53.6537Z" fill="#E6E7E8"/>
<path d="M1281.04 55.4806L1277.18 57.003C1275.99 57.5105 1275.43 58.9314 1275.8 60.1493C1276.26 61.4687 1277.46 62.0776 1278.65 61.6717L1282.51 60.1493C1283.71 59.6418 1284.26 58.3224 1283.89 57.003C1283.52 55.6836 1282.24 54.9731 1281.04 55.4806Z" fill="white"/>
<path d="M1265.14 214.113C1238.03 214.113 1223.51 173.212 1223.32 172.806L1220.84 173.821L1217.16 175.343C1217.35 175.851 1221.21 186.913 1228.93 198.078C1239.41 213.301 1251.91 221.319 1265.14 221.319C1278.38 221.319 1290.97 213.301 1301.45 198.078C1309.17 186.913 1313.03 175.851 1313.21 175.343L1307.05 172.704C1306.87 173.212 1292.35 214.113 1265.14 214.113Z" fill="#F05661"/>
<path d="M1297.86 196.758C1269.74 231.266 1243.73 212.896 1234.08 202.746C1231.5 200.006 1228.75 197.164 1226.26 194.119C1227.09 195.439 1227.92 196.758 1228.84 198.078C1239.31 213.301 1251.81 221.319 1265.05 221.319C1278.28 221.319 1290.88 213.301 1301.35 198.078C1309.07 186.913 1312.93 175.851 1313.12 175.343L1309.17 173.618C1307.05 182.245 1303.19 190.263 1297.86 196.758Z" fill="#CC4651"/>
<path d="M1364.59 284.042C1364.59 303.528 1350.25 319.26 1332.7 319.26H1300.44C1282.79 319.26 1268.54 303.427 1268.54 284.042V220.609H1261.93V284.042C1261.93 307.487 1279.2 326.567 1300.44 326.567H1332.7C1353.93 326.567 1371.21 307.487 1371.21 284.042V242.125H1364.59V284.042Z" fill="#F05661"/>
<path d="M1268.45 220.609H1265.88C1266.52 221.928 1266.8 272.269 1266.8 277.749C1266.8 283.027 1267.62 294.495 1270.38 296.018C1269.09 292.263 1268.45 288.203 1268.45 283.94V220.609Z" fill="#CC4651"/>
<path d="M1368.82 248.012C1367.53 268.412 1375.89 291.958 1356.22 313.272C1345.2 325.248 1309.35 322.101 1299.24 321.898C1291.24 321.696 1283.98 320.275 1276.81 317.636C1283.34 323.218 1291.52 326.567 1300.44 326.567H1332.7C1353.93 326.567 1371.21 307.487 1371.21 284.042V242.125H1367.25C1368.36 243.648 1369 245.576 1368.82 248.012Z" fill="#CC4651"/>
<path d="M1367.53 198.179C1356.68 198.179 1347.95 207.821 1347.95 219.696C1347.95 231.57 1356.68 241.212 1367.53 241.212C1378.38 241.212 1387.11 231.57 1387.11 219.696C1387.11 207.821 1378.38 198.179 1367.53 198.179Z" fill="#E6E7E8"/>
<path d="M1367.53 195.439C1355.4 195.439 1345.47 206.298 1345.47 219.594C1345.47 232.89 1355.31 243.749 1367.53 243.749C1379.75 243.749 1389.59 232.89 1389.59 219.594C1389.59 206.298 1379.66 195.439 1367.53 195.439ZM1367.53 238.472C1358.06 238.472 1350.34 230.048 1350.34 219.594C1350.34 209.242 1358.06 200.716 1367.53 200.716C1377 200.716 1384.72 209.14 1384.72 219.594C1384.72 230.048 1377 238.472 1367.53 238.472Z" fill="#6D6E71"/>
<path d="M1367.53 205.284C1359.9 205.284 1353.65 211.779 1353.65 219.696C1353.65 227.612 1359.9 234.107 1367.53 234.107C1375.16 234.107 1381.41 227.612 1381.41 219.696C1381.41 211.678 1375.16 205.284 1367.53 205.284ZM1367.53 231.164C1361.37 231.164 1356.32 225.988 1356.32 219.696C1356.32 213.403 1361.37 208.227 1367.53 208.227C1373.69 208.227 1378.74 213.403 1378.74 219.696C1378.74 225.988 1373.69 231.164 1367.53 231.164Z" fill="#808285"/>
<path opacity="0.1" d="M1348.87 231.469C1352.64 238.573 1359.53 243.343 1367.62 243.343C1379.57 243.343 1389.22 232.788 1389.22 219.696C1389.22 215.331 1388.12 211.373 1386.28 207.821C1371.85 233.296 1350.43 230.961 1348.87 231.469Z" fill="black"/>
</g>
</g>
<defs>
<linearGradient id="paint0_linear_1024_3820" x1="1370.1" y1="223.627" x2="1219.84" y2="82.5586" gradientUnits="userSpaceOnUse">
<stop stop-color="white"/>
<stop offset="1"/>
</linearGradient>
<linearGradient id="paint1_linear_1024_3820" x1="1405.08" y1="349.081" x2="1357.81" y2="300.563" gradientUnits="userSpaceOnUse">
<stop stop-color="white"/>
<stop offset="1"/>
</linearGradient>
<clipPath id="clip0_1024_3820">
<path d="M747 5C747 2.23858 749.239 0 752 0H1435C1437.76 0 1440 2.23858 1440 5V267C1440 269.761 1437.76 272 1435 272H752C749.239 272 747 269.761 747 267V5Z" fill="white"/>
</clipPath>
<clipPath id="clip1_1024_3820">
<rect width="484.8" height="612.9" fill="white" transform="translate(791 -86)"/>
</clipPath>
<clipPath id="clip2_1024_3820">
<rect width="258.45" height="356.34" fill="white" transform="translate(1202 50)"/>
</clipPath>
</defs>
</svg>
