<svg fill="none" height="40" viewBox="0 0 40 40" width="40" xmlns="http://www.w3.org/2000/svg"><g stroke="#fafafa" stroke-linecap="round" stroke-linejoin="bevel" stroke-width="2.5"><path clip-rule="evenodd" d="m17.3831 5.65008.15-.36666c.2685-.61795.7181-1.13999 1.2893-1.4973.5713-.35732 1.2374-.53312 1.9106-.50425.6731.02888 1.3218.26108 1.8603.666s.9417.96354 1.1564 1.60221l.1167.38334c.1399.44138.3703.84877.6763 1.1962.3061.34744.6812.62729 1.1015.82172.4202.19444.8763.29919 1.3393.30758.4629.00839.9226-.07976 1.3496-.25884l.35-.15c.6272-.24975 1.3154-.30316 1.9737-.15316.6582.14999 1.2554.49632 1.7125.99316s.7525 1.12076.8473 1.78922c.0947.6684-.0158 1.3498-.3169 1.9541l-.1833.35c-.2107.4083-.3347.8557-.3643 1.3142-.0296.4584.0359.9181.1924 1.35.1565.432.4007.8269.717 1.16.3164.3331.6982.5973 1.1216.7758l.3666.15c.618.2686 1.14.7181 1.4973 1.2894.3573.5712.5331 1.2374.5043 1.9105-.0289.6732-.2611 1.3218-.666 1.8604-.405.5385-.9636.9417-1.6022 1.1564l-.3834.1166c-.4443.1364-.8552.3642-1.2064.6687-.3511.3046-.6346.6792-.8324 1.0998-.1977.4206-.3053.878-.3159 1.3426-.0105.4647.0762.9265.2547 1.3556l.15.35c.2498.6272.3032 1.3155.1532 1.9737-.15.6583-.4963 1.2555-.9932 1.7126-.4968.457-1.1207.7525-1.7892.8472-.6684.0947-1.3498-.0158-1.9541-.3168l-.35-.1834c-.4083-.2106-.8557-.3347-1.3142-.3642-.4584-.0296-.9181.0359-1.35.1924-.432.1565-.8269.4006-1.16.717s-.5973.6982-.7758 1.1215l-.15.3667c-.2686.6179-.7181 1.14-1.2894 1.4973-.5712.3573-1.2373.5331-1.9105.5042-.6732-.0288-1.3218-.2611-1.8604-.666-.5385-.4049-.9417-.9635-1.1564-1.6022l-.1166-.3833c-.1364-.4444-.3641-.8553-.6687-1.2064s-.6792-.6346-1.0998-.8324-.878-.3054-1.3426-.3159c-.4647-.0105-.9264.0762-1.3556.2547l-.35.15c-.6272.2497-1.3155.3031-1.97374.1532-.65824-.15-1.25541-.4964-1.7125-.9932-.45709-.4969-.75255-1.1208-.84726-1.7892-.09472-.6684.01576-1.3499.31682-1.9541l.18334-.3501c.21069-.4082.33472-.8556.36429-1.3141s-.03595-.9181-.19245-1.35c-.1565-.432-.40061-.8269-.71699-1.16-.31638-.3332-.69821-.5973-1.12152-.7759l-.36667-.15c-.61794-.2685-1.13998-.7181-1.49729-1.2893-.35732-.5713-.53313-1.2374-.50425-1.9106.02888-.6731.26108-1.3217.666-1.8603.40492-.5385.96354-.9417 1.60221-1.1564l.38333-.1167c.44435-.1363.85527-.3641 1.20638-.6686.35111-.3046.63465-.6792.83241-1.0998.19775-.4207.30536-.878.3159-1.3427.01054-.4646-.07621-.9264-.25469-1.3556l-.15-.35c-.23948-.6255-.28496-1.3086-.13052-1.96038.15445-.65175.50166-1.24185.99637-1.69339.49472-.45154 1.11399-.74357 1.77713-.83802.6631-.09445 1.3392.01306 1.9404.30851l.35.18333c.4082.21069.8556.33472 1.3141.36429.4585.02958.9181-.03595 1.3501-.19245.4319-.1565.8268-.4006 1.16-.71699.3331-.31638.5972-.69821.7758-1.12152z" fill-rule="evenodd"/><path d="m20.0001 26.5167c3.599 0 6.5166-2.9176 6.5166-6.5166 0-3.5991-2.9176-6.5167-6.5166-6.5167-3.5991 0-6.5167 2.9176-6.5167 6.5167 0 3.599 2.9176 6.5166 6.5167 6.5166z"/></g></svg>