<svg fill="none" height="40" viewBox="0 0 40 40" width="40" xmlns="http://www.w3.org/2000/svg"><g stroke="#fafafa" stroke-linecap="round" stroke-linejoin="round" stroke-width="2.5"><path d="m19.9997 36.6667c9.2047 0 16.6666-7.4619 16.6666-16.6667 0-9.2047-7.4619-16.66663-16.6666-16.66663-9.2048 0-16.66669 7.46193-16.66669 16.66663 0 9.2048 7.46189 16.6667 16.66669 16.6667z"/><path d="m14.166 18.3335c1.3807 0 2.5-1.1193 2.5-2.5s-1.1193-2.5-2.5-2.5-2.5 1.1193-2.5 2.5 1.1193 2.5 2.5 2.5z"/><path d="m25.833 18.3335c1.3807 0 2.5-1.1193 2.5-2.5s-1.1193-2.5-2.5-2.5-2.5 1.1193-2.5 2.5 1.1193 2.5 2.5 2.5z"/><path d="m15 24.8833c.0647 1.2632.6271 2.4493 1.5642 3.2989.937.8495 2.1723 1.2934 3.4358 1.2344 1.2635.059 2.4988-.3849 3.4358-1.2344.9371-.8496 1.4995-2.0357 1.5642-3.2989"/></g></svg>