<svg fill="none" height="17" viewBox="0 0 26 17" width="26" xmlns="http://www.w3.org/2000/svg"><g fill="#000"><path d="m13 17c-7.15722 0-13-6.8354-13-8.5 0-1.66458 5.84278-8.5 13-8.5 7.1572 0 13 6.83542 13 8.5 0 1.6646-5.8428 8.5-13 8.5zm0-15.58333c-6.32667 0-11.41111 6.19083-11.55556 7.11166.14445.86417 5.22889 7.05497 11.55556 7.05497 6.3267 0 11.4111-6.1908 11.5556-7.11163-.1445-.86417-5.2289-7.055-11.5556-7.055z"/><path d="m13.0001 13.4584c-2.7877 0-5.05552-2.2242-5.05552-4.95838 0-2.73417 2.26782-4.95833 5.05552-4.95833 2.7878 0 5.0556 2.22416 5.0556 4.95833 0 2.73418-2.2678 4.95838-5.0556 4.95838zm0-8.50005c-1.9933 0-3.61108 1.58667-3.61108 3.54167 0 1.95498 1.61778 3.54168 3.61108 3.54168 1.9934 0 3.6111-1.5867 3.6111-3.54168 0-1.955-1.6177-3.54167-3.6111-3.54167z"/></g></svg>