<svg fill="none" height="25" viewBox="0 0 21 25" width="21" xmlns="http://www.w3.org/2000/svg" xmlns:xlink="http://www.w3.org/1999/xlink"><clipPath id="a"><path d="m0 0h21v25h-21z"/></clipPath><g clip-path="url(#a)" stroke="#adccea" stroke-linejoin="round" stroke-miterlimit="10" stroke-width="2"><path d="m10.5.748474c5.4 0 9.75 4.341316 9.75 9.730526 0 1.4222-.3 2.7695-.825 3.9671-.45.973-1.05 1.9461-1.8 2.6946l-7.125 7.1108-7.125-7.1108c-.75-.7485-1.35-1.7216-1.8-2.6946-.525-1.1976-.825-2.5449-.825-3.9671 0-5.38921 4.35-9.730526 9.75-9.730526z"/><path d="m10.5 14.2215c2.0711 0 3.75-1.6755 3.75-3.7425 0-2.06691-1.6789-3.74249-3.75-3.74249-2.07107 0-3.75 1.67558-3.75 3.74249 0 2.067 1.67893 3.7425 3.75 3.7425z"/></g></svg>