<svg enable-background="new 0 0 64 64" height="24" viewBox="0 0 24 24" width="24" xmlns="http://www.w3.org/2000/svg"><g fill="#51595b" transform="matrix(.483364 0 0 .483364 -3.467648 -3.467648)"><path d="m31.999 36.97c2.739 0 4.972-2.229 4.972-4.97 0-1.082-.354-2.081-.941-2.897-.904-1.252-2.372-2.073-4.03-2.073-1.659 0-3.126.82-4.031 2.072-.588.816-.939 1.815-.94 2.897-.001 2.741 2.23 4.971 4.97 4.971z"/><path d="m42.852 25.92v-4.166-.62l-.624.002-4.164.013.017 4.787z"/><path d="m32 7.174c-13.689 0-24.826 11.137-24.826 24.826s11.137 24.826 24.826 24.826 24.826-11.137 24.826-24.826-11.137-24.826-24.826-24.826zm14.119 21.929v11.56c0 3.011-2.448 5.458-5.457 5.458h-17.324c-3.01 0-5.457-2.447-5.457-5.458v-11.56-5.764c0-3.01 2.447-5.457 5.457-5.457h17.323c3.01 0 5.458 2.447 5.458 5.457z"/><path d="m39.722 32c0 4.257-3.463 7.723-7.722 7.723s-7.722-3.466-7.722-7.723c0-1.024.204-2.003.568-2.897h-4.215v11.56c0 1.494 1.213 2.704 2.706 2.704h17.323c1.493 0 2.706-1.21 2.706-2.704v-11.56h-4.216c.365.894.572 1.873.572 2.897z"/></g></svg>