<svg height="24" viewBox="0 0 24 24" width="24" xmlns="http://www.w3.org/2000/svg"><path d="m12 0c-6.628 0-12 5.372-12 12s5.372 12 12 12 12-5.372 12-12-5.372-12-12-12zm6.449 16.554c-.512.32-2.593.416-3.096.05-.277-.201-.53-.452-.77-.691-.168-.167-.358-.248-.502-.43-.118-.148-.199-.324-.323-.47-.209-.246-.532-.455-.786-.156-.384.453.06 1.341-.452 1.678-.171.114-.344.147-.559.13l-.475.022c-.279.005-.72.008-1.038-.049-.354-.064-.646-.257-.966-.4-.609-.269-1.188-.636-1.628-1.145-1.199-1.386-2.81-3.291-3.436-5.033-.129-.358-.468-1.067-.146-1.374.438-.319 2.589-.408 2.925.084.136.2.222.493.319.72.12.282.185.549.373.799.165.222.288.446.417.689.144.274.28.535.456.787.119.171.433.511.632.537.486.062.456-1.119.42-1.407-.035-.277-.044-.572-.035-.853.008-.24.029-.579-.113-.775-.232-.319-.748-.08-.788-.51.084-.122.067-.23.637-.418.448-.147.738-.143 1.034-.119.603.048 1.243-.115 1.825.08.556.188.47.978.452 1.452-.026.647.001 1.277 0 1.935-.002.298-.013.589.351.564.342-.022.376-.309.54-.546.226-.331.435-.666.665-.996.311-.445.406-.946.698-1.402.105-.163.195-.51.357-.639.123-.098.354-.047.502-.047h.352c.269 0 .544-.002.82.007.399.014.845-.077 1.239-.022 1.704.241-2.142 3.884-1.941 4.534.138.449 1.016.952 1.332 1.319.42.49 1.715 1.464.708 2.095z" fill="#51595b"/></svg>