<svg enable-background="new 0 0 500 500" height="32" viewBox="0 0 32 32" width="32" xmlns="http://www.w3.org/2000/svg"><g style="fill:none;stroke:#130b7a;stroke-linecap:round;stroke-linejoin:round;stroke-miterlimit:2.6131;stroke-width:10" transform="matrix(.071111 0 0 .071111 -1.777753 -1.777752)"><path d="m363.459 82.696h33.607"/><path d="m397.066 82.696c11.988 0 21.689 9.811 21.689 21.939"/><path d="m418.756 104.636v348.411"/><path d="m418.756 453.047c0 12.114-9.701 21.953-21.689 21.953"/><path d="m397.066 475h-294.134"/><path d="m102.932 475c-11.975 0-21.688-9.839-21.688-21.953"/><path d="m81.244 453.047v-348.411"/><path d="m81.244 104.636c0-12.128 9.713-21.939 21.688-21.939"/><path d="m102.932 82.696h28.974"/><path d="m342.859 50.625h-55.868v-4.774"/><path d="m286.991 45.851c0-11.542-9.24-20.851-20.571-20.851"/><path d="m266.42 25h-32.799"/><path d="m233.621 25c-11.359 0-20.627 9.309-20.627 20.851"/><path d="m212.994 45.851v4.774h-55.813"/><path d="m157.181 50.625c-11.374 0-20.599 9.35-20.599 20.878"/><path d="m136.582 71.503v44.354h226.877v-44.354"/><path d="m363.459 71.503c0-11.528-9.184-20.878-20.6-20.878"/><path d="m137.6 221.173 18.618 17.319"/><path d="m190.412 200.699-34.194 37.793"/><path d="m222.875 223.462h139.565"/><path d="m222.875 392.56h139.565"/><path d="m222.875 309.239h139.565"/></g></svg>