<svg fill="none" height="21" viewBox="0 0 13 21" width="13" xmlns="http://www.w3.org/2000/svg"><path d="m4.58333 7.14587v5.75003c0 .5083.20194.9958.56138 1.3553.35945.3594.84696.5613 1.35529.5613s.99584-.2019 1.35529-.5613c.35944-.3595.56138-.847.56138-1.3553v-7.66669c0-1.01667-.40387-1.99169-1.12276-2.71058s-1.69391-1.12276-2.71058-1.12276c-1.01666 0-1.99168.40387-2.71057 1.12276s-1.12276 1.69391-1.12276 2.71058v8.62499c0 1.525.6058 2.9875 1.68414 4.0659 1.07833 1.0783 2.54087 1.6841 4.06586 1.6841s2.98753-.6058 4.0659-1.6841c1.0783-1.0784 1.6841-2.5409 1.6841-4.0659v-8.62499" stroke="#151515" stroke-linecap="round" stroke-linejoin="round" stroke-width="1.5"/></svg>