<svg width="26" height="36" viewBox="0 0 26 36" fill="none" xmlns="http://www.w3.org/2000/svg">
<path d="M19.6673 7.99998C19.6673 4.31808 16.6826 1.33331 13.0007 1.33331C9.31875 1.33331 6.33398 4.31808 6.33398 7.99998V14.6666C6.33398 18.3485 9.31875 21.3333 13.0007 21.3333C16.6826 21.3333 19.6673 18.3485 19.6673 14.6666V7.99998Z" stroke="#ADCCEA" stroke-width="2.5" stroke-linecap="round" stroke-linejoin="round"/>
<path d="M1.33398 14.6666V16.3333C1.33398 19.4275 2.56315 22.3949 4.75107 24.5829C6.939 26.7708 9.90646 28 13.0007 28C16.0948 28 19.0623 26.7708 21.2502 24.5829C23.4382 22.3949 24.6673 19.4275 24.6673 16.3333V14.6666" stroke="#ADCCEA" stroke-width="2.5" stroke-linecap="round" stroke-linejoin="round"/>
<path d="M13 28V34.6667" stroke="#ADCCEA" stroke-width="2.5" stroke-linecap="round" stroke-linejoin="round"/>
</svg>
