<svg width="1439" height="272" viewBox="0 0 1439 272" fill="none" xmlns="http://www.w3.org/2000/svg">
<rect width="1439" height="272" fill="#E69F7A"/>
<g clip-path="url(#clip0_1029_3820)">
<g clip-path="url(#clip1_1029_3820)">
<path opacity="0.2" d="M1144.25 18.7247C1147.12 14.9487 1152.48 14.1935 1156.26 17.0633L1284.5 114.785C1288.28 117.655 1289.03 123.093 1286.16 126.793L1135.27 324.805C1132.4 328.581 1126.96 329.336 1123.26 326.466L995.016 228.669C991.24 225.799 990.485 220.362 993.355 216.661L1144.25 18.7247Z" fill="#231F20"/>
<path d="M1086.33 -80.0547C1088.74 -83.2266 1093.2 -83.9818 1096.22 -81.6407L890.642 188.039C887.621 185.774 887.168 181.318 889.585 178.071L1086.33 -80.0547Z" fill="#E6E7E8"/>
<path d="M1090.56 -79.6771C1091.84 -81.3386 1093.2 -82.1693 1094.71 -82.0182C1097.81 -81.7917 1099.69 -77.7892 1102.34 -72.1252C1102.56 -71.6721 1102.79 -71.219 1103.02 -70.6903L1143.12 -4.00666C1149.69 7.92541 1148.48 11.2483 1146.52 13.8914L993.431 214.698C991.543 217.19 988.598 219.38 976.363 216.133L902.878 191.966C901.896 191.74 900.914 191.513 900.008 191.362C894.948 190.305 890.945 189.55 889.963 186.68C889.51 185.245 889.963 183.584 891.322 181.771L1090.56 -79.6771Z" fill="#BCBEC0"/>
<path d="M1143.57 13.8915C1146.44 10.1155 1151.81 9.36029 1155.58 12.23L1283.82 109.952C1287.6 112.822 1288.35 118.259 1285.48 121.96L1134.59 319.972C1131.72 323.748 1126.35 324.503 1122.58 321.633L994.337 223.836C990.56 220.966 989.805 215.528 992.675 211.828L1143.57 13.8915Z" fill="#E6E7E8"/>
<path d="M1143.57 13.8915C1146.44 10.1155 1151.81 9.36029 1155.58 12.23L1283.82 109.952C1287.6 112.822 1288.35 118.259 1285.48 121.96L994.337 223.835C990.56 220.966 989.805 215.528 992.675 211.828L1143.57 13.8915Z" fill="#EDEDED"/>
<path d="M1143.05 44.6279C1144.78 42.3623 1148.03 41.9092 1150.3 43.6461L1208.22 87.825C1210.49 89.5619 1210.94 92.8093 1209.21 95.0749L1088.37 253.59C1086.63 255.856 1083.38 256.309 1081.12 254.572L1023.19 210.393C1020.92 208.656 1020.47 205.409 1022.21 203.143L1143.05 44.6279Z" fill="#D1D3D4"/>
<path d="M1145.69 45.9872C1145.91 45.6851 1146.37 45.6096 1146.67 45.8362L1151.05 49.159C1151.35 49.3856 1151.43 49.8387 1151.2 50.1408L1143.88 59.7317C1143.65 60.0338 1143.2 60.1093 1142.89 59.8828L1138.51 56.5599C1138.21 56.3334 1138.14 55.8803 1138.36 55.5782L1145.69 45.9872Z" fill="#414042"/>
<path d="M1040.48 184.037C1040.71 183.735 1041.16 183.659 1041.46 183.886L1045.85 187.209C1046.15 187.435 1046.22 187.888 1046 188.19L1038.67 197.781C1038.44 198.083 1037.99 198.159 1037.69 197.932L1033.31 194.609C1033.01 194.383 1032.93 193.93 1033.16 193.628L1040.48 184.037Z" fill="#414042"/>
<path d="M1049.24 172.482C1049.47 172.18 1049.92 172.105 1050.22 172.331L1054.61 175.654C1054.91 175.881 1054.98 176.334 1054.76 176.636L1047.43 186.227C1047.2 186.529 1046.75 186.604 1046.45 186.378L1042.07 183.055C1041.77 182.828 1041.69 182.375 1041.92 182.073L1049.24 172.482Z" fill="#414042"/>
<path d="M1058 161.003C1058.23 160.701 1058.68 160.626 1058.99 160.852L1063.37 164.175C1063.67 164.402 1063.74 164.855 1063.52 165.157L1056.19 174.748C1055.97 175.05 1055.51 175.125 1055.21 174.899L1050.83 171.576C1050.53 171.35 1050.45 170.896 1050.68 170.594L1058 161.003Z" fill="#414042"/>
<path d="M1066.84 149.524C1067.07 149.222 1067.52 149.147 1067.82 149.373L1072.2 152.696C1072.5 152.923 1072.58 153.376 1072.35 153.678L1065.03 163.269C1064.8 163.571 1064.35 163.647 1064.05 163.42L1059.67 160.097C1059.36 159.871 1059.29 159.417 1059.51 159.115L1066.84 149.524Z" fill="#414042"/>
<path d="M1075.6 138.045C1075.83 137.743 1076.28 137.668 1076.58 137.894L1080.96 141.217C1081.26 141.444 1081.34 141.897 1081.11 142.199L1073.79 151.79C1073.56 152.092 1073.11 152.168 1072.81 151.941L1068.43 148.618C1068.12 148.392 1068.05 147.938 1068.27 147.636L1075.6 138.045Z" fill="#414042"/>
<path d="M1084.36 126.491C1084.59 126.189 1085.04 126.113 1085.34 126.34L1089.72 129.663C1090.03 129.889 1090.1 130.342 1089.88 130.645L1082.55 140.236C1082.32 140.538 1081.87 140.613 1081.57 140.387L1077.19 137.064C1076.88 136.837 1076.81 136.384 1077.04 136.082L1084.36 126.491Z" fill="#414042"/>
<path d="M1093.12 115.012C1093.35 114.71 1093.8 114.634 1094.1 114.861L1098.48 118.184C1098.79 118.41 1098.86 118.863 1098.63 119.166L1091.31 128.757C1091.08 129.059 1090.63 129.134 1090.33 128.908L1085.95 125.585C1085.64 125.358 1085.57 124.905 1085.8 124.603L1093.12 115.012Z" fill="#414042"/>
<path d="M1101.88 103.533C1102.11 103.231 1102.56 103.155 1102.87 103.382L1107.25 106.705C1107.55 106.931 1107.62 107.385 1107.4 107.687L1100.07 117.278C1099.84 117.58 1099.39 117.655 1099.09 117.429L1094.71 114.106C1094.41 113.879 1094.33 113.426 1094.56 113.124L1101.88 103.533Z" fill="#414042"/>
<path d="M1110.65 91.9786C1110.87 91.6765 1111.32 91.601 1111.63 91.8275L1116.01 95.1504C1116.31 95.3769 1116.38 95.83 1116.16 96.1321L1108.83 105.723C1108.61 106.025 1108.15 106.101 1107.85 105.874L1103.47 102.551C1103.17 102.325 1103.09 101.872 1103.32 101.57L1110.65 91.9786Z" fill="#414042"/>
<path d="M1119.4 80.4996C1119.63 80.1975 1120.08 80.122 1120.39 80.3486L1124.77 83.6714C1125.07 83.898 1125.14 84.3511 1124.92 84.6532L1117.59 94.2441C1117.37 94.5462 1116.91 94.6217 1116.61 94.3952L1112.23 91.0723C1111.93 90.8458 1111.85 90.3926 1112.08 90.0906L1119.4 80.4996Z" fill="#414042"/>
<path d="M1128.17 69.0206C1128.39 68.7186 1128.85 68.643 1129.15 68.8696L1133.53 72.1925C1133.83 72.419 1133.91 72.8721 1133.68 73.1742L1126.35 82.7652C1126.13 83.0673 1125.67 83.1428 1125.37 82.9162L1120.99 79.5934C1120.69 79.3668 1120.61 78.9137 1120.84 78.6116L1128.17 69.0206Z" fill="#414042"/>
<path d="M1136.93 57.4662C1137.15 57.1641 1137.61 57.0886 1137.91 57.3151L1142.29 60.638C1142.59 60.8645 1142.67 61.3177 1142.44 61.6197L1135.11 71.2107C1134.89 71.5128 1134.43 71.5883 1134.13 71.3617L1129.75 68.0389C1129.45 67.8123 1129.37 67.3592 1129.6 67.0571L1136.93 57.4662Z" fill="#414042"/>
<path d="M1031.72 195.516C1031.95 195.214 1032.4 195.138 1032.7 195.365L1037.08 198.688C1037.39 198.914 1037.46 199.367 1037.23 199.669L1029.91 209.26C1029.68 209.562 1029.23 209.638 1028.93 209.411L1024.55 206.088C1024.24 205.862 1024.17 205.409 1024.4 205.107L1031.72 195.516Z" fill="#414042"/>
<path d="M1066.01 188.039C1066.24 187.737 1066.69 187.662 1066.99 187.888L1074.62 193.703C1074.92 193.93 1075 194.383 1074.77 194.685L1067.97 203.596C1067.75 203.898 1067.29 203.974 1066.99 203.747L1059.36 197.932C1059.06 197.706 1058.99 197.253 1059.21 196.951L1066.01 188.039Z" fill="#414042"/>
<path d="M1074.54 176.938C1074.77 176.636 1075.22 176.56 1075.53 176.787L1083.15 182.602C1083.46 182.828 1083.53 183.282 1083.31 183.584L1076.51 192.495C1076.28 192.797 1075.83 192.873 1075.53 192.646L1067.9 186.831C1067.6 186.604 1067.52 186.151 1067.75 185.849L1074.54 176.938Z" fill="#414042"/>
<path d="M1083.08 165.761C1083.31 165.459 1083.76 165.383 1084.06 165.61L1091.69 171.425C1091.99 171.652 1092.07 172.105 1091.84 172.407L1085.04 181.318C1084.82 181.62 1084.36 181.696 1084.06 181.469L1076.43 175.654C1076.13 175.428 1076.06 174.974 1076.28 174.672L1083.08 165.761Z" fill="#414042"/>
<path d="M1091.54 154.584C1091.76 154.282 1092.22 154.207 1092.52 154.433L1100.15 160.248C1100.45 160.475 1100.53 160.928 1100.3 161.23L1093.5 170.141C1093.28 170.443 1092.82 170.519 1092.52 170.292L1084.89 164.477C1084.59 164.251 1084.51 163.798 1084.74 163.495L1091.54 154.584Z" fill="#414042"/>
<path d="M1100.07 143.407C1100.3 143.105 1100.75 143.03 1101.05 143.256L1108.68 149.071C1108.98 149.298 1109.06 149.751 1108.83 150.053L1102.04 158.964C1101.81 159.266 1101.36 159.342 1101.05 159.115L1093.43 153.3C1093.12 153.074 1093.05 152.621 1093.27 152.319L1100.07 143.407Z" fill="#414042"/>
<path d="M1108.61 132.23C1108.83 131.928 1109.29 131.853 1109.59 132.079L1117.22 137.894C1117.52 138.121 1117.59 138.574 1117.37 138.876L1110.57 147.787C1110.34 148.089 1109.89 148.165 1109.59 147.938L1101.96 142.123C1101.66 141.897 1101.58 141.444 1101.81 141.142L1108.61 132.23Z" fill="#414042"/>
<path d="M1117.06 121.054C1117.29 120.751 1117.74 120.676 1118.05 120.903L1125.67 126.718C1125.98 126.944 1126.05 127.397 1125.82 127.699L1119.03 136.611C1118.8 136.913 1118.35 136.988 1118.05 136.762L1110.42 130.947C1110.12 130.72 1110.04 130.267 1110.27 129.965L1117.06 121.054Z" fill="#414042"/>
<path d="M1125.6 109.952C1125.83 109.65 1126.28 109.575 1126.58 109.801L1134.21 115.616C1134.51 115.843 1134.59 116.296 1134.36 116.598L1127.56 125.509C1127.34 125.811 1126.88 125.887 1126.58 125.66L1118.95 119.845C1118.65 119.619 1118.58 119.166 1118.8 118.863L1125.6 109.952Z" fill="#414042"/>
<path d="M1134.13 98.7753C1134.36 98.4732 1134.81 98.3977 1135.12 98.6243L1142.74 104.439C1143.05 104.666 1143.12 105.119 1142.89 105.421L1136.1 114.332C1135.87 114.634 1135.42 114.71 1135.12 114.483L1127.49 108.668C1127.19 108.442 1127.11 107.989 1127.34 107.687L1134.13 98.7753Z" fill="#414042"/>
<path d="M1142.59 87.5984C1142.82 87.2963 1143.27 87.2208 1143.57 87.4474L1151.2 93.2624C1151.5 93.4889 1151.58 93.9421 1151.35 94.2441L1144.56 103.155C1144.33 103.458 1143.88 103.533 1143.57 103.306L1135.95 97.4915C1135.64 97.2649 1135.57 96.8118 1135.8 96.5097L1142.59 87.5984Z" fill="#414042"/>
<path d="M1151.13 76.4216C1151.35 76.1195 1151.81 76.0439 1152.11 76.2705L1159.74 82.0855C1160.04 82.3121 1160.11 82.7652 1159.89 83.0673L1153.09 91.9786C1152.86 92.2806 1152.41 92.3561 1152.11 92.1296L1144.48 86.3146C1144.18 86.088 1144.1 85.6349 1144.33 85.3328L1151.13 76.4216Z" fill="#414042"/>
<path d="M1057.48 199.216C1057.7 198.914 1058.16 198.839 1058.46 199.065L1066.09 204.88C1066.39 205.107 1066.46 205.56 1066.24 205.862L1059.44 214.773C1059.21 215.075 1058.76 215.151 1058.46 214.924L1050.83 209.109C1050.53 208.883 1050.45 208.43 1050.68 208.127L1057.48 199.216Z" fill="#414042"/>
<path d="M1163.81 59.8073C1164.04 59.5052 1164.49 59.4297 1164.8 59.6562L1172.42 65.4712C1172.73 65.6978 1172.8 66.1509 1172.57 66.453L1161.62 80.8017C1161.4 81.1038 1160.94 81.1793 1160.64 80.9527L1153.01 75.1377C1152.71 74.9112 1152.64 74.4581 1152.86 74.156L1163.81 59.8073Z" fill="#414042"/>
<path d="M1159.59 87.5229C1159.81 87.2208 1160.26 87.1453 1160.57 87.3719L1168.19 93.1869C1168.5 93.4134 1168.57 93.8665 1168.35 94.1686L1161.55 103.08C1161.32 103.382 1160.87 103.458 1160.57 103.231L1152.94 97.416C1152.64 97.1894 1152.56 96.7363 1152.79 96.4342L1159.59 87.5229Z" fill="#414042"/>
<path d="M1074.69 198.914C1074.92 198.612 1075.37 198.536 1075.68 198.763L1083.3 204.578C1083.61 204.805 1083.68 205.258 1083.46 205.56L1076.66 214.471C1076.43 214.773 1075.98 214.849 1075.68 214.622L1068.05 208.807C1067.75 208.581 1067.67 208.127 1067.9 207.825L1074.69 198.914Z" fill="#414042"/>
<path d="M1083.15 187.737C1083.38 187.435 1083.83 187.36 1084.14 187.586L1091.76 193.401C1092.07 193.628 1092.14 194.081 1091.91 194.383L1085.12 203.294C1084.89 203.596 1084.44 203.672 1084.14 203.445L1076.51 197.63C1076.21 197.404 1076.13 196.951 1076.36 196.649L1083.15 187.737Z" fill="#414042"/>
<path d="M1091.69 176.636C1091.92 176.334 1092.37 176.258 1092.67 176.485L1100.3 182.3C1100.6 182.526 1100.68 182.98 1100.45 183.282L1093.65 192.193C1093.43 192.495 1092.97 192.57 1092.67 192.344L1085.04 186.529C1084.74 186.302 1084.66 185.849 1084.89 185.547L1091.69 176.636Z" fill="#414042"/>
<path d="M1100.15 165.459C1100.37 165.157 1100.83 165.081 1101.13 165.308L1108.76 171.123C1109.06 171.349 1109.14 171.803 1108.91 172.105L1102.11 181.016C1101.88 181.318 1101.43 181.394 1101.13 181.167L1093.5 175.352C1093.2 175.125 1093.12 174.672 1093.35 174.37L1100.15 165.459Z" fill="#414042"/>
<path d="M1108.61 154.358C1108.83 154.056 1109.29 153.98 1109.59 154.207L1117.22 160.022C1117.52 160.248 1117.59 160.701 1117.37 161.003L1110.57 169.915C1110.34 170.217 1109.89 170.292 1109.59 170.066L1101.96 164.251C1101.66 164.024 1101.58 163.571 1101.81 163.269L1108.61 154.358Z" fill="#414042"/>
<path d="M1117.14 143.181C1117.37 142.879 1117.82 142.803 1118.12 143.03L1125.75 148.845C1126.05 149.071 1126.13 149.524 1125.9 149.826L1119.1 158.738C1118.88 159.04 1118.42 159.115 1118.12 158.889L1110.49 153.074C1110.19 152.847 1110.12 152.394 1110.34 152.092L1117.14 143.181Z" fill="#414042"/>
<path d="M1125.6 132.079C1125.83 131.777 1126.28 131.702 1126.58 131.928L1134.21 137.743C1134.51 137.97 1134.59 138.423 1134.36 138.725L1127.56 147.636C1127.34 147.938 1126.88 148.014 1126.58 147.787L1118.95 141.972C1118.65 141.746 1118.58 141.293 1118.8 140.991L1125.6 132.079Z" fill="#414042"/>
<path d="M1134.06 120.978C1134.28 120.676 1134.74 120.6 1135.04 120.827L1142.67 126.642C1142.97 126.869 1143.05 127.322 1142.82 127.624L1136.02 136.535C1135.79 136.837 1135.34 136.913 1135.04 136.686L1127.41 130.871C1127.11 130.645 1127.03 130.191 1127.26 129.889L1134.06 120.978Z" fill="#414042"/>
<path d="M1142.59 109.801C1142.82 109.499 1143.27 109.424 1143.57 109.65L1151.2 115.465C1151.5 115.692 1151.58 116.145 1151.35 116.447L1144.56 125.358C1144.33 125.66 1143.88 125.736 1143.57 125.509L1135.95 119.694C1135.64 119.468 1135.57 119.015 1135.8 118.712L1142.59 109.801Z" fill="#414042"/>
<path d="M1151.05 98.6998C1151.28 98.3977 1151.73 98.3222 1152.03 98.5488L1159.66 104.364C1159.96 104.59 1160.04 105.043 1159.81 105.345L1153.01 114.257C1152.79 114.559 1152.33 114.634 1152.03 114.408L1144.4 108.593C1144.1 108.366 1144.03 107.913 1144.25 107.611L1151.05 98.6998Z" fill="#414042"/>
<path d="M1066.16 210.015C1066.39 209.713 1066.84 209.638 1067.14 209.864L1074.77 215.679C1075.07 215.906 1075.15 216.359 1074.92 216.661L1068.13 225.572C1067.9 225.875 1067.45 225.95 1067.14 225.723L1059.52 219.909C1059.21 219.682 1059.14 219.229 1059.36 218.927L1066.16 210.015Z" fill="#414042"/>
<path d="M1174.46 67.9634C1174.69 67.6613 1175.14 67.5858 1175.45 67.8123L1183.07 73.6273C1183.38 73.8539 1183.45 74.307 1183.22 74.6091L1170.01 91.9785C1169.78 92.2806 1169.33 92.3561 1169.03 92.1296L1161.4 86.3146C1161.1 86.088 1161.02 85.6349 1161.25 85.3328L1174.46 67.9634Z" fill="#414042"/>
<path d="M1166.23 100.89C1166.46 100.588 1166.91 100.512 1167.21 100.739L1174.84 106.554C1175.14 106.78 1175.22 107.233 1174.99 107.536L1168.2 116.447C1167.97 116.749 1167.52 116.824 1167.21 116.598L1159.59 110.783C1159.28 110.556 1159.21 110.103 1159.43 109.801L1166.23 100.89Z" fill="#414042"/>
<path d="M1089.65 201.482C1089.88 201.18 1090.33 201.104 1090.63 201.331L1098.26 207.146C1098.56 207.372 1098.64 207.825 1098.41 208.127L1091.61 217.039C1091.39 217.341 1090.93 217.416 1090.63 217.19L1083 211.375C1082.7 211.148 1082.63 210.695 1082.85 210.393L1089.65 201.482Z" fill="#414042"/>
<path d="M1098.11 190.305C1098.34 190.003 1098.79 189.927 1099.09 190.154L1106.72 195.969C1107.02 196.195 1107.1 196.649 1106.87 196.951L1100.07 205.862C1099.85 206.164 1099.39 206.24 1099.09 206.013L1091.46 200.198C1091.16 199.971 1091.08 199.518 1091.31 199.216L1098.11 190.305Z" fill="#414042"/>
<path d="M1106.64 179.128C1106.87 178.826 1107.32 178.75 1107.62 178.977L1115.25 184.792C1115.55 185.019 1115.63 185.472 1115.4 185.774L1108.61 194.685C1108.38 194.987 1107.93 195.063 1107.62 194.836L1100 189.021C1099.69 188.794 1099.62 188.341 1099.84 188.039L1106.64 179.128Z" fill="#414042"/>
<path d="M1115.18 167.951C1115.4 167.649 1115.86 167.574 1116.16 167.8L1123.79 173.615C1124.09 173.842 1124.16 174.295 1123.94 174.597L1117.14 183.508C1116.91 183.81 1116.46 183.886 1116.16 183.659L1108.53 177.844C1108.23 177.618 1108.15 177.165 1108.38 176.862L1115.18 167.951Z" fill="#414042"/>
<path d="M1123.71 156.774C1123.94 156.472 1124.39 156.397 1124.69 156.623L1132.32 162.438C1132.62 162.665 1132.7 163.118 1132.47 163.42L1125.67 172.331C1125.45 172.633 1124.99 172.709 1124.69 172.482L1117.06 166.667C1116.76 166.441 1116.69 165.988 1116.91 165.686L1123.71 156.774Z" fill="#414042"/>
<path d="M1132.17 145.597C1132.4 145.295 1132.85 145.22 1133.15 145.446L1140.78 151.261C1141.08 151.488 1141.16 151.941 1140.93 152.243L1134.13 161.154C1133.91 161.456 1133.45 161.532 1133.15 161.305L1125.52 155.49C1125.22 155.264 1125.15 154.811 1125.37 154.509L1132.17 145.597Z" fill="#414042"/>
<path d="M1140.7 134.42C1140.93 134.118 1141.38 134.043 1141.69 134.269L1149.31 140.084C1149.62 140.311 1149.69 140.764 1149.47 141.066L1142.67 149.977C1142.44 150.28 1141.99 150.355 1141.69 150.129L1134.06 144.314C1133.76 144.087 1133.68 143.634 1133.91 143.332L1140.7 134.42Z" fill="#414042"/>
<path d="M1149.24 123.244C1149.46 122.942 1149.92 122.866 1150.22 123.093L1157.85 128.908C1158.15 129.134 1158.22 129.587 1158 129.889L1151.2 138.801C1150.97 139.103 1150.52 139.178 1150.22 138.952L1142.59 133.137C1142.29 132.91 1142.21 132.457 1142.44 132.155L1149.24 123.244Z" fill="#414042"/>
<path d="M1157.77 112.067C1158 111.765 1158.45 111.689 1158.75 111.916L1166.38 117.731C1166.68 117.957 1166.76 118.41 1166.53 118.712L1159.74 127.624C1159.51 127.926 1159.06 128.001 1158.75 127.775L1151.13 121.96C1150.82 121.733 1150.75 121.28 1150.98 120.978L1157.77 112.067Z" fill="#414042"/>
<path d="M1185.19 76.044C1185.41 75.7419 1185.87 75.6664 1186.17 75.8929L1193.8 81.7079C1194.1 81.9345 1194.17 82.3876 1193.95 82.6897L1176.73 105.27C1176.5 105.572 1176.05 105.648 1175.75 105.421L1168.12 99.606C1167.82 99.3795 1167.74 98.9263 1167.97 98.6243L1185.19 76.044Z" fill="#414042"/>
<path d="M1081.11 212.583C1081.34 212.281 1081.79 212.206 1082.1 212.432L1089.72 218.247C1090.03 218.474 1090.1 218.927 1089.88 219.229L1072.66 241.809C1072.43 242.111 1071.98 242.187 1071.67 241.96L1064.05 236.145C1063.74 235.919 1063.67 235.465 1063.9 235.163L1081.11 212.583Z" fill="#414042"/>
<path d="M1153.09 51.6512C1153.32 51.3491 1153.77 51.2736 1154.07 51.5001L1161.7 57.3151C1162 57.5417 1162.08 57.9948 1161.85 58.2969L1155.05 67.2082C1154.83 67.5102 1154.37 67.5858 1154.07 67.3592L1146.44 61.5442C1146.14 61.3176 1146.07 60.8645 1146.29 60.5625L1153.09 51.6512Z" fill="#414042"/>
<path d="M1042.98 196.12C1043.2 195.818 1043.66 195.742 1043.96 195.969L1051.59 201.784C1051.89 202.01 1051.96 202.463 1051.74 202.766L1040.56 217.416C1040.33 217.718 1039.88 217.794 1039.58 217.567L1031.95 211.752C1031.65 211.526 1031.57 211.073 1031.8 210.771L1042.98 196.12Z" fill="#414042"/>
<path d="M1059.97 173.917C1060.19 173.615 1060.65 173.54 1060.95 173.766L1068.58 179.581C1068.88 179.808 1068.96 180.261 1068.73 180.563L1061.93 189.474C1061.71 189.776 1061.25 189.852 1060.95 189.625L1053.32 183.81C1053.02 183.584 1052.94 183.131 1053.17 182.828L1059.97 173.917Z" fill="#414042"/>
<path d="M1068.43 162.74C1068.65 162.438 1069.11 162.363 1069.41 162.589L1077.04 168.404C1077.34 168.631 1077.41 169.084 1077.19 169.386L1070.39 178.297C1070.16 178.599 1069.71 178.675 1069.41 178.448L1061.78 172.633C1061.48 172.407 1061.4 171.954 1061.63 171.652L1068.43 162.74Z" fill="#414042"/>
<path d="M1076.89 151.639C1077.11 151.337 1077.57 151.261 1077.87 151.488L1085.5 157.303C1085.8 157.529 1085.87 157.983 1085.65 158.285L1078.85 167.196C1078.62 167.498 1078.17 167.574 1077.87 167.347L1070.24 161.532C1069.94 161.305 1069.86 160.852 1070.09 160.55L1076.89 151.639Z" fill="#414042"/>
<path d="M1085.34 140.538C1085.57 140.235 1086.02 140.16 1086.33 140.387L1093.95 146.202C1094.26 146.428 1094.33 146.881 1094.11 147.183L1087.31 156.095C1087.08 156.397 1086.63 156.472 1086.33 156.246L1078.7 150.431C1078.4 150.204 1078.32 149.751 1078.55 149.449L1085.34 140.538Z" fill="#414042"/>
<path d="M1093.8 129.436C1094.03 129.134 1094.48 129.059 1094.79 129.285L1102.41 135.1C1102.72 135.327 1102.79 135.78 1102.56 136.082L1095.77 144.993C1095.54 145.295 1095.09 145.371 1094.79 145.144L1087.16 139.329C1086.86 139.103 1086.78 138.65 1087.01 138.347L1093.8 129.436Z" fill="#414042"/>
<path d="M1102.26 118.335C1102.49 118.033 1102.94 117.957 1103.24 118.184L1110.87 123.999C1111.17 124.225 1111.25 124.678 1111.02 124.981L1104.22 133.892C1104 134.194 1103.54 134.269 1103.24 134.043L1095.61 128.228C1095.31 128.001 1095.24 127.548 1095.46 127.246L1102.26 118.335Z" fill="#414042"/>
<path d="M1110.8 107.233C1111.02 106.931 1111.48 106.856 1111.78 107.082L1119.41 112.897C1119.71 113.124 1119.78 113.577 1119.56 113.879L1112.76 122.79C1112.53 123.093 1112.08 123.168 1111.78 122.942L1104.15 117.127C1103.85 116.9 1103.77 116.447 1104 116.145L1110.8 107.233Z" fill="#414042"/>
<path d="M1119.26 96.0566C1119.48 95.7545 1119.93 95.679 1120.24 95.9056L1127.86 101.721C1128.17 101.947 1128.24 102.4 1128.02 102.702L1121.22 111.614C1120.99 111.916 1120.54 111.991 1120.24 111.765L1112.61 105.95C1112.31 105.723 1112.23 105.27 1112.46 104.968L1119.26 96.0566Z" fill="#414042"/>
<path d="M1127.71 84.9552C1127.94 84.6532 1128.39 84.5776 1128.7 84.8042L1136.32 90.6192C1136.63 90.8458 1136.7 91.2989 1136.47 91.601L1129.68 100.512C1129.45 100.814 1129 100.89 1128.7 100.663L1121.07 94.8483C1120.77 94.6217 1120.69 94.1686 1120.92 93.8665L1127.71 84.9552Z" fill="#414042"/>
<path d="M1136.17 73.8539C1136.4 73.5518 1136.85 73.4763 1137.15 73.7028L1144.78 79.5178C1145.08 79.7444 1145.16 80.1975 1144.93 80.4996L1138.14 89.4109C1137.91 89.713 1137.46 89.7885 1137.15 89.5619L1129.53 83.7469C1129.22 83.5204 1129.15 83.0672 1129.38 82.7652L1136.17 73.8539Z" fill="#414042"/>
<path d="M1144.63 62.7525C1144.86 62.4505 1145.31 62.3749 1145.61 62.6015L1153.24 68.4165C1153.54 68.643 1153.62 69.0962 1153.39 69.3982L1146.6 78.3095C1146.37 78.6116 1145.92 78.6871 1145.61 78.4606L1137.99 72.5701C1137.68 72.3435 1137.61 71.8904 1137.83 71.5883L1144.63 62.7525Z" fill="#414042"/>
<path d="M1051.43 185.019C1051.66 184.716 1052.11 184.641 1052.42 184.867L1060.04 190.682C1060.35 190.909 1060.42 191.362 1060.2 191.664L1053.4 200.576C1053.17 200.878 1052.72 200.953 1052.42 200.727L1044.79 194.912C1044.49 194.685 1044.41 194.232 1044.64 193.93L1051.43 185.019Z" fill="#414042"/>
<path d="M1048.87 210.318C1049.09 210.015 1049.55 209.94 1049.85 210.166L1057.48 215.981C1057.78 216.208 1057.85 216.661 1057.63 216.963L1056.04 219.002L1066.31 226.781C1066.61 227.007 1066.69 227.46 1066.46 227.763L1062.01 233.653C1061.78 233.955 1061.33 234.031 1061.03 233.804L1042.6 219.757C1042.3 219.531 1042.22 219.078 1042.45 218.776L1048.87 210.318Z" fill="#414042"/>
<path d="M1159.89 131.475C1160.19 131.098 1160.72 131.022 1161.02 131.249L1169.86 137.97C1170.23 138.272 1170.23 138.725 1170.01 139.103L1129.22 192.57C1128.92 192.948 1128.39 193.024 1128.09 192.797L1119.25 186.076C1118.88 185.774 1118.88 185.321 1119.1 184.943L1159.89 131.475Z" fill="#414042"/>
<path d="M1195.76 84.3511C1196.06 83.9735 1196.59 83.898 1196.89 84.1245L1205.73 90.8458C1206.11 91.1478 1206.11 91.601 1205.88 91.9786L1199.31 100.663C1199.01 101.041 1198.48 101.116 1198.18 100.89L1189.34 94.1686C1188.96 93.8665 1188.96 93.4134 1189.19 93.0358L1195.76 84.3511Z" fill="#414042"/>
<path d="M1187.23 95.6035C1187.53 95.2259 1188.06 95.1504 1188.36 95.3769L1197.2 102.098C1197.57 102.4 1197.57 102.853 1197.35 103.231L1190.78 111.916C1190.47 112.293 1189.95 112.369 1189.64 112.142L1180.81 105.421C1180.43 105.119 1180.43 104.666 1180.66 104.288L1187.23 95.6035Z" fill="#414042"/>
<path d="M1178.62 106.856C1178.92 106.478 1179.45 106.403 1179.75 106.629L1188.59 113.351C1188.96 113.653 1188.96 114.106 1188.74 114.483L1182.17 123.168C1181.87 123.546 1181.34 123.621 1181.03 123.395L1172.2 116.673C1171.82 116.371 1171.82 115.918 1172.05 115.541L1178.62 106.856Z" fill="#414042"/>
<path d="M1106.87 200.953C1107.17 200.576 1107.7 200.5 1108 200.727L1116.84 207.448C1117.22 207.75 1117.22 208.203 1116.99 208.581L1110.42 217.265C1110.12 217.643 1109.59 217.718 1109.29 217.492L1100.45 210.771C1100.07 210.469 1100.07 210.015 1100.3 209.638L1106.87 200.953Z" fill="#414042"/>
<path d="M1170.08 118.033C1170.38 117.655 1170.91 117.58 1171.21 117.806L1180.05 124.527C1180.43 124.83 1180.43 125.283 1180.2 125.66L1171.97 136.535C1171.67 136.913 1171.14 136.988 1170.84 136.762L1162 130.04C1161.62 129.738 1161.62 129.285 1161.85 128.908L1170.08 118.033Z" fill="#414042"/>
<path d="M1117.14 187.511C1117.44 187.133 1117.97 187.058 1118.27 187.284L1127.11 194.005C1127.49 194.232 1127.49 194.761 1127.26 195.138L1119.03 206.013C1118.73 206.391 1118.2 206.466 1117.9 206.239L1109.06 199.518C1108.68 199.216 1108.68 198.763 1108.91 198.385L1117.14 187.511Z" fill="#414042"/>
<path d="M1103.47 215.906C1103.7 215.604 1104.15 215.528 1104.45 215.755L1108.38 218.776C1108.68 219.002 1108.76 219.455 1108.53 219.757L1101.73 228.669C1101.51 228.971 1101.05 229.046 1100.75 228.82L1096.82 225.799C1096.52 225.572 1096.45 225.119 1096.67 224.817L1103.47 215.906Z" fill="#414042"/>
<path d="M1086.4 238.26C1086.63 237.958 1087.08 237.882 1087.38 238.109L1091.31 241.129C1091.61 241.356 1091.69 241.809 1091.46 242.111L1084.66 251.023C1084.44 251.325 1083.98 251.4 1083.68 251.174L1079.76 248.153C1079.45 247.926 1079.38 247.473 1079.6 247.171L1086.4 238.26Z" fill="#414042"/>
<path d="M1094.93 227.083C1095.16 226.781 1095.61 226.705 1095.92 226.932L1099.84 229.953C1100.15 230.179 1100.22 230.632 1099.99 230.934L1093.2 239.846C1092.97 240.148 1092.52 240.223 1092.22 239.997L1088.29 236.976C1087.99 236.749 1087.91 236.296 1088.14 235.994L1094.93 227.083Z" fill="#414042"/>
<path d="M1089.95 223.231C1090.18 222.929 1090.56 222.854 1090.86 223.08L1094.41 225.799C1094.71 226.026 1094.71 226.403 1094.48 226.705L1087.69 235.617C1087.46 235.919 1087.08 235.994 1086.78 235.768L1083.23 233.049C1082.93 232.822 1082.93 232.445 1083.15 232.143L1089.95 223.231Z" fill="#414042"/>
<path d="M1130.69 30.8843L1005.52 195.09L1012.24 200.217L1137.41 36.0117L1130.69 30.8843Z" fill="#414042"/>
<path d="M1091.92 -78.6199C1095.47 -83.3021 1097.96 -77.1095 1101.43 -69.8596L1141.54 -3.10042C1148.11 8.75613 1146.37 11.1728 1145.09 12.8342L992.148 213.565C990.864 215.302 988.976 217.567 976.892 214.396L903.407 190.229C895.628 188.492 888.755 187.964 892.682 182.828L1091.92 -78.6199Z" fill="#414042"/>
<path d="M1132.17 2.18594L1132.32 2.4125C1133.98 5.43327 1134.89 7.39679 1135.34 8.6051L985.501 205.182C984.368 205.031 982.556 204.729 979.988 204.049L979.837 203.974L907.711 180.11L1092.9 -62.8363L1132.17 2.18594Z" fill="white"/>
<path d="M1177.26 153.074C1179 150.808 1182.24 150.355 1184.51 152.092L1220.61 179.581C1222.87 181.318 1223.33 184.565 1221.59 186.831L1180.43 240.827C1178.69 243.093 1175.45 243.546 1173.18 241.809L1137.08 214.32C1134.81 212.583 1134.36 209.336 1136.1 207.07L1177.26 153.074Z" fill="#D1D3D4"/>
<path d="M1220.61 179.581C1222.87 181.318 1223.33 184.565 1221.59 186.831L1180.43 240.827C1178.69 243.093 1175.45 243.546 1173.18 241.809L1137.08 214.32C1134.81 212.583 1134.36 209.336 1136.1 207.07L1220.61 179.581Z" fill="#C2C2C2"/>
<path d="M1134.08 33.4102L1008.91 197.616L1012.28 200.18L1137.45 35.9739L1134.08 33.4102Z" fill="#58595B"/>
<path d="M999.927 121.129C999.701 120.676 999.852 120.072 1000.3 119.543C1000.76 119.015 1001.51 118.712 1002.04 118.788L1023.49 122.79L989.958 98.6243C989.505 98.2467 989.58 97.567 990.033 96.8118C990.487 96.1321 991.317 95.679 991.922 95.679L1023.42 99.9836L1047.73 68.0389L1045.77 60.8645C1045.62 60.2604 1045.85 59.5807 1046.3 59.0521C1046.75 58.5234 1047.36 58.3724 1047.81 58.599L1064.5 68.8696L1041.09 31.412C1040.79 30.8833 1040.94 29.9771 1041.39 29.2974C1041.84 28.6177 1042.6 28.2402 1043.05 28.4667L1067.75 41.7581L1081.8 23.3314L1083.08 25.5214L1068.5 44.8544C1068.05 45.3831 1067.52 45.6096 1067.07 45.3075L1046.37 34.2062L1070.54 73.2497C1070.92 73.7784 1070.84 74.5336 1070.47 75.0622C1070.09 75.5908 1069.41 75.7419 1068.96 75.4398L1049.32 63.2812L1050.45 67.3592C1050.6 67.8879 1050.45 68.492 1050.08 68.9451L1024.77 102.174C1024.32 102.702 1023.72 103.004 1023.11 102.929L996.68 99.3039L1031.42 124.527C1031.87 124.829 1031.95 125.509 1031.57 126.038C1031.19 126.566 1030.44 126.869 1029.83 126.718L1004.53 122.035L1006.5 125.056C1006.72 125.434 1006.65 125.962 1006.27 126.415L988.749 149.449L986.182 148.845L1003.4 126.264L999.927 121.129Z" fill="#CC4651"/>
<path d="M1070.32 -21.5272L1071.45 -23.0376L1104 41.7581C1104.15 42.0602 1104.15 42.5888 1103.92 42.8909L1012.09 163.269L1010.8 163.042L1102.94 42.1357L1070.32 -21.5272Z" fill="#D1D3D4"/>
<path opacity="0.2" d="M1091.91 -78.6199C1095.46 -83.3021 1097.96 -77.1095 1101.43 -69.8596L1141.53 -3.10042C1148.1 8.75613 1146.37 11.1728 1145.08 12.8342L903.33 190.229C895.627 188.492 888.754 187.964 892.681 182.828L1091.91 -78.6199Z" fill="white"/>
<path d="M1160.94 101.872L1221.21 127.775C1224.38 129.134 1225.82 132.835 1224.46 135.931C1223.1 139.103 1219.48 140.538 1216.3 139.178C1216.3 139.178 1216.23 139.178 1216.23 139.103L1156.41 112.218C1153.54 110.934 1152.26 107.536 1153.54 104.666C1154.75 101.947 1158.07 100.663 1160.94 101.872Z" fill="#E8A870"/>
<path d="M1162 84.9553L1222.5 110.405C1225.9 111.84 1227.56 115.767 1226.12 119.241C1224.69 122.639 1220.76 124.301 1217.29 122.866C1217.21 122.866 1217.13 122.79 1217.06 122.79L1157.39 95.4525C1154.53 94.1686 1153.24 90.7703 1154.6 87.9005C1155.88 85.0308 1159.21 83.8225 1162 84.9553Z" fill="#E8A870"/>
<path d="M1171.97 71.9659L1232.47 97.3405C1235.94 98.7753 1237.6 102.778 1236.09 106.252C1234.66 109.726 1230.65 111.387 1227.18 109.877C1227.1 109.877 1227.03 109.801 1226.95 109.801L1167.36 82.3876C1164.49 81.1038 1163.21 77.7054 1164.57 74.8357C1165.85 72.0414 1169.18 70.7576 1171.97 71.9659Z" fill="#E8A870"/>
<path d="M1185.87 61.0911L1246.06 87.1453C1248.93 88.4291 1250.29 91.752 1249.01 94.6217C1247.72 97.4915 1243.64 100.135 1240.7 98.8508L1240.25 99.455L1181.49 70.7576C1178.84 69.5493 1177.64 66.453 1178.77 63.7343C1180.05 61.1666 1183.15 59.9583 1185.87 61.0911Z" fill="#E8A870"/>
<path d="M1211.17 121.733C1211.32 121.28 1211.85 120.374 1210.26 119.317L1215.25 107.385C1215.25 107.385 1216.83 108.215 1217.44 107.233C1218.49 105.572 1216.53 104.892 1216.53 104.892L1223.86 93.791C1223.86 93.791 1226.05 94.5462 1226.65 92.8093C1227.18 91.3744 1225.37 90.3171 1225.37 90.3171L1235.64 82.6142C1235.64 82.6142 1247.65 87.9005 1252.78 90.1661C1274.38 99.6815 1291.15 118.863 1291.15 118.863L1274 157.907C1274 157.907 1247.87 155.566 1211.92 137.064L1208.68 122.715C1208.75 122.639 1210.64 123.168 1211.17 121.733Z" fill="#E8A870"/>
<path d="M1196.97 137.517L1218.34 141.972C1218.34 141.972 1229.97 143.936 1232.99 128.681L1291.3 118.788L1274.16 157.832C1274.16 157.832 1254.22 161.532 1247.5 161.456C1238.51 161.381 1212.15 156.17 1212.15 156.17L1180.51 146.202C1180.35 146.202 1180.88 135.931 1196.97 137.517Z" fill="#E8A870"/>
<path d="M1290.09 121.28L1274.01 157.907C1274.01 157.907 1254.07 161.607 1247.35 161.532C1239.49 161.456 1218.27 157.454 1213.13 156.472C1220.01 156.095 1226.88 155.113 1233.6 153.376C1255.12 147.561 1273.48 135.553 1290.09 121.28Z" fill="#D6A87D"/>
<path d="M1480.34 189.474L1456.02 244.754C1440.99 243.093 1274 157.832 1274 157.832L1291.15 118.788C1318.49 127.699 1480.34 189.474 1480.34 189.474Z" fill="#E8A870"/>
<path d="M1309.88 123.395L1290.02 168.48L1271.81 159.871L1291.22 115.843L1309.88 123.395Z" fill="#A2DCDD"/>
<path d="M1482 185.623L1454.66 247.775L1290.02 168.48L1309.88 123.395L1482 185.623Z" fill="white"/>
<path d="M1451.86 201.859C1458.28 204.729 1464.7 207.523 1471.12 210.318L1454.66 247.775L1290.02 168.48L1294.92 157.378C1300.74 158.134 1406.17 193.326 1451.86 201.859Z" fill="#F1F2F2"/>
<path d="M1090.86 206.315L1137.46 252.533L1137.53 252.608C1139.95 255.101 1139.87 259.028 1137.46 261.444C1134.96 263.861 1131.04 263.785 1128.62 261.369L1082.78 214.396C1080.59 212.205 1080.59 208.581 1082.78 206.391C1084.97 204.125 1088.59 204.125 1090.86 206.315Z" fill="#E8A870"/>
<path d="M1075.45 213.414L1122.35 259.254C1122.43 259.33 1122.43 259.33 1122.5 259.405C1125.07 262.048 1124.99 266.353 1122.35 268.921C1119.71 271.488 1115.4 271.413 1112.83 268.77L1067.37 221.494C1065.25 219.304 1065.25 215.755 1067.37 213.565C1069.56 211.224 1073.18 211.224 1075.45 213.414Z" fill="#E8A870"/>
<path d="M1066.84 227.385L1113.82 273.15C1113.89 273.225 1113.97 273.301 1113.97 273.301C1116.61 276.019 1116.46 280.324 1113.74 282.967C1111.02 285.61 1106.72 285.459 1104.08 282.741L1058.69 235.39C1056.57 233.2 1056.57 229.651 1058.69 227.46C1060.95 225.195 1064.58 225.195 1066.84 227.385Z" fill="#E8A870"/>
<path d="M1061.1 244.754L1107.55 291.048L1107.62 291.123C1109.81 293.389 1109.81 297.014 1107.55 299.204C1105.28 301.394 1101.66 301.394 1099.47 299.128L1053.55 252.306C1051.51 250.267 1051.51 246.869 1053.55 244.83C1055.66 242.715 1059.06 242.715 1061.1 244.754Z" fill="#E8A870"/>
<path d="M1097.81 279.04C1099.17 277.832 1097.73 276.019 1097.73 276.019L1105.51 265.22C1105.51 265.22 1106.79 266.806 1108 265.22C1108.68 264.238 1107.4 263.106 1107.4 263.106L1116.69 254.119C1118.27 255.176 1118.88 254.421 1119.26 254.043C1120.39 253.062 1119.26 251.476 1119.26 251.476L1133.76 249.361C1163.89 276.246 1175.52 299.808 1175.52 299.808L1145.24 329.865C1145.24 329.865 1121.37 321.105 1104.68 304.339C1100.75 300.337 1091.46 291.048 1091.46 291.048L1095.01 278.663C1095.01 278.738 1096.67 279.946 1097.81 279.04Z" fill="#E8A870"/>
<path d="M1131.04 216.661L1151.73 242.64C1151.73 242.64 1166.08 265.371 1169.4 273.754C1171.82 279.946 1175.6 299.884 1175.6 299.884L1133.53 271.941C1146.67 263.71 1140.7 253.515 1140.7 253.515L1128.85 235.163C1121.67 220.815 1131.04 216.661 1131.04 216.661Z" fill="#E8A870"/>
</g>
</g>
<defs>
<clipPath id="clip0_1029_3820">
<rect width="672" height="269" fill="white" transform="translate(765 3)"/>
</clipPath>
<clipPath id="clip1_1029_3820">
<rect width="594" height="567" fill="white" transform="translate(888 -83)"/>
</clipPath>
</defs>
</svg>
