<svg fill="none" height="14" viewBox="0 0 14 14" width="14" xmlns="http://www.w3.org/2000/svg"><path d="m11.2028 9.8518c-.1022-.1022-.1162-.2786-.0378-.4004.616-.9478.9772-2.0762.9772-3.2886 0-3.3488-2.7244-6.0717966-6.0704-6.0717966-3.3488 0-6.0718 2.7229966-6.0718 6.0717966 0 3.3474 2.723 6.0704 6.0718 6.0704 1.3034 0 2.5102-.4186 3.5014-1.1214.1162-.084.2912-.0728.3934.028l2.17 2.17c.014.014.0294.028.0448.0392.0252.021.1302.119.231.2212l.2576.2562c.1022.1008.2674.1008.3682 0l.8848-.8848c.1022-.1022.1022-.2674.0014-.3696zm-1.4588-.861c-.2002.2604-.4256.4984-.6748.7098-.8092.6874-1.855 1.1046-2.9974 1.1046-2.5606 0-4.6438-2.0832-4.6438-4.6424s2.0832-4.6438 4.6438-4.6438c2.5592 0 4.6424 2.0832 4.6424 4.6438 0 1.064-.3654 2.044-.9702 2.828z" fill="#cacccf"/></svg>