<svg fill="none" height="32" viewBox="0 0 21 32" width="21" xmlns="http://www.w3.org/2000/svg"><path d="m2.95465 13.9368 1.08893 1.0316zm-.00001 4.1264 1.08893-1.0316zm10.86746-15.59768 1.089 1.03161zm0 27.06898 1.089-1.0316zm6.6779-2.0633v-22.94245h-3v22.94245zm-7.7668-26.0373-10.86748 11.4712 2.17786 2.0633 10.86752-11.47127zm-10.86748 17.6609 10.86748 11.4713 2.1779-2.0632-10.86753-11.4713zm0-6.1897c-1.644285 1.7357-1.644289 4.4541 0 6.1897l2.17785-2.0632c-.54809-.5785-.54809-1.4847.00001-2.0632zm18.63428-8.37635c0-4.067961-4.9691-6.048-7.7668-3.09485l2.1779 2.06323c.9325-.98438 2.5889-.32437 2.5889 1.03162zm-3 22.94245c0 1.356-1.6564 2.016-2.5889 1.0317l-2.1779 2.0632c2.7977 2.9531 7.7668.9731 7.7668-3.0949z" fill="#6da8db"/></svg>