<?xml version="1.0" encoding="utf-8"?>
<svg version="1.1" id="Layer_1" x="0px" y="0px" viewBox="0 0 320 105" style="enable-background:new 0 0 379 190;" xmlns="http://www.w3.org/2000/svg">
  <style type="text/css">
	.st0{fill:#383838;}
	.st1{fill-rule:evenodd;clip-rule:evenodd;fill:#6EAADC;}
	.st2{fill-rule:evenodd;clip-rule:evenodd;fill:#E44C4C;}
</style>
  <g transform="matrix(0.940071, 0, 0, 0.940071, -17.579311, -36.944752)">
    <g>
      <path class="st0" d="M145.8,99.3V86.4h7.8v1.9h-5.5v11H145.8z"/>
      <path class="st0" d="M157.7,99.6c-0.6,0-1.2-0.1-1.7-0.3c-0.6-0.2-1-0.6-1.5-1c-0.4-0.4-0.8-1-1-1.6c-0.3-0.6-0.4-1.3-0.4-2.1 s0.1-1.5,0.4-2.2c0.2-0.6,0.6-1.2,1-1.6c0.4-0.4,0.9-0.8,1.5-1c0.6-0.2,1.1-0.3,1.7-0.3s1.2,0.1,1.7,0.3c0.6,0.2,1,0.6,1.5,1 c0.4,0.4,0.8,1,1,1.6c0.3,0.6,0.4,1.3,0.4,2.2s-0.1,1.5-0.4,2.1c-0.3,0.6-0.6,1.2-1,1.6c-0.4,0.4-0.9,0.8-1.5,1 C158.9,99.5,158.3,99.6,157.7,99.6z M157.7,97.7c0.7,0,1.3-0.3,1.7-0.9c0.4-0.6,0.6-1.4,0.6-2.3c0-1-0.2-1.8-0.6-2.4 c-0.4-0.6-1-0.9-1.7-0.9c-0.7,0-1.3,0.3-1.7,0.9c-0.4,0.6-0.6,1.4-0.6,2.4c0,1,0.2,1.8,0.6,2.3C156.5,97.4,157,97.7,157.7,97.7z"/>
      <path class="st0" d="M164.6,103.2V89.6h1.9l0.2,1h0.1c0.4-0.3,0.9-0.6,1.4-0.9c0.5-0.2,1-0.4,1.6-0.4c0.6,0,1.1,0.1,1.6,0.3 c0.5,0.2,0.9,0.6,1.2,1c0.3,0.4,0.6,1,0.8,1.6c0.2,0.6,0.3,1.3,0.3,2c0,0.8-0.1,1.6-0.3,2.2c-0.2,0.7-0.5,1.2-0.9,1.6 c-0.4,0.4-0.8,0.8-1.3,1c-0.5,0.2-1,0.4-1.6,0.4c-0.4,0-0.8-0.1-1.3-0.3c-0.4-0.2-0.8-0.4-1.2-0.8l0.1,1.6v3H164.6z M168.8,97.7 c0.6,0,1.2-0.3,1.6-0.8c0.4-0.6,0.7-1.4,0.7-2.5c0-1-0.2-1.7-0.5-2.3c-0.3-0.5-0.9-0.8-1.6-0.8c-0.7,0-1.4,0.4-2.1,1.1v4.5 c0.4,0.3,0.7,0.5,1,0.6C168.2,97.6,168.5,97.7,168.8,97.7z"/>
      <path class="st0" d="M179.7,99.6c-0.6,0-1.2-0.1-1.7-0.3c-0.6-0.2-1-0.6-1.5-1c-0.4-0.4-0.8-1-1-1.6c-0.3-0.6-0.4-1.3-0.4-2.1 s0.1-1.5,0.4-2.2c0.2-0.6,0.6-1.2,1-1.6c0.4-0.4,0.9-0.8,1.5-1c0.6-0.2,1.1-0.3,1.7-0.3s1.2,0.1,1.7,0.3c0.6,0.2,1,0.6,1.5,1 c0.4,0.4,0.8,1,1,1.6c0.3,0.6,0.4,1.3,0.4,2.2s-0.1,1.5-0.4,2.1c-0.3,0.6-0.6,1.2-1,1.6c-0.4,0.4-0.9,0.8-1.5,1 C180.9,99.5,180.3,99.6,179.7,99.6z M179.7,97.7c0.7,0,1.3-0.3,1.7-0.9c0.4-0.6,0.6-1.4,0.6-2.3c0-1-0.2-1.8-0.6-2.4 c-0.4-0.6-1-0.9-1.7-0.9c-0.7,0-1.3,0.3-1.7,0.9c-0.4,0.6-0.6,1.4-0.6,2.4c0,1,0.2,1.8,0.6,2.3C178.4,97.4,179,97.7,179.7,97.7z"/>
      <path class="st0" d="M187.6,99.3v3.4h-2l-0.2-3.7v-1.5h0.6c0.1-0.1,0.2-0.2,0.3-0.3c0.1-0.1,0.2-0.3,0.3-0.6 c0.1-0.3,0.2-0.6,0.3-1.1c0.1-0.5,0.2-1.1,0.3-1.8l0.5-4.1h6.6v7.9h1.5V99l-0.2,3.7h-2v-3.4H187.6z M189.2,94.2 c-0.1,0.8-0.2,1.4-0.4,2c-0.2,0.5-0.3,1-0.6,1.4h3.8v-6.1h-2.6L189.2,94.2z"/>
      <path class="st0" d="M201.6,99.6c-0.7,0-1.3-0.1-1.8-0.3c-0.6-0.2-1.1-0.6-1.5-1c-0.4-0.4-0.7-1-1-1.6c-0.2-0.6-0.4-1.3-0.4-2.1 s0.1-1.5,0.4-2.2c0.3-0.6,0.6-1.2,1.1-1.6c0.4-0.4,1-0.8,1.5-1s1.2-0.3,1.8-0.3c0.6,0,1.2,0.1,1.6,0.3c0.5,0.2,0.9,0.5,1.2,0.8 l-1.1,1.5c-0.3-0.2-0.5-0.4-0.8-0.5c-0.3-0.1-0.5-0.2-0.8-0.2c-0.8,0-1.4,0.3-1.9,0.9c-0.5,0.6-0.7,1.4-0.7,2.4 c0,1,0.2,1.8,0.7,2.3c0.5,0.6,1.1,0.9,1.9,0.9c0.4,0,0.7-0.1,1.1-0.2c0.3-0.2,0.6-0.4,0.9-0.6l0.9,1.5c-0.5,0.4-1,0.7-1.5,0.9 C202.7,99.5,202.2,99.6,201.6,99.6z"/>
      <path class="st0" d="M206.7,99.3v-9.7h2.3v3.8h1.4l0.9-2c0.2-0.4,0.4-0.8,0.6-1c0.2-0.3,0.4-0.5,0.6-0.6c0.2-0.2,0.5-0.3,0.7-0.3 c0.3-0.1,0.5-0.1,0.8-0.1c0.3,0,0.5,0,0.7,0.1l-0.4,2.1c-0.1,0-0.2-0.1-0.4-0.1c-0.2,0-0.5,0.1-0.7,0.2c-0.2,0.1-0.4,0.5-0.6,0.9 l-0.7,1.5l3.3,5.1h-2.5l-2.4-4.1H209v4.1H206.7z"/>
      <path class="st0" d="M219.1,99.6c-0.9,0-1.5-0.3-2.1-0.8c-0.5-0.5-0.8-1.2-0.8-2.1c0-0.5,0.1-1,0.3-1.4c0.2-0.4,0.6-0.7,1-1 c0.5-0.3,1.1-0.5,1.8-0.7c0.7-0.2,1.6-0.3,2.6-0.5c0-0.3,0-0.5-0.1-0.7c-0.1-0.2-0.2-0.4-0.3-0.6c-0.1-0.2-0.3-0.3-0.5-0.4 c-0.2-0.1-0.5-0.1-0.8-0.1c-0.5,0-0.9,0.1-1.4,0.3c-0.5,0.2-0.9,0.4-1.3,0.7l-0.8-1.5c0.5-0.3,1.1-0.6,1.8-0.9 c0.7-0.2,1.4-0.4,2.2-0.4c1.2,0,2.1,0.4,2.7,1.1c0.6,0.7,0.9,1.8,0.9,3.1v5.7h-1.9l-0.2-1.1h-0.1c-0.4,0.4-0.9,0.7-1.4,0.9 C220.2,99.4,219.7,99.6,219.1,99.6z M219.9,97.8c0.4,0,0.8-0.1,1.1-0.3c0.3-0.2,0.7-0.4,1-0.8v-2.2c-0.7,0.1-1.2,0.2-1.7,0.3 c-0.4,0.1-0.8,0.3-1.1,0.4c-0.3,0.2-0.5,0.4-0.6,0.6c-0.1,0.2-0.2,0.4-0.2,0.7c0,0.4,0.1,0.8,0.4,0.9S219.5,97.8,219.9,97.8z"/>
      <path class="st0" d="M232.2,99.3v-3.5h-1.4h0l-2.3,3.5H226l2.7-3.9c-0.6-0.2-1-0.6-1.4-1c-0.4-0.4-0.5-1-0.5-1.8 c0-0.6,0.1-1,0.3-1.4c0.2-0.4,0.5-0.7,0.8-0.9c0.3-0.2,0.8-0.4,1.2-0.5c0.5-0.1,1-0.2,1.5-0.2h3.8v9.7H232.2z M231,94.3h1.2v-2.9 H231c-0.6,0-1.1,0.1-1.5,0.3c-0.3,0.2-0.5,0.6-0.5,1.1c0,0.5,0.2,0.8,0.5,1.1C229.9,94.1,230.4,94.3,231,94.3z"/>
      <path class="st0" d="M145.6,123v-9.7h2.3v3.8h1.4l0.9-2c0.2-0.4,0.4-0.8,0.6-1c0.2-0.3,0.4-0.5,0.6-0.6c0.2-0.2,0.5-0.3,0.7-0.3 c0.3-0.1,0.5-0.1,0.8-0.1c0.3,0,0.5,0,0.7,0.1l-0.4,2.1c-0.1,0-0.2-0.1-0.4-0.1c-0.2,0-0.5,0.1-0.7,0.2c-0.2,0.1-0.4,0.4-0.6,0.9 l-0.7,1.5l3.3,5.1h-2.5l-2.4-4.1h-1.5v4.1H145.6z"/>
      <path class="st0" d="M155.7,123.2c-0.4,0-0.7-0.1-1-0.2l0.4-2.1c0.1,0,0.1,0,0.2,0.1c0.1,0,0.2,0,0.3,0c0.3,0,0.6-0.1,0.8-0.4 c0.2-0.3,0.3-0.7,0.4-1.3c0.1-1,0.3-2,0.4-3c0.1-1,0.2-2,0.3-3h6.6v9.7h-2.3v-7.9h-2.5c-0.1,0.8-0.2,1.6-0.3,2.4 c-0.1,0.8-0.2,1.6-0.3,2.4c-0.1,1.1-0.5,1.9-0.9,2.5C157.1,123,156.5,123.2,155.7,123.2z"/>
      <path class="st0" d="M166.8,123v-9.7h2.2v3.3c0,0.5,0,1.1-0.1,1.7c0,0.6-0.1,1.2-0.1,1.8h0.1c0.2-0.3,0.4-0.6,0.6-1 c0.2-0.4,0.4-0.7,0.6-1l3.1-4.8h2.1v9.7H173v-3.3c0-0.5,0-1.1,0.1-1.7c0-0.6,0.1-1.2,0.1-1.8h-0.1c-0.2,0.3-0.4,0.6-0.6,1 c-0.2,0.4-0.4,0.7-0.6,1l-3.1,4.8H166.8z"/>
      <path class="st0" d="M178.1,123v-9.7h2.3v3.7h3.9v-3.7h2.3v9.7h-2.3v-4h-3.9v4H178.1z"/>
      <path class="st0" d="M189.4,123v-9.7h2.2v3.3c0,0.5,0,1.1-0.1,1.7c0,0.6-0.1,1.2-0.1,1.8h0.1c0.2-0.3,0.4-0.6,0.6-1 c0.2-0.4,0.4-0.7,0.6-1l3.1-4.8h2.1v9.7h-2.2v-3.3c0-0.5,0-1.1,0.1-1.7c0-0.6,0.1-1.2,0.1-1.8h-0.1c-0.2,0.3-0.4,0.6-0.6,1 c-0.2,0.4-0.4,0.7-0.6,1l-3.1,4.8H189.4z"/>
      <path class="st0" d="M206.1,123v-3.6c-0.3,0.1-0.6,0.1-0.8,0.1c-0.2,0-0.6,0-1,0c-0.6,0-1.1-0.1-1.6-0.2c-0.5-0.1-0.9-0.3-1.2-0.6 c-0.3-0.3-0.6-0.7-0.8-1.1c-0.2-0.5-0.3-1-0.3-1.6v-2.7h2.3v2.7c0,0.6,0.2,1,0.5,1.3c0.3,0.3,0.9,0.4,1.6,0.4c0.5,0,0.9,0,1.3-0.1 v-4.3h2.3v9.7H206.1z"/>
      <path class="st0" d="M215.3,123.2c-0.7,0-1.3-0.1-1.9-0.3c-0.6-0.2-1.1-0.6-1.5-1s-0.8-1-1-1.6c-0.2-0.6-0.4-1.3-0.4-2.1 c0-0.8,0.1-1.5,0.4-2.1c0.3-0.6,0.6-1.2,1-1.6c0.4-0.4,0.9-0.8,1.4-1s1.1-0.4,1.7-0.4c0.7,0,1.2,0.1,1.7,0.3 c0.5,0.2,0.9,0.5,1.3,0.9c0.3,0.4,0.6,0.9,0.8,1.5c0.2,0.6,0.3,1.2,0.3,1.9c0,0.2,0,0.4,0,0.6c0,0.2,0,0.4-0.1,0.5h-6.2 c0.1,0.9,0.4,1.5,0.9,2c0.5,0.5,1.2,0.7,1.9,0.7c0.4,0,0.8-0.1,1.2-0.2c0.4-0.1,0.7-0.3,1.1-0.5l0.8,1.4c-0.5,0.3-1,0.6-1.5,0.7 C216.6,123.1,216,123.2,215.3,123.2z M212.8,117.2h4.3c0-0.7-0.2-1.3-0.5-1.8s-0.8-0.6-1.5-0.6c-0.6,0-1.1,0.2-1.5,0.6 C213.1,115.9,212.9,116.4,212.8,117.2z"/>
      <path class="st0" d="M225.2,123.2c-0.7,0-1.3-0.1-1.8-0.3c-0.6-0.2-1.1-0.6-1.5-1c-0.4-0.4-0.8-1-1-1.6s-0.4-1.3-0.4-2.2 c0-0.8,0.1-1.5,0.4-2.1s0.6-1.2,1.1-1.6c0.4-0.4,1-0.8,1.5-1c0.6-0.2,1.2-0.3,1.8-0.3c0.6,0,1.2,0.1,1.6,0.3 c0.5,0.2,0.9,0.5,1.2,0.8l-1.1,1.5c-0.3-0.2-0.5-0.4-0.8-0.5c-0.3-0.1-0.5-0.2-0.8-0.2c-0.8,0-1.4,0.3-1.9,0.9 c-0.5,0.6-0.7,1.4-0.7,2.4c0,1,0.2,1.8,0.7,2.3c0.5,0.6,1.1,0.9,1.9,0.9c0.4,0,0.7-0.1,1.1-0.2c0.3-0.2,0.6-0.4,0.9-0.6l0.9,1.5 c-0.5,0.4-1,0.7-1.5,0.9C226.3,123.1,225.8,123.2,225.2,123.2z"/>
      <path class="st0" d="M230.3,123v-9.7h2.3v3.8h1.4l0.9-2c0.2-0.4,0.4-0.8,0.6-1c0.2-0.3,0.4-0.5,0.6-0.6c0.2-0.2,0.5-0.3,0.7-0.3 c0.3-0.1,0.5-0.1,0.8-0.1c0.3,0,0.5,0,0.7,0.1l-0.4,2.1c-0.1,0-0.2-0.1-0.4-0.1c-0.2,0-0.5,0.1-0.7,0.2c-0.2,0.1-0.4,0.4-0.6,0.9 l-0.7,1.5l3.3,5.1h-2.5l-2.4-4.1h-1.5v4.1H230.3z"/>
      <path class="st0" d="M242.8,123.2c-0.9,0-1.5-0.3-2.1-0.8c-0.5-0.5-0.8-1.2-0.8-2.1c0-0.5,0.1-1,0.3-1.4c0.2-0.4,0.6-0.7,1-1 c0.5-0.3,1.1-0.5,1.8-0.7c0.7-0.2,1.6-0.3,2.6-0.5c0-0.2,0-0.5-0.1-0.7c-0.1-0.2-0.2-0.4-0.3-0.6c-0.1-0.2-0.3-0.3-0.5-0.4 c-0.2-0.1-0.5-0.1-0.8-0.1c-0.5,0-0.9,0.1-1.4,0.3c-0.5,0.2-0.9,0.4-1.3,0.7l-0.8-1.5c0.5-0.3,1.1-0.6,1.8-0.9 c0.7-0.3,1.4-0.4,2.2-0.4c1.2,0,2.1,0.4,2.7,1.1c0.6,0.7,0.9,1.8,0.9,3.1v5.7H246l-0.2-1.1h-0.1c-0.4,0.4-0.9,0.7-1.4,0.9 C243.9,123.1,243.3,123.2,242.8,123.2z M243.5,121.5c0.4,0,0.8-0.1,1.1-0.3c0.3-0.2,0.7-0.4,1-0.8v-2.2c-0.7,0.1-1.2,0.2-1.7,0.3 c-0.4,0.1-0.8,0.3-1.1,0.4c-0.3,0.2-0.5,0.4-0.6,0.6c-0.1,0.2-0.2,0.4-0.2,0.7c0,0.4,0.1,0.7,0.4,0.9S243.1,121.5,243.5,121.5z"/>
      <path class="st0" d="M255.9,123v-3.5h-1.4h0l-2.3,3.5h-2.5l2.7-3.9c-0.6-0.2-1-0.6-1.4-1c-0.4-0.4-0.5-1-0.5-1.8 c0-0.6,0.1-1,0.3-1.4c0.2-0.4,0.5-0.7,0.8-0.9c0.3-0.2,0.8-0.4,1.2-0.5c0.5-0.1,1-0.2,1.5-0.2h3.8v9.7H255.9z M254.7,117.9h1.2 V115h-1.2c-0.6,0-1.1,0.1-1.5,0.3c-0.3,0.2-0.5,0.6-0.5,1.1c0,0.5,0.2,0.8,0.5,1.1C253.6,117.8,254,117.9,254.7,117.9z"/>
      <path class="st0" d="M269.2,123.2c-1.5,0-2.7-0.5-3.5-1.6c-0.8-1.1-1.2-2.6-1.2-4.6c0-1.6,0.1-2.8,0.4-3.8c0.3-1,0.7-1.7,1.2-2.3 c0.5-0.6,1.2-1,1.9-1.2c0.7-0.3,1.6-0.4,2.5-0.6c0.3,0,0.5-0.1,0.7-0.1c0.2,0,0.4-0.1,0.6-0.1c0.2,0,0.3-0.1,0.5-0.1 c0.1-0.1,0.3-0.1,0.4-0.2l0.5,2c-0.3,0.2-0.6,0.3-1,0.4s-0.8,0.2-1.2,0.2c-0.7,0.1-1.4,0.2-1.9,0.3c-0.5,0.1-0.9,0.3-1.3,0.5 s-0.6,0.6-0.8,1.1c-0.2,0.5-0.3,1.1-0.4,1.9c0.4-0.5,0.8-0.8,1.4-1c0.5-0.2,1.1-0.4,1.7-0.4c0.5,0,1,0.1,1.5,0.3 c0.5,0.2,0.9,0.5,1.2,0.9c0.3,0.4,0.6,0.9,0.8,1.4c0.2,0.6,0.3,1.2,0.3,1.9c0,0.7-0.1,1.4-0.3,2.1c-0.2,0.6-0.5,1.1-0.9,1.6 s-0.9,0.8-1.4,1C270.4,123.1,269.8,123.2,269.2,123.2z M269.2,121.4c0.6,0,1.1-0.3,1.5-0.9c0.4-0.6,0.6-1.3,0.6-2.3 c0-0.9-0.2-1.6-0.6-2.1c-0.4-0.5-0.9-0.7-1.6-0.7c-0.4,0-0.8,0.1-1.3,0.3c-0.4,0.2-0.8,0.6-1.2,1.1v0.7c0,1.3,0.2,2.2,0.6,2.9 C267.7,121.1,268.3,121.4,269.2,121.4z"/>
      <path class="st0" d="M279.9,123.2c-0.6,0-1.2-0.1-1.7-0.3c-0.6-0.2-1-0.6-1.5-1c-0.4-0.4-0.8-1-1-1.6c-0.3-0.6-0.4-1.3-0.4-2.2 c0-0.8,0.1-1.5,0.4-2.1c0.2-0.6,0.6-1.2,1-1.6s0.9-0.8,1.5-1c0.6-0.2,1.1-0.3,1.7-0.3c0.6,0,1.2,0.1,1.7,0.3c0.6,0.2,1,0.6,1.5,1 c0.4,0.4,0.8,1,1,1.6s0.4,1.3,0.4,2.1c0,0.8-0.1,1.5-0.4,2.2s-0.6,1.2-1,1.6c-0.4,0.4-0.9,0.8-1.5,1 C281.1,123.1,280.5,123.2,279.9,123.2z M279.9,121.4c0.7,0,1.3-0.3,1.7-0.9c0.4-0.6,0.6-1.4,0.6-2.3c0-1-0.2-1.8-0.6-2.4 c-0.4-0.6-1-0.9-1.7-0.9s-1.3,0.3-1.7,0.9c-0.4,0.6-0.6,1.4-0.6,2.4c0,1,0.2,1.8,0.6,2.3C278.6,121.1,279.2,121.4,279.9,121.4z"/>
      <path class="st0" d="M286.5,123.2c-0.4,0-0.7-0.1-1-0.2l0.4-2.1c0.1,0,0.1,0,0.2,0.1c0.1,0,0.2,0,0.3,0c0.3,0,0.6-0.1,0.8-0.4 c0.2-0.3,0.3-0.7,0.4-1.3c0.1-1,0.3-2,0.4-3c0.1-1,0.2-2,0.3-3h6.6v9.7h-2.3v-7.9H290c-0.1,0.8-0.2,1.6-0.3,2.4 c-0.1,0.8-0.2,1.6-0.3,2.4c-0.1,1.1-0.5,1.9-0.9,2.5C288,123,287.3,123.2,286.5,123.2z"/>
      <path class="st0" d="M297.6,123v-9.7h2.3v3.3h1.5c0.6,0,1.1,0.1,1.6,0.2c0.5,0.1,0.9,0.3,1.3,0.6c0.4,0.2,0.6,0.6,0.8,1 s0.3,0.9,0.3,1.5c0,0.6-0.1,1.1-0.3,1.5c-0.2,0.4-0.5,0.7-0.8,1c-0.4,0.3-0.8,0.4-1.3,0.6c-0.5,0.1-1,0.2-1.6,0.2H297.6z M299.9,121.2h1.3c1.3,0,2-0.5,2-1.5c0-0.9-0.7-1.4-2-1.4h-1.3V121.2z"/>
      <path class="st0" d="M307.6,123v-9.7h2.3v3.7h3.9v-3.7h2.3v9.7h-2.3v-4h-3.9v4H307.6z"/>
      <path class="st0" d="M318.8,123v-9.7h2.2v3.3c0,0.5,0,1.1-0.1,1.7c0,0.6-0.1,1.2-0.1,1.8h0.1c0.2-0.3,0.4-0.6,0.6-1 c0.2-0.4,0.4-0.7,0.6-1l3.1-4.8h2.1v9.7h-2.2v-3.3c0-0.5,0-1.1,0.1-1.7c0-0.6,0.1-1.2,0.1-1.8h-0.1c-0.2,0.3-0.4,0.6-0.6,1 c-0.2,0.4-0.4,0.7-0.6,1l-3.1,4.8H318.8z"/>
      <path class="st0" d="M330.2,123v-9.7h2.3v7.9h3.6v-7.9h2.3v7.9h1.5v1.5l-0.2,3.7h-2V123H330.2z"/>
      <path class="st0" d="M344,123.2c-0.9,0-1.5-0.3-2.1-0.8c-0.5-0.5-0.8-1.2-0.8-2.1c0-0.5,0.1-1,0.3-1.4c0.2-0.4,0.6-0.7,1-1 c0.5-0.3,1.1-0.5,1.8-0.7c0.7-0.2,1.6-0.3,2.6-0.5c0-0.2,0-0.5-0.1-0.7c-0.1-0.2-0.2-0.4-0.3-0.6c-0.1-0.2-0.3-0.3-0.5-0.4 c-0.2-0.1-0.5-0.1-0.8-0.1c-0.5,0-0.9,0.1-1.4,0.3c-0.5,0.2-0.9,0.4-1.3,0.7l-0.8-1.5c0.5-0.3,1.1-0.6,1.8-0.9 c0.7-0.3,1.4-0.4,2.2-0.4c1.2,0,2.1,0.4,2.7,1.1c0.6,0.7,0.9,1.8,0.9,3.1v5.7h-1.9l-0.2-1.1H347c-0.4,0.4-0.9,0.7-1.4,0.9 C345.1,123.1,344.6,123.2,344,123.2z M344.7,121.5c0.4,0,0.8-0.1,1.1-0.3c0.3-0.2,0.7-0.4,1-0.8v-2.2c-0.7,0.1-1.2,0.2-1.7,0.3 c-0.4,0.1-0.8,0.3-1.1,0.4c-0.3,0.2-0.5,0.4-0.6,0.6c-0.1,0.2-0.2,0.4-0.2,0.7c0,0.4,0.1,0.7,0.4,0.9 C344,121.4,344.3,121.5,344.7,121.5z"/>
      <path class="st0" d="M145.6,146.7V137h2.2v3.3c0,0.5,0,1.1-0.1,1.7c0,0.6-0.1,1.2-0.1,1.8h0.1c0.2-0.3,0.4-0.6,0.6-1 c0.2-0.4,0.4-0.7,0.6-1l3.1-4.8h2.1v9.7h-2.2v-3.3c0-0.5,0-1.1,0.1-1.7c0-0.6,0.1-1.2,0.1-1.8H152c-0.2,0.3-0.4,0.6-0.6,1 c-0.2,0.4-0.4,0.7-0.6,1l-3.1,4.8H145.6z"/>
      <path class="st0" d="M156.9,146.7V137h2.6l1.6,3.9c0.1,0.4,0.3,0.8,0.4,1.2c0.1,0.4,0.2,0.7,0.4,1.1h0.1c0.1-0.4,0.3-0.7,0.4-1.1 c0.1-0.4,0.3-0.8,0.4-1.2l1.5-3.9h2.6v9.7h-2.1v-3.4c0-0.2,0-0.5,0-0.8c0-0.3,0-0.7,0.1-1c0-0.3,0.1-0.7,0.1-1 c0-0.3,0.1-0.6,0.1-0.9h-0.1c-0.1,0.4-0.3,0.8-0.5,1.3c-0.2,0.4-0.3,0.9-0.5,1.2l-1.5,3.8h-1.3l-1.5-3.8c-0.1-0.4-0.3-0.8-0.5-1.2 c-0.2-0.4-0.3-0.9-0.5-1.3h-0.1c0,0.3,0,0.6,0.1,0.9c0,0.3,0.1,0.7,0.1,1c0,0.3,0,0.7,0.1,1c0,0.3,0,0.6,0,0.8v3.4H156.9z"/>
      <path class="st0" d="M171,146.9c-0.4,0-0.8-0.1-1.1-0.4c-0.3-0.3-0.4-0.7-0.4-1.1c0-0.4,0.1-0.8,0.4-1.1c0.3-0.3,0.6-0.4,1.1-0.4 c0.4,0,0.8,0.1,1,0.4c0.3,0.3,0.4,0.7,0.4,1.1c0,0.4-0.1,0.8-0.4,1.1S171.4,146.9,171,146.9z"/>
      <path class="st0" d="M184.4,146.9c-0.8,0-1.6-0.1-2.3-0.4c-0.7-0.3-1.3-0.7-1.8-1.3c-0.5-0.6-0.9-1.3-1.2-2.1 c-0.3-0.8-0.5-1.8-0.5-2.8c0-1.1,0.2-2,0.5-2.8c0.3-0.8,0.7-1.5,1.3-2.1c0.5-0.6,1.2-1,1.9-1.3c0.7-0.3,1.5-0.5,2.3-0.5 c0.8,0,1.5,0.2,2.2,0.5c0.6,0.3,1.2,0.7,1.6,1.1l-1.2,1.5c-0.3-0.3-0.7-0.6-1.1-0.8c-0.4-0.2-0.8-0.3-1.3-0.3 c-0.5,0-1,0.1-1.5,0.3c-0.4,0.2-0.8,0.5-1.1,0.9c-0.3,0.4-0.6,0.9-0.8,1.5c-0.2,0.6-0.3,1.2-0.3,2c0,1.5,0.3,2.6,1,3.5 c0.6,0.8,1.5,1.3,2.6,1.3c0.6,0,1.1-0.1,1.5-0.4c0.4-0.2,0.9-0.6,1.2-1l1.2,1.4c-0.5,0.6-1.1,1.1-1.8,1.4S185.2,146.9,184.4,146.9 z"/>
      <path class="st0" d="M191.7,146.9c-0.4,0-0.8-0.1-1.1-0.4c-0.3-0.3-0.4-0.7-0.4-1.1c0-0.4,0.1-0.8,0.4-1.1 c0.3-0.3,0.6-0.4,1.1-0.4s0.8,0.1,1,0.4c0.3,0.3,0.4,0.7,0.4,1.1c0,0.4-0.1,0.8-0.4,1.1C192.5,146.8,192.1,146.9,191.7,146.9z"/>
      <path class="st0" d="M196,146.7v-12.9h2.3v5.6c0,0.7,0,1.5-0.1,2.2c-0.1,0.8-0.1,1.5-0.2,2.2h0.1l1.3-2.7l4-7.3h2.4v12.9h-2.3V141 c0-0.7,0-1.5,0.1-2.2c0.1-0.7,0.1-1.5,0.2-2.1h-0.1l-1.3,2.7l-4.1,7.3H196z"/>
      <path class="st0" d="M210.3,146.9c-0.4,0-0.8-0.1-1.1-0.4c-0.3-0.3-0.4-0.7-0.4-1.1c0-0.4,0.1-0.8,0.4-1.1 c0.3-0.3,0.6-0.4,1.1-0.4c0.4,0,0.8,0.1,1,0.4c0.3,0.3,0.4,0.7,0.4,1.1c0,0.4-0.1,0.8-0.4,1.1C211,146.8,210.7,146.9,210.3,146.9z "/>
      <path class="st0" d="M223.7,146.9c-0.8,0-1.6-0.1-2.3-0.4c-0.7-0.3-1.3-0.7-1.8-1.3c-0.5-0.6-0.9-1.3-1.2-2.1 c-0.3-0.8-0.5-1.8-0.5-2.8c0-1.1,0.2-2,0.5-2.8c0.3-0.8,0.7-1.5,1.3-2.1c0.5-0.6,1.2-1,1.9-1.3c0.7-0.3,1.5-0.5,2.3-0.5 c0.8,0,1.5,0.2,2.2,0.5c0.6,0.3,1.2,0.7,1.6,1.1l-1.2,1.5c-0.3-0.3-0.7-0.6-1.1-0.8c-0.4-0.2-0.8-0.3-1.3-0.3 c-0.5,0-1,0.1-1.5,0.3c-0.4,0.2-0.8,0.5-1.1,0.9c-0.3,0.4-0.6,0.9-0.8,1.5c-0.2,0.6-0.3,1.2-0.3,2c0,1.5,0.3,2.6,1,3.5 c0.6,0.8,1.5,1.3,2.6,1.3c0.6,0,1.1-0.1,1.5-0.4c0.4-0.2,0.9-0.6,1.2-1l1.2,1.4c-0.5,0.6-1.1,1.1-1.8,1.4S224.5,146.9,223.7,146.9 z"/>
      <path class="st0" d="M229.7,146.7V137h8.2v9.7h-2.3v-7.9H232v7.9H229.7z"/>
      <path class="st0" d="M243.2,146.9c-0.9,0-1.5-0.3-2.1-0.8c-0.5-0.5-0.8-1.2-0.8-2.1c0-0.5,0.1-1,0.3-1.4c0.2-0.4,0.6-0.7,1-1 c0.5-0.3,1.1-0.5,1.8-0.7c0.7-0.2,1.6-0.3,2.6-0.5c0-0.3,0-0.5-0.1-0.7c-0.1-0.2-0.2-0.4-0.3-0.6c-0.1-0.2-0.3-0.3-0.5-0.4 s-0.5-0.1-0.8-0.1c-0.5,0-0.9,0.1-1.4,0.3c-0.5,0.2-0.9,0.4-1.3,0.7l-0.8-1.5c0.5-0.3,1.1-0.6,1.8-0.9c0.7-0.2,1.4-0.4,2.2-0.4 c1.2,0,2.1,0.4,2.7,1.1c0.6,0.7,0.9,1.8,0.9,3.1v5.7h-1.9l-0.2-1.1h-0.1c-0.4,0.4-0.9,0.7-1.4,0.9S243.8,146.9,243.2,146.9z M243.9,145.1c0.4,0,0.8-0.1,1.1-0.3c0.3-0.2,0.7-0.4,1-0.8v-2.2c-0.7,0.1-1.2,0.2-1.7,0.3c-0.4,0.1-0.8,0.3-1.1,0.4 c-0.3,0.2-0.5,0.4-0.6,0.6c-0.1,0.2-0.2,0.4-0.2,0.7c0,0.4,0.1,0.8,0.4,0.9S243.5,145.1,243.9,145.1z"/>
      <path class="st0" d="M255.1,146.9c-0.7,0-1.3-0.1-1.8-0.3c-0.6-0.2-1.1-0.6-1.5-1c-0.4-0.4-0.8-1-1-1.6c-0.2-0.6-0.4-1.3-0.4-2.1 s0.1-1.5,0.4-2.2c0.3-0.6,0.6-1.2,1.1-1.6s1-0.8,1.5-1c0.6-0.2,1.2-0.3,1.8-0.3c0.6,0,1.2,0.1,1.6,0.3c0.5,0.2,0.9,0.5,1.2,0.8 l-1.1,1.5c-0.3-0.2-0.5-0.4-0.8-0.5c-0.3-0.1-0.5-0.2-0.8-0.2c-0.8,0-1.4,0.3-1.9,0.9c-0.5,0.6-0.7,1.4-0.7,2.4 c0,1,0.2,1.8,0.7,2.3c0.5,0.6,1.1,0.9,1.9,0.9c0.4,0,0.7-0.1,1.1-0.2s0.6-0.4,0.9-0.6l0.9,1.5c-0.5,0.4-1,0.7-1.5,0.9 C256.2,146.8,255.6,146.9,255.1,146.9z"/>
      <path class="st0" d="M263.6,146.9c-0.6,0-1.2-0.1-1.7-0.3c-0.6-0.2-1-0.6-1.5-1s-0.8-1-1-1.6c-0.3-0.6-0.4-1.3-0.4-2.1 s0.1-1.5,0.4-2.2c0.2-0.6,0.6-1.2,1-1.6s0.9-0.8,1.5-1c0.6-0.2,1.1-0.3,1.7-0.3c0.6,0,1.2,0.1,1.7,0.3c0.6,0.2,1,0.6,1.5,1 c0.4,0.4,0.8,1,1,1.6s0.4,1.3,0.4,2.2s-0.1,1.5-0.4,2.1s-0.6,1.2-1,1.6c-0.4,0.4-0.9,0.8-1.5,1 C264.8,146.8,264.2,146.9,263.6,146.9z M263.6,145.1c0.7,0,1.3-0.3,1.7-0.9c0.4-0.6,0.6-1.4,0.6-2.3c0-1-0.2-1.8-0.6-2.4 c-0.4-0.6-1-0.9-1.7-0.9s-1.3,0.3-1.7,0.9c-0.4,0.6-0.6,1.4-0.6,2.4c0,1,0.2,1.8,0.6,2.3C262.4,144.8,262.9,145.1,263.6,145.1z"/>
      <path class="st0" d="M270.5,146.7V137h2.3v3.8h1.4l0.9-2c0.2-0.4,0.4-0.8,0.6-1c0.2-0.3,0.4-0.5,0.6-0.6c0.2-0.2,0.5-0.3,0.7-0.3 c0.3-0.1,0.5-0.1,0.8-0.1c0.3,0,0.5,0,0.7,0.1l-0.4,2.1c-0.1,0-0.2-0.1-0.4-0.1c-0.2,0-0.5,0.1-0.7,0.2c-0.2,0.1-0.4,0.5-0.6,0.9 l-0.7,1.5l3.3,5.1h-2.5l-2.4-4.1h-1.5v4.1H270.5z"/>
      <path class="st0" d="M281.1,150.7c-0.3,0-0.5,0-0.7,0c-0.2,0-0.4-0.1-0.6-0.1l0.4-1.8c0.1,0,0.2,0.1,0.3,0.1c0.1,0,0.2,0,0.4,0 c0.5,0,0.9-0.2,1.2-0.5c0.3-0.3,0.5-0.7,0.7-1.2l0.2-0.6l-3.8-9.6h2.3l1.7,4.8c0.1,0.4,0.3,0.9,0.4,1.3c0.1,0.5,0.3,0.9,0.4,1.4 h0.1c0.1-0.4,0.2-0.9,0.4-1.4s0.2-0.9,0.4-1.4l1.5-4.8h2.2l-3.5,10.1c-0.2,0.6-0.4,1-0.7,1.5c-0.2,0.4-0.5,0.8-0.8,1.1 c-0.3,0.3-0.7,0.5-1.1,0.7C282.1,150.6,281.7,150.7,281.1,150.7z"/>
      <path class="st0" d="M290.2,146.7V137h2.3v3.8h1.4l0.9-2c0.2-0.4,0.4-0.8,0.6-1c0.2-0.3,0.4-0.5,0.6-0.6c0.2-0.2,0.5-0.3,0.7-0.3 c0.3-0.1,0.5-0.1,0.8-0.1c0.3,0,0.5,0,0.7,0.1L298,139c-0.1,0-0.2-0.1-0.4-0.1c-0.2,0-0.5,0.1-0.7,0.2c-0.2,0.1-0.4,0.5-0.6,0.9 l-0.7,1.5l3.3,5.1h-2.5l-2.4-4.1h-1.5v4.1H290.2z"/>
      <path class="st0" d="M304.1,146.9c-0.6,0-1.2-0.1-1.7-0.3c-0.6-0.2-1-0.6-1.5-1c-0.4-0.4-0.8-1-1-1.6c-0.3-0.6-0.4-1.3-0.4-2.1 s0.1-1.5,0.4-2.2c0.2-0.6,0.6-1.2,1-1.6c0.4-0.4,0.9-0.8,1.5-1c0.6-0.2,1.1-0.3,1.7-0.3c0.6,0,1.2,0.1,1.7,0.3 c0.6,0.2,1,0.6,1.5,1c0.4,0.4,0.8,1,1,1.6c0.3,0.6,0.4,1.3,0.4,2.2s-0.1,1.5-0.4,2.1c-0.3,0.6-0.6,1.2-1,1.6 c-0.4,0.4-0.9,0.8-1.5,1C305.3,146.8,304.7,146.9,304.1,146.9z M304.1,145.1c0.7,0,1.3-0.3,1.7-0.9c0.4-0.6,0.6-1.4,0.6-2.3 c0-1-0.2-1.8-0.6-2.4c-0.4-0.6-1-0.9-1.7-0.9s-1.3,0.3-1.7,0.9c-0.4,0.6-0.6,1.4-0.6,2.4c0,1,0.2,1.8,0.6,2.3 C302.8,144.8,303.4,145.1,304.1,145.1z"/>
      <path class="st0" d="M310.9,146.7V137h2.3v7.9h3.6V137h2.3v7.9h1.5v1.5l-0.2,3.7h-2v-3.4H310.9z"/>
      <path class="st0" d="M322.3,146.7V137h2.3v3.8h1.4l0.9-2c0.2-0.4,0.4-0.8,0.6-1c0.2-0.3,0.4-0.5,0.6-0.6c0.2-0.2,0.5-0.3,0.7-0.3 c0.3-0.1,0.5-0.1,0.8-0.1c0.3,0,0.5,0,0.7,0.1L330,139c-0.1,0-0.2-0.1-0.4-0.1c-0.2,0-0.5,0.1-0.7,0.2c-0.2,0.1-0.4,0.5-0.6,0.9 l-0.7,1.5l3.3,5.1h-2.5l-2.4-4.1h-1.5v4.1H322.3z"/>
      <path class="st0" d="M336.1,146.9c-0.6,0-1.2-0.1-1.7-0.3c-0.6-0.2-1-0.6-1.5-1c-0.4-0.4-0.8-1-1-1.6c-0.2-0.6-0.4-1.3-0.4-2.1 s0.1-1.5,0.4-2.2c0.3-0.6,0.6-1.2,1-1.6c0.4-0.4,0.9-0.8,1.5-1c0.6-0.2,1.1-0.3,1.7-0.3c0.6,0,1.2,0.1,1.7,0.3 c0.6,0.2,1,0.6,1.5,1c0.4,0.4,0.8,1,1,1.6c0.3,0.6,0.4,1.3,0.4,2.2s-0.1,1.5-0.4,2.1c-0.3,0.6-0.6,1.2-1,1.6 c-0.4,0.4-0.9,0.8-1.5,1S336.7,146.9,336.1,146.9z M336.1,145.1c0.7,0,1.3-0.3,1.7-0.9c0.4-0.6,0.6-1.4,0.6-2.3 c0-1-0.2-1.8-0.6-2.4c-0.4-0.6-1-0.9-1.7-0.9c-0.7,0-1.3,0.3-1.7,0.9c-0.4,0.6-0.6,1.4-0.6,2.4c0,1,0.2,1.8,0.6,2.3 C334.8,144.8,335.4,145.1,336.1,145.1z"/>
      <path class="st0" d="M343,146.7V137h6.4v1.8h-4.1v7.9H343z"/>
      <path class="st0" d="M354.5,146.9c-0.6,0-1.2-0.1-1.7-0.3c-0.6-0.2-1-0.6-1.5-1c-0.4-0.4-0.8-1-1-1.6c-0.3-0.6-0.4-1.3-0.4-2.1 s0.1-1.5,0.4-2.2c0.2-0.6,0.6-1.2,1-1.6c0.4-0.4,0.9-0.8,1.5-1c0.6-0.2,1.1-0.3,1.7-0.3c0.6,0,1.2,0.1,1.7,0.3 c0.6,0.2,1,0.6,1.5,1c0.4,0.4,0.8,1,1,1.6s0.4,1.3,0.4,2.2s-0.1,1.5-0.4,2.1s-0.6,1.2-1,1.6c-0.4,0.4-0.9,0.8-1.5,1 C355.7,146.8,355.1,146.9,354.5,146.9z M354.5,145.1c0.7,0,1.3-0.3,1.7-0.9c0.4-0.6,0.6-1.4,0.6-2.3c0-1-0.2-1.8-0.6-2.4 c-0.4-0.6-1-0.9-1.7-0.9s-1.3,0.3-1.7,0.9c-0.4,0.6-0.6,1.4-0.6,2.4c0,1,0.2,1.8,0.6,2.3C353.2,144.8,353.8,145.1,354.5,145.1z"/>
    </g>
    <path class="st1" d="M52.5,44.4v29.7H22.9c-1.7,0-3.3,1.4-3.8,2.6c-0.2,0.5-0.4,1-0.4,1.8v29.8c0,1.2,0.8,2.7,1.5,3.2 c0.9,0.8,1.8,1.3,3.5,1.3h22.5c2.9,0,6.1-1.1,7.9-3.2c1.3-1.5,4.5-7.4,6.6-10.2c0.8-1.1,3.8-5.1,4.9-6.2c0.5-0.5,0.8-1,1.3-1.4 l4.2-4.2c0.7-0.6,2-1.9,2.9-2.6c2.4-1.9,3.4-2.9,6.4-4.9c4.1-2.7,6.7-3.6,8.8-7.9c0.5-1,1.2-3,1.2-4.5V43.6c0-1.9-1.9-4.3-4.5-4.3 H57.1C54.3,39.3,52.5,41.7,52.5,44.4"/>
    <g>
      <path class="st2" d="M124,84.7c0,1.8-0.2,3.1-1,4.7c-0.9,1.7-2.5,3-4.1,4c-3.9,2.4-7.9,2.3-12.3,2.7l-3.3,0.2 c-0.6,0.1-2.6-0.1-3.1-0.2c-0.3-0.1-0.6-0.2-0.9-0.3c-0.3-0.2-0.4-0.3-0.4-0.8c0.4-0.1,0.3-0.1,0.7-0.3c1.3-0.5,3.2-0.4,4.5-0.4 l3.9-0.1c1.7,0,3.8-0.3,5.4-0.6c2-0.4,4.2-1.3,5.7-2.3c0.6-0.4,1.1-0.8,1.6-1.3c1.2-1.4,1.7-2.3,1.7-4.3c0-0.5-0.2-1.1-0.3-1.5 c-1.1-2.7-4.5-2.2-6.8-1.9c-0.9,0.1-1.9,0.1-2.6,0.2c-2.2,0.3-4.2,0.4-6.4,0.4c-1.8,0-5.8-1-7.7-1.5c-1.2-0.3-2.5-0.6-3.7-0.9 c-2.4-0.6-3.4-0.7-5.9-0.7c-1.5,0-3,0.9-4,1.5c-2.4,1.6-5.8,4-7.9,6c-1.4,1.3-2.8,2.6-4.2,4.1c-0.5,0.5-0.9,0.9-1.4,1.4 c-1.6,1.7-3.7,4.2-5.1,6c-0.4,0.6-0.8,1-1.2,1.6c-0.4,0.5-0.8,1-1.2,1.5l-4.7,6.4c-0.4,0.5-0.8,1.1-1.2,1.6l-2.3,3.3 c-0.8,1.1-1.3,2.4-1.9,3.7c-0.3,0.7-0.5,1.3-0.8,2c-1.4,3.6-1.7,8-1.7,12.3c0,1.6,0.1,2.9,0.1,4.3c0,3.4-0.7,7.4,1.4,10.2 c0.9,1.2,2.7,2,4.8,2h26.2c3.5,0,6.1-2.5,6.1-6v-24.3c-1.7,0-2.9,0.9-3.7,2.2c-1.7,2.5-1.5,5-1.5,8.5c0,1.1,0.1,13,0,13.8 c-0.1,0.5-0.6,0.8-1.3,0.8H58.1c-1.7,0-1.3-1.7-1.3-3.4c0-1.5,0-3.1,0-4.6c0-4-0.6-8.9,1.2-12.6c1-2,2.6-3.6,4.5-4.8 c0.5-0.3,1-0.5,1.5-0.8l1.7-0.7c1.1-0.4,2.3-0.7,3.7-1c1.4-0.3,2.8-0.3,4.2-0.5c1.3-0.2,5.4-0.2,6.6-0.3c0.8-0.1,1.4-0.1,2.2-0.2 c5.5-1.1,3.1-6.3,11.2-7.4c4-0.6,8.1-1.1,12.1-1.8c1.3-0.2,2.7-0.4,3.9-0.8c1.8-0.5,3.4-1.1,5-1.9c0.6-0.3,1-0.5,1.5-0.8 c3-1.5,5.9-3.4,8.5-5.5c0.8-0.7,1.8-1.3,2.5-2.1l2.4-2.3c1.2-1.2,2.2-2.5,3.4-3.7l2.1-2.5c1.9-2.2,4.1-4.7,4.1-8.1 c0-1.1-0.7-2.7-2-2.7c-1.9,0-3.3,0.9-4.7,1.9c-2.3,1.6-4.3,3.6-6.5,5.3c-0.5,0.4-1.1,0.9-1.6,1.4c-0.4,0.4-0.6,0.3-0.5,0.8 C123.9,83.9,124,84,124,84.7"/>
      <path class="st2" d="M93.7,59c0,1.6,0.2,2.7,0.9,4.1c1.6,3.2,4.1,5.9,6.6,8.5l1.2,1c1.3,1.3,3.2,3,4.5,4c2.7,2,2.2,2.2,3.5,1.2 c1.6-1.3,4.7-3.8,6.2-5.3c3.2-3.3,6.9-6.7,8.3-11.3c0.6-1.8,0.2-3.9-0.5-5.5c-0.3-0.8-1.4-2.4-2-2.8c-2.2-1.7-3.3-2.5-6.7-2.5 c-1.2,0-2.9,0.5-3.7,1c-0.6,0.3-0.9,0.5-1.4,0.9c-0.5,0.4-0.7,0.7-1.3,1c-0.9-1.3-4.1-2.9-6.2-2.9c-1.7,0-2.8,0.1-4.2,0.8 c-1.1,0.5-1.7,1-2.5,1.8c-0.8,0.8-1.3,1.4-1.8,2.5C94.2,56.5,93.7,57.7,93.7,59"/>
    </g>
  </g>
</svg>