<svg height="90" viewBox="0 0 100 90" width="100" xmlns="http://www.w3.org/2000/svg"><g clip-rule="evenodd" fill-rule="evenodd" transform="matrix(.830565 0 0 .830565 -15.531534 -32.641136)"><path d="m52.5 44.4v29.7h-29.6c-1.7 0-3.3 1.4-3.8 2.6-.2.5-.4 1-.4 1.8v29.8c0 1.2.8 2.7 1.5 3.2.9.8 1.8 1.3 3.5 1.3h22.5c2.9 0 6.1-1.1 7.9-3.2 1.3-1.5 4.5-7.4 6.6-10.2.8-1.1 3.8-5.1 4.9-6.2.5-.5.8-1 1.3-1.4l4.2-4.2c.7-.6 2-1.9 2.9-2.6 2.4-1.9 3.4-2.9 6.4-4.9 4.1-2.7 6.7-3.6 8.8-7.9.5-1 1.2-3 1.2-4.5v-24.1c0-1.9-1.9-4.3-4.5-4.3h-28.8c-2.8 0-4.6 2.4-4.6 5.1" fill="#6eaadc"/><g fill="#e44c4c"><path d="m124 84.7c0 1.8-.2 3.1-1 4.7-.9 1.7-2.5 3-4.1 4-3.9 2.4-7.9 2.3-12.3 2.7l-3.3.2c-.6.1-2.6-.1-3.1-.2-.3-.1-.6-.2-.9-.3-.3-.2-.4-.3-.4-.8.4-.1.3-.1.7-.3 1.3-.5 3.2-.4 4.5-.4l3.9-.1c1.7 0 3.8-.3 5.4-.6 2-.4 4.2-1.3 5.7-2.3.6-.4 1.1-.8 1.6-1.3 1.2-1.4 1.7-2.3 1.7-4.3 0-.5-.2-1.1-.3-1.5-1.1-2.7-4.5-2.2-6.8-1.9-.9.1-1.9.1-2.6.2-2.2.3-4.2.4-6.4.4-1.8 0-5.8-1-7.7-1.5-1.2-.3-2.5-.6-3.7-.9-2.4-.6-3.4-.7-5.9-.7-1.5 0-3 .9-4 1.5-2.4 1.6-5.8 4-7.9 6-1.4 1.3-2.8 2.6-4.2 4.1-.5.5-.9.9-1.4 1.4-1.6 1.7-3.7 4.2-5.1 6-.4.6-.8 1-1.2 1.6-.4.5-.8 1-1.2 1.5l-4.7 6.4c-.4.5-.8 1.1-1.2 1.6l-2.3 3.3c-.8 1.1-1.3 2.4-1.9 3.7-.3.7-.5 1.3-.8 2-1.4 3.6-1.7 8-1.7 12.3 0 1.6.1 2.9.1 4.3 0 3.4-.7 7.4 1.4 10.2.9 1.2 2.7 2 4.8 2h26.2c3.5 0 6.1-2.5 6.1-6v-24.3c-1.7 0-2.9.9-3.7 2.2-1.7 2.5-1.5 5-1.5 8.5 0 1.1.1 13 0 13.8-.1.5-.6.8-1.3.8h-25.4c-1.7 0-1.3-1.7-1.3-3.4 0-1.5 0-3.1 0-4.6 0-4-.6-8.9 1.2-12.6 1-2 2.6-3.6 4.5-4.8.5-.3 1-.5 1.5-.8l1.7-.7c1.1-.4 2.3-.7 3.7-1s2.8-.3 4.2-.5c1.3-.2 5.4-.2 6.6-.3.8-.1 1.4-.1 2.2-.2 5.5-1.1 3.1-6.3 11.2-7.4 4-.6 8.1-1.1 12.1-1.8 1.3-.2 2.7-.4 3.9-.8 1.8-.5 3.4-1.1 5-1.9.6-.3 1-.5 1.5-.8 3-1.5 5.9-3.4 8.5-5.5.8-.7 1.8-1.3 2.5-2.1l2.4-2.3c1.2-1.2 2.2-2.5 3.4-3.7l2.1-2.5c1.9-2.2 4.1-4.7 4.1-8.1 0-1.1-.7-2.7-2-2.7-1.9 0-3.3.9-4.7 1.9-2.3 1.6-4.3 3.6-6.5 5.3-.5.4-1.1.9-1.6 1.4-.4.4-.6.3-.5.8.1.3.2.4.2 1.1"/><path d="m93.7 59c0 1.6.2 2.7.9 4.1 1.6 3.2 4.1 5.9 6.6 8.5l1.2 1c1.3 1.3 3.2 3 4.5 4 2.7 2 2.2 2.2 3.5 1.2 1.6-1.3 4.7-3.8 6.2-5.3 3.2-3.3 6.9-6.7 8.3-11.3.6-1.8.2-3.9-.5-5.5-.3-.8-1.4-2.4-2-2.8-2.2-1.7-3.3-2.5-6.7-2.5-1.2 0-2.9.5-3.7 1-.6.3-.9.5-1.4.9s-.7.7-1.3 1c-.9-1.3-4.1-2.9-6.2-2.9-1.7 0-2.8.1-4.2.8-1.1.5-1.7 1-2.5 1.8s-1.3 1.4-1.8 2.5c-.4 1-.9 2.2-.9 3.5"/></g></g></svg>