<svg width="40" height="40" viewBox="0 0 40 40" fill="none" xmlns="http://www.w3.org/2000/svg">
<path d="M6.66732 3.33337H20.0006C20.8847 3.33337 21.7326 3.68456 22.3577 4.30968C22.9828 4.93481 23.334 5.78265 23.334 6.66671V36.6667H6.66732C5.78326 36.6667 4.93542 36.3155 4.31029 35.6904C3.68517 35.0653 3.33398 34.2174 3.33398 33.3334V6.66671C3.33398 5.78265 3.68517 4.93481 4.31029 4.30968C4.93542 3.68456 5.78326 3.33337 6.66732 3.33337V3.33337Z" stroke="#ADCCEA" stroke-width="3" stroke-linecap="round" stroke-linejoin="round"/>
<path d="M23.334 16.6667H33.334C34.218 16.6667 35.0659 17.0179 35.691 17.6431C36.3161 18.2682 36.6673 19.116 36.6673 20.0001V33.3334C36.6673 34.2175 36.3161 35.0653 35.691 35.6904C35.0659 36.3156 34.218 36.6668 33.334 36.6668H23.334" stroke="#ADCCEA" stroke-width="3" stroke-linecap="round" stroke-linejoin="round"/>
<path d="M8.33398 10H10.0007" stroke="#ADCCEA" stroke-width="3" stroke-linecap="round" stroke-linejoin="round"/>
<path d="M15 10H18.3333" stroke="#ADCCEA" stroke-width="3" stroke-linecap="round" stroke-linejoin="round"/>
<path d="M8.33398 16.6667H10.0007" stroke="#ADCCEA" stroke-width="3" stroke-linecap="round" stroke-linejoin="round"/>
<path d="M15 16.6667H18.3333" stroke="#ADCCEA" stroke-width="3" stroke-linecap="round" stroke-linejoin="round"/>
<path d="M8.33398 23.3334H10.0007" stroke="#ADCCEA" stroke-width="3" stroke-linecap="round" stroke-linejoin="round"/>
<path d="M15 23.3334H18.3333" stroke="#ADCCEA" stroke-width="3" stroke-linecap="round" stroke-linejoin="round"/>
<path d="M8.33398 30H10.0007" stroke="#ADCCEA" stroke-width="3" stroke-linecap="round" stroke-linejoin="round"/>
<path d="M15 30H18.3333" stroke="#ADCCEA" stroke-width="3" stroke-linecap="round" stroke-linejoin="round"/>
<path d="M28.334 23.3334H31.6673" stroke="#ADCCEA" stroke-width="3" stroke-linecap="round" stroke-linejoin="round"/>
<path d="M28.334 30H31.6673" stroke="#ADCCEA" stroke-width="3" stroke-linecap="round" stroke-linejoin="round"/>
</svg>
