<svg fill="none" height="63" viewBox="0 0 67 63" width="67" xmlns="http://www.w3.org/2000/svg"><g fill="#adccea"><path d="m64.8487 57.8219c-.2881 0-.5763 0-.8645-.2877l-18.1543-10.3561h-25.3585c-.5764 0-1.1527-.2877-1.4409-.8631l-18.730659-28.7671c-.57633-.863-.288165-2.0137.576329-2.589.86449-.5754 2.01715-.2877 2.30532.5753l18.15441 27.9041h24.7821c.2882 0 .5764 0 .8645.2877l18.4426 10.6438c.8645.5754 1.1526 1.4384.5763 2.3014 0 .5754-.5763 1.1507-1.1527 1.1507z"/><path d="m38.0503 62.7124h-10.9503c-.8645 0-1.4408-.5753-1.4408-1.4383v-15.8219c0-.8631.5763-1.4384 1.4408-1.4384h10.9503c.8645 0 1.4408.5753 1.4408 1.4384v15.8219c.2882.5753-.5763 1.4383-1.4408 1.4383zm-9.5095-2.8767h8.0686v-12.9452h-8.0686z"/><path d="m44.9652 62.9999h-24.494c-.8645 0-1.729-.863-1.729-1.726s.8645-1.726 1.729-1.726h24.494c.8645 0 1.729.863 1.729 1.726s-.8645 1.726-1.729 1.726z"/><path d="m61.1025 46.0274c-.8645 0-1.729-.2877-2.5935-.5754l-10.374-6.0411h-21.036c-1.729 0-3.458-.863-4.3224-2.3013l-8.9332-14.0959c-1.7289-2.3014-.8644-5.4658 1.4409-7.1918 2.3053-1.4384 5.7633-.863 7.2041 1.4384l7.4923 11.5068h19.5952c.8645 0 1.729.2877 2.5934.5753l11.5266 6.6165c1.1527.5753 2.0172 1.726 2.3053 3.1644.2882 1.4383.2882 2.589-.5763 4.0274-.8645 1.726-2.5935 2.8767-4.3224 2.8767zm-42.9366-27.9041c-.5763 0-.8645 0-1.1526.2876-1.1527.5754-1.4409 2.0137-.8645 3.1644l8.9331 13.8082c.2881.5754 1.1526 1.1507 2.0171 1.1507h21.3242c.2882 0 .5763 0 .8645.2877l10.6621 6.3288c1.1526.5753 2.5935.2876 3.1698-.863.2882-.5754.2882-1.1507.2882-1.7261-.2882-.5753-.5764-1.1507-1.1527-1.4383l-11.5266-6.6165c-.2881-.2876-.8645-.2876-1.1526-.2876h-20.1716c-.5763 0-.8645-.2877-1.1526-.5754l-8.3568-12.6575c-.2882-.5754-1.1527-.863-1.729-.863z"/><path d="m10.6738 14.3836c-3.74618 0-6.91599-3.1644-6.91599-7.19182 0-4.0274 3.16981-7.19178 6.91599-7.19178 3.7461 0 6.9159 3.16438 6.9159 7.19178 0 4.02742-3.1698 7.19182-6.9159 7.19182zm0-11.50689c-2.01719 0-4.03434 2.0137-4.03434 4.31507s2.01715 4.31502 4.03434 4.31502c2.0171 0 3.7461-2.01365 3.7461-4.31502s-1.729-4.31507-3.7461-4.31507z"/></g></svg>