<svg enable-background="new 0 0 70 70" viewBox="0 0 70 70" xmlns="http://www.w3.org/2000/svg"><path d="m63.7 43.7h-26.66v-16.66h19.99c3.68 0 6.67 2.99 6.67 6.67zm-6.67-21.66h-23.33c-.92 0-1.66.74-1.66 1.67v20h-25v-26.67c0-.92-.74-1.67-1.67-1.67h-1.66c-.92 0-1.67.75-1.67 1.67v36.66c0 .92.75 1.67 1.67 1.67h1.67c.92 0 1.67-.75 1.67-1.67v-5h56.65v5c0 .92.75 1.67 1.67 1.67h1.67c.92 0 1.67-.75 1.67-1.67v-20c-.01-6.44-5.24-11.66-11.68-11.66m-37.49 5c2.3 0 4.17 1.87 4.17 4.17s-1.87 4.17-4.17 4.17-4.17-1.87-4.17-4.17 1.87-4.17 4.17-4.17m0 13.33c5.05 0 9.16-4.11 9.16-9.16s-4.11-9.16-9.16-9.16-9.16 4.11-9.16 9.16 4.11 9.16 9.16 9.16" fill="#adccea"/></svg>