<svg enable-background="new 0 0 70 70" viewBox="0 0 70 70" xmlns="http://www.w3.org/2000/svg"><g fill="none" stroke="#adccea" stroke-miterlimit="10" stroke-width="3"><path d="m48.57 61.07c0 1.87 1.51 3.46 3.34 3.46h7.47c1.83 0 3.34-1.58 3.34-3.46v-51.47c0-1.87-1.51-3.38-3.34-3.38h-7.47c-1.83 0-3.34 1.51-3.34 3.38z"/><path d="m28.57 62.43c0 1.15 1.5 2.09 3.31 2.09h7.46c1.91 0 3.38-.94 3.38-2.09v-30.93c0-1.12-1.47-2.04-3.38-2.04h-7.46c-1.81 0-3.31.92-3.31 2.04z"/><path d="m8.02 62.61c0 .78 1.48 1.38 3.34 1.38h7.5c1.76 0 3.31-.59 3.31-1.38v-21.28c0-.77-1.55-1.41-3.31-1.41h-7.5c-1.87 0-3.34.64-3.34 1.41z"/></g></svg>