<svg fill="none" height="40" viewBox="0 0 40 40" width="40" xmlns="http://www.w3.org/2000/svg"><g stroke="#adccea" stroke-linecap="round" stroke-linejoin="round" stroke-width="2.5"><path d="m31.8833 36.1167-5.65-4.3333c-.0683-.0555-.1536-.0858-.2416-.0858s-.1734.0303-.2417.0858l-5.35 4.5833c-.0696.0599-.1583.0928-.25.0928s-.1805-.0329-.25-.0928l-6.0667-4.5833c-.0641-.0574-.1472-.0891-.2333-.0891s-.1692.0317-.2333.0891l-5.23337 4.3c-.05805.0419-.12628.0674-.19758.074-.07129.0065-.14303-.0062-.20773-.0369-.0647-.0306-.11999-.0781-.16009-.1374-.04011-.0593-.06357-.1283-.06793-.1997v-28.93334c0-.88406.35119-1.7319.97631-2.35703.62512-.62512 1.47297-.97631 2.35699-.97631h18.3334c.884 0 1.7319.35119 2.357.97631.6251.62513.9763 1.47297.9763 2.35703v28.96664c-.0008.0712-.0213.1408-.0594.2009-.0381.0602-.0922.1086-.1562.1397-.064.0312-.1355.0439-.2063.0367s-.1383-.0339-.1948-.0773z"/><path d="m11.8164 10.3668h13.3333"/><path d="m11.8164 17.0334h8.3333"/><path d="m11.8164 23.7001h15"/></g></svg>