<svg fill="none" height="40" viewBox="0 0 37 40" width="37" xmlns="http://www.w3.org/2000/svg"><g stroke="#adccea" stroke-linecap="round" stroke-width="3"><path d="m32.7255 18.2459v10.2125c0 .9503-.3775 1.8618-1.0495 2.5338s-1.5834 1.0495-2.5338 1.0495h-18.3108c-.95038 0-1.86181-.3775-2.53382-1.0495-.672-.672-1.04953-1.5835-1.04953-2.5338v-23.29169c0-.95036.37753-1.8618 1.04953-2.5338.67201-.67201 1.58344-1.04954 2.53382-1.04954h10.5708" stroke-linejoin="bevel"/><path d="m26.9733 32.9554v1.1646c0 .9503-.3776 1.8618-1.0496 2.5338s-1.5834 1.0495-2.5338 1.0495h-18.29289c-.95036 0-1.8618-.3775-2.5338-1.0495-.67201-.672-1.04954-1.5835-1.04954-2.5338v-24.95793c0-.95036.37753-1.8618 1.04954-2.5338.672-.67201 1.58344-1.04953 2.5338-1.04953h1.59458" stroke-linejoin="bevel"/><path d="m31.5774 2.03119c-.1666-.16793-.3648-.30122-.5831-.39218s-.4525-.13779-.689-.13779-.4707.04683-.6891.13779c-.2183.09096-.4164.22425-.583.39218l-10.75 10.75001-.1792 5.375c-.0028.0541.0061.1081.026.1584.02.0503.0506.0957.0897.1332.0391.0374.0858.0659.137.0836s.1055.0242.1594.019l5.375-.1792 10.75-10.75001c.31-.33455.4808-.77475.4774-1.23084-.0033-.45609-.1804-.89375-.4953-1.22374z" stroke-linejoin="round"/></g></svg>