<svg fill="none" height="40" viewBox="0 0 40 40" width="40" xmlns="http://www.w3.org/2000/svg"><path d="m6.2496 29.0167 3.9833 3.9833c.3105.3175.6812.5697 1.0905.742.4093.1722.8488.2609 1.2929.2609.444 0 .8836-.0887 1.2928-.2609.4093-.1723.7801-.4245 1.0905-.742l2.2667-2.2667c.3099-.3096.5558-.6772.7235-1.0818.1678-.4047.2541-.8385.2541-1.2765 0-.4381-.0863-.8718-.2541-1.2765-.1677-.4046-.4136-.7723-.7235-1.0818l-1.4834-1.5c2.3143-3.8619 5.5423-7.0957 9.4-9.4167l1.4834 1.5c.3095.3099.6772.5558 1.0818.7235.4047.1678.8385.2541 1.2765.2541.4381 0 .8718-.0863 1.2765-.2541.4046-.1677.7723-.4136 1.0818-.7235l2.2334-2.2167c.3099-.3096.5558-.6772.7235-1.0818.1678-.4047.2541-.8385.2541-1.2765 0-.4381-.0863-.8718-.2541-1.2765-.1677-.4046-.4136-.77227-.7235-1.08184l-3.9834-4.01667c-.2712-.273-.6285-.44373-1.0113-.48323-.3828-.03949-.7674.05469-1.0887.26656-8.5225 5.65628-15.827 12.96078-21.4833 21.48338-.21398.3194-.31096.7029-.27451 1.0856s.20409.7411.47451 1.0144z" stroke="#adccea" stroke-linecap="round" stroke-linejoin="round" stroke-width="2.5"/></svg>