<svg fill="none" height="40" viewBox="0 0 40 40" width="40" xmlns="http://www.w3.org/2000/svg"><g stroke="#adccea" stroke-linecap="round" stroke-linejoin="round" stroke-width="3"><path d="m31.3162 7.45006c-1.1181.0639-2.2396-.02583-3.3333-.26666-1.3193-.45175-2.5532-1.12222-3.65-1.98334-.9384-.66518-1.8294-1.39472-2.6667-2.18333-.355-.33157-.8226-.516-1.3083-.516-.4858 0-.9534.18443-1.3084.516-.815.76368-1.6719 1.48145-2.5666 2.15-1.1037.87245-2.3422 1.55922-3.6667 2.03333-1.2458.28148-2.5255.38251-3.80001.3-1.04357-.04321-2.08401-.14336-3.11667-.3-.25234-.03741-.50963-.02362-.75652.04055-.2469.06416-.47835.17739-.68055.33293-.20219.15553-.371.35019-.49635.57237s-.20467.46733-.23324.72082c-.08334.8-.3 2.88337-.4 5.19997-.14014 2.3146.0054 4.6377.43333 6.9167 1.20674 3.7758 3.42617 7.1481 6.41671 9.75 2.3769 2.2421 4.9544 4.2617 7.7 6.0333.7358.5053 1.6074.7757 2.5.7757.8925 0 1.7641-.2704 2.5-.7757 2.5999-1.8178 5.0319-3.8649 7.2666-6.1166 2.8155-2.6209 4.9004-5.9293 6.05-9.6"/><path d="m18.334 18.3333 4.7667 4.7667c.0296.0323.0657.0581.1058.0758.0402.0177.0836.0268.1275.0268s.0873-.0091.1274-.0268c.0402-.0177.0763-.0435.1059-.0758l13.1-13.1"/></g></svg>