<svg fill="none" height="40" viewBox="0 0 40 40" width="40" xmlns="http://www.w3.org/2000/svg"><g stroke="#adccea" stroke-linecap="round" stroke-linejoin="round" stroke-width="3"><path d="m33.334 10h-26.66668c-1.84095 0-3.33334 1.4924-3.33334 3.3333v20c0 1.841 1.49239 3.3334 3.33334 3.3334h26.66668c1.8409 0 3.3333-1.4924 3.3333-3.3334v-20c0-1.8409-1.4924-3.3333-3.3333-3.3333z"/><path d="m30.0008 9.99991v-2.23333c.0018-.51702-.1166-1.02738-.346-1.49073s-.5634-.86699-.9757-1.17902c-.4122-.31202-.8914-.52386-1.3997-.61878-.5082-.09493-1.0315-.07032-1.5286.07186l-20.95002 6.01669"/><path d="m36.668 19.3999h-6.3667c-.9636 0-1.8878.3828-2.5692 1.0642-.6813.6814-1.0641 1.6055-1.0641 2.5691.0044.9623.3886 1.8839 1.069 2.5643.6804.6805 1.602 1.0647 2.5643 1.0691h6.3667"/></g></svg>