<svg fill="none" height="32" viewBox="0 0 21 32" width="21" xmlns="http://www.w3.org/2000/svg"><path d="m7.17786 29.5345 1.08893 1.0316zm10.86754-11.4713 1.0889 1.0317zm0-4.1264 1.0889-1.0317zm-10.86754-11.47128-1.08893 1.03162zm-6.67786 2.06323v22.94245h3v-22.94245zm7.76679 26.03735 10.86751-11.4712-2.1779-2.0633-10.86747 11.4713zm10.86751-17.661-10.86751-11.4712-2.17786 2.06324 10.86747 11.47126zm0 6.1898c1.6443-1.7357 1.6443-4.4541 0-6.1898l-2.1779 2.0633c.5481.5785.5481 1.4847 0 2.0632zm-18.6343 8.3763c0 4.068 4.96907 6.048 7.76679 3.0949l-2.17786-2.0632c-.93257.9843-2.58893.3243-2.58893-1.0317zm3-22.94245c0-1.35598 1.65636-2.016 2.58893-1.03161l2.17786-2.06324c-2.79772-2.95314-7.76679-.973119-7.76679 3.09485z" fill="#6da8db"/></svg>